<svg xmlns="http://www.w3.org/2000/svg" version="1.1" width="800" height="800">
"<rect x="0.0" y="0.0" width="800.0" height="800.0" fill ="white" /><circle cx="747.807" cy="407.161" r="6.0" fill ="blue" stroke="black" stroke-width="1" />
<circle cx="266.982" cy="616.592" r="6.0" fill ="blue" stroke="black" stroke-width="1" />
<circle cx="303.826" cy="272.794" r="6.0" fill ="blue" stroke="black" stroke-width="1" />
<circle cx="575.69" cy="206.401" r="6.0" fill ="blue" stroke="black" stroke-width="1" />
<circle cx="55.8371" cy="16.2423" r="6.0" fill ="blue" stroke="black" stroke-width="1" />
<circle cx="275.938" cy="717.753" r="6.0" fill ="blue" stroke="black" stroke-width="1" />
<circle cx="750.21" cy="659.002" r="6.0" fill ="blue" stroke="black" stroke-width="1" />
<circle cx="752.826" cy="123.781" r="6.0" fill ="blue" stroke="black" stroke-width="1" />
<circle cx="16.3311" cy="466.24" r="6.0" fill ="blue" stroke="black" stroke-width="1" />
<circle cx="406.655" cy="383.472" r="6.0" fill ="blue" stroke="black" stroke-width="1" />
<circle cx="451.735" cy="244.908" r="6.0" fill ="blue" stroke="black" stroke-width="1" />
<circle cx="163.174" cy="644.424" r="6.0" fill ="blue" stroke="black" stroke-width="1" />
<circle cx="698.749" cy="384.518" r="6.0" fill ="blue" stroke="black" stroke-width="1" />
<circle cx="10.3364" cy="295.984" r="6.0" fill ="blue" stroke="black" stroke-width="1" />
<circle cx="503.164" cy="685.096" r="6.0" fill ="blue" stroke="black" stroke-width="1" />
<circle cx="231.708" cy="101.48" r="6.0" fill ="blue" stroke="black" stroke-width="1" />
<circle cx="307.446" cy="470.125" r="6.0" fill ="blue" stroke="black" stroke-width="1" />
<circle cx="473.626" cy="126.607" r="6.0" fill ="blue" stroke="black" stroke-width="1" />
<circle cx="400.546" cy="620.945" r="6.0" fill ="blue" stroke="black" stroke-width="1" />
<circle cx="106.474" cy="772.058" r="3.0" fill="red" stroke="black" stroke-width="1" />
 <line x1="106.474" y1="772.058" x2="163.174" y2="644.424" opacity="0.3" stroke="green" stroke-width="2" />
<circle cx="500.874" cy="611.496" r="3.0" fill="red" stroke="black" stroke-width="1" />
 <line x1="500.874" y1="611.496" x2="503.164" y2="685.096" opacity="0.3" stroke="green" stroke-width="2" />
<circle cx="295.8" cy="6.66006" r="3.0" fill="red" stroke="black" stroke-width="1" />
 <line x1="295.8" y1="6.66006" x2="55.8371" y2="16.2423" opacity="0.3" stroke="green" stroke-width="2" />
<circle cx="273.99" cy="677.511" r="3.0" fill="red" stroke="black" stroke-width="1" />
 <line x1="273.99" y1="677.511" x2="275.938" y2="717.753" opacity="0.3" stroke="green" stroke-width="2" />
<circle cx="787.696" cy="724.388" r="3.0" fill="red" stroke="black" stroke-width="1" />
 <line x1="787.696" y1="724.388" x2="750.21" y2="659.002" opacity="0.3" stroke="green" stroke-width="2" />
<circle cx="96.4032" cy="445.705" r="3.0" fill="red" stroke="black" stroke-width="1" />
 <line x1="96.4032" y1="445.705" x2="16.3311" y2="466.24" opacity="0.3" stroke="green" stroke-width="2" />
<circle cx="406.529" cy="164.05" r="3.0" fill="red" stroke="black" stroke-width="1" />
 <line x1="406.529" y1="164.05" x2="451.735" y2="244.908" opacity="0.3" stroke="green" stroke-width="2" />
<circle cx="576.116" cy="409.854" r="3.0" fill="red" stroke="black" stroke-width="1" />
 <line x1="576.116" y1="409.854" x2="698.749" y2="384.518" opacity="0.3" stroke="green" stroke-width="2" />
<circle cx="177.322" cy="210.346" r="3.0" fill="red" stroke="black" stroke-width="1" />
 <line x1="177.322" y1="210.346" x2="10.3364" y2="295.984" opacity="0.3" stroke="green" stroke-width="2" />
<circle cx="278.81" cy="67.9051" r="3.0" fill="red" stroke="black" stroke-width="1" />
 <line x1="278.81" y1="67.9051" x2="231.708" y2="101.48" opacity="0.3" stroke="green" stroke-width="2" />
<circle cx="785.128" cy="372.506" r="3.0" fill="red" stroke="black" stroke-width="1" />
 <line x1="785.128" y1="372.506" x2="698.749" y2="384.518" opacity="0.3" stroke="green" stroke-width="2" />
<circle cx="442.354" cy="99.6176" r="3.0" fill="red" stroke="black" stroke-width="1" />
 <line x1="442.354" y1="99.6176" x2="473.626" y2="126.607" opacity="0.3" stroke="green" stroke-width="2" />
<circle cx="346.856" cy="486.936" r="3.0" fill="red" stroke="black" stroke-width="1" />
 <line x1="346.856" y1="486.936" x2="307.446" y2="470.125" opacity="0.3" stroke="green" stroke-width="2" />
<circle cx="130.083" cy="716.386" r="3.0" fill="red" stroke="black" stroke-width="1" />
 <line x1="130.083" y1="716.386" x2="163.174" y2="644.424" opacity="0.3" stroke="green" stroke-width="2" />
<circle cx="508.917" cy="275.287" r="3.0" fill="red" stroke="black" stroke-width="1" />
 <line x1="508.917" y1="275.287" x2="451.735" y2="244.908" opacity="0.3" stroke="green" stroke-width="2" />
<circle cx="792.175" cy="605.632" r="3.0" fill="red" stroke="black" stroke-width="1" />
 <line x1="792.175" y1="605.632" x2="750.21" y2="659.002" opacity="0.3" stroke="green" stroke-width="2" />
<circle cx="312.417" cy="671.782" r="3.0" fill="red" stroke="black" stroke-width="1" />
 <line x1="312.417" y1="671.782" x2="275.938" y2="717.753" opacity="0.3" stroke="green" stroke-width="2" />
<circle cx="177.175" cy="147.489" r="3.0" fill="red" stroke="black" stroke-width="1" />
 <line x1="177.175" y1="147.489" x2="231.708" y2="101.48" opacity="0.3" stroke="green" stroke-width="2" />
<circle cx="384.022" cy="629.105" r="3.0" fill="red" stroke="black" stroke-width="1" />
 <line x1="384.022" y1="629.105" x2="400.546" y2="620.945" opacity="0.3" stroke="green" stroke-width="2" />
<circle cx="322.602" cy="506.731" r="3.0" fill="red" stroke="black" stroke-width="1" />
 <line x1="322.602" y1="506.731" x2="307.446" y2="470.125" opacity="0.3" stroke="green" stroke-width="2" />
<circle cx="87.212" cy="486.75" r="3.0" fill="red" stroke="black" stroke-width="1" />
 <line x1="87.212" y1="486.75" x2="16.3311" y2="466.24" opacity="0.3" stroke="green" stroke-width="2" />
<circle cx="97.5272" cy="3.71358" r="3.0" fill="red" stroke="black" stroke-width="1" />
 <line x1="97.5272" y1="3.71358" x2="55.8371" y2="16.2423" opacity="0.3" stroke="green" stroke-width="2" />
<circle cx="750.495" cy="342.204" r="3.0" fill="red" stroke="black" stroke-width="1" />
 <line x1="750.495" y1="342.204" x2="698.749" y2="384.518" opacity="0.3" stroke="green" stroke-width="2" />
<circle cx="213.394" cy="346.738" r="3.0" fill="red" stroke="black" stroke-width="1" />
 <line x1="213.394" y1="346.738" x2="307.446" y2="470.125" opacity="0.3" stroke="green" stroke-width="2" />
<circle cx="69.8153" cy="333.771" r="3.0" fill="red" stroke="black" stroke-width="1" />
 <line x1="69.8153" y1="333.771" x2="10.3364" y2="295.984" opacity="0.3" stroke="green" stroke-width="2" />
<circle cx="491.046" cy="316.552" r="3.0" fill="red" stroke="black" stroke-width="1" />
 <line x1="491.046" y1="316.552" x2="451.735" y2="244.908" opacity="0.3" stroke="green" stroke-width="2" />
<circle cx="623.83" cy="115.572" r="3.0" fill="red" stroke="black" stroke-width="1" />
 <line x1="623.83" y1="115.572" x2="575.69" y2="206.401" opacity="0.3" stroke="green" stroke-width="2" />
<circle cx="245.11" cy="718.675" r="3.0" fill="red" stroke="black" stroke-width="1" />
 <line x1="245.11" y1="718.675" x2="275.938" y2="717.753" opacity="0.3" stroke="green" stroke-width="2" />
<circle cx="92.152" cy="329.979" r="3.0" fill="red" stroke="black" stroke-width="1" />
 <line x1="92.152" y1="329.979" x2="10.3364" y2="295.984" opacity="0.3" stroke="green" stroke-width="2" />
<circle cx="20.3738" cy="468.466" r="3.0" fill="red" stroke="black" stroke-width="1" />
 <line x1="20.3738" y1="468.466" x2="16.3311" y2="466.24" opacity="0.3" stroke="green" stroke-width="2" />
<circle cx="256.271" cy="173.838" r="3.0" fill="red" stroke="black" stroke-width="1" />
 <line x1="256.271" y1="173.838" x2="55.8371" y2="16.2423" opacity="0.3" stroke="green" stroke-width="2" />
<circle cx="470.618" cy="439.693" r="3.0" fill="red" stroke="black" stroke-width="1" />
 <line x1="470.618" y1="439.693" x2="406.655" y2="383.472" opacity="0.3" stroke="green" stroke-width="2" />
<circle cx="258.846" cy="344.92" r="3.0" fill="red" stroke="black" stroke-width="1" />
 <line x1="258.846" y1="344.92" x2="303.826" y2="272.794" opacity="0.3" stroke="green" stroke-width="2" />
<circle cx="382.145" cy="777.322" r="3.0" fill="red" stroke="black" stroke-width="1" />
 <line x1="382.145" y1="777.322" x2="275.938" y2="717.753" opacity="0.3" stroke="green" stroke-width="2" />
<circle cx="299.031" cy="611.914" r="3.0" fill="red" stroke="black" stroke-width="1" />
 <line x1="299.031" y1="611.914" x2="266.982" y2="616.592" opacity="0.3" stroke="green" stroke-width="2" />
<circle cx="323.508" cy="410.532" r="3.0" fill="red" stroke="black" stroke-width="1" />
 <line x1="323.508" y1="410.532" x2="307.446" y2="470.125" opacity="0.3" stroke="green" stroke-width="2" />
<circle cx="792.536" cy="288.779" r="3.0" fill="red" stroke="black" stroke-width="1" />
 <line x1="792.536" y1="288.779" x2="747.807" y2="407.161" opacity="0.3" stroke="green" stroke-width="2" />
<circle cx="654.978" cy="334.356" r="3.0" fill="red" stroke="black" stroke-width="1" />
 <line x1="654.978" y1="334.356" x2="752.826" y2="123.781" opacity="0.3" stroke="green" stroke-width="2" />
<circle cx="682.823" cy="410.167" r="3.0" fill="red" stroke="black" stroke-width="1" />
 <line x1="682.823" y1="410.167" x2="747.807" y2="407.161" opacity="0.3" stroke="green" stroke-width="2" />
<circle cx="122.502" cy="147.646" r="3.0" fill="red" stroke="black" stroke-width="1" />
 <line x1="122.502" y1="147.646" x2="231.708" y2="101.48" opacity="0.3" stroke="green" stroke-width="2" />
<circle cx="317.534" cy="316.604" r="3.0" fill="red" stroke="black" stroke-width="1" />
 <line x1="317.534" y1="316.604" x2="303.826" y2="272.794" opacity="0.3" stroke="green" stroke-width="2" />
<circle cx="83.9744" cy="430.159" r="3.0" fill="red" stroke="black" stroke-width="1" />
 <line x1="83.9744" y1="430.159" x2="16.3311" y2="466.24" opacity="0.3" stroke="green" stroke-width="2" />
<circle cx="590.614" cy="385.654" r="3.0" fill="red" stroke="black" stroke-width="1" />
 <line x1="590.614" y1="385.654" x2="400.546" y2="620.945" opacity="0.3" stroke="green" stroke-width="2" />
<circle cx="12.8256" cy="221.335" r="3.0" fill="red" stroke="black" stroke-width="1" />
 <line x1="12.8256" y1="221.335" x2="10.3364" y2="295.984" opacity="0.3" stroke="green" stroke-width="2" />
<circle cx="154.569" cy="400.123" r="3.0" fill="red" stroke="black" stroke-width="1" />
 <line x1="154.569" y1="400.123" x2="10.3364" y2="295.984" opacity="0.3" stroke="green" stroke-width="2" />
<circle cx="416.545" cy="453.77" r="3.0" fill="red" stroke="black" stroke-width="1" />
 <line x1="416.545" y1="453.77" x2="406.655" y2="383.472" opacity="0.3" stroke="green" stroke-width="2" />
<circle cx="693.458" cy="198.766" r="3.0" fill="red" stroke="black" stroke-width="1" />
 <line x1="693.458" y1="198.766" x2="752.826" y2="123.781" opacity="0.3" stroke="green" stroke-width="2" />
<circle cx="537.789" cy="227.405" r="3.0" fill="red" stroke="black" stroke-width="1" />
 <line x1="537.789" y1="227.405" x2="575.69" y2="206.401" opacity="0.3" stroke="green" stroke-width="2" />
<circle cx="457.148" cy="189.681" r="3.0" fill="red" stroke="black" stroke-width="1" />
 <line x1="457.148" y1="189.681" x2="451.735" y2="244.908" opacity="0.3" stroke="green" stroke-width="2" />
<circle cx="360.114" cy="657.614" r="3.0" fill="red" stroke="black" stroke-width="1" />
 <line x1="360.114" y1="657.614" x2="400.546" y2="620.945" opacity="0.3" stroke="green" stroke-width="2" />
<circle cx="373.205" cy="733.25" r="3.0" fill="red" stroke="black" stroke-width="1" />
 <line x1="373.205" y1="733.25" x2="503.164" y2="685.096" opacity="0.3" stroke="green" stroke-width="2" />
<circle cx="289.413" cy="215.614" r="3.0" fill="red" stroke="black" stroke-width="1" />
 <line x1="289.413" y1="215.614" x2="303.826" y2="272.794" opacity="0.3" stroke="green" stroke-width="2" />
<circle cx="690.849" cy="649.033" r="3.0" fill="red" stroke="black" stroke-width="1" />
 <line x1="690.849" y1="649.033" x2="750.21" y2="659.002" opacity="0.3" stroke="green" stroke-width="2" />
<circle cx="728.282" cy="110.81" r="3.0" fill="red" stroke="black" stroke-width="1" />
 <line x1="728.282" y1="110.81" x2="752.826" y2="123.781" opacity="0.3" stroke="green" stroke-width="2" />
<circle cx="39.1199" cy="306.975" r="3.0" fill="red" stroke="black" stroke-width="1" />
 <line x1="39.1199" y1="306.975" x2="10.3364" y2="295.984" opacity="0.3" stroke="green" stroke-width="2" />
<circle cx="551.75" cy="99.8488" r="3.0" fill="red" stroke="black" stroke-width="1" />
 <line x1="551.75" y1="99.8488" x2="575.69" y2="206.401" opacity="0.3" stroke="green" stroke-width="2" />
<circle cx="228.906" cy="686.069" r="3.0" fill="red" stroke="black" stroke-width="1" />
 <line x1="228.906" y1="686.069" x2="275.938" y2="717.753" opacity="0.3" stroke="green" stroke-width="2" />
<circle cx="484.03" cy="670.772" r="3.0" fill="red" stroke="black" stroke-width="1" />
 <line x1="484.03" y1="670.772" x2="503.164" y2="685.096" opacity="0.3" stroke="green" stroke-width="2" />
<circle cx="452.529" cy="683.086" r="3.0" fill="red" stroke="black" stroke-width="1" />
 <line x1="452.529" y1="683.086" x2="266.982" y2="616.592" opacity="0.3" stroke="green" stroke-width="2" />
<circle cx="686.206" cy="186" r="3.0" fill="red" stroke="black" stroke-width="1" />
 <line x1="686.206" y1="186" x2="752.826" y2="123.781" opacity="0.3" stroke="green" stroke-width="2" />
<circle cx="595.711" cy="584.785" r="3.0" fill="red" stroke="black" stroke-width="1" />
 <line x1="595.711" y1="584.785" x2="503.164" y2="685.096" opacity="0.3" stroke="green" stroke-width="2" />
<circle cx="677.362" cy="45.1862" r="3.0" fill="red" stroke="black" stroke-width="1" />
 <line x1="677.362" y1="45.1862" x2="752.826" y2="123.781" opacity="0.3" stroke="green" stroke-width="2" />
<circle cx="571.087" cy="598.556" r="3.0" fill="red" stroke="black" stroke-width="1" />
 <line x1="571.087" y1="598.556" x2="747.807" y2="407.161" opacity="0.3" stroke="green" stroke-width="2" />
<circle cx="142.912" cy="676.413" r="3.0" fill="red" stroke="black" stroke-width="1" />
 <line x1="142.912" y1="676.413" x2="163.174" y2="644.424" opacity="0.3" stroke="green" stroke-width="2" />
<circle cx="462.332" cy="523.184" r="3.0" fill="red" stroke="black" stroke-width="1" />
 <line x1="462.332" y1="523.184" x2="400.546" y2="620.945" opacity="0.3" stroke="green" stroke-width="2" />
<circle cx="160.39" cy="102.004" r="3.0" fill="red" stroke="black" stroke-width="1" />
 <line x1="160.39" y1="102.004" x2="231.708" y2="101.48" opacity="0.3" stroke="green" stroke-width="2" />
<circle cx="186.341" cy="431.856" r="3.0" fill="red" stroke="black" stroke-width="1" />
 <line x1="186.341" y1="431.856" x2="266.982" y2="616.592" opacity="0.3" stroke="green" stroke-width="2" />
<circle cx="138.41" cy="696.362" r="3.0" fill="red" stroke="black" stroke-width="1" />
 <line x1="138.41" y1="696.362" x2="163.174" y2="644.424" opacity="0.3" stroke="green" stroke-width="2" />
<circle cx="378.358" cy="82.3712" r="3.0" fill="red" stroke="black" stroke-width="1" />
 <line x1="378.358" y1="82.3712" x2="473.626" y2="126.607" opacity="0.3" stroke="green" stroke-width="2" />
<circle cx="37.3553" cy="540.374" r="3.0" fill="red" stroke="black" stroke-width="1" />
 <line x1="37.3553" y1="540.374" x2="16.3311" y2="466.24" opacity="0.3" stroke="green" stroke-width="2" />
<circle cx="204.902" cy="355.774" r="3.0" fill="red" stroke="black" stroke-width="1" />
 <line x1="204.902" y1="355.774" x2="307.446" y2="470.125" opacity="0.3" stroke="green" stroke-width="2" />
<circle cx="56.743" cy="432.83" r="3.0" fill="red" stroke="black" stroke-width="1" />
 <line x1="56.743" y1="432.83" x2="16.3311" y2="466.24" opacity="0.3" stroke="green" stroke-width="2" />
<circle cx="565.295" cy="326.049" r="3.0" fill="red" stroke="black" stroke-width="1" />
 <line x1="565.295" y1="326.049" x2="406.655" y2="383.472" opacity="0.3" stroke="green" stroke-width="2" />
<circle cx="575.036" cy="199.548" r="3.0" fill="red" stroke="black" stroke-width="1" />
 <line x1="575.036" y1="199.548" x2="575.69" y2="206.401" opacity="0.3" stroke="green" stroke-width="2" />
<circle cx="794.822" cy="512.644" r="3.0" fill="red" stroke="black" stroke-width="1" />
 <line x1="794.822" y1="512.644" x2="747.807" y2="407.161" opacity="0.3" stroke="green" stroke-width="2" />
<circle cx="500.473" cy="795.86" r="3.0" fill="red" stroke="black" stroke-width="1" />
 <line x1="500.473" y1="795.86" x2="503.164" y2="685.096" opacity="0.3" stroke="green" stroke-width="2" />
<circle cx="215.246" cy="168.779" r="3.0" fill="red" stroke="black" stroke-width="1" />
 <line x1="215.246" y1="168.779" x2="303.826" y2="272.794" opacity="0.3" stroke="green" stroke-width="2" />
<circle cx="296.219" cy="794.572" r="3.0" fill="red" stroke="black" stroke-width="1" />
 <line x1="296.219" y1="794.572" x2="275.938" y2="717.753" opacity="0.3" stroke="green" stroke-width="2" />
<circle cx="718.65" cy="701.907" r="3.0" fill="red" stroke="black" stroke-width="1" />
 <line x1="718.65" y1="701.907" x2="750.21" y2="659.002" opacity="0.3" stroke="green" stroke-width="2" />
<circle cx="24.3112" cy="306.911" r="3.0" fill="red" stroke="black" stroke-width="1" />
 <line x1="24.3112" y1="306.911" x2="10.3364" y2="295.984" opacity="0.3" stroke="green" stroke-width="2" />
<circle cx="474.332" cy="623.265" r="3.0" fill="red" stroke="black" stroke-width="1" />
 <line x1="474.332" y1="623.265" x2="400.546" y2="620.945" opacity="0.3" stroke="green" stroke-width="2" />
<circle cx="607.923" cy="725.723" r="3.0" fill="red" stroke="black" stroke-width="1" />
 <line x1="607.923" y1="725.723" x2="750.21" y2="659.002" opacity="0.3" stroke="green" stroke-width="2" />
<circle cx="323.116" cy="402.491" r="3.0" fill="red" stroke="black" stroke-width="1" />
 <line x1="323.116" y1="402.491" x2="307.446" y2="470.125" opacity="0.3" stroke="green" stroke-width="2" />
<circle cx="161.408" cy="143.228" r="3.0" fill="red" stroke="black" stroke-width="1" />
 <line x1="161.408" y1="143.228" x2="231.708" y2="101.48" opacity="0.3" stroke="green" stroke-width="2" />
<circle cx="721.032" cy="337.464" r="3.0" fill="red" stroke="black" stroke-width="1" />
 <line x1="721.032" y1="337.464" x2="698.749" y2="384.518" opacity="0.3" stroke="green" stroke-width="2" />
<circle cx="328.184" cy="175.454" r="3.0" fill="red" stroke="black" stroke-width="1" />
 <line x1="328.184" y1="175.454" x2="303.826" y2="272.794" opacity="0.3" stroke="green" stroke-width="2" />
<circle cx="265.667" cy="632.619" r="3.0" fill="red" stroke="black" stroke-width="1" />
 <line x1="265.667" y1="632.619" x2="266.982" y2="616.592" opacity="0.3" stroke="green" stroke-width="2" />
<circle cx="788.914" cy="432.216" r="3.0" fill="red" stroke="black" stroke-width="1" />
 <line x1="788.914" y1="432.216" x2="698.749" y2="384.518" opacity="0.3" stroke="green" stroke-width="2" />
<circle cx="527.263" cy="74.5686" r="3.0" fill="red" stroke="black" stroke-width="1" />
 <line x1="527.263" y1="74.5686" x2="473.626" y2="126.607" opacity="0.3" stroke="green" stroke-width="2" />
<circle cx="475.326" cy="338.506" r="3.0" fill="red" stroke="black" stroke-width="1" />
 <line x1="475.326" y1="338.506" x2="406.655" y2="383.472" opacity="0.3" stroke="green" stroke-width="2" />
<circle cx="748.99" cy="125.063" r="3.0" fill="red" stroke="black" stroke-width="1" />
 <line x1="748.99" y1="125.063" x2="752.826" y2="123.781" opacity="0.3" stroke="green" stroke-width="2" />
<circle cx="130.742" cy="594.632" r="3.0" fill="red" stroke="black" stroke-width="1" />
 <line x1="130.742" y1="594.632" x2="163.174" y2="644.424" opacity="0.3" stroke="green" stroke-width="2" />
<circle cx="324.851" cy="303.684" r="3.0" fill="red" stroke="black" stroke-width="1" />
 <line x1="324.851" y1="303.684" x2="303.826" y2="272.794" opacity="0.3" stroke="green" stroke-width="2" />
<circle cx="774.529" cy="123.134" r="3.0" fill="red" stroke="black" stroke-width="1" />
 <line x1="774.529" y1="123.134" x2="752.826" y2="123.781" opacity="0.3" stroke="green" stroke-width="2" />
<circle cx="441.874" cy="604.165" r="3.0" fill="red" stroke="black" stroke-width="1" />
 <line x1="441.874" y1="604.165" x2="400.546" y2="620.945" opacity="0.3" stroke="green" stroke-width="2" />
<circle cx="629.619" cy="313.038" r="3.0" fill="red" stroke="black" stroke-width="1" />
 <line x1="629.619" y1="313.038" x2="698.749" y2="384.518" opacity="0.3" stroke="green" stroke-width="2" />
<circle cx="147.455" cy="45.9527" r="3.0" fill="red" stroke="black" stroke-width="1" />
 <line x1="147.455" y1="45.9527" x2="55.8371" y2="16.2423" opacity="0.3" stroke="green" stroke-width="2" />
<circle cx="106.437" cy="528.251" r="3.0" fill="red" stroke="black" stroke-width="1" />
 <line x1="106.437" y1="528.251" x2="231.708" y2="101.48" opacity="0.3" stroke="green" stroke-width="2" />
<circle cx="390.606" cy="128.915" r="3.0" fill="red" stroke="black" stroke-width="1" />
 <line x1="390.606" y1="128.915" x2="473.626" y2="126.607" opacity="0.3" stroke="green" stroke-width="2" />
<circle cx="317.362" cy="220.195" r="3.0" fill="red" stroke="black" stroke-width="1" />
 <line x1="317.362" y1="220.195" x2="303.826" y2="272.794" opacity="0.3" stroke="green" stroke-width="2" />
<circle cx="359.327" cy="458.96" r="3.0" fill="red" stroke="black" stroke-width="1" />
 <line x1="359.327" y1="458.96" x2="307.446" y2="470.125" opacity="0.3" stroke="green" stroke-width="2" />
<circle cx="470.597" cy="251.066" r="3.0" fill="red" stroke="black" stroke-width="1" />
 <line x1="470.597" y1="251.066" x2="451.735" y2="244.908" opacity="0.3" stroke="green" stroke-width="2" />
<circle cx="134.658" cy="560.325" r="3.0" fill="red" stroke="black" stroke-width="1" />
 <line x1="134.658" y1="560.325" x2="163.174" y2="644.424" opacity="0.3" stroke="green" stroke-width="2" />
<circle cx="200.932" cy="274.653" r="3.0" fill="red" stroke="black" stroke-width="1" />
 <line x1="200.932" y1="274.653" x2="303.826" y2="272.794" opacity="0.3" stroke="green" stroke-width="2" />
<circle cx="547.813" cy="188.178" r="3.0" fill="red" stroke="black" stroke-width="1" />
 <line x1="547.813" y1="188.178" x2="575.69" y2="206.401" opacity="0.3" stroke="green" stroke-width="2" />
<circle cx="635.053" cy="256.164" r="3.0" fill="red" stroke="black" stroke-width="1" />
 <line x1="635.053" y1="256.164" x2="575.69" y2="206.401" opacity="0.3" stroke="green" stroke-width="2" />
<circle cx="114.619" cy="17.7341" r="3.0" fill="red" stroke="black" stroke-width="1" />
 <line x1="114.619" y1="17.7341" x2="55.8371" y2="16.2423" opacity="0.3" stroke="green" stroke-width="2" />
<circle cx="384.946" cy="460.137" r="3.0" fill="red" stroke="black" stroke-width="1" />
 <line x1="384.946" y1="460.137" x2="307.446" y2="470.125" opacity="0.3" stroke="green" stroke-width="2" />
<circle cx="164.494" cy="582.377" r="3.0" fill="red" stroke="black" stroke-width="1" />
 <line x1="164.494" y1="582.377" x2="266.982" y2="616.592" opacity="0.3" stroke="green" stroke-width="2" />
<circle cx="570.442" cy="380.738" r="3.0" fill="red" stroke="black" stroke-width="1" />
 <line x1="570.442" y1="380.738" x2="698.749" y2="384.518" opacity="0.3" stroke="green" stroke-width="2" />
<circle cx="218.462" cy="30.2952" r="3.0" fill="red" stroke="black" stroke-width="1" />
 <line x1="218.462" y1="30.2952" x2="473.626" y2="126.607" opacity="0.3" stroke="green" stroke-width="2" />
<circle cx="192.758" cy="255.485" r="3.0" fill="red" stroke="black" stroke-width="1" />
 <line x1="192.758" y1="255.485" x2="303.826" y2="272.794" opacity="0.3" stroke="green" stroke-width="2" />
<circle cx="773.969" cy="464.443" r="3.0" fill="red" stroke="black" stroke-width="1" />
 <line x1="773.969" y1="464.443" x2="750.21" y2="659.002" opacity="0.3" stroke="green" stroke-width="2" />
<circle cx="362.398" cy="292.477" r="3.0" fill="red" stroke="black" stroke-width="1" />
 <line x1="362.398" y1="292.477" x2="303.826" y2="272.794" opacity="0.3" stroke="green" stroke-width="2" />
</svg>
