<svg xmlns="http://www.w3.org/2000/svg" version="1.1" width="800" height="800">
"<rect x="0.0" y="0.0" width="800.0" height="800.0" fill ="white" /><circle cx="295.943" cy="185.076" r="6.0" fill ="blue" stroke="black" stroke-width="1" />
<circle cx="7.40503" cy="675.182" r="6.0" fill ="blue" stroke="black" stroke-width="1" />
<circle cx="195.866" cy="357.49" r="6.0" fill ="blue" stroke="black" stroke-width="1" />
<circle cx="451.768" cy="381.414" r="6.0" fill ="blue" stroke="black" stroke-width="1" />
<circle cx="18.8698" cy="369.322" r="6.0" fill ="blue" stroke="black" stroke-width="1" />
<circle cx="400.262" cy="522.491" r="6.0" fill ="blue" stroke="black" stroke-width="1" />
<circle cx="754.863" cy="97.3288" r="6.0" fill ="blue" stroke="black" stroke-width="1" />
<circle cx="479.154" cy="63.7766" r="6.0" fill ="blue" stroke="black" stroke-width="1" />
<circle cx="84.4552" cy="591.721" r="6.0" fill ="blue" stroke="black" stroke-width="1" />
<circle cx="160.404" cy="51.8569" r="6.0" fill ="blue" stroke="black" stroke-width="1" />
<circle cx="729.473" cy="203.182" r="6.0" fill ="blue" stroke="black" stroke-width="1" />
<circle cx="378.918" cy="703.253" r="6.0" fill ="blue" stroke="black" stroke-width="1" />
<circle cx="670.638" cy="84.7416" r="6.0" fill ="blue" stroke="black" stroke-width="1" />
<circle cx="665.028" cy="677.858" r="6.0" fill ="blue" stroke="black" stroke-width="1" />
<circle cx="419.127" cy="287.118" r="6.0" fill ="blue" stroke="black" stroke-width="1" />
<circle cx="275.287" cy="274.178" r="6.0" fill ="blue" stroke="black" stroke-width="1" />
<circle cx="451.061" cy="30.2945" r="6.0" fill ="blue" stroke="black" stroke-width="1" />
<circle cx="789.131" cy="547.954" r="6.0" fill ="blue" stroke="black" stroke-width="1" />
<circle cx="338.242" cy="302.93" r="6.0" fill ="blue" stroke="black" stroke-width="1" />
<circle cx="749.91" cy="734.767" r="6.0" fill ="blue" stroke="black" stroke-width="1" />
<circle cx="422.694" cy="732.459" r="6.0" fill ="blue" stroke="black" stroke-width="1" />
<circle cx="164.334" cy="260.133" r="6.0" fill ="blue" stroke="black" stroke-width="1" />
<circle cx="389.161" cy="460.542" r="6.0" fill ="blue" stroke="black" stroke-width="1" />
<circle cx="608.278" cy="391.771" r="6.0" fill ="blue" stroke="black" stroke-width="1" />
<circle cx="128.876" cy="703.042" r="6.0" fill ="blue" stroke="black" stroke-width="1" />
<circle cx="619.022" cy="512.472" r="6.0" fill ="blue" stroke="black" stroke-width="1" />
<circle cx="160.173" cy="476.509" r="6.0" fill ="blue" stroke="black" stroke-width="1" />
<circle cx="529.946" cy="581.567" r="6.0" fill ="blue" stroke="black" stroke-width="1" />
<circle cx="626.597" cy="697.629" r="6.0" fill ="blue" stroke="black" stroke-width="1" />
<circle cx="73.8403" cy="537.573" r="3.0" fill="red" stroke="black" stroke-width="1" />
 <line x1="73.8403" y1="537.573" x2="84.4552" y2="591.721" opacity="0.3" stroke="green" stroke-width="2" />
<circle cx="307.26" cy="140.322" r="3.0" fill="red" stroke="black" stroke-width="1" />
 <line x1="307.26" y1="140.322" x2="275.287" y2="274.178" opacity="0.3" stroke="green" stroke-width="2" />
<circle cx="370.328" cy="10.7885" r="3.0" fill="red" stroke="black" stroke-width="1" />
 <line x1="370.328" y1="10.7885" x2="451.061" y2="30.2945" opacity="0.3" stroke="green" stroke-width="2" />
<circle cx="311.239" cy="397.924" r="3.0" fill="red" stroke="black" stroke-width="1" />
 <line x1="311.239" y1="397.924" x2="389.161" y2="460.542" opacity="0.3" stroke="green" stroke-width="2" />
<circle cx="648.744" cy="277.154" r="3.0" fill="red" stroke="black" stroke-width="1" />
 <line x1="648.744" y1="277.154" x2="608.278" y2="391.771" opacity="0.3" stroke="green" stroke-width="2" />
<circle cx="148.066" cy="756.454" r="3.0" fill="red" stroke="black" stroke-width="1" />
 <line x1="148.066" y1="756.454" x2="128.876" y2="703.042" opacity="0.3" stroke="green" stroke-width="2" />
<circle cx="237.868" cy="36.6373" r="3.0" fill="red" stroke="black" stroke-width="1" />
 <line x1="237.868" y1="36.6373" x2="160.404" y2="51.8569" opacity="0.3" stroke="green" stroke-width="2" />
<circle cx="622.118" cy="471.348" r="3.0" fill="red" stroke="black" stroke-width="1" />
 <line x1="622.118" y1="471.348" x2="619.022" y2="512.472" opacity="0.3" stroke="green" stroke-width="2" />
<circle cx="119.353" cy="517.969" r="3.0" fill="red" stroke="black" stroke-width="1" />
 <line x1="119.353" y1="517.969" x2="160.173" y2="476.509" opacity="0.3" stroke="green" stroke-width="2" />
<circle cx="171.126" cy="91.8672" r="3.0" fill="red" stroke="black" stroke-width="1" />
 <line x1="171.126" y1="91.8672" x2="160.404" y2="51.8569" opacity="0.3" stroke="green" stroke-width="2" />
<circle cx="634.957" cy="795.579" r="3.0" fill="red" stroke="black" stroke-width="1" />
 <line x1="634.957" y1="795.579" x2="626.597" y2="697.629" opacity="0.3" stroke="green" stroke-width="2" />
<circle cx="691.958" cy="309.834" r="3.0" fill="red" stroke="black" stroke-width="1" />
 <line x1="691.958" y1="309.834" x2="608.278" y2="391.771" opacity="0.3" stroke="green" stroke-width="2" />
<circle cx="448.461" cy="781.148" r="3.0" fill="red" stroke="black" stroke-width="1" />
 <line x1="448.461" y1="781.148" x2="749.91" y2="734.767" opacity="0.3" stroke="green" stroke-width="2" />
<circle cx="631.206" cy="67.0837" r="3.0" fill="red" stroke="black" stroke-width="1" />
 <line x1="631.206" y1="67.0837" x2="670.638" y2="84.7416" opacity="0.3" stroke="green" stroke-width="2" />
<circle cx="12.7972" cy="56.6929" r="3.0" fill="red" stroke="black" stroke-width="1" />
 <line x1="12.7972" y1="56.6929" x2="164.334" y2="260.133" opacity="0.3" stroke="green" stroke-width="2" />
<circle cx="551.143" cy="208.069" r="3.0" fill="red" stroke="black" stroke-width="1" />
 <line x1="551.143" y1="208.069" x2="419.127" y2="287.118" opacity="0.3" stroke="green" stroke-width="2" />
<circle cx="462.531" cy="92.2" r="3.0" fill="red" stroke="black" stroke-width="1" />
 <line x1="462.531" y1="92.2" x2="479.154" y2="63.7766" opacity="0.3" stroke="green" stroke-width="2" />
<circle cx="333.532" cy="693.117" r="3.0" fill="red" stroke="black" stroke-width="1" />
 <line x1="333.532" y1="693.117" x2="378.918" y2="703.253" opacity="0.3" stroke="green" stroke-width="2" />
<circle cx="780.478" cy="177.647" r="3.0" fill="red" stroke="black" stroke-width="1" />
 <line x1="780.478" y1="177.647" x2="754.863" y2="97.3288" opacity="0.3" stroke="green" stroke-width="2" />
<circle cx="479.746" cy="437.65" r="3.0" fill="red" stroke="black" stroke-width="1" />
 <line x1="479.746" y1="437.65" x2="400.262" y2="522.491" opacity="0.3" stroke="green" stroke-width="2" />
<circle cx="566.973" cy="204.948" r="3.0" fill="red" stroke="black" stroke-width="1" />
 <line x1="566.973" y1="204.948" x2="670.638" y2="84.7416" opacity="0.3" stroke="green" stroke-width="2" />
<circle cx="220.362" cy="525.501" r="3.0" fill="red" stroke="black" stroke-width="1" />
 <line x1="220.362" y1="525.501" x2="160.173" y2="476.509" opacity="0.3" stroke="green" stroke-width="2" />
<circle cx="532.815" cy="1.57818" r="3.0" fill="red" stroke="black" stroke-width="1" />
 <line x1="532.815" y1="1.57818" x2="479.154" y2="63.7766" opacity="0.3" stroke="green" stroke-width="2" />
<circle cx="650.44" cy="139.737" r="3.0" fill="red" stroke="black" stroke-width="1" />
 <line x1="650.44" y1="139.737" x2="754.863" y2="97.3288" opacity="0.3" stroke="green" stroke-width="2" />
<circle cx="342.113" cy="637.145" r="3.0" fill="red" stroke="black" stroke-width="1" />
 <line x1="342.113" y1="637.145" x2="400.262" y2="522.491" opacity="0.3" stroke="green" stroke-width="2" />
<circle cx="322.382" cy="440.204" r="3.0" fill="red" stroke="black" stroke-width="1" />
 <line x1="322.382" y1="440.204" x2="529.946" y2="581.567" opacity="0.3" stroke="green" stroke-width="2" />
<circle cx="530.606" cy="661.118" r="3.0" fill="red" stroke="black" stroke-width="1" />
 <line x1="530.606" y1="661.118" x2="529.946" y2="581.567" opacity="0.3" stroke="green" stroke-width="2" />
<circle cx="736.292" cy="178.209" r="3.0" fill="red" stroke="black" stroke-width="1" />
 <line x1="736.292" y1="178.209" x2="729.473" y2="203.182" opacity="0.3" stroke="green" stroke-width="2" />
<circle cx="572.62" cy="417.929" r="3.0" fill="red" stroke="black" stroke-width="1" />
 <line x1="572.62" y1="417.929" x2="608.278" y2="391.771" opacity="0.3" stroke="green" stroke-width="2" />
<circle cx="276.491" cy="669.621" r="3.0" fill="red" stroke="black" stroke-width="1" />
 <line x1="276.491" y1="669.621" x2="378.918" y2="703.253" opacity="0.3" stroke="green" stroke-width="2" />
<circle cx="4.24667" cy="172.896" r="3.0" fill="red" stroke="black" stroke-width="1" />
 <line x1="4.24667" y1="172.896" x2="160.404" y2="51.8569" opacity="0.3" stroke="green" stroke-width="2" />
<circle cx="626.31" cy="314.026" r="3.0" fill="red" stroke="black" stroke-width="1" />
 <line x1="626.31" y1="314.026" x2="451.768" y2="381.414" opacity="0.3" stroke="green" stroke-width="2" />
<circle cx="381.494" cy="11.133" r="3.0" fill="red" stroke="black" stroke-width="1" />
 <line x1="381.494" y1="11.133" x2="451.061" y2="30.2945" opacity="0.3" stroke="green" stroke-width="2" />
<circle cx="122.828" cy="496.424" r="3.0" fill="red" stroke="black" stroke-width="1" />
 <line x1="122.828" y1="496.424" x2="160.173" y2="476.509" opacity="0.3" stroke="green" stroke-width="2" />
<circle cx="449.337" cy="61.6479" r="3.0" fill="red" stroke="black" stroke-width="1" />
 <line x1="449.337" y1="61.6479" x2="451.061" y2="30.2945" opacity="0.3" stroke="green" stroke-width="2" />
<circle cx="50.3263" cy="28.0475" r="3.0" fill="red" stroke="black" stroke-width="1" />
 <line x1="50.3263" y1="28.0475" x2="338.242" y2="302.93" opacity="0.3" stroke="green" stroke-width="2" />
<circle cx="727.025" cy="413.11" r="3.0" fill="red" stroke="black" stroke-width="1" />
 <line x1="727.025" y1="413.11" x2="749.91" y2="734.767" opacity="0.3" stroke="green" stroke-width="2" />
<circle cx="211.24" cy="287.998" r="3.0" fill="red" stroke="black" stroke-width="1" />
 <line x1="211.24" y1="287.998" x2="275.287" y2="274.178" opacity="0.3" stroke="green" stroke-width="2" />
<circle cx="675.306" cy="19.5469" r="3.0" fill="red" stroke="black" stroke-width="1" />
 <line x1="675.306" y1="19.5469" x2="479.154" y2="63.7766" opacity="0.3" stroke="green" stroke-width="2" />
<circle cx="552.994" cy="192.059" r="3.0" fill="red" stroke="black" stroke-width="1" />
 <line x1="552.994" y1="192.059" x2="670.638" y2="84.7416" opacity="0.3" stroke="green" stroke-width="2" />
<circle cx="639.728" cy="383.954" r="3.0" fill="red" stroke="black" stroke-width="1" />
 <line x1="639.728" y1="383.954" x2="608.278" y2="391.771" opacity="0.3" stroke="green" stroke-width="2" />
<circle cx="475.891" cy="380.578" r="3.0" fill="red" stroke="black" stroke-width="1" />
 <line x1="475.891" y1="380.578" x2="529.946" y2="581.567" opacity="0.3" stroke="green" stroke-width="2" />
<circle cx="84.528" cy="139.313" r="3.0" fill="red" stroke="black" stroke-width="1" />
 <line x1="84.528" y1="139.313" x2="160.404" y2="51.8569" opacity="0.3" stroke="green" stroke-width="2" />
<circle cx="780.73" cy="605.336" r="3.0" fill="red" stroke="black" stroke-width="1" />
 <line x1="780.73" y1="605.336" x2="665.028" y2="677.858" opacity="0.3" stroke="green" stroke-width="2" />
<circle cx="324.45" cy="206.267" r="3.0" fill="red" stroke="black" stroke-width="1" />
 <line x1="324.45" y1="206.267" x2="275.287" y2="274.178" opacity="0.3" stroke="green" stroke-width="2" />
<circle cx="334.073" cy="724.514" r="3.0" fill="red" stroke="black" stroke-width="1" />
 <line x1="334.073" y1="724.514" x2="378.918" y2="703.253" opacity="0.3" stroke="green" stroke-width="2" />
<circle cx="528.237" cy="29.3108" r="3.0" fill="red" stroke="black" stroke-width="1" />
 <line x1="528.237" y1="29.3108" x2="451.061" y2="30.2945" opacity="0.3" stroke="green" stroke-width="2" />
<circle cx="94.9256" cy="343.182" r="3.0" fill="red" stroke="black" stroke-width="1" />
 <line x1="94.9256" y1="343.182" x2="195.866" y2="357.49" opacity="0.3" stroke="green" stroke-width="2" />
<circle cx="150.123" cy="310.476" r="3.0" fill="red" stroke="black" stroke-width="1" />
 <line x1="150.123" y1="310.476" x2="164.334" y2="260.133" opacity="0.3" stroke="green" stroke-width="2" />
<circle cx="317.745" cy="389.755" r="3.0" fill="red" stroke="black" stroke-width="1" />
 <line x1="317.745" y1="389.755" x2="389.161" y2="460.542" opacity="0.3" stroke="green" stroke-width="2" />
<circle cx="507.13" cy="347.882" r="3.0" fill="red" stroke="black" stroke-width="1" />
 <line x1="507.13" y1="347.882" x2="451.768" y2="381.414" opacity="0.3" stroke="green" stroke-width="2" />
<circle cx="277.358" cy="54.6872" r="3.0" fill="red" stroke="black" stroke-width="1" />
 <line x1="277.358" y1="54.6872" x2="160.404" y2="51.8569" opacity="0.3" stroke="green" stroke-width="2" />
<circle cx="498.795" cy="0.659852" r="3.0" fill="red" stroke="black" stroke-width="1" />
 <line x1="498.795" y1="0.659852" x2="451.061" y2="30.2945" opacity="0.3" stroke="green" stroke-width="2" />
<circle cx="76.8484" cy="660.098" r="3.0" fill="red" stroke="black" stroke-width="1" />
 <line x1="76.8484" y1="660.098" x2="7.40503" y2="675.182" opacity="0.3" stroke="green" stroke-width="2" />
<circle cx="268.244" cy="782.264" r="3.0" fill="red" stroke="black" stroke-width="1" />
 <line x1="268.244" y1="782.264" x2="378.918" y2="703.253" opacity="0.3" stroke="green" stroke-width="2" />
<circle cx="377.654" cy="246.805" r="3.0" fill="red" stroke="black" stroke-width="1" />
 <line x1="377.654" y1="246.805" x2="419.127" y2="287.118" opacity="0.3" stroke="green" stroke-width="2" />
<circle cx="335.551" cy="399.602" r="3.0" fill="red" stroke="black" stroke-width="1" />
 <line x1="335.551" y1="399.602" x2="389.161" y2="460.542" opacity="0.3" stroke="green" stroke-width="2" />
<circle cx="480.539" cy="441.041" r="3.0" fill="red" stroke="black" stroke-width="1" />
 <line x1="480.539" y1="441.041" x2="400.262" y2="522.491" opacity="0.3" stroke="green" stroke-width="2" />
<circle cx="622.487" cy="147.442" r="3.0" fill="red" stroke="black" stroke-width="1" />
 <line x1="622.487" y1="147.442" x2="479.154" y2="63.7766" opacity="0.3" stroke="green" stroke-width="2" />
<circle cx="780.413" cy="624.939" r="3.0" fill="red" stroke="black" stroke-width="1" />
 <line x1="780.413" y1="624.939" x2="749.91" y2="734.767" opacity="0.3" stroke="green" stroke-width="2" />
<circle cx="571.21" cy="674.81" r="3.0" fill="red" stroke="black" stroke-width="1" />
 <line x1="571.21" y1="674.81" x2="626.597" y2="697.629" opacity="0.3" stroke="green" stroke-width="2" />
<circle cx="336.186" cy="791.064" r="3.0" fill="red" stroke="black" stroke-width="1" />
 <line x1="336.186" y1="791.064" x2="378.918" y2="703.253" opacity="0.3" stroke="green" stroke-width="2" />
<circle cx="398.466" cy="387.051" r="3.0" fill="red" stroke="black" stroke-width="1" />
 <line x1="398.466" y1="387.051" x2="451.768" y2="381.414" opacity="0.3" stroke="green" stroke-width="2" />
<circle cx="366.843" cy="795.834" r="3.0" fill="red" stroke="black" stroke-width="1" />
 <line x1="366.843" y1="795.834" x2="422.694" y2="732.459" opacity="0.3" stroke="green" stroke-width="2" />
<circle cx="771.23" cy="228.626" r="3.0" fill="red" stroke="black" stroke-width="1" />
 <line x1="771.23" y1="228.626" x2="729.473" y2="203.182" opacity="0.3" stroke="green" stroke-width="2" />
<circle cx="630.009" cy="95.7936" r="3.0" fill="red" stroke="black" stroke-width="1" />
 <line x1="630.009" y1="95.7936" x2="670.638" y2="84.7416" opacity="0.3" stroke="green" stroke-width="2" />
<circle cx="254.251" cy="402.273" r="3.0" fill="red" stroke="black" stroke-width="1" />
 <line x1="254.251" y1="402.273" x2="195.866" y2="357.49" opacity="0.3" stroke="green" stroke-width="2" />
<circle cx="103.247" cy="771.277" r="3.0" fill="red" stroke="black" stroke-width="1" />
 <line x1="103.247" y1="771.277" x2="128.876" y2="703.042" opacity="0.3" stroke="green" stroke-width="2" />
<circle cx="389.024" cy="291.615" r="3.0" fill="red" stroke="black" stroke-width="1" />
 <line x1="389.024" y1="291.615" x2="419.127" y2="287.118" opacity="0.3" stroke="green" stroke-width="2" />
<circle cx="657.866" cy="377.151" r="3.0" fill="red" stroke="black" stroke-width="1" />
 <line x1="657.866" y1="377.151" x2="608.278" y2="391.771" opacity="0.3" stroke="green" stroke-width="2" />
<circle cx="457.713" cy="618.322" r="3.0" fill="red" stroke="black" stroke-width="1" />
 <line x1="457.713" y1="618.322" x2="529.946" y2="581.567" opacity="0.3" stroke="green" stroke-width="2" />
<circle cx="64.5593" cy="260.646" r="3.0" fill="red" stroke="black" stroke-width="1" />
 <line x1="64.5593" y1="260.646" x2="529.946" y2="581.567" opacity="0.3" stroke="green" stroke-width="2" />
<circle cx="527.992" cy="720.81" r="3.0" fill="red" stroke="black" stroke-width="1" />
 <line x1="527.992" y1="720.81" x2="626.597" y2="697.629" opacity="0.3" stroke="green" stroke-width="2" />
<circle cx="345.517" cy="634.078" r="3.0" fill="red" stroke="black" stroke-width="1" />
 <line x1="345.517" y1="634.078" x2="378.918" y2="703.253" opacity="0.3" stroke="green" stroke-width="2" />
<circle cx="209.908" cy="434.99" r="3.0" fill="red" stroke="black" stroke-width="1" />
 <line x1="209.908" y1="434.99" x2="195.866" y2="357.49" opacity="0.3" stroke="green" stroke-width="2" />
<circle cx="287.099" cy="64.6743" r="3.0" fill="red" stroke="black" stroke-width="1" />
 <line x1="287.099" y1="64.6743" x2="160.404" y2="51.8569" opacity="0.3" stroke="green" stroke-width="2" />
<circle cx="525.886" cy="734.794" r="3.0" fill="red" stroke="black" stroke-width="1" />
 <line x1="525.886" y1="734.794" x2="626.597" y2="697.629" opacity="0.3" stroke="green" stroke-width="2" />
<circle cx="2.74408" cy="533.325" r="3.0" fill="red" stroke="black" stroke-width="1" />
 <line x1="2.74408" y1="533.325" x2="84.4552" y2="591.721" opacity="0.3" stroke="green" stroke-width="2" />
<circle cx="700.802" cy="532.596" r="3.0" fill="red" stroke="black" stroke-width="1" />
 <line x1="700.802" y1="532.596" x2="749.91" y2="734.767" opacity="0.3" stroke="green" stroke-width="2" />
<circle cx="304.901" cy="734.218" r="3.0" fill="red" stroke="black" stroke-width="1" />
 <line x1="304.901" y1="734.218" x2="422.694" y2="732.459" opacity="0.3" stroke="green" stroke-width="2" />
<circle cx="29.6497" cy="565.636" r="3.0" fill="red" stroke="black" stroke-width="1" />
 <line x1="29.6497" y1="565.636" x2="84.4552" y2="591.721" opacity="0.3" stroke="green" stroke-width="2" />
<circle cx="506.321" cy="696.816" r="3.0" fill="red" stroke="black" stroke-width="1" />
 <line x1="506.321" y1="696.816" x2="422.694" y2="732.459" opacity="0.3" stroke="green" stroke-width="2" />
<circle cx="510.122" cy="217.187" r="3.0" fill="red" stroke="black" stroke-width="1" />
 <line x1="510.122" y1="217.187" x2="338.242" y2="302.93" opacity="0.3" stroke="green" stroke-width="2" />
<circle cx="387.858" cy="565.278" r="3.0" fill="red" stroke="black" stroke-width="1" />
 <line x1="387.858" y1="565.278" x2="400.262" y2="522.491" opacity="0.3" stroke="green" stroke-width="2" />
<circle cx="503.676" cy="152.87" r="3.0" fill="red" stroke="black" stroke-width="1" />
 <line x1="503.676" y1="152.87" x2="419.127" y2="287.118" opacity="0.3" stroke="green" stroke-width="2" />
<circle cx="778.059" cy="112.904" r="3.0" fill="red" stroke="black" stroke-width="1" />
 <line x1="778.059" y1="112.904" x2="754.863" y2="97.3288" opacity="0.3" stroke="green" stroke-width="2" />
<circle cx="638.819" cy="419.948" r="3.0" fill="red" stroke="black" stroke-width="1" />
 <line x1="638.819" y1="419.948" x2="608.278" y2="391.771" opacity="0.3" stroke="green" stroke-width="2" />
<circle cx="94.2056" cy="465.038" r="3.0" fill="red" stroke="black" stroke-width="1" />
 <line x1="94.2056" y1="465.038" x2="160.173" y2="476.509" opacity="0.3" stroke="green" stroke-width="2" />
<circle cx="116.566" cy="690.803" r="3.0" fill="red" stroke="black" stroke-width="1" />
 <line x1="116.566" y1="690.803" x2="128.876" y2="703.042" opacity="0.3" stroke="green" stroke-width="2" />
<circle cx="483.629" cy="369.126" r="3.0" fill="red" stroke="black" stroke-width="1" />
 <line x1="483.629" y1="369.126" x2="451.768" y2="381.414" opacity="0.3" stroke="green" stroke-width="2" />
<circle cx="416.79" cy="211.629" r="3.0" fill="red" stroke="black" stroke-width="1" />
 <line x1="416.79" y1="211.629" x2="419.127" y2="287.118" opacity="0.3" stroke="green" stroke-width="2" />
<circle cx="646.844" cy="371.506" r="3.0" fill="red" stroke="black" stroke-width="1" />
 <line x1="646.844" y1="371.506" x2="619.022" y2="512.472" opacity="0.3" stroke="green" stroke-width="2" />
<circle cx="687.798" cy="403.473" r="3.0" fill="red" stroke="black" stroke-width="1" />
 <line x1="687.798" y1="403.473" x2="619.022" y2="512.472" opacity="0.3" stroke="green" stroke-width="2" />
<circle cx="762.661" cy="99.308" r="3.0" fill="red" stroke="black" stroke-width="1" />
 <line x1="762.661" y1="99.308" x2="754.863" y2="97.3288" opacity="0.3" stroke="green" stroke-width="2" />
<circle cx="591.959" cy="297.554" r="3.0" fill="red" stroke="black" stroke-width="1" />
 <line x1="591.959" y1="297.554" x2="665.028" y2="677.858" opacity="0.3" stroke="green" stroke-width="2" />
<circle cx="400.463" cy="343.479" r="3.0" fill="red" stroke="black" stroke-width="1" />
 <line x1="400.463" y1="343.479" x2="338.242" y2="302.93" opacity="0.3" stroke="green" stroke-width="2" />
<circle cx="738.52" cy="295.674" r="3.0" fill="red" stroke="black" stroke-width="1" />
 <line x1="738.52" y1="295.674" x2="789.131" y2="547.954" opacity="0.3" stroke="green" stroke-width="2" />
<circle cx="5.32048" cy="666.861" r="3.0" fill="red" stroke="black" stroke-width="1" />
 <line x1="5.32048" y1="666.861" x2="7.40503" y2="675.182" opacity="0.3" stroke="green" stroke-width="2" />
<circle cx="676.242" cy="11.6745" r="3.0" fill="red" stroke="black" stroke-width="1" />
 <line x1="676.242" y1="11.6745" x2="670.638" y2="84.7416" opacity="0.3" stroke="green" stroke-width="2" />
<circle cx="687.417" cy="498.252" r="3.0" fill="red" stroke="black" stroke-width="1" />
 <line x1="687.417" y1="498.252" x2="619.022" y2="512.472" opacity="0.3" stroke="green" stroke-width="2" />
<circle cx="779.459" cy="589.081" r="3.0" fill="red" stroke="black" stroke-width="1" />
 <line x1="779.459" y1="589.081" x2="789.131" y2="547.954" opacity="0.3" stroke="green" stroke-width="2" />
<circle cx="380.306" cy="171.232" r="3.0" fill="red" stroke="black" stroke-width="1" />
 <line x1="380.306" y1="171.232" x2="295.943" y2="185.076" opacity="0.3" stroke="green" stroke-width="2" />
<circle cx="249.478" cy="251.519" r="3.0" fill="red" stroke="black" stroke-width="1" />
 <line x1="249.478" y1="251.519" x2="275.287" y2="274.178" opacity="0.3" stroke="green" stroke-width="2" />
<circle cx="138.066" cy="613.551" r="3.0" fill="red" stroke="black" stroke-width="1" />
 <line x1="138.066" y1="613.551" x2="128.876" y2="703.042" opacity="0.3" stroke="green" stroke-width="2" />
<circle cx="5.64492" cy="523.86" r="3.0" fill="red" stroke="black" stroke-width="1" />
 <line x1="5.64492" y1="523.86" x2="18.8698" y2="369.322" opacity="0.3" stroke="green" stroke-width="2" />
<circle cx="137.926" cy="158.978" r="3.0" fill="red" stroke="black" stroke-width="1" />
 <line x1="137.926" y1="158.978" x2="789.131" y2="547.954" opacity="0.3" stroke="green" stroke-width="2" />
<circle cx="141.826" cy="461.494" r="3.0" fill="red" stroke="black" stroke-width="1" />
 <line x1="141.826" y1="461.494" x2="160.173" y2="476.509" opacity="0.3" stroke="green" stroke-width="2" />
<circle cx="338.886" cy="427.814" r="3.0" fill="red" stroke="black" stroke-width="1" />
 <line x1="338.886" y1="427.814" x2="389.161" y2="460.542" opacity="0.3" stroke="green" stroke-width="2" />
<circle cx="713.401" cy="290.348" r="3.0" fill="red" stroke="black" stroke-width="1" />
 <line x1="713.401" y1="290.348" x2="789.131" y2="547.954" opacity="0.3" stroke="green" stroke-width="2" />
<circle cx="64.7787" cy="359.438" r="3.0" fill="red" stroke="black" stroke-width="1" />
 <line x1="64.7787" y1="359.438" x2="18.8698" y2="369.322" opacity="0.3" stroke="green" stroke-width="2" />
<circle cx="65.3461" cy="510.726" r="3.0" fill="red" stroke="black" stroke-width="1" />
 <line x1="65.3461" y1="510.726" x2="160.173" y2="476.509" opacity="0.3" stroke="green" stroke-width="2" />
<circle cx="692.591" cy="542.049" r="3.0" fill="red" stroke="black" stroke-width="1" />
 <line x1="692.591" y1="542.049" x2="789.131" y2="547.954" opacity="0.3" stroke="green" stroke-width="2" />
<circle cx="339.114" cy="125.71" r="3.0" fill="red" stroke="black" stroke-width="1" />
 <line x1="339.114" y1="125.71" x2="295.943" y2="185.076" opacity="0.3" stroke="green" stroke-width="2" />
<circle cx="62.8942" cy="767.412" r="3.0" fill="red" stroke="black" stroke-width="1" />
 <line x1="62.8942" y1="767.412" x2="128.876" y2="703.042" opacity="0.3" stroke="green" stroke-width="2" />
<circle cx="4.96718" cy="393.104" r="3.0" fill="red" stroke="black" stroke-width="1" />
 <line x1="4.96718" y1="393.104" x2="18.8698" y2="369.322" opacity="0.3" stroke="green" stroke-width="2" />
<circle cx="421.35" cy="706.586" r="3.0" fill="red" stroke="black" stroke-width="1" />
 <line x1="421.35" y1="706.586" x2="422.694" y2="732.459" opacity="0.3" stroke="green" stroke-width="2" />
<circle cx="706.941" cy="505.15" r="3.0" fill="red" stroke="black" stroke-width="1" />
 <line x1="706.941" y1="505.15" x2="789.131" y2="547.954" opacity="0.3" stroke="green" stroke-width="2" />
<circle cx="121.154" cy="667.954" r="3.0" fill="red" stroke="black" stroke-width="1" />
 <line x1="121.154" y1="667.954" x2="128.876" y2="703.042" opacity="0.3" stroke="green" stroke-width="2" />
<circle cx="210.237" cy="121.945" r="3.0" fill="red" stroke="black" stroke-width="1" />
 <line x1="210.237" y1="121.945" x2="160.404" y2="51.8569" opacity="0.3" stroke="green" stroke-width="2" />
<circle cx="646.129" cy="266.85" r="3.0" fill="red" stroke="black" stroke-width="1" />
 <line x1="646.129" y1="266.85" x2="729.473" y2="203.182" opacity="0.3" stroke="green" stroke-width="2" />
<circle cx="309.962" cy="299.262" r="3.0" fill="red" stroke="black" stroke-width="1" />
 <line x1="309.962" y1="299.262" x2="275.287" y2="274.178" opacity="0.3" stroke="green" stroke-width="2" />
<circle cx="633.213" cy="368.407" r="3.0" fill="red" stroke="black" stroke-width="1" />
 <line x1="633.213" y1="368.407" x2="665.028" y2="677.858" opacity="0.3" stroke="green" stroke-width="2" />
<circle cx="171.33" cy="534.33" r="3.0" fill="red" stroke="black" stroke-width="1" />
 <line x1="171.33" y1="534.33" x2="160.173" y2="476.509" opacity="0.3" stroke="green" stroke-width="2" />
<circle cx="20.7261" cy="417.531" r="3.0" fill="red" stroke="black" stroke-width="1" />
 <line x1="20.7261" y1="417.531" x2="18.8698" y2="369.322" opacity="0.3" stroke="green" stroke-width="2" />
<circle cx="521.118" cy="376.089" r="3.0" fill="red" stroke="black" stroke-width="1" />
 <line x1="521.118" y1="376.089" x2="619.022" y2="512.472" opacity="0.3" stroke="green" stroke-width="2" />
<circle cx="86.88" cy="684.442" r="3.0" fill="red" stroke="black" stroke-width="1" />
 <line x1="86.88" y1="684.442" x2="7.40503" y2="675.182" opacity="0.3" stroke="green" stroke-width="2" />
<circle cx="165.539" cy="271.604" r="3.0" fill="red" stroke="black" stroke-width="1" />
 <line x1="165.539" y1="271.604" x2="164.334" y2="260.133" opacity="0.3" stroke="green" stroke-width="2" />
<circle cx="740.449" cy="345.55" r="3.0" fill="red" stroke="black" stroke-width="1" />
 <line x1="740.449" y1="345.55" x2="608.278" y2="391.771" opacity="0.3" stroke="green" stroke-width="2" />
<circle cx="736.569" cy="39.5566" r="3.0" fill="red" stroke="black" stroke-width="1" />
 <line x1="736.569" y1="39.5566" x2="754.863" y2="97.3288" opacity="0.3" stroke="green" stroke-width="2" />
<circle cx="43.6896" cy="520.451" r="3.0" fill="red" stroke="black" stroke-width="1" />
 <line x1="43.6896" y1="520.451" x2="195.866" y2="357.49" opacity="0.3" stroke="green" stroke-width="2" />
<circle cx="478.061" cy="564.4" r="3.0" fill="red" stroke="black" stroke-width="1" />
 <line x1="478.061" y1="564.4" x2="400.262" y2="522.491" opacity="0.3" stroke="green" stroke-width="2" />
<circle cx="665.949" cy="247.791" r="3.0" fill="red" stroke="black" stroke-width="1" />
 <line x1="665.949" y1="247.791" x2="729.473" y2="203.182" opacity="0.3" stroke="green" stroke-width="2" />
<circle cx="630.403" cy="538.897" r="3.0" fill="red" stroke="black" stroke-width="1" />
 <line x1="630.403" y1="538.897" x2="619.022" y2="512.472" opacity="0.3" stroke="green" stroke-width="2" />
<circle cx="238.67" cy="645.52" r="3.0" fill="red" stroke="black" stroke-width="1" />
 <line x1="238.67" y1="645.52" x2="128.876" y2="703.042" opacity="0.3" stroke="green" stroke-width="2" />
<circle cx="758.862" cy="735.521" r="3.0" fill="red" stroke="black" stroke-width="1" />
 <line x1="758.862" y1="735.521" x2="626.597" y2="697.629" opacity="0.3" stroke="green" stroke-width="2" />
<circle cx="286.925" cy="147.441" r="3.0" fill="red" stroke="black" stroke-width="1" />
 <line x1="286.925" y1="147.441" x2="295.943" y2="185.076" opacity="0.3" stroke="green" stroke-width="2" />
<circle cx="682.898" cy="723.773" r="3.0" fill="red" stroke="black" stroke-width="1" />
 <line x1="682.898" y1="723.773" x2="665.028" y2="677.858" opacity="0.3" stroke="green" stroke-width="2" />
<circle cx="354.597" cy="429.435" r="3.0" fill="red" stroke="black" stroke-width="1" />
 <line x1="354.597" y1="429.435" x2="389.161" y2="460.542" opacity="0.3" stroke="green" stroke-width="2" />
<circle cx="412.013" cy="657.91" r="3.0" fill="red" stroke="black" stroke-width="1" />
 <line x1="412.013" y1="657.91" x2="422.694" y2="732.459" opacity="0.3" stroke="green" stroke-width="2" />
<circle cx="481.774" cy="695.969" r="3.0" fill="red" stroke="black" stroke-width="1" />
 <line x1="481.774" y1="695.969" x2="626.597" y2="697.629" opacity="0.3" stroke="green" stroke-width="2" />
<circle cx="10.6958" cy="713.029" r="3.0" fill="red" stroke="black" stroke-width="1" />
 <line x1="10.6958" y1="713.029" x2="7.40503" y2="675.182" opacity="0.3" stroke="green" stroke-width="2" />
<circle cx="354.317" cy="493.196" r="3.0" fill="red" stroke="black" stroke-width="1" />
 <line x1="354.317" y1="493.196" x2="338.242" y2="302.93" opacity="0.3" stroke="green" stroke-width="2" />
<circle cx="179.021" cy="590.548" r="3.0" fill="red" stroke="black" stroke-width="1" />
 <line x1="179.021" y1="590.548" x2="84.4552" y2="591.721" opacity="0.3" stroke="green" stroke-width="2" />
<circle cx="505.33" cy="16.7882" r="3.0" fill="red" stroke="black" stroke-width="1" />
 <line x1="505.33" y1="16.7882" x2="451.061" y2="30.2945" opacity="0.3" stroke="green" stroke-width="2" />
<circle cx="711.814" cy="331.968" r="3.0" fill="red" stroke="black" stroke-width="1" />
 <line x1="711.814" y1="331.968" x2="608.278" y2="391.771" opacity="0.3" stroke="green" stroke-width="2" />
<circle cx="762.856" cy="18.2402" r="3.0" fill="red" stroke="black" stroke-width="1" />
 <line x1="762.856" y1="18.2402" x2="670.638" y2="84.7416" opacity="0.3" stroke="green" stroke-width="2" />
<circle cx="221.529" cy="504.386" r="3.0" fill="red" stroke="black" stroke-width="1" />
 <line x1="221.529" y1="504.386" x2="160.173" y2="476.509" opacity="0.3" stroke="green" stroke-width="2" />
<circle cx="189.007" cy="591.284" r="3.0" fill="red" stroke="black" stroke-width="1" />
 <line x1="189.007" y1="591.284" x2="160.173" y2="476.509" opacity="0.3" stroke="green" stroke-width="2" />
<circle cx="799.362" cy="258.69" r="3.0" fill="red" stroke="black" stroke-width="1" />
 <line x1="799.362" y1="258.69" x2="729.473" y2="203.182" opacity="0.3" stroke="green" stroke-width="2" />
<circle cx="297.633" cy="34.9024" r="3.0" fill="red" stroke="black" stroke-width="1" />
 <line x1="297.633" y1="34.9024" x2="451.061" y2="30.2945" opacity="0.3" stroke="green" stroke-width="2" />
<circle cx="427.973" cy="159.008" r="3.0" fill="red" stroke="black" stroke-width="1" />
 <line x1="427.973" y1="159.008" x2="295.943" y2="185.076" opacity="0.3" stroke="green" stroke-width="2" />
<circle cx="62.2345" cy="797.817" r="3.0" fill="red" stroke="black" stroke-width="1" />
 <line x1="62.2345" y1="797.817" x2="7.40503" y2="675.182" opacity="0.3" stroke="green" stroke-width="2" />
<circle cx="407.534" cy="787.19" r="3.0" fill="red" stroke="black" stroke-width="1" />
 <line x1="407.534" y1="787.19" x2="422.694" y2="732.459" opacity="0.3" stroke="green" stroke-width="2" />
<circle cx="614.95" cy="654.244" r="3.0" fill="red" stroke="black" stroke-width="1" />
 <line x1="614.95" y1="654.244" x2="626.597" y2="697.629" opacity="0.3" stroke="green" stroke-width="2" />
<circle cx="131.647" cy="593.286" r="3.0" fill="red" stroke="black" stroke-width="1" />
 <line x1="131.647" y1="593.286" x2="84.4552" y2="591.721" opacity="0.3" stroke="green" stroke-width="2" />
<circle cx="633.272" cy="125.221" r="3.0" fill="red" stroke="black" stroke-width="1" />
 <line x1="633.272" y1="125.221" x2="670.638" y2="84.7416" opacity="0.3" stroke="green" stroke-width="2" />
<circle cx="159.889" cy="78.3917" r="3.0" fill="red" stroke="black" stroke-width="1" />
 <line x1="159.889" y1="78.3917" x2="160.404" y2="51.8569" opacity="0.3" stroke="green" stroke-width="2" />
<circle cx="616.214" cy="679.534" r="3.0" fill="red" stroke="black" stroke-width="1" />
 <line x1="616.214" y1="679.534" x2="626.597" y2="697.629" opacity="0.3" stroke="green" stroke-width="2" />
<circle cx="495.478" cy="388.254" r="3.0" fill="red" stroke="black" stroke-width="1" />
 <line x1="495.478" y1="388.254" x2="608.278" y2="391.771" opacity="0.3" stroke="green" stroke-width="2" />
<circle cx="112.715" cy="601.786" r="3.0" fill="red" stroke="black" stroke-width="1" />
 <line x1="112.715" y1="601.786" x2="84.4552" y2="591.721" opacity="0.3" stroke="green" stroke-width="2" />
<circle cx="771.423" cy="341.138" r="3.0" fill="red" stroke="black" stroke-width="1" />
 <line x1="771.423" y1="341.138" x2="619.022" y2="512.472" opacity="0.3" stroke="green" stroke-width="2" />
<circle cx="316.274" cy="219.662" r="3.0" fill="red" stroke="black" stroke-width="1" />
 <line x1="316.274" y1="219.662" x2="295.943" y2="185.076" opacity="0.3" stroke="green" stroke-width="2" />
<circle cx="431.807" cy="627.441" r="3.0" fill="red" stroke="black" stroke-width="1" />
 <line x1="431.807" y1="627.441" x2="400.262" y2="522.491" opacity="0.3" stroke="green" stroke-width="2" />
<circle cx="203.252" cy="303.407" r="3.0" fill="red" stroke="black" stroke-width="1" />
 <line x1="203.252" y1="303.407" x2="195.866" y2="357.49" opacity="0.3" stroke="green" stroke-width="2" />
<circle cx="412.846" cy="284.57" r="3.0" fill="red" stroke="black" stroke-width="1" />
 <line x1="412.846" y1="284.57" x2="419.127" y2="287.118" opacity="0.3" stroke="green" stroke-width="2" />
<circle cx="421.328" cy="679.306" r="3.0" fill="red" stroke="black" stroke-width="1" />
 <line x1="421.328" y1="679.306" x2="378.918" y2="703.253" opacity="0.3" stroke="green" stroke-width="2" />
<circle cx="790.338" cy="167.085" r="3.0" fill="red" stroke="black" stroke-width="1" />
 <line x1="790.338" y1="167.085" x2="729.473" y2="203.182" opacity="0.3" stroke="green" stroke-width="2" />
<circle cx="442.42" cy="150.558" r="3.0" fill="red" stroke="black" stroke-width="1" />
 <line x1="442.42" y1="150.558" x2="479.154" y2="63.7766" opacity="0.3" stroke="green" stroke-width="2" />
<circle cx="291.122" cy="140.593" r="3.0" fill="red" stroke="black" stroke-width="1" />
 <line x1="291.122" y1="140.593" x2="295.943" y2="185.076" opacity="0.3" stroke="green" stroke-width="2" />
<circle cx="760.296" cy="772.583" r="3.0" fill="red" stroke="black" stroke-width="1" />
 <line x1="760.296" y1="772.583" x2="749.91" y2="734.767" opacity="0.3" stroke="green" stroke-width="2" />
<circle cx="389.375" cy="382.044" r="3.0" fill="red" stroke="black" stroke-width="1" />
 <line x1="389.375" y1="382.044" x2="451.768" y2="381.414" opacity="0.3" stroke="green" stroke-width="2" />
<circle cx="102.55" cy="310.005" r="3.0" fill="red" stroke="black" stroke-width="1" />
 <line x1="102.55" y1="310.005" x2="164.334" y2="260.133" opacity="0.3" stroke="green" stroke-width="2" />
<circle cx="693.103" cy="153.203" r="3.0" fill="red" stroke="black" stroke-width="1" />
 <line x1="693.103" y1="153.203" x2="729.473" y2="203.182" opacity="0.3" stroke="green" stroke-width="2" />
<circle cx="569.799" cy="654.326" r="3.0" fill="red" stroke="black" stroke-width="1" />
 <line x1="569.799" y1="654.326" x2="626.597" y2="697.629" opacity="0.3" stroke="green" stroke-width="2" />
</svg>
