<svg xmlns="http://www.w3.org/2000/svg" version="1.1" width="800" height="800">
"<rect x="0.0" y="0.0" width="800.0" height="800.0" fill ="white" /><circle cx="44.8846" cy="254.406" r="6.0" fill ="blue" stroke="black" stroke-width="1" />
<circle cx="459.706" cy="327.371" r="6.0" fill ="blue" stroke="black" stroke-width="1" />
<circle cx="540.436" cy="514.421" r="6.0" fill ="blue" stroke="black" stroke-width="1" />
<circle cx="66.3917" cy="623.655" r="6.0" fill ="blue" stroke="black" stroke-width="1" />
<circle cx="244.434" cy="308.86" r="6.0" fill ="blue" stroke="black" stroke-width="1" />
<circle cx="620.642" cy="671.923" r="6.0" fill ="blue" stroke="black" stroke-width="1" />
<circle cx="425.88" cy="734.101" r="6.0" fill ="blue" stroke="black" stroke-width="1" />
<circle cx="699.842" cy="461.45" r="6.0" fill ="blue" stroke="black" stroke-width="1" />
<circle cx="574.208" cy="767.223" r="6.0" fill ="blue" stroke="black" stroke-width="1" />
<circle cx="780.696" cy="294.223" r="6.0" fill ="blue" stroke="black" stroke-width="1" />
<circle cx="296.509" cy="697.555" r="6.0" fill ="blue" stroke="black" stroke-width="1" />
<circle cx="531.764" cy="507.606" r="6.0" fill ="blue" stroke="black" stroke-width="1" />
<circle cx="149.954" cy="723.322" r="6.0" fill ="blue" stroke="black" stroke-width="1" />
<circle cx="653.697" cy="658.871" r="6.0" fill ="blue" stroke="black" stroke-width="1" />
<circle cx="481.435" cy="526.532" r="6.0" fill ="blue" stroke="black" stroke-width="1" />
<circle cx="14.1885" cy="484.705" r="6.0" fill ="blue" stroke="black" stroke-width="1" />
<circle cx="667.792" cy="639.226" r="6.0" fill ="blue" stroke="black" stroke-width="1" />
<circle cx="663.188" cy="26.7883" r="6.0" fill ="blue" stroke="black" stroke-width="1" />
<circle cx="549.146" cy="356.887" r="6.0" fill ="blue" stroke="black" stroke-width="1" />
<circle cx="513.663" cy="21.9557" r="6.0" fill ="blue" stroke="black" stroke-width="1" />
<circle cx="9.41592" cy="92.8648" r="6.0" fill ="blue" stroke="black" stroke-width="1" />
<circle cx="355.938" cy="396.584" r="6.0" fill ="blue" stroke="black" stroke-width="1" />
<circle cx="646.123" cy="604.464" r="6.0" fill ="blue" stroke="black" stroke-width="1" />
<circle cx="228.527" cy="542.218" r="6.0" fill ="blue" stroke="black" stroke-width="1" />
<circle cx="265.433" cy="220.247" r="6.0" fill ="blue" stroke="black" stroke-width="1" />
<circle cx="564.239" cy="223.162" r="6.0" fill ="blue" stroke="black" stroke-width="1" />
<circle cx="489.955" cy="580.828" r="6.0" fill ="blue" stroke="black" stroke-width="1" />
<circle cx="233.81" cy="130.339" r="6.0" fill ="blue" stroke="black" stroke-width="1" />
<circle cx="90.8808" cy="687.27" r="6.0" fill ="blue" stroke="black" stroke-width="1" />
<circle cx="210.317" cy="527.41" r="6.0" fill ="blue" stroke="black" stroke-width="1" />
<circle cx="544.974" cy="157.966" r="6.0" fill ="blue" stroke="black" stroke-width="1" />
<circle cx="719.67" cy="42.9812" r="6.0" fill ="blue" stroke="black" stroke-width="1" />
<circle cx="148.184" cy="238.502" r="6.0" fill ="blue" stroke="black" stroke-width="1" />
<circle cx="659.748" cy="234.082" r="6.0" fill ="blue" stroke="black" stroke-width="1" />
<circle cx="626.98" cy="604.194" r="3.0" fill="red" stroke="black" stroke-width="1" />
 <line x1="626.98" y1="604.194" x2="646.123" y2="604.464" opacity="0.3" stroke="green" stroke-width="2" />
<circle cx="576.249" cy="521.635" r="3.0" fill="red" stroke="black" stroke-width="1" />
 <line x1="576.249" y1="521.635" x2="540.436" y2="514.421" opacity="0.3" stroke="green" stroke-width="2" />
<circle cx="347.806" cy="400.894" r="3.0" fill="red" stroke="black" stroke-width="1" />
 <line x1="347.806" y1="400.894" x2="355.938" y2="396.584" opacity="0.3" stroke="green" stroke-width="2" />
<circle cx="420.04" cy="271.83" r="3.0" fill="red" stroke="black" stroke-width="1" />
 <line x1="420.04" y1="271.83" x2="459.706" y2="327.371" opacity="0.3" stroke="green" stroke-width="2" />
<circle cx="486.996" cy="95.908" r="3.0" fill="red" stroke="black" stroke-width="1" />
 <line x1="486.996" y1="95.908" x2="663.188" y2="26.7883" opacity="0.3" stroke="green" stroke-width="2" />
<circle cx="66.8254" cy="148.849" r="3.0" fill="red" stroke="black" stroke-width="1" />
 <line x1="66.8254" y1="148.849" x2="9.41592" y2="92.8648" opacity="0.3" stroke="green" stroke-width="2" />
<circle cx="604.63" cy="536.224" r="3.0" fill="red" stroke="black" stroke-width="1" />
 <line x1="604.63" y1="536.224" x2="531.764" y2="507.606" opacity="0.3" stroke="green" stroke-width="2" />
<circle cx="782.75" cy="422.546" r="3.0" fill="red" stroke="black" stroke-width="1" />
 <line x1="782.75" y1="422.546" x2="780.696" y2="294.223" opacity="0.3" stroke="green" stroke-width="2" />
<circle cx="497.844" cy="707.869" r="3.0" fill="red" stroke="black" stroke-width="1" />
 <line x1="497.844" y1="707.869" x2="425.88" y2="734.101" opacity="0.3" stroke="green" stroke-width="2" />
<circle cx="127.598" cy="651.294" r="3.0" fill="red" stroke="black" stroke-width="1" />
 <line x1="127.598" y1="651.294" x2="90.8808" y2="687.27" opacity="0.3" stroke="green" stroke-width="2" />
<circle cx="613.292" cy="216.553" r="3.0" fill="red" stroke="black" stroke-width="1" />
 <line x1="613.292" y1="216.553" x2="564.239" y2="223.162" opacity="0.3" stroke="green" stroke-width="2" />
<circle cx="481.819" cy="42.9186" r="3.0" fill="red" stroke="black" stroke-width="1" />
 <line x1="481.819" y1="42.9186" x2="513.663" y2="21.9557" opacity="0.3" stroke="green" stroke-width="2" />
<circle cx="729.782" cy="306.269" r="3.0" fill="red" stroke="black" stroke-width="1" />
 <line x1="729.782" y1="306.269" x2="780.696" y2="294.223" opacity="0.3" stroke="green" stroke-width="2" />
<circle cx="551.905" cy="669.374" r="3.0" fill="red" stroke="black" stroke-width="1" />
 <line x1="551.905" y1="669.374" x2="620.642" y2="671.923" opacity="0.3" stroke="green" stroke-width="2" />
<circle cx="227.996" cy="505.711" r="3.0" fill="red" stroke="black" stroke-width="1" />
 <line x1="227.996" y1="505.711" x2="228.527" y2="542.218" opacity="0.3" stroke="green" stroke-width="2" />
<circle cx="93.0848" cy="708.11" r="3.0" fill="red" stroke="black" stroke-width="1" />
 <line x1="93.0848" y1="708.11" x2="149.954" y2="723.322" opacity="0.3" stroke="green" stroke-width="2" />
<circle cx="101.305" cy="704.771" r="3.0" fill="red" stroke="black" stroke-width="1" />
 <line x1="101.305" y1="704.771" x2="90.8808" y2="687.27" opacity="0.3" stroke="green" stroke-width="2" />
<circle cx="511.795" cy="593.732" r="3.0" fill="red" stroke="black" stroke-width="1" />
 <line x1="511.795" y1="593.732" x2="489.955" y2="580.828" opacity="0.3" stroke="green" stroke-width="2" />
<circle cx="770.354" cy="240.074" r="3.0" fill="red" stroke="black" stroke-width="1" />
 <line x1="770.354" y1="240.074" x2="780.696" y2="294.223" opacity="0.3" stroke="green" stroke-width="2" />
<circle cx="307.275" cy="112.593" r="3.0" fill="red" stroke="black" stroke-width="1" />
 <line x1="307.275" y1="112.593" x2="233.81" y2="130.339" opacity="0.3" stroke="green" stroke-width="2" />
<circle cx="417.518" cy="347.417" r="3.0" fill="red" stroke="black" stroke-width="1" />
 <line x1="417.518" y1="347.417" x2="459.706" y2="327.371" opacity="0.3" stroke="green" stroke-width="2" />
<circle cx="629.015" cy="123.985" r="3.0" fill="red" stroke="black" stroke-width="1" />
 <line x1="629.015" y1="123.985" x2="663.188" y2="26.7883" opacity="0.3" stroke="green" stroke-width="2" />
<circle cx="477.16" cy="525.144" r="3.0" fill="red" stroke="black" stroke-width="1" />
 <line x1="477.16" y1="525.144" x2="481.435" y2="526.532" opacity="0.3" stroke="green" stroke-width="2" />
<circle cx="270.728" cy="337.61" r="3.0" fill="red" stroke="black" stroke-width="1" />
 <line x1="270.728" y1="337.61" x2="244.434" y2="308.86" opacity="0.3" stroke="green" stroke-width="2" />
<circle cx="225.93" cy="275.706" r="3.0" fill="red" stroke="black" stroke-width="1" />
 <line x1="225.93" y1="275.706" x2="244.434" y2="308.86" opacity="0.3" stroke="green" stroke-width="2" />
<circle cx="185.896" cy="642.97" r="3.0" fill="red" stroke="black" stroke-width="1" />
 <line x1="185.896" y1="642.97" x2="149.954" y2="723.322" opacity="0.3" stroke="green" stroke-width="2" />
<circle cx="55.4674" cy="636.256" r="3.0" fill="red" stroke="black" stroke-width="1" />
 <line x1="55.4674" y1="636.256" x2="66.3917" y2="623.655" opacity="0.3" stroke="green" stroke-width="2" />
<circle cx="497.926" cy="96.5784" r="3.0" fill="red" stroke="black" stroke-width="1" />
 <line x1="497.926" y1="96.5784" x2="513.663" y2="21.9557" opacity="0.3" stroke="green" stroke-width="2" />
<circle cx="712.98" cy="565.745" r="3.0" fill="red" stroke="black" stroke-width="1" />
 <line x1="712.98" y1="565.745" x2="646.123" y2="604.464" opacity="0.3" stroke="green" stroke-width="2" />
<circle cx="551.803" cy="203.091" r="3.0" fill="red" stroke="black" stroke-width="1" />
 <line x1="551.803" y1="203.091" x2="564.239" y2="223.162" opacity="0.3" stroke="green" stroke-width="2" />
<circle cx="552.503" cy="478.494" r="3.0" fill="red" stroke="black" stroke-width="1" />
 <line x1="552.503" y1="478.494" x2="540.436" y2="514.421" opacity="0.3" stroke="green" stroke-width="2" />
<circle cx="154.773" cy="519.013" r="3.0" fill="red" stroke="black" stroke-width="1" />
 <line x1="154.773" y1="519.013" x2="210.317" y2="527.41" opacity="0.3" stroke="green" stroke-width="2" />
<circle cx="363.546" cy="323.61" r="3.0" fill="red" stroke="black" stroke-width="1" />
 <line x1="363.546" y1="323.61" x2="459.706" y2="327.371" opacity="0.3" stroke="green" stroke-width="2" />
<circle cx="365.082" cy="196.927" r="3.0" fill="red" stroke="black" stroke-width="1" />
 <line x1="365.082" y1="196.927" x2="265.433" y2="220.247" opacity="0.3" stroke="green" stroke-width="2" />
<circle cx="721.392" cy="31.0461" r="3.0" fill="red" stroke="black" stroke-width="1" />
 <line x1="721.392" y1="31.0461" x2="719.67" y2="42.9812" opacity="0.3" stroke="green" stroke-width="2" />
<circle cx="632.712" cy="722.476" r="3.0" fill="red" stroke="black" stroke-width="1" />
 <line x1="632.712" y1="722.476" x2="620.642" y2="671.923" opacity="0.3" stroke="green" stroke-width="2" />
<circle cx="474.038" cy="602.562" r="3.0" fill="red" stroke="black" stroke-width="1" />
 <line x1="474.038" y1="602.562" x2="489.955" y2="580.828" opacity="0.3" stroke="green" stroke-width="2" />
<circle cx="546.803" cy="156.65" r="3.0" fill="red" stroke="black" stroke-width="1" />
 <line x1="546.803" y1="156.65" x2="544.974" y2="157.966" opacity="0.3" stroke="green" stroke-width="2" />
<circle cx="647.822" cy="166.668" r="3.0" fill="red" stroke="black" stroke-width="1" />
 <line x1="647.822" y1="166.668" x2="659.748" y2="234.082" opacity="0.3" stroke="green" stroke-width="2" />
<circle cx="379.07" cy="395.026" r="3.0" fill="red" stroke="black" stroke-width="1" />
 <line x1="379.07" y1="395.026" x2="355.938" y2="396.584" opacity="0.3" stroke="green" stroke-width="2" />
<circle cx="540.661" cy="697.615" r="3.0" fill="red" stroke="black" stroke-width="1" />
 <line x1="540.661" y1="697.615" x2="574.208" y2="767.223" opacity="0.3" stroke="green" stroke-width="2" />
<circle cx="535.448" cy="358.207" r="3.0" fill="red" stroke="black" stroke-width="1" />
 <line x1="535.448" y1="358.207" x2="549.146" y2="356.887" opacity="0.3" stroke="green" stroke-width="2" />
<circle cx="91.588" cy="356.707" r="3.0" fill="red" stroke="black" stroke-width="1" />
 <line x1="91.588" y1="356.707" x2="148.184" y2="238.502" opacity="0.3" stroke="green" stroke-width="2" />
<circle cx="296.237" cy="789.188" r="3.0" fill="red" stroke="black" stroke-width="1" />
 <line x1="296.237" y1="789.188" x2="296.509" y2="697.555" opacity="0.3" stroke="green" stroke-width="2" />
<circle cx="38.6533" cy="575.942" r="3.0" fill="red" stroke="black" stroke-width="1" />
 <line x1="38.6533" y1="575.942" x2="66.3917" y2="623.655" opacity="0.3" stroke="green" stroke-width="2" />
<circle cx="654.602" cy="610.566" r="3.0" fill="red" stroke="black" stroke-width="1" />
 <line x1="654.602" y1="610.566" x2="646.123" y2="604.464" opacity="0.3" stroke="green" stroke-width="2" />
<circle cx="203.053" cy="617.43" r="3.0" fill="red" stroke="black" stroke-width="1" />
 <line x1="203.053" y1="617.43" x2="228.527" y2="542.218" opacity="0.3" stroke="green" stroke-width="2" />
<circle cx="595.082" cy="382.786" r="3.0" fill="red" stroke="black" stroke-width="1" />
 <line x1="595.082" y1="382.786" x2="549.146" y2="356.887" opacity="0.3" stroke="green" stroke-width="2" />
<circle cx="106.364" cy="574.93" r="3.0" fill="red" stroke="black" stroke-width="1" />
 <line x1="106.364" y1="574.93" x2="66.3917" y2="623.655" opacity="0.3" stroke="green" stroke-width="2" />
<circle cx="569.529" cy="761.182" r="3.0" fill="red" stroke="black" stroke-width="1" />
 <line x1="569.529" y1="761.182" x2="574.208" y2="767.223" opacity="0.3" stroke="green" stroke-width="2" />
<circle cx="592.135" cy="662.546" r="3.0" fill="red" stroke="black" stroke-width="1" />
 <line x1="592.135" y1="662.546" x2="620.642" y2="671.923" opacity="0.3" stroke="green" stroke-width="2" />
<circle cx="87.2976" cy="108.993" r="3.0" fill="red" stroke="black" stroke-width="1" />
 <line x1="87.2976" y1="108.993" x2="9.41592" y2="92.8648" opacity="0.3" stroke="green" stroke-width="2" />
<circle cx="163.185" cy="792.451" r="3.0" fill="red" stroke="black" stroke-width="1" />
 <line x1="163.185" y1="792.451" x2="149.954" y2="723.322" opacity="0.3" stroke="green" stroke-width="2" />
<circle cx="417.288" cy="398.997" r="3.0" fill="red" stroke="black" stroke-width="1" />
 <line x1="417.288" y1="398.997" x2="355.938" y2="396.584" opacity="0.3" stroke="green" stroke-width="2" />
<circle cx="195.518" cy="198.33" r="3.0" fill="red" stroke="black" stroke-width="1" />
 <line x1="195.518" y1="198.33" x2="265.433" y2="220.247" opacity="0.3" stroke="green" stroke-width="2" />
<circle cx="288.052" cy="96.3952" r="3.0" fill="red" stroke="black" stroke-width="1" />
 <line x1="288.052" y1="96.3952" x2="233.81" y2="130.339" opacity="0.3" stroke="green" stroke-width="2" />
<circle cx="90.7808" cy="57.6358" r="3.0" fill="red" stroke="black" stroke-width="1" />
 <line x1="90.7808" y1="57.6358" x2="9.41592" y2="92.8648" opacity="0.3" stroke="green" stroke-width="2" />
<circle cx="117.064" cy="337.569" r="3.0" fill="red" stroke="black" stroke-width="1" />
 <line x1="117.064" y1="337.569" x2="265.433" y2="220.247" opacity="0.3" stroke="green" stroke-width="2" />
<circle cx="669.685" cy="292.219" r="3.0" fill="red" stroke="black" stroke-width="1" />
 <line x1="669.685" y1="292.219" x2="659.748" y2="234.082" opacity="0.3" stroke="green" stroke-width="2" />
<circle cx="721.805" cy="140.734" r="3.0" fill="red" stroke="black" stroke-width="1" />
 <line x1="721.805" y1="140.734" x2="719.67" y2="42.9812" opacity="0.3" stroke="green" stroke-width="2" />
<circle cx="587.767" cy="177.537" r="3.0" fill="red" stroke="black" stroke-width="1" />
 <line x1="587.767" y1="177.537" x2="564.239" y2="223.162" opacity="0.3" stroke="green" stroke-width="2" />
<circle cx="515.513" cy="26.9493" r="3.0" fill="red" stroke="black" stroke-width="1" />
 <line x1="515.513" y1="26.9493" x2="513.663" y2="21.9557" opacity="0.3" stroke="green" stroke-width="2" />
<circle cx="512.825" cy="479.736" r="3.0" fill="red" stroke="black" stroke-width="1" />
 <line x1="512.825" y1="479.736" x2="540.436" y2="514.421" opacity="0.3" stroke="green" stroke-width="2" />
<circle cx="484.936" cy="488.122" r="3.0" fill="red" stroke="black" stroke-width="1" />
 <line x1="484.936" y1="488.122" x2="531.764" y2="507.606" opacity="0.3" stroke="green" stroke-width="2" />
<circle cx="63.0416" cy="336.27" r="3.0" fill="red" stroke="black" stroke-width="1" />
 <line x1="63.0416" y1="336.27" x2="44.8846" y2="254.406" opacity="0.3" stroke="green" stroke-width="2" />
<circle cx="533.407" cy="533.925" r="3.0" fill="red" stroke="black" stroke-width="1" />
 <line x1="533.407" y1="533.925" x2="540.436" y2="514.421" opacity="0.3" stroke="green" stroke-width="2" />
<circle cx="577.736" cy="178.415" r="3.0" fill="red" stroke="black" stroke-width="1" />
 <line x1="577.736" y1="178.415" x2="564.239" y2="223.162" opacity="0.3" stroke="green" stroke-width="2" />
<circle cx="545.879" cy="490.85" r="3.0" fill="red" stroke="black" stroke-width="1" />
 <line x1="545.879" y1="490.85" x2="646.123" y2="604.464" opacity="0.3" stroke="green" stroke-width="2" />
<circle cx="448.27" cy="700.306" r="3.0" fill="red" stroke="black" stroke-width="1" />
 <line x1="448.27" y1="700.306" x2="425.88" y2="734.101" opacity="0.3" stroke="green" stroke-width="2" />
<circle cx="781.377" cy="186.546" r="3.0" fill="red" stroke="black" stroke-width="1" />
 <line x1="781.377" y1="186.546" x2="780.696" y2="294.223" opacity="0.3" stroke="green" stroke-width="2" />
<circle cx="76.7513" cy="219.721" r="3.0" fill="red" stroke="black" stroke-width="1" />
 <line x1="76.7513" y1="219.721" x2="44.8846" y2="254.406" opacity="0.3" stroke="green" stroke-width="2" />
<circle cx="279.024" cy="142.919" r="3.0" fill="red" stroke="black" stroke-width="1" />
 <line x1="279.024" y1="142.919" x2="233.81" y2="130.339" opacity="0.3" stroke="green" stroke-width="2" />
<circle cx="424.358" cy="724.475" r="3.0" fill="red" stroke="black" stroke-width="1" />
 <line x1="424.358" y1="724.475" x2="425.88" y2="734.101" opacity="0.3" stroke="green" stroke-width="2" />
<circle cx="677.514" cy="442.886" r="3.0" fill="red" stroke="black" stroke-width="1" />
 <line x1="677.514" y1="442.886" x2="699.842" y2="461.45" opacity="0.3" stroke="green" stroke-width="2" />
<circle cx="785.466" cy="622.751" r="3.0" fill="red" stroke="black" stroke-width="1" />
 <line x1="785.466" y1="622.751" x2="667.792" y2="639.226" opacity="0.3" stroke="green" stroke-width="2" />
<circle cx="397.224" cy="445.949" r="3.0" fill="red" stroke="black" stroke-width="1" />
 <line x1="397.224" y1="445.949" x2="355.938" y2="396.584" opacity="0.3" stroke="green" stroke-width="2" />
<circle cx="652.499" cy="311.817" r="3.0" fill="red" stroke="black" stroke-width="1" />
 <line x1="652.499" y1="311.817" x2="659.748" y2="234.082" opacity="0.3" stroke="green" stroke-width="2" />
<circle cx="585.637" cy="211.401" r="3.0" fill="red" stroke="black" stroke-width="1" />
 <line x1="585.637" y1="211.401" x2="564.239" y2="223.162" opacity="0.3" stroke="green" stroke-width="2" />
<circle cx="533.312" cy="240.95" r="3.0" fill="red" stroke="black" stroke-width="1" />
 <line x1="533.312" y1="240.95" x2="564.239" y2="223.162" opacity="0.3" stroke="green" stroke-width="2" />
<circle cx="493.009" cy="785.55" r="3.0" fill="red" stroke="black" stroke-width="1" />
 <line x1="493.009" y1="785.55" x2="425.88" y2="734.101" opacity="0.3" stroke="green" stroke-width="2" />
<circle cx="21.4306" cy="182.33" r="3.0" fill="red" stroke="black" stroke-width="1" />
 <line x1="21.4306" y1="182.33" x2="148.184" y2="238.502" opacity="0.3" stroke="green" stroke-width="2" />
<circle cx="48.8038" cy="143.793" r="3.0" fill="red" stroke="black" stroke-width="1" />
 <line x1="48.8038" y1="143.793" x2="9.41592" y2="92.8648" opacity="0.3" stroke="green" stroke-width="2" />
<circle cx="2.84597" cy="510.105" r="3.0" fill="red" stroke="black" stroke-width="1" />
 <line x1="2.84597" y1="510.105" x2="14.1885" y2="484.705" opacity="0.3" stroke="green" stroke-width="2" />
<circle cx="567.739" cy="609.456" r="3.0" fill="red" stroke="black" stroke-width="1" />
 <line x1="567.739" y1="609.456" x2="646.123" y2="604.464" opacity="0.3" stroke="green" stroke-width="2" />
<circle cx="574.102" cy="756.182" r="3.0" fill="red" stroke="black" stroke-width="1" />
 <line x1="574.102" y1="756.182" x2="574.208" y2="767.223" opacity="0.3" stroke="green" stroke-width="2" />
<circle cx="642.87" cy="653.603" r="3.0" fill="red" stroke="black" stroke-width="1" />
 <line x1="642.87" y1="653.603" x2="667.792" y2="639.226" opacity="0.3" stroke="green" stroke-width="2" />
<circle cx="500.238" cy="574.484" r="3.0" fill="red" stroke="black" stroke-width="1" />
 <line x1="500.238" y1="574.484" x2="481.435" y2="526.532" opacity="0.3" stroke="green" stroke-width="2" />
<circle cx="111.285" cy="380.193" r="3.0" fill="red" stroke="black" stroke-width="1" />
 <line x1="111.285" y1="380.193" x2="14.1885" y2="484.705" opacity="0.3" stroke="green" stroke-width="2" />
<circle cx="503.05" cy="317.468" r="3.0" fill="red" stroke="black" stroke-width="1" />
 <line x1="503.05" y1="317.468" x2="459.706" y2="327.371" opacity="0.3" stroke="green" stroke-width="2" />
<circle cx="616.781" cy="148.09" r="3.0" fill="red" stroke="black" stroke-width="1" />
 <line x1="616.781" y1="148.09" x2="564.239" y2="223.162" opacity="0.3" stroke="green" stroke-width="2" />
<circle cx="343.599" cy="323.336" r="3.0" fill="red" stroke="black" stroke-width="1" />
 <line x1="343.599" y1="323.336" x2="355.938" y2="396.584" opacity="0.3" stroke="green" stroke-width="2" />
<circle cx="97.9232" cy="315.987" r="3.0" fill="red" stroke="black" stroke-width="1" />
 <line x1="97.9232" y1="315.987" x2="148.184" y2="238.502" opacity="0.3" stroke="green" stroke-width="2" />
<circle cx="694.409" cy="15.4304" r="3.0" fill="red" stroke="black" stroke-width="1" />
 <line x1="694.409" y1="15.4304" x2="719.67" y2="42.9812" opacity="0.3" stroke="green" stroke-width="2" />
<circle cx="518.274" cy="22.6321" r="3.0" fill="red" stroke="black" stroke-width="1" />
 <line x1="518.274" y1="22.6321" x2="513.663" y2="21.9557" opacity="0.3" stroke="green" stroke-width="2" />
<circle cx="219.004" cy="248.316" r="3.0" fill="red" stroke="black" stroke-width="1" />
 <line x1="219.004" y1="248.316" x2="265.433" y2="220.247" opacity="0.3" stroke="green" stroke-width="2" />
<circle cx="187.05" cy="495.518" r="3.0" fill="red" stroke="black" stroke-width="1" />
 <line x1="187.05" y1="495.518" x2="210.317" y2="527.41" opacity="0.3" stroke="green" stroke-width="2" />
<circle cx="716.662" cy="649.293" r="3.0" fill="red" stroke="black" stroke-width="1" />
 <line x1="716.662" y1="649.293" x2="667.792" y2="639.226" opacity="0.3" stroke="green" stroke-width="2" />
<circle cx="653.226" cy="552.367" r="3.0" fill="red" stroke="black" stroke-width="1" />
 <line x1="653.226" y1="552.367" x2="646.123" y2="604.464" opacity="0.3" stroke="green" stroke-width="2" />
<circle cx="498.792" cy="128.11" r="3.0" fill="red" stroke="black" stroke-width="1" />
 <line x1="498.792" y1="128.11" x2="544.974" y2="157.966" opacity="0.3" stroke="green" stroke-width="2" />
<circle cx="298.21" cy="541.267" r="3.0" fill="red" stroke="black" stroke-width="1" />
 <line x1="298.21" y1="541.267" x2="228.527" y2="542.218" opacity="0.3" stroke="green" stroke-width="2" />
<circle cx="318.781" cy="206.742" r="3.0" fill="red" stroke="black" stroke-width="1" />
 <line x1="318.781" y1="206.742" x2="265.433" y2="220.247" opacity="0.3" stroke="green" stroke-width="2" />
<circle cx="487.81" cy="783.598" r="3.0" fill="red" stroke="black" stroke-width="1" />
 <line x1="487.81" y1="783.598" x2="574.208" y2="767.223" opacity="0.3" stroke="green" stroke-width="2" />
<circle cx="704.498" cy="74.2731" r="3.0" fill="red" stroke="black" stroke-width="1" />
 <line x1="704.498" y1="74.2731" x2="719.67" y2="42.9812" opacity="0.3" stroke="green" stroke-width="2" />
<circle cx="49.8432" cy="390.931" r="3.0" fill="red" stroke="black" stroke-width="1" />
 <line x1="49.8432" y1="390.931" x2="14.1885" y2="484.705" opacity="0.3" stroke="green" stroke-width="2" />
<circle cx="689.49" cy="376.086" r="3.0" fill="red" stroke="black" stroke-width="1" />
 <line x1="689.49" y1="376.086" x2="699.842" y2="461.45" opacity="0.3" stroke="green" stroke-width="2" />
<circle cx="129.816" cy="593.055" r="3.0" fill="red" stroke="black" stroke-width="1" />
 <line x1="129.816" y1="593.055" x2="66.3917" y2="623.655" opacity="0.3" stroke="green" stroke-width="2" />
<circle cx="0.829312" cy="692.608" r="3.0" fill="red" stroke="black" stroke-width="1" />
 <line x1="0.829312" y1="692.608" x2="66.3917" y2="623.655" opacity="0.3" stroke="green" stroke-width="2" />
<circle cx="488.063" cy="153.611" r="3.0" fill="red" stroke="black" stroke-width="1" />
 <line x1="488.063" y1="153.611" x2="544.974" y2="157.966" opacity="0.3" stroke="green" stroke-width="2" />
<circle cx="103.342" cy="739.518" r="3.0" fill="red" stroke="black" stroke-width="1" />
 <line x1="103.342" y1="739.518" x2="149.954" y2="723.322" opacity="0.3" stroke="green" stroke-width="2" />
<circle cx="211.886" cy="597.101" r="3.0" fill="red" stroke="black" stroke-width="1" />
 <line x1="211.886" y1="597.101" x2="228.527" y2="542.218" opacity="0.3" stroke="green" stroke-width="2" />
<circle cx="710.699" cy="555.734" r="3.0" fill="red" stroke="black" stroke-width="1" />
 <line x1="710.699" y1="555.734" x2="699.842" y2="461.45" opacity="0.3" stroke="green" stroke-width="2" />
<circle cx="787.32" cy="262.676" r="3.0" fill="red" stroke="black" stroke-width="1" />
 <line x1="787.32" y1="262.676" x2="780.696" y2="294.223" opacity="0.3" stroke="green" stroke-width="2" />
<circle cx="591.667" cy="779.555" r="3.0" fill="red" stroke="black" stroke-width="1" />
 <line x1="591.667" y1="779.555" x2="574.208" y2="767.223" opacity="0.3" stroke="green" stroke-width="2" />
<circle cx="58.9673" cy="246.117" r="3.0" fill="red" stroke="black" stroke-width="1" />
 <line x1="58.9673" y1="246.117" x2="44.8846" y2="254.406" opacity="0.3" stroke="green" stroke-width="2" />
<circle cx="23.1575" cy="550.802" r="3.0" fill="red" stroke="black" stroke-width="1" />
 <line x1="23.1575" y1="550.802" x2="14.1885" y2="484.705" opacity="0.3" stroke="green" stroke-width="2" />
<circle cx="629.898" cy="707.673" r="3.0" fill="red" stroke="black" stroke-width="1" />
 <line x1="629.898" y1="707.673" x2="653.697" y2="658.871" opacity="0.3" stroke="green" stroke-width="2" />
<circle cx="564.826" cy="350.229" r="3.0" fill="red" stroke="black" stroke-width="1" />
 <line x1="564.826" y1="350.229" x2="549.146" y2="356.887" opacity="0.3" stroke="green" stroke-width="2" />
<circle cx="513.845" cy="554.509" r="3.0" fill="red" stroke="black" stroke-width="1" />
 <line x1="513.845" y1="554.509" x2="489.955" y2="580.828" opacity="0.3" stroke="green" stroke-width="2" />
<circle cx="63.111" cy="454.738" r="3.0" fill="red" stroke="black" stroke-width="1" />
 <line x1="63.111" y1="454.738" x2="14.1885" y2="484.705" opacity="0.3" stroke="green" stroke-width="2" />
<circle cx="748.682" cy="565.492" r="3.0" fill="red" stroke="black" stroke-width="1" />
 <line x1="748.682" y1="565.492" x2="653.697" y2="658.871" opacity="0.3" stroke="green" stroke-width="2" />
<circle cx="465.117" cy="503.948" r="3.0" fill="red" stroke="black" stroke-width="1" />
 <line x1="465.117" y1="503.948" x2="540.436" y2="514.421" opacity="0.3" stroke="green" stroke-width="2" />
<circle cx="209.257" cy="335.055" r="3.0" fill="red" stroke="black" stroke-width="1" />
 <line x1="209.257" y1="335.055" x2="244.434" y2="308.86" opacity="0.3" stroke="green" stroke-width="2" />
<circle cx="638.466" cy="260.621" r="3.0" fill="red" stroke="black" stroke-width="1" />
 <line x1="638.466" y1="260.621" x2="659.748" y2="234.082" opacity="0.3" stroke="green" stroke-width="2" />
<circle cx="311.883" cy="303.165" r="3.0" fill="red" stroke="black" stroke-width="1" />
 <line x1="311.883" y1="303.165" x2="244.434" y2="308.86" opacity="0.3" stroke="green" stroke-width="2" />
<circle cx="777.197" cy="28.1944" r="3.0" fill="red" stroke="black" stroke-width="1" />
 <line x1="777.197" y1="28.1944" x2="719.67" y2="42.9812" opacity="0.3" stroke="green" stroke-width="2" />
<circle cx="794.094" cy="252.916" r="3.0" fill="red" stroke="black" stroke-width="1" />
 <line x1="794.094" y1="252.916" x2="780.696" y2="294.223" opacity="0.3" stroke="green" stroke-width="2" />
<circle cx="164.418" cy="379.91" r="3.0" fill="red" stroke="black" stroke-width="1" />
 <line x1="164.418" y1="379.91" x2="244.434" y2="308.86" opacity="0.3" stroke="green" stroke-width="2" />
<circle cx="668.386" cy="80.9192" r="3.0" fill="red" stroke="black" stroke-width="1" />
 <line x1="668.386" y1="80.9192" x2="663.188" y2="26.7883" opacity="0.3" stroke="green" stroke-width="2" />
<circle cx="597.291" cy="434.135" r="3.0" fill="red" stroke="black" stroke-width="1" />
 <line x1="597.291" y1="434.135" x2="549.146" y2="356.887" opacity="0.3" stroke="green" stroke-width="2" />
<circle cx="711.442" cy="491.784" r="3.0" fill="red" stroke="black" stroke-width="1" />
 <line x1="711.442" y1="491.784" x2="699.842" y2="461.45" opacity="0.3" stroke="green" stroke-width="2" />
<circle cx="50.2922" cy="435.718" r="3.0" fill="red" stroke="black" stroke-width="1" />
 <line x1="50.2922" y1="435.718" x2="14.1885" y2="484.705" opacity="0.3" stroke="green" stroke-width="2" />
<circle cx="244.186" cy="248.541" r="3.0" fill="red" stroke="black" stroke-width="1" />
 <line x1="244.186" y1="248.541" x2="265.433" y2="220.247" opacity="0.3" stroke="green" stroke-width="2" />
<circle cx="419.758" cy="188.746" r="3.0" fill="red" stroke="black" stroke-width="1" />
 <line x1="419.758" y1="188.746" x2="513.663" y2="21.9557" opacity="0.3" stroke="green" stroke-width="2" />
<circle cx="411.456" cy="521.28" r="3.0" fill="red" stroke="black" stroke-width="1" />
 <line x1="411.456" y1="521.28" x2="531.764" y2="507.606" opacity="0.3" stroke="green" stroke-width="2" />
<circle cx="573.194" cy="357.138" r="3.0" fill="red" stroke="black" stroke-width="1" />
 <line x1="573.194" y1="357.138" x2="549.146" y2="356.887" opacity="0.3" stroke="green" stroke-width="2" />
<circle cx="5.64758" cy="496.354" r="3.0" fill="red" stroke="black" stroke-width="1" />
 <line x1="5.64758" y1="496.354" x2="14.1885" y2="484.705" opacity="0.3" stroke="green" stroke-width="2" />
<circle cx="785.887" cy="739.702" r="3.0" fill="red" stroke="black" stroke-width="1" />
 <line x1="785.887" y1="739.702" x2="667.792" y2="639.226" opacity="0.3" stroke="green" stroke-width="2" />
<circle cx="670.381" cy="331.678" r="3.0" fill="red" stroke="black" stroke-width="1" />
 <line x1="670.381" y1="331.678" x2="659.748" y2="234.082" opacity="0.3" stroke="green" stroke-width="2" />
<circle cx="173.793" cy="397.837" r="3.0" fill="red" stroke="black" stroke-width="1" />
 <line x1="173.793" y1="397.837" x2="244.434" y2="308.86" opacity="0.3" stroke="green" stroke-width="2" />
<circle cx="131.999" cy="506.15" r="3.0" fill="red" stroke="black" stroke-width="1" />
 <line x1="131.999" y1="506.15" x2="90.8808" y2="687.27" opacity="0.3" stroke="green" stroke-width="2" />
<circle cx="17.8683" cy="68.3686" r="3.0" fill="red" stroke="black" stroke-width="1" />
 <line x1="17.8683" y1="68.3686" x2="9.41592" y2="92.8648" opacity="0.3" stroke="green" stroke-width="2" />
<circle cx="73.1306" cy="190.09" r="3.0" fill="red" stroke="black" stroke-width="1" />
 <line x1="73.1306" y1="190.09" x2="44.8846" y2="254.406" opacity="0.3" stroke="green" stroke-width="2" />
<circle cx="223.243" cy="609.097" r="3.0" fill="red" stroke="black" stroke-width="1" />
 <line x1="223.243" y1="609.097" x2="228.527" y2="542.218" opacity="0.3" stroke="green" stroke-width="2" />
<circle cx="438.618" cy="560.774" r="3.0" fill="red" stroke="black" stroke-width="1" />
 <line x1="438.618" y1="560.774" x2="481.435" y2="526.532" opacity="0.3" stroke="green" stroke-width="2" />
<circle cx="339.26" cy="466.584" r="3.0" fill="red" stroke="black" stroke-width="1" />
 <line x1="339.26" y1="466.584" x2="355.938" y2="396.584" opacity="0.3" stroke="green" stroke-width="2" />
<circle cx="629.527" cy="536.514" r="3.0" fill="red" stroke="black" stroke-width="1" />
 <line x1="629.527" y1="536.514" x2="646.123" y2="604.464" opacity="0.3" stroke="green" stroke-width="2" />
<circle cx="725.069" cy="290.486" r="3.0" fill="red" stroke="black" stroke-width="1" />
 <line x1="725.069" y1="290.486" x2="780.696" y2="294.223" opacity="0.3" stroke="green" stroke-width="2" />
<circle cx="639.102" cy="743.331" r="3.0" fill="red" stroke="black" stroke-width="1" />
 <line x1="639.102" y1="743.331" x2="620.642" y2="671.923" opacity="0.3" stroke="green" stroke-width="2" />
<circle cx="484.47" cy="220.522" r="3.0" fill="red" stroke="black" stroke-width="1" />
 <line x1="484.47" y1="220.522" x2="564.239" y2="223.162" opacity="0.3" stroke="green" stroke-width="2" />
<circle cx="766.894" cy="463.226" r="3.0" fill="red" stroke="black" stroke-width="1" />
 <line x1="766.894" y1="463.226" x2="699.842" y2="461.45" opacity="0.3" stroke="green" stroke-width="2" />
<circle cx="612.56" cy="31.9254" r="3.0" fill="red" stroke="black" stroke-width="1" />
 <line x1="612.56" y1="31.9254" x2="663.188" y2="26.7883" opacity="0.3" stroke="green" stroke-width="2" />
<circle cx="212.459" cy="31.3282" r="3.0" fill="red" stroke="black" stroke-width="1" />
 <line x1="212.459" y1="31.3282" x2="233.81" y2="130.339" opacity="0.3" stroke="green" stroke-width="2" />
<circle cx="455.67" cy="412.058" r="3.0" fill="red" stroke="black" stroke-width="1" />
 <line x1="455.67" y1="412.058" x2="531.764" y2="507.606" opacity="0.3" stroke="green" stroke-width="2" />
<circle cx="634.725" cy="779.117" r="3.0" fill="red" stroke="black" stroke-width="1" />
 <line x1="634.725" y1="779.117" x2="425.88" y2="734.101" opacity="0.3" stroke="green" stroke-width="2" />
<circle cx="59.0676" cy="462.623" r="3.0" fill="red" stroke="black" stroke-width="1" />
 <line x1="59.0676" y1="462.623" x2="14.1885" y2="484.705" opacity="0.3" stroke="green" stroke-width="2" />
<circle cx="455.9" cy="626.533" r="3.0" fill="red" stroke="black" stroke-width="1" />
 <line x1="455.9" y1="626.533" x2="489.955" y2="580.828" opacity="0.3" stroke="green" stroke-width="2" />
<circle cx="721.286" cy="507.532" r="3.0" fill="red" stroke="black" stroke-width="1" />
 <line x1="721.286" y1="507.532" x2="699.842" y2="461.45" opacity="0.3" stroke="green" stroke-width="2" />
<circle cx="294.658" cy="699.466" r="3.0" fill="red" stroke="black" stroke-width="1" />
 <line x1="294.658" y1="699.466" x2="296.509" y2="697.555" opacity="0.3" stroke="green" stroke-width="2" />
<circle cx="291.214" cy="795.396" r="3.0" fill="red" stroke="black" stroke-width="1" />
 <line x1="291.214" y1="795.396" x2="296.509" y2="697.555" opacity="0.3" stroke="green" stroke-width="2" />
<circle cx="617.434" cy="453.049" r="3.0" fill="red" stroke="black" stroke-width="1" />
 <line x1="617.434" y1="453.049" x2="531.764" y2="507.606" opacity="0.3" stroke="green" stroke-width="2" />
<circle cx="382.065" cy="516.751" r="3.0" fill="red" stroke="black" stroke-width="1" />
 <line x1="382.065" y1="516.751" x2="355.938" y2="396.584" opacity="0.3" stroke="green" stroke-width="2" />
<circle cx="791.888" cy="575.53" r="3.0" fill="red" stroke="black" stroke-width="1" />
 <line x1="791.888" y1="575.53" x2="653.697" y2="658.871" opacity="0.3" stroke="green" stroke-width="2" />
<circle cx="679.27" cy="237.948" r="3.0" fill="red" stroke="black" stroke-width="1" />
 <line x1="679.27" y1="237.948" x2="659.748" y2="234.082" opacity="0.3" stroke="green" stroke-width="2" />
<circle cx="158.498" cy="195.234" r="3.0" fill="red" stroke="black" stroke-width="1" />
 <line x1="158.498" y1="195.234" x2="148.184" y2="238.502" opacity="0.3" stroke="green" stroke-width="2" />
<circle cx="295.806" cy="689.245" r="3.0" fill="red" stroke="black" stroke-width="1" />
 <line x1="295.806" y1="689.245" x2="296.509" y2="697.555" opacity="0.3" stroke="green" stroke-width="2" />
<circle cx="312.121" cy="1.85257" r="3.0" fill="red" stroke="black" stroke-width="1" />
 <line x1="312.121" y1="1.85257" x2="233.81" y2="130.339" opacity="0.3" stroke="green" stroke-width="2" />
<circle cx="207.761" cy="238.784" r="3.0" fill="red" stroke="black" stroke-width="1" />
 <line x1="207.761" y1="238.784" x2="148.184" y2="238.502" opacity="0.3" stroke="green" stroke-width="2" />
<circle cx="527.934" cy="136.786" r="3.0" fill="red" stroke="black" stroke-width="1" />
 <line x1="527.934" y1="136.786" x2="544.974" y2="157.966" opacity="0.3" stroke="green" stroke-width="2" />
<circle cx="734.127" cy="71.6362" r="3.0" fill="red" stroke="black" stroke-width="1" />
 <line x1="734.127" y1="71.6362" x2="719.67" y2="42.9812" opacity="0.3" stroke="green" stroke-width="2" />
<circle cx="563.53" cy="281.462" r="3.0" fill="red" stroke="black" stroke-width="1" />
 <line x1="563.53" y1="281.462" x2="549.146" y2="356.887" opacity="0.3" stroke="green" stroke-width="2" />
<circle cx="525.466" cy="733.826" r="3.0" fill="red" stroke="black" stroke-width="1" />
 <line x1="525.466" y1="733.826" x2="574.208" y2="767.223" opacity="0.3" stroke="green" stroke-width="2" />
<circle cx="120.126" cy="758.87" r="3.0" fill="red" stroke="black" stroke-width="1" />
 <line x1="120.126" y1="758.87" x2="149.954" y2="723.322" opacity="0.3" stroke="green" stroke-width="2" />
<circle cx="96.4984" cy="40.7061" r="3.0" fill="red" stroke="black" stroke-width="1" />
 <line x1="96.4984" y1="40.7061" x2="9.41592" y2="92.8648" opacity="0.3" stroke="green" stroke-width="2" />
<circle cx="332.754" cy="160.233" r="3.0" fill="red" stroke="black" stroke-width="1" />
 <line x1="332.754" y1="160.233" x2="265.433" y2="220.247" opacity="0.3" stroke="green" stroke-width="2" />
<circle cx="688.927" cy="635.301" r="3.0" fill="red" stroke="black" stroke-width="1" />
 <line x1="688.927" y1="635.301" x2="667.792" y2="639.226" opacity="0.3" stroke="green" stroke-width="2" />
<circle cx="260.503" cy="142.084" r="3.0" fill="red" stroke="black" stroke-width="1" />
 <line x1="260.503" y1="142.084" x2="233.81" y2="130.339" opacity="0.3" stroke="green" stroke-width="2" />
<circle cx="329.538" cy="785.376" r="3.0" fill="red" stroke="black" stroke-width="1" />
 <line x1="329.538" y1="785.376" x2="149.954" y2="723.322" opacity="0.3" stroke="green" stroke-width="2" />
<circle cx="58.2881" cy="663.156" r="3.0" fill="red" stroke="black" stroke-width="1" />
 <line x1="58.2881" y1="663.156" x2="66.3917" y2="623.655" opacity="0.3" stroke="green" stroke-width="2" />
<circle cx="704.078" cy="678.625" r="3.0" fill="red" stroke="black" stroke-width="1" />
 <line x1="704.078" y1="678.625" x2="574.208" y2="767.223" opacity="0.3" stroke="green" stroke-width="2" />
<circle cx="79.4198" cy="393.015" r="3.0" fill="red" stroke="black" stroke-width="1" />
 <line x1="79.4198" y1="393.015" x2="44.8846" y2="254.406" opacity="0.3" stroke="green" stroke-width="2" />
<circle cx="465.275" cy="499.527" r="3.0" fill="red" stroke="black" stroke-width="1" />
 <line x1="465.275" y1="499.527" x2="481.435" y2="526.532" opacity="0.3" stroke="green" stroke-width="2" />
<circle cx="557.628" cy="736.072" r="3.0" fill="red" stroke="black" stroke-width="1" />
 <line x1="557.628" y1="736.072" x2="574.208" y2="767.223" opacity="0.3" stroke="green" stroke-width="2" />
<circle cx="177.528" cy="697.043" r="3.0" fill="red" stroke="black" stroke-width="1" />
 <line x1="177.528" y1="697.043" x2="149.954" y2="723.322" opacity="0.3" stroke="green" stroke-width="2" />
<circle cx="664.71" cy="297.858" r="3.0" fill="red" stroke="black" stroke-width="1" />
 <line x1="664.71" y1="297.858" x2="659.748" y2="234.082" opacity="0.3" stroke="green" stroke-width="2" />
<circle cx="501.117" cy="282.569" r="3.0" fill="red" stroke="black" stroke-width="1" />
 <line x1="501.117" y1="282.569" x2="459.706" y2="327.371" opacity="0.3" stroke="green" stroke-width="2" />
<circle cx="621.261" cy="729.485" r="3.0" fill="red" stroke="black" stroke-width="1" />
 <line x1="621.261" y1="729.485" x2="620.642" y2="671.923" opacity="0.3" stroke="green" stroke-width="2" />
<circle cx="587.047" cy="165.518" r="3.0" fill="red" stroke="black" stroke-width="1" />
 <line x1="587.047" y1="165.518" x2="544.974" y2="157.966" opacity="0.3" stroke="green" stroke-width="2" />
<circle cx="466.004" cy="468.182" r="3.0" fill="red" stroke="black" stroke-width="1" />
 <line x1="466.004" y1="468.182" x2="481.435" y2="526.532" opacity="0.3" stroke="green" stroke-width="2" />
<circle cx="610.251" cy="183.773" r="3.0" fill="red" stroke="black" stroke-width="1" />
 <line x1="610.251" y1="183.773" x2="659.748" y2="234.082" opacity="0.3" stroke="green" stroke-width="2" />
<circle cx="198.735" cy="503.17" r="3.0" fill="red" stroke="black" stroke-width="1" />
 <line x1="198.735" y1="503.17" x2="210.317" y2="527.41" opacity="0.3" stroke="green" stroke-width="2" />
<circle cx="292.286" cy="724.926" r="3.0" fill="red" stroke="black" stroke-width="1" />
 <line x1="292.286" y1="724.926" x2="296.509" y2="697.555" opacity="0.3" stroke="green" stroke-width="2" />
<circle cx="662.832" cy="460.566" r="3.0" fill="red" stroke="black" stroke-width="1" />
 <line x1="662.832" y1="460.566" x2="699.842" y2="461.45" opacity="0.3" stroke="green" stroke-width="2" />
<circle cx="238.855" cy="693.122" r="3.0" fill="red" stroke="black" stroke-width="1" />
 <line x1="238.855" y1="693.122" x2="296.509" y2="697.555" opacity="0.3" stroke="green" stroke-width="2" />
<circle cx="560.985" cy="567.18" r="3.0" fill="red" stroke="black" stroke-width="1" />
 <line x1="560.985" y1="567.18" x2="540.436" y2="514.421" opacity="0.3" stroke="green" stroke-width="2" />
<circle cx="123.164" cy="699.362" r="3.0" fill="red" stroke="black" stroke-width="1" />
 <line x1="123.164" y1="699.362" x2="149.954" y2="723.322" opacity="0.3" stroke="green" stroke-width="2" />
<circle cx="40.2961" cy="136.954" r="3.0" fill="red" stroke="black" stroke-width="1" />
 <line x1="40.2961" y1="136.954" x2="9.41592" y2="92.8648" opacity="0.3" stroke="green" stroke-width="2" />
<circle cx="75.0055" cy="281.016" r="3.0" fill="red" stroke="black" stroke-width="1" />
 <line x1="75.0055" y1="281.016" x2="44.8846" y2="254.406" opacity="0.3" stroke="green" stroke-width="2" />
<circle cx="6.18503" cy="723.606" r="3.0" fill="red" stroke="black" stroke-width="1" />
 <line x1="6.18503" y1="723.606" x2="90.8808" y2="687.27" opacity="0.3" stroke="green" stroke-width="2" />
<circle cx="377.083" cy="409.398" r="3.0" fill="red" stroke="black" stroke-width="1" />
 <line x1="377.083" y1="409.398" x2="355.938" y2="396.584" opacity="0.3" stroke="green" stroke-width="2" />
<circle cx="182.618" cy="572.209" r="3.0" fill="red" stroke="black" stroke-width="1" />
 <line x1="182.618" y1="572.209" x2="90.8808" y2="687.27" opacity="0.3" stroke="green" stroke-width="2" />
<circle cx="388.615" cy="223.315" r="3.0" fill="red" stroke="black" stroke-width="1" />
 <line x1="388.615" y1="223.315" x2="265.433" y2="220.247" opacity="0.3" stroke="green" stroke-width="2" />
<circle cx="125.113" cy="246.842" r="3.0" fill="red" stroke="black" stroke-width="1" />
 <line x1="125.113" y1="246.842" x2="148.184" y2="238.502" opacity="0.3" stroke="green" stroke-width="2" />
<circle cx="510.862" cy="45.8612" r="3.0" fill="red" stroke="black" stroke-width="1" />
 <line x1="510.862" y1="45.8612" x2="663.188" y2="26.7883" opacity="0.3" stroke="green" stroke-width="2" />
<circle cx="773.408" cy="261.178" r="3.0" fill="red" stroke="black" stroke-width="1" />
 <line x1="773.408" y1="261.178" x2="780.696" y2="294.223" opacity="0.3" stroke="green" stroke-width="2" />
</svg>
