<svg xmlns="http://www.w3.org/2000/svg" version="1.1" width="800" height="800">
"<rect x="0.0" y="0.0" width="800.0" height="800.0" fill ="white" /><circle cx="442.723" cy="8.3608" r="6.0" fill ="blue" stroke="black" stroke-width="1" />
<circle cx="311.775" cy="611.442" r="6.0" fill ="blue" stroke="black" stroke-width="1" />
<circle cx="267.692" cy="258.871" r="6.0" fill ="blue" stroke="black" stroke-width="1" />
<circle cx="382.606" cy="483.047" r="6.0" fill ="blue" stroke="black" stroke-width="1" />
<circle cx="208.394" cy="409.318" r="6.0" fill ="blue" stroke="black" stroke-width="1" />
<circle cx="450.643" cy="245.516" r="6.0" fill ="blue" stroke="black" stroke-width="1" />
<circle cx="779.005" cy="645.104" r="6.0" fill ="blue" stroke="black" stroke-width="1" />
<circle cx="370.727" cy="142.629" r="6.0" fill ="blue" stroke="black" stroke-width="1" />
<circle cx="162.449" cy="95.8816" r="6.0" fill ="blue" stroke="black" stroke-width="1" />
<circle cx="320.864" cy="720.604" r="6.0" fill ="blue" stroke="black" stroke-width="1" />
<circle cx="607.838" cy="685.38" r="6.0" fill ="blue" stroke="black" stroke-width="1" />
<circle cx="516.378" cy="496.21" r="6.0" fill ="blue" stroke="black" stroke-width="1" />
<circle cx="111.343" cy="406.967" r="6.0" fill ="blue" stroke="black" stroke-width="1" />
<circle cx="251.186" cy="670.67" r="6.0" fill ="blue" stroke="black" stroke-width="1" />
<circle cx="167.402" cy="522.93" r="6.0" fill ="blue" stroke="black" stroke-width="1" />
<circle cx="723.818" cy="326.515" r="6.0" fill ="blue" stroke="black" stroke-width="1" />
<circle cx="723.164" cy="49.4554" r="6.0" fill ="blue" stroke="black" stroke-width="1" />
<circle cx="88.8848" cy="677.998" r="6.0" fill ="blue" stroke="black" stroke-width="1" />
<circle cx="752.974" cy="491.242" r="6.0" fill ="blue" stroke="black" stroke-width="1" />
<circle cx="599.886" cy="189.923" r="6.0" fill ="blue" stroke="black" stroke-width="1" />
<circle cx="80.5496" cy="232.303" r="6.0" fill ="blue" stroke="black" stroke-width="1" />
<circle cx="774.103" cy="396.576" r="6.0" fill ="blue" stroke="black" stroke-width="1" />
<circle cx="3.99645" cy="595.769" r="6.0" fill ="blue" stroke="black" stroke-width="1" />
<circle cx="397.302" cy="454.542" r="3.0" fill="red" stroke="black" stroke-width="1" />
 <line x1="397.302" y1="454.542" x2="382.606" y2="483.047" opacity="0.3" stroke="green" stroke-width="2" />
<circle cx="130.094" cy="134.891" r="3.0" fill="red" stroke="black" stroke-width="1" />
 <line x1="130.094" y1="134.891" x2="162.449" y2="95.8816" opacity="0.3" stroke="green" stroke-width="2" />
<circle cx="220.926" cy="759.545" r="3.0" fill="red" stroke="black" stroke-width="1" />
 <line x1="220.926" y1="759.545" x2="251.186" y2="670.67" opacity="0.3" stroke="green" stroke-width="2" />
<circle cx="718.553" cy="273.265" r="3.0" fill="red" stroke="black" stroke-width="1" />
 <line x1="718.553" y1="273.265" x2="723.818" y2="326.515" opacity="0.3" stroke="green" stroke-width="2" />
<circle cx="644.202" cy="277.982" r="3.0" fill="red" stroke="black" stroke-width="1" />
 <line x1="644.202" y1="277.982" x2="599.886" y2="189.923" opacity="0.3" stroke="green" stroke-width="2" />
<circle cx="117.716" cy="527.85" r="3.0" fill="red" stroke="black" stroke-width="1" />
 <line x1="117.716" y1="527.85" x2="167.402" y2="522.93" opacity="0.3" stroke="green" stroke-width="2" />
<circle cx="745.878" cy="25.8188" r="3.0" fill="red" stroke="black" stroke-width="1" />
 <line x1="745.878" y1="25.8188" x2="723.164" y2="49.4554" opacity="0.3" stroke="green" stroke-width="2" />
<circle cx="116.566" cy="177.663" r="3.0" fill="red" stroke="black" stroke-width="1" />
 <line x1="116.566" y1="177.663" x2="80.5496" y2="232.303" opacity="0.3" stroke="green" stroke-width="2" />
<circle cx="404.513" cy="548.881" r="3.0" fill="red" stroke="black" stroke-width="1" />
 <line x1="404.513" y1="548.881" x2="516.378" y2="496.21" opacity="0.3" stroke="green" stroke-width="2" />
<circle cx="690.131" cy="333.998" r="3.0" fill="red" stroke="black" stroke-width="1" />
 <line x1="690.131" y1="333.998" x2="723.818" y2="326.515" opacity="0.3" stroke="green" stroke-width="2" />
<circle cx="739.134" cy="323.794" r="3.0" fill="red" stroke="black" stroke-width="1" />
 <line x1="739.134" y1="323.794" x2="774.103" y2="396.576" opacity="0.3" stroke="green" stroke-width="2" />
<circle cx="74.8152" cy="579.325" r="3.0" fill="red" stroke="black" stroke-width="1" />
 <line x1="74.8152" y1="579.325" x2="3.99645" y2="595.769" opacity="0.3" stroke="green" stroke-width="2" />
<circle cx="702.502" cy="569.605" r="3.0" fill="red" stroke="black" stroke-width="1" />
 <line x1="702.502" y1="569.605" x2="752.974" y2="491.242" opacity="0.3" stroke="green" stroke-width="2" />
<circle cx="713.721" cy="376.598" r="3.0" fill="red" stroke="black" stroke-width="1" />
 <line x1="713.721" y1="376.598" x2="774.103" y2="396.576" opacity="0.3" stroke="green" stroke-width="2" />
<circle cx="53.313" cy="764.362" r="3.0" fill="red" stroke="black" stroke-width="1" />
 <line x1="53.313" y1="764.362" x2="88.8848" y2="677.998" opacity="0.3" stroke="green" stroke-width="2" />
<circle cx="738.826" cy="512.738" r="3.0" fill="red" stroke="black" stroke-width="1" />
 <line x1="738.826" y1="512.738" x2="752.974" y2="491.242" opacity="0.3" stroke="green" stroke-width="2" />
<circle cx="310.167" cy="130.973" r="3.0" fill="red" stroke="black" stroke-width="1" />
 <line x1="310.167" y1="130.973" x2="370.727" y2="142.629" opacity="0.3" stroke="green" stroke-width="2" />
<circle cx="440.655" cy="689.595" r="3.0" fill="red" stroke="black" stroke-width="1" />
 <line x1="440.655" y1="689.595" x2="267.692" y2="258.871" opacity="0.3" stroke="green" stroke-width="2" />
<circle cx="240.31" cy="112.737" r="3.0" fill="red" stroke="black" stroke-width="1" />
 <line x1="240.31" y1="112.737" x2="370.727" y2="142.629" opacity="0.3" stroke="green" stroke-width="2" />
<circle cx="48.4154" cy="692.453" r="3.0" fill="red" stroke="black" stroke-width="1" />
 <line x1="48.4154" y1="692.453" x2="88.8848" y2="677.998" opacity="0.3" stroke="green" stroke-width="2" />
<circle cx="707.682" cy="115.355" r="3.0" fill="red" stroke="black" stroke-width="1" />
 <line x1="707.682" y1="115.355" x2="723.164" y2="49.4554" opacity="0.3" stroke="green" stroke-width="2" />
<circle cx="381.933" cy="81.1216" r="3.0" fill="red" stroke="black" stroke-width="1" />
 <line x1="381.933" y1="81.1216" x2="370.727" y2="142.629" opacity="0.3" stroke="green" stroke-width="2" />
<circle cx="80.9968" cy="798.861" r="3.0" fill="red" stroke="black" stroke-width="1" />
 <line x1="80.9968" y1="798.861" x2="88.8848" y2="677.998" opacity="0.3" stroke="green" stroke-width="2" />
<circle cx="233.934" cy="72.9541" r="3.0" fill="red" stroke="black" stroke-width="1" />
 <line x1="233.934" y1="72.9541" x2="162.449" y2="95.8816" opacity="0.3" stroke="green" stroke-width="2" />
<circle cx="739.302" cy="692.476" r="3.0" fill="red" stroke="black" stroke-width="1" />
 <line x1="739.302" y1="692.476" x2="779.005" y2="645.104" opacity="0.3" stroke="green" stroke-width="2" />
<circle cx="505.717" cy="259.271" r="3.0" fill="red" stroke="black" stroke-width="1" />
 <line x1="505.717" y1="259.271" x2="450.643" y2="245.516" opacity="0.3" stroke="green" stroke-width="2" />
<circle cx="438.07" cy="504.786" r="3.0" fill="red" stroke="black" stroke-width="1" />
 <line x1="438.07" y1="504.786" x2="516.378" y2="496.21" opacity="0.3" stroke="green" stroke-width="2" />
<circle cx="46.1807" cy="327.543" r="3.0" fill="red" stroke="black" stroke-width="1" />
 <line x1="46.1807" y1="327.543" x2="111.343" y2="406.967" opacity="0.3" stroke="green" stroke-width="2" />
<circle cx="270.319" cy="279.139" r="3.0" fill="red" stroke="black" stroke-width="1" />
 <line x1="270.319" y1="279.139" x2="450.643" y2="245.516" opacity="0.3" stroke="green" stroke-width="2" />
<circle cx="718.29" cy="213.327" r="3.0" fill="red" stroke="black" stroke-width="1" />
 <line x1="718.29" y1="213.327" x2="599.886" y2="189.923" opacity="0.3" stroke="green" stroke-width="2" />
<circle cx="715.978" cy="642.175" r="3.0" fill="red" stroke="black" stroke-width="1" />
 <line x1="715.978" y1="642.175" x2="779.005" y2="645.104" opacity="0.3" stroke="green" stroke-width="2" />
<circle cx="71.423" cy="236.326" r="3.0" fill="red" stroke="black" stroke-width="1" />
 <line x1="71.423" y1="236.326" x2="80.5496" y2="232.303" opacity="0.3" stroke="green" stroke-width="2" />
<circle cx="694.567" cy="735.159" r="3.0" fill="red" stroke="black" stroke-width="1" />
 <line x1="694.567" y1="735.159" x2="607.838" y2="685.38" opacity="0.3" stroke="green" stroke-width="2" />
<circle cx="261.014" cy="692.751" r="3.0" fill="red" stroke="black" stroke-width="1" />
 <line x1="261.014" y1="692.751" x2="251.186" y2="670.67" opacity="0.3" stroke="green" stroke-width="2" />
<circle cx="729.404" cy="628.443" r="3.0" fill="red" stroke="black" stroke-width="1" />
 <line x1="729.404" y1="628.443" x2="779.005" y2="645.104" opacity="0.3" stroke="green" stroke-width="2" />
<circle cx="734.41" cy="681.444" r="3.0" fill="red" stroke="black" stroke-width="1" />
 <line x1="734.41" y1="681.444" x2="779.005" y2="645.104" opacity="0.3" stroke="green" stroke-width="2" />
<circle cx="129.063" cy="582.639" r="3.0" fill="red" stroke="black" stroke-width="1" />
 <line x1="129.063" y1="582.639" x2="167.402" y2="522.93" opacity="0.3" stroke="green" stroke-width="2" />
<circle cx="450.782" cy="183.785" r="3.0" fill="red" stroke="black" stroke-width="1" />
 <line x1="450.782" y1="183.785" x2="450.643" y2="245.516" opacity="0.3" stroke="green" stroke-width="2" />
<circle cx="596.421" cy="171.222" r="3.0" fill="red" stroke="black" stroke-width="1" />
 <line x1="596.421" y1="171.222" x2="599.886" y2="189.923" opacity="0.3" stroke="green" stroke-width="2" />
<circle cx="743.122" cy="260.562" r="3.0" fill="red" stroke="black" stroke-width="1" />
 <line x1="743.122" y1="260.562" x2="723.818" y2="326.515" opacity="0.3" stroke="green" stroke-width="2" />
<circle cx="585.801" cy="597.819" r="3.0" fill="red" stroke="black" stroke-width="1" />
 <line x1="585.801" y1="597.819" x2="607.838" y2="685.38" opacity="0.3" stroke="green" stroke-width="2" />
<circle cx="8.48816" cy="258.887" r="3.0" fill="red" stroke="black" stroke-width="1" />
 <line x1="8.48816" y1="258.887" x2="80.5496" y2="232.303" opacity="0.3" stroke="green" stroke-width="2" />
<circle cx="303.432" cy="431.761" r="3.0" fill="red" stroke="black" stroke-width="1" />
 <line x1="303.432" y1="431.761" x2="208.394" y2="409.318" opacity="0.3" stroke="green" stroke-width="2" />
<circle cx="426.07" cy="268.194" r="3.0" fill="red" stroke="black" stroke-width="1" />
 <line x1="426.07" y1="268.194" x2="450.643" y2="245.516" opacity="0.3" stroke="green" stroke-width="2" />
<circle cx="561.153" cy="502.593" r="3.0" fill="red" stroke="black" stroke-width="1" />
 <line x1="561.153" y1="502.593" x2="516.378" y2="496.21" opacity="0.3" stroke="green" stroke-width="2" />
<circle cx="447.274" cy="229.426" r="3.0" fill="red" stroke="black" stroke-width="1" />
 <line x1="447.274" y1="229.426" x2="450.643" y2="245.516" opacity="0.3" stroke="green" stroke-width="2" />
<circle cx="665.081" cy="181.373" r="3.0" fill="red" stroke="black" stroke-width="1" />
 <line x1="665.081" y1="181.373" x2="599.886" y2="189.923" opacity="0.3" stroke="green" stroke-width="2" />
<circle cx="350.313" cy="657.962" r="3.0" fill="red" stroke="black" stroke-width="1" />
 <line x1="350.313" y1="657.962" x2="320.864" y2="720.604" opacity="0.3" stroke="green" stroke-width="2" />
<circle cx="216.511" cy="699.714" r="3.0" fill="red" stroke="black" stroke-width="1" />
 <line x1="216.511" y1="699.714" x2="251.186" y2="670.67" opacity="0.3" stroke="green" stroke-width="2" />
<circle cx="765.631" cy="557.898" r="3.0" fill="red" stroke="black" stroke-width="1" />
 <line x1="765.631" y1="557.898" x2="779.005" y2="645.104" opacity="0.3" stroke="green" stroke-width="2" />
<circle cx="405.224" cy="484.141" r="3.0" fill="red" stroke="black" stroke-width="1" />
 <line x1="405.224" y1="484.141" x2="382.606" y2="483.047" opacity="0.3" stroke="green" stroke-width="2" />
<circle cx="193.422" cy="750.461" r="3.0" fill="red" stroke="black" stroke-width="1" />
 <line x1="193.422" y1="750.461" x2="251.186" y2="670.67" opacity="0.3" stroke="green" stroke-width="2" />
<circle cx="543.241" cy="193.158" r="3.0" fill="red" stroke="black" stroke-width="1" />
 <line x1="543.241" y1="193.158" x2="599.886" y2="189.923" opacity="0.3" stroke="green" stroke-width="2" />
<circle cx="68.3083" cy="114.617" r="3.0" fill="red" stroke="black" stroke-width="1" />
 <line x1="68.3083" y1="114.617" x2="162.449" y2="95.8816" opacity="0.3" stroke="green" stroke-width="2" />
<circle cx="333.554" cy="591.503" r="3.0" fill="red" stroke="black" stroke-width="1" />
 <line x1="333.554" y1="591.503" x2="311.775" y2="611.442" opacity="0.3" stroke="green" stroke-width="2" />
<circle cx="764.248" cy="364.487" r="3.0" fill="red" stroke="black" stroke-width="1" />
 <line x1="764.248" y1="364.487" x2="774.103" y2="396.576" opacity="0.3" stroke="green" stroke-width="2" />
<circle cx="107.05" cy="437.304" r="3.0" fill="red" stroke="black" stroke-width="1" />
 <line x1="107.05" y1="437.304" x2="111.343" y2="406.967" opacity="0.3" stroke="green" stroke-width="2" />
<circle cx="124.002" cy="531.502" r="3.0" fill="red" stroke="black" stroke-width="1" />
 <line x1="124.002" y1="531.502" x2="167.402" y2="522.93" opacity="0.3" stroke="green" stroke-width="2" />
<circle cx="771.103" cy="654.831" r="3.0" fill="red" stroke="black" stroke-width="1" />
 <line x1="771.103" y1="654.831" x2="779.005" y2="645.104" opacity="0.3" stroke="green" stroke-width="2" />
<circle cx="646.753" cy="126.677" r="3.0" fill="red" stroke="black" stroke-width="1" />
 <line x1="646.753" y1="126.677" x2="723.164" y2="49.4554" opacity="0.3" stroke="green" stroke-width="2" />
<circle cx="383.591" cy="62.8406" r="3.0" fill="red" stroke="black" stroke-width="1" />
 <line x1="383.591" y1="62.8406" x2="442.723" y2="8.3608" opacity="0.3" stroke="green" stroke-width="2" />
<circle cx="602.126" cy="239.782" r="3.0" fill="red" stroke="black" stroke-width="1" />
 <line x1="602.126" y1="239.782" x2="599.886" y2="189.923" opacity="0.3" stroke="green" stroke-width="2" />
<circle cx="31.1401" cy="662.793" r="3.0" fill="red" stroke="black" stroke-width="1" />
 <line x1="31.1401" y1="662.793" x2="88.8848" y2="677.998" opacity="0.3" stroke="green" stroke-width="2" />
<circle cx="425.662" cy="100.984" r="3.0" fill="red" stroke="black" stroke-width="1" />
 <line x1="425.662" y1="100.984" x2="370.727" y2="142.629" opacity="0.3" stroke="green" stroke-width="2" />
<circle cx="490.857" cy="660.45" r="3.0" fill="red" stroke="black" stroke-width="1" />
 <line x1="490.857" y1="660.45" x2="607.838" y2="685.38" opacity="0.3" stroke="green" stroke-width="2" />
<circle cx="563.031" cy="45.4878" r="3.0" fill="red" stroke="black" stroke-width="1" />
 <line x1="563.031" y1="45.4878" x2="723.164" y2="49.4554" opacity="0.3" stroke="green" stroke-width="2" />
<circle cx="175.79" cy="408.063" r="3.0" fill="red" stroke="black" stroke-width="1" />
 <line x1="175.79" y1="408.063" x2="111.343" y2="406.967" opacity="0.3" stroke="green" stroke-width="2" />
<circle cx="518.638" cy="227.794" r="3.0" fill="red" stroke="black" stroke-width="1" />
 <line x1="518.638" y1="227.794" x2="450.643" y2="245.516" opacity="0.3" stroke="green" stroke-width="2" />
<circle cx="0.080736" cy="579.597" r="3.0" fill="red" stroke="black" stroke-width="1" />
 <line x1="0.080736" y1="579.597" x2="3.99645" y2="595.769" opacity="0.3" stroke="green" stroke-width="2" />
<circle cx="676.499" cy="507.711" r="3.0" fill="red" stroke="black" stroke-width="1" />
 <line x1="676.499" y1="507.711" x2="752.974" y2="491.242" opacity="0.3" stroke="green" stroke-width="2" />
<circle cx="497.433" cy="503.69" r="3.0" fill="red" stroke="black" stroke-width="1" />
 <line x1="497.433" y1="503.69" x2="516.378" y2="496.21" opacity="0.3" stroke="green" stroke-width="2" />
<circle cx="543.465" cy="510.455" r="3.0" fill="red" stroke="black" stroke-width="1" />
 <line x1="543.465" y1="510.455" x2="516.378" y2="496.21" opacity="0.3" stroke="green" stroke-width="2" />
<circle cx="274.197" cy="258.09" r="3.0" fill="red" stroke="black" stroke-width="1" />
 <line x1="274.197" y1="258.09" x2="267.692" y2="258.871" opacity="0.3" stroke="green" stroke-width="2" />
<circle cx="466.141" cy="29.7393" r="3.0" fill="red" stroke="black" stroke-width="1" />
 <line x1="466.141" y1="29.7393" x2="442.723" y2="8.3608" opacity="0.3" stroke="green" stroke-width="2" />
<circle cx="292.491" cy="799.758" r="3.0" fill="red" stroke="black" stroke-width="1" />
 <line x1="292.491" y1="799.758" x2="320.864" y2="720.604" opacity="0.3" stroke="green" stroke-width="2" />
<circle cx="194.152" cy="308.371" r="3.0" fill="red" stroke="black" stroke-width="1" />
 <line x1="194.152" y1="308.371" x2="208.394" y2="409.318" opacity="0.3" stroke="green" stroke-width="2" />
<circle cx="366.347" cy="163.245" r="3.0" fill="red" stroke="black" stroke-width="1" />
 <line x1="366.347" y1="163.245" x2="370.727" y2="142.629" opacity="0.3" stroke="green" stroke-width="2" />
<circle cx="707.471" cy="118.169" r="3.0" fill="red" stroke="black" stroke-width="1" />
 <line x1="707.471" y1="118.169" x2="723.164" y2="49.4554" opacity="0.3" stroke="green" stroke-width="2" />
<circle cx="195.307" cy="533.522" r="3.0" fill="red" stroke="black" stroke-width="1" />
 <line x1="195.307" y1="533.522" x2="167.402" y2="522.93" opacity="0.3" stroke="green" stroke-width="2" />
<circle cx="219.043" cy="75.0674" r="3.0" fill="red" stroke="black" stroke-width="1" />
 <line x1="219.043" y1="75.0674" x2="162.449" y2="95.8816" opacity="0.3" stroke="green" stroke-width="2" />
<circle cx="338.548" cy="566.644" r="3.0" fill="red" stroke="black" stroke-width="1" />
 <line x1="338.548" y1="566.644" x2="311.775" y2="611.442" opacity="0.3" stroke="green" stroke-width="2" />
<circle cx="676.746" cy="353.754" r="3.0" fill="red" stroke="black" stroke-width="1" />
 <line x1="676.746" y1="353.754" x2="723.818" y2="326.515" opacity="0.3" stroke="green" stroke-width="2" />
<circle cx="671.859" cy="498.25" r="3.0" fill="red" stroke="black" stroke-width="1" />
 <line x1="671.859" y1="498.25" x2="752.974" y2="491.242" opacity="0.3" stroke="green" stroke-width="2" />
<circle cx="172.702" cy="190.918" r="3.0" fill="red" stroke="black" stroke-width="1" />
 <line x1="172.702" y1="190.918" x2="80.5496" y2="232.303" opacity="0.3" stroke="green" stroke-width="2" />
<circle cx="89.1744" cy="527.809" r="3.0" fill="red" stroke="black" stroke-width="1" />
 <line x1="89.1744" y1="527.809" x2="3.99645" y2="595.769" opacity="0.3" stroke="green" stroke-width="2" />
<circle cx="610.172" cy="317.353" r="3.0" fill="red" stroke="black" stroke-width="1" />
 <line x1="610.172" y1="317.353" x2="723.818" y2="326.515" opacity="0.3" stroke="green" stroke-width="2" />
<circle cx="473.282" cy="63.4566" r="3.0" fill="red" stroke="black" stroke-width="1" />
 <line x1="473.282" y1="63.4566" x2="442.723" y2="8.3608" opacity="0.3" stroke="green" stroke-width="2" />
<circle cx="565.559" cy="712.389" r="3.0" fill="red" stroke="black" stroke-width="1" />
 <line x1="565.559" y1="712.389" x2="607.838" y2="685.38" opacity="0.3" stroke="green" stroke-width="2" />
<circle cx="72.0958" cy="632.863" r="3.0" fill="red" stroke="black" stroke-width="1" />
 <line x1="72.0958" y1="632.863" x2="3.99645" y2="595.769" opacity="0.3" stroke="green" stroke-width="2" />
<circle cx="150.931" cy="143.282" r="3.0" fill="red" stroke="black" stroke-width="1" />
 <line x1="150.931" y1="143.282" x2="162.449" y2="95.8816" opacity="0.3" stroke="green" stroke-width="2" />
<circle cx="454.426" cy="735.546" r="3.0" fill="red" stroke="black" stroke-width="1" />
 <line x1="454.426" y1="735.546" x2="607.838" y2="685.38" opacity="0.3" stroke="green" stroke-width="2" />
<circle cx="28.2989" cy="666.056" r="3.0" fill="red" stroke="black" stroke-width="1" />
 <line x1="28.2989" y1="666.056" x2="88.8848" y2="677.998" opacity="0.3" stroke="green" stroke-width="2" />
<circle cx="301.424" cy="764.502" r="3.0" fill="red" stroke="black" stroke-width="1" />
 <line x1="301.424" y1="764.502" x2="320.864" y2="720.604" opacity="0.3" stroke="green" stroke-width="2" />
<circle cx="420.988" cy="32.1921" r="3.0" fill="red" stroke="black" stroke-width="1" />
 <line x1="420.988" y1="32.1921" x2="442.723" y2="8.3608" opacity="0.3" stroke="green" stroke-width="2" />
<circle cx="90.0232" cy="625.068" r="3.0" fill="red" stroke="black" stroke-width="1" />
 <line x1="90.0232" y1="625.068" x2="88.8848" y2="677.998" opacity="0.3" stroke="green" stroke-width="2" />
<circle cx="99.2168" cy="254.694" r="3.0" fill="red" stroke="black" stroke-width="1" />
 <line x1="99.2168" y1="254.694" x2="80.5496" y2="232.303" opacity="0.3" stroke="green" stroke-width="2" />
<circle cx="135.418" cy="507.096" r="3.0" fill="red" stroke="black" stroke-width="1" />
 <line x1="135.418" y1="507.096" x2="167.402" y2="522.93" opacity="0.3" stroke="green" stroke-width="2" />
<circle cx="165.286" cy="21.3688" r="3.0" fill="red" stroke="black" stroke-width="1" />
 <line x1="165.286" y1="21.3688" x2="162.449" y2="95.8816" opacity="0.3" stroke="green" stroke-width="2" />
<circle cx="182.748" cy="402.043" r="3.0" fill="red" stroke="black" stroke-width="1" />
 <line x1="182.748" y1="402.043" x2="208.394" y2="409.318" opacity="0.3" stroke="green" stroke-width="2" />
<circle cx="515.401" cy="315.576" r="3.0" fill="red" stroke="black" stroke-width="1" />
 <line x1="515.401" y1="315.576" x2="450.643" y2="245.516" opacity="0.3" stroke="green" stroke-width="2" />
<circle cx="297.215" cy="153.898" r="3.0" fill="red" stroke="black" stroke-width="1" />
 <line x1="297.215" y1="153.898" x2="267.692" y2="258.871" opacity="0.3" stroke="green" stroke-width="2" />
<circle cx="250.014" cy="548.95" r="3.0" fill="red" stroke="black" stroke-width="1" />
 <line x1="250.014" y1="548.95" x2="167.402" y2="522.93" opacity="0.3" stroke="green" stroke-width="2" />
<circle cx="43.9237" cy="276.055" r="3.0" fill="red" stroke="black" stroke-width="1" />
 <line x1="43.9237" y1="276.055" x2="80.5496" y2="232.303" opacity="0.3" stroke="green" stroke-width="2" />
<circle cx="212.463" cy="55.064" r="3.0" fill="red" stroke="black" stroke-width="1" />
 <line x1="212.463" y1="55.064" x2="162.449" y2="95.8816" opacity="0.3" stroke="green" stroke-width="2" />
<circle cx="78.6389" cy="217.664" r="3.0" fill="red" stroke="black" stroke-width="1" />
 <line x1="78.6389" y1="217.664" x2="80.5496" y2="232.303" opacity="0.3" stroke="green" stroke-width="2" />
<circle cx="405.931" cy="472.414" r="3.0" fill="red" stroke="black" stroke-width="1" />
 <line x1="405.931" y1="472.414" x2="382.606" y2="483.047" opacity="0.3" stroke="green" stroke-width="2" />
<circle cx="616.478" cy="3.86196" r="3.0" fill="red" stroke="black" stroke-width="1" />
 <line x1="616.478" y1="3.86196" x2="723.164" y2="49.4554" opacity="0.3" stroke="green" stroke-width="2" />
<circle cx="440.942" cy="518.129" r="3.0" fill="red" stroke="black" stroke-width="1" />
 <line x1="440.942" y1="518.129" x2="382.606" y2="483.047" opacity="0.3" stroke="green" stroke-width="2" />
<circle cx="772.591" cy="526.343" r="3.0" fill="red" stroke="black" stroke-width="1" />
 <line x1="772.591" y1="526.343" x2="752.974" y2="491.242" opacity="0.3" stroke="green" stroke-width="2" />
<circle cx="410.114" cy="253.858" r="3.0" fill="red" stroke="black" stroke-width="1" />
 <line x1="410.114" y1="253.858" x2="450.643" y2="245.516" opacity="0.3" stroke="green" stroke-width="2" />
<circle cx="353.973" cy="403.198" r="3.0" fill="red" stroke="black" stroke-width="1" />
 <line x1="353.973" y1="403.198" x2="382.606" y2="483.047" opacity="0.3" stroke="green" stroke-width="2" />
<circle cx="74.4142" cy="137.615" r="3.0" fill="red" stroke="black" stroke-width="1" />
 <line x1="74.4142" y1="137.615" x2="774.103" y2="396.576" opacity="0.3" stroke="green" stroke-width="2" />
<circle cx="380.653" cy="517.44" r="3.0" fill="red" stroke="black" stroke-width="1" />
 <line x1="380.653" y1="517.44" x2="311.775" y2="611.442" opacity="0.3" stroke="green" stroke-width="2" />
<circle cx="469.604" cy="142.627" r="3.0" fill="red" stroke="black" stroke-width="1" />
 <line x1="469.604" y1="142.627" x2="450.643" y2="245.516" opacity="0.3" stroke="green" stroke-width="2" />
<circle cx="655.78" cy="629.695" r="3.0" fill="red" stroke="black" stroke-width="1" />
 <line x1="655.78" y1="629.695" x2="607.838" y2="685.38" opacity="0.3" stroke="green" stroke-width="2" />
<circle cx="47.1978" cy="590.138" r="3.0" fill="red" stroke="black" stroke-width="1" />
 <line x1="47.1978" y1="590.138" x2="3.99645" y2="595.769" opacity="0.3" stroke="green" stroke-width="2" />
<circle cx="699.912" cy="486.857" r="3.0" fill="red" stroke="black" stroke-width="1" />
 <line x1="699.912" y1="486.857" x2="774.103" y2="396.576" opacity="0.3" stroke="green" stroke-width="2" />
<circle cx="358.158" cy="707.57" r="3.0" fill="red" stroke="black" stroke-width="1" />
 <line x1="358.158" y1="707.57" x2="320.864" y2="720.604" opacity="0.3" stroke="green" stroke-width="2" />
<circle cx="699.454" cy="440.652" r="3.0" fill="red" stroke="black" stroke-width="1" />
 <line x1="699.454" y1="440.652" x2="723.818" y2="326.515" opacity="0.3" stroke="green" stroke-width="2" />
<circle cx="443.666" cy="90.232" r="3.0" fill="red" stroke="black" stroke-width="1" />
 <line x1="443.666" y1="90.232" x2="370.727" y2="142.629" opacity="0.3" stroke="green" stroke-width="2" />
<circle cx="438.838" cy="69.988" r="3.0" fill="red" stroke="black" stroke-width="1" />
 <line x1="438.838" y1="69.988" x2="442.723" y2="8.3608" opacity="0.3" stroke="green" stroke-width="2" />
<circle cx="420.194" cy="78.7926" r="3.0" fill="red" stroke="black" stroke-width="1" />
 <line x1="420.194" y1="78.7926" x2="442.723" y2="8.3608" opacity="0.3" stroke="green" stroke-width="2" />
<circle cx="773.254" cy="288.521" r="3.0" fill="red" stroke="black" stroke-width="1" />
 <line x1="773.254" y1="288.521" x2="723.818" y2="326.515" opacity="0.3" stroke="green" stroke-width="2" />
<circle cx="499.102" cy="556.34" r="3.0" fill="red" stroke="black" stroke-width="1" />
 <line x1="499.102" y1="556.34" x2="516.378" y2="496.21" opacity="0.3" stroke="green" stroke-width="2" />
<circle cx="647.828" cy="166.688" r="3.0" fill="red" stroke="black" stroke-width="1" />
 <line x1="647.828" y1="166.688" x2="599.886" y2="189.923" opacity="0.3" stroke="green" stroke-width="2" />
<circle cx="66.9738" cy="236.926" r="3.0" fill="red" stroke="black" stroke-width="1" />
 <line x1="66.9738" y1="236.926" x2="80.5496" y2="232.303" opacity="0.3" stroke="green" stroke-width="2" />
<circle cx="700.262" cy="601.438" r="3.0" fill="red" stroke="black" stroke-width="1" />
 <line x1="700.262" y1="601.438" x2="779.005" y2="645.104" opacity="0.3" stroke="green" stroke-width="2" />
<circle cx="260.786" cy="492.712" r="3.0" fill="red" stroke="black" stroke-width="1" />
 <line x1="260.786" y1="492.712" x2="167.402" y2="522.93" opacity="0.3" stroke="green" stroke-width="2" />
<circle cx="11.2098" cy="237.892" r="3.0" fill="red" stroke="black" stroke-width="1" />
 <line x1="11.2098" y1="237.892" x2="267.692" y2="258.871" opacity="0.3" stroke="green" stroke-width="2" />
<circle cx="487.68" cy="523.954" r="3.0" fill="red" stroke="black" stroke-width="1" />
 <line x1="487.68" y1="523.954" x2="516.378" y2="496.21" opacity="0.3" stroke="green" stroke-width="2" />
<circle cx="156.301" cy="447.489" r="3.0" fill="red" stroke="black" stroke-width="1" />
 <line x1="156.301" y1="447.489" x2="111.343" y2="406.967" opacity="0.3" stroke="green" stroke-width="2" />
<circle cx="147.346" cy="391.678" r="3.0" fill="red" stroke="black" stroke-width="1" />
 <line x1="147.346" y1="391.678" x2="111.343" y2="406.967" opacity="0.3" stroke="green" stroke-width="2" />
<circle cx="105.051" cy="392.318" r="3.0" fill="red" stroke="black" stroke-width="1" />
 <line x1="105.051" y1="392.318" x2="111.343" y2="406.967" opacity="0.3" stroke="green" stroke-width="2" />
<circle cx="282.992" cy="763.22" r="3.0" fill="red" stroke="black" stroke-width="1" />
 <line x1="282.992" y1="763.22" x2="320.864" y2="720.604" opacity="0.3" stroke="green" stroke-width="2" />
<circle cx="57.4412" cy="613.046" r="3.0" fill="red" stroke="black" stroke-width="1" />
 <line x1="57.4412" y1="613.046" x2="3.99645" y2="595.769" opacity="0.3" stroke="green" stroke-width="2" />
<circle cx="294.526" cy="429.061" r="3.0" fill="red" stroke="black" stroke-width="1" />
 <line x1="294.526" y1="429.061" x2="208.394" y2="409.318" opacity="0.3" stroke="green" stroke-width="2" />
<circle cx="446.136" cy="415.101" r="3.0" fill="red" stroke="black" stroke-width="1" />
 <line x1="446.136" y1="415.101" x2="382.606" y2="483.047" opacity="0.3" stroke="green" stroke-width="2" />
<circle cx="222.687" cy="582.668" r="3.0" fill="red" stroke="black" stroke-width="1" />
 <line x1="222.687" y1="582.668" x2="311.775" y2="611.442" opacity="0.3" stroke="green" stroke-width="2" />
</svg>
