<svg xmlns="http://www.w3.org/2000/svg" version="1.1" width="800" height="800">
"<rect x="0.0" y="0.0" width="800.0" height="800.0" fill ="white" /><circle cx="703.076" cy="378.734" r="6.0" fill ="blue" stroke="black" stroke-width="1" />
<circle cx="184.416" cy="100.317" r="6.0" fill ="blue" stroke="black" stroke-width="1" />
<circle cx="616.254" cy="80.2624" r="6.0" fill ="blue" stroke="black" stroke-width="1" />
<circle cx="24.4557" cy="102.97" r="6.0" fill ="blue" stroke="black" stroke-width="1" />
<circle cx="787.038" cy="699.249" r="6.0" fill ="blue" stroke="black" stroke-width="1" />
<circle cx="380.655" cy="107.002" r="6.0" fill ="blue" stroke="black" stroke-width="1" />
<circle cx="413.708" cy="621.924" r="6.0" fill ="blue" stroke="black" stroke-width="1" />
<circle cx="651.242" cy="522.422" r="6.0" fill ="blue" stroke="black" stroke-width="1" />
<circle cx="528.172" cy="661.306" r="6.0" fill ="blue" stroke="black" stroke-width="1" />
<circle cx="125.186" cy="214.255" r="6.0" fill ="blue" stroke="black" stroke-width="1" />
<circle cx="234.458" cy="206.236" r="6.0" fill ="blue" stroke="black" stroke-width="1" />
<circle cx="435.209" cy="573.84" r="6.0" fill ="blue" stroke="black" stroke-width="1" />
<circle cx="46.2299" cy="569.261" r="6.0" fill ="blue" stroke="black" stroke-width="1" />
<circle cx="38.1306" cy="403.559" r="6.0" fill ="blue" stroke="black" stroke-width="1" />
<circle cx="297.379" cy="472.845" r="6.0" fill ="blue" stroke="black" stroke-width="1" />
<circle cx="682.947" cy="346.03" r="6.0" fill ="blue" stroke="black" stroke-width="1" />
<circle cx="636.451" cy="239.293" r="6.0" fill ="blue" stroke="black" stroke-width="1" />
<circle cx="414.327" cy="711.909" r="6.0" fill ="blue" stroke="black" stroke-width="1" />
<circle cx="120.142" cy="675.682" r="6.0" fill ="blue" stroke="black" stroke-width="1" />
<circle cx="733.23" cy="21.7118" r="6.0" fill ="blue" stroke="black" stroke-width="1" />
<circle cx="665.291" cy="557.232" r="6.0" fill ="blue" stroke="black" stroke-width="1" />
<circle cx="650.546" cy="352.748" r="6.0" fill ="blue" stroke="black" stroke-width="1" />
<circle cx="554.888" cy="9.47728" r="6.0" fill ="blue" stroke="black" stroke-width="1" />
<circle cx="512.116" cy="378.304" r="6.0" fill ="blue" stroke="black" stroke-width="1" />
<circle cx="351.914" cy="414.592" r="6.0" fill ="blue" stroke="black" stroke-width="1" />
<circle cx="153.076" cy="698.128" r="6.0" fill ="blue" stroke="black" stroke-width="1" />
<circle cx="365.381" cy="232.317" r="6.0" fill ="blue" stroke="black" stroke-width="1" />
<circle cx="624.067" cy="229.806" r="6.0" fill ="blue" stroke="black" stroke-width="1" />
<circle cx="261.054" cy="682.582" r="6.0" fill ="blue" stroke="black" stroke-width="1" />
<circle cx="197.674" cy="196.031" r="6.0" fill ="blue" stroke="black" stroke-width="1" />
<circle cx="661.024" cy="630.327" r="6.0" fill ="blue" stroke="black" stroke-width="1" />
<circle cx="238.054" cy="512.769" r="6.0" fill ="blue" stroke="black" stroke-width="1" />
<circle cx="633.765" cy="145.502" r="6.0" fill ="blue" stroke="black" stroke-width="1" />
<circle cx="477.531" cy="143.076" r="6.0" fill ="blue" stroke="black" stroke-width="1" />
<circle cx="185.598" cy="319.966" r="6.0" fill ="blue" stroke="black" stroke-width="1" />
<circle cx="726.106" cy="771.855" r="6.0" fill ="blue" stroke="black" stroke-width="1" />
<circle cx="433.051" cy="760.816" r="3.0" fill="red" stroke="black" stroke-width="1" />
 <line x1="433.051" y1="760.816" x2="414.327" y2="711.909" opacity="0.3" stroke="green" stroke-width="2" />
<circle cx="338.049" cy="782.962" r="3.0" fill="red" stroke="black" stroke-width="1" />
 <line x1="338.049" y1="782.962" x2="414.327" y2="711.909" opacity="0.3" stroke="green" stroke-width="2" />
<circle cx="305.18" cy="198.818" r="3.0" fill="red" stroke="black" stroke-width="1" />
 <line x1="305.18" y1="198.818" x2="234.458" y2="206.236" opacity="0.3" stroke="green" stroke-width="2" />
<circle cx="250.16" cy="526.03" r="3.0" fill="red" stroke="black" stroke-width="1" />
 <line x1="250.16" y1="526.03" x2="238.054" y2="512.769" opacity="0.3" stroke="green" stroke-width="2" />
<circle cx="399.59" cy="281.115" r="3.0" fill="red" stroke="black" stroke-width="1" />
 <line x1="399.59" y1="281.115" x2="365.381" y2="232.317" opacity="0.3" stroke="green" stroke-width="2" />
<circle cx="526.332" cy="752.734" r="3.0" fill="red" stroke="black" stroke-width="1" />
 <line x1="526.332" y1="752.734" x2="528.172" y2="661.306" opacity="0.3" stroke="green" stroke-width="2" />
<circle cx="427.182" cy="290.396" r="3.0" fill="red" stroke="black" stroke-width="1" />
 <line x1="427.182" y1="290.396" x2="512.116" y2="378.304" opacity="0.3" stroke="green" stroke-width="2" />
<circle cx="4.91517" cy="487.121" r="3.0" fill="red" stroke="black" stroke-width="1" />
 <line x1="4.91517" y1="487.121" x2="46.2299" y2="569.261" opacity="0.3" stroke="green" stroke-width="2" />
<circle cx="59.573" cy="553.046" r="3.0" fill="red" stroke="black" stroke-width="1" />
 <line x1="59.573" y1="553.046" x2="120.142" y2="675.682" opacity="0.3" stroke="green" stroke-width="2" />
<circle cx="94.448" cy="619.444" r="3.0" fill="red" stroke="black" stroke-width="1" />
 <line x1="94.448" y1="619.444" x2="120.142" y2="675.682" opacity="0.3" stroke="green" stroke-width="2" />
<circle cx="285.034" cy="440.674" r="3.0" fill="red" stroke="black" stroke-width="1" />
 <line x1="285.034" y1="440.674" x2="185.598" y2="319.966" opacity="0.3" stroke="green" stroke-width="2" />
<circle cx="446.183" cy="456.228" r="3.0" fill="red" stroke="black" stroke-width="1" />
 <line x1="446.183" y1="456.228" x2="512.116" y2="378.304" opacity="0.3" stroke="green" stroke-width="2" />
<circle cx="704.339" cy="342.781" r="3.0" fill="red" stroke="black" stroke-width="1" />
 <line x1="704.339" y1="342.781" x2="682.947" y2="346.03" opacity="0.3" stroke="green" stroke-width="2" />
<circle cx="32.2366" cy="141.189" r="3.0" fill="red" stroke="black" stroke-width="1" />
 <line x1="32.2366" y1="141.189" x2="24.4557" y2="102.97" opacity="0.3" stroke="green" stroke-width="2" />
<circle cx="279.305" cy="714.033" r="3.0" fill="red" stroke="black" stroke-width="1" />
 <line x1="279.305" y1="714.033" x2="261.054" y2="682.582" opacity="0.3" stroke="green" stroke-width="2" />
<circle cx="426.506" cy="768.153" r="3.0" fill="red" stroke="black" stroke-width="1" />
 <line x1="426.506" y1="768.153" x2="414.327" y2="711.909" opacity="0.3" stroke="green" stroke-width="2" />
<circle cx="514.292" cy="761.249" r="3.0" fill="red" stroke="black" stroke-width="1" />
 <line x1="514.292" y1="761.249" x2="414.327" y2="711.909" opacity="0.3" stroke="green" stroke-width="2" />
<circle cx="574.742" cy="497.054" r="3.0" fill="red" stroke="black" stroke-width="1" />
 <line x1="574.742" y1="497.054" x2="651.242" y2="522.422" opacity="0.3" stroke="green" stroke-width="2" />
<circle cx="600.07" cy="340.222" r="3.0" fill="red" stroke="black" stroke-width="1" />
 <line x1="600.07" y1="340.222" x2="650.546" y2="352.748" opacity="0.3" stroke="green" stroke-width="2" />
<circle cx="159.761" cy="161.086" r="3.0" fill="red" stroke="black" stroke-width="1" />
 <line x1="159.761" y1="161.086" x2="125.186" y2="214.255" opacity="0.3" stroke="green" stroke-width="2" />
<circle cx="785.793" cy="72.1137" r="3.0" fill="red" stroke="black" stroke-width="1" />
 <line x1="785.793" y1="72.1137" x2="733.23" y2="21.7118" opacity="0.3" stroke="green" stroke-width="2" />
<circle cx="319.822" cy="251.749" r="3.0" fill="red" stroke="black" stroke-width="1" />
 <line x1="319.822" y1="251.749" x2="234.458" y2="206.236" opacity="0.3" stroke="green" stroke-width="2" />
<circle cx="59.5072" cy="170.894" r="3.0" fill="red" stroke="black" stroke-width="1" />
 <line x1="59.5072" y1="170.894" x2="24.4557" y2="102.97" opacity="0.3" stroke="green" stroke-width="2" />
<circle cx="466.346" cy="444.485" r="3.0" fill="red" stroke="black" stroke-width="1" />
 <line x1="466.346" y1="444.485" x2="512.116" y2="378.304" opacity="0.3" stroke="green" stroke-width="2" />
<circle cx="110.731" cy="380.138" r="3.0" fill="red" stroke="black" stroke-width="1" />
 <line x1="110.731" y1="380.138" x2="38.1306" y2="403.559" opacity="0.3" stroke="green" stroke-width="2" />
<circle cx="349.4" cy="428.873" r="3.0" fill="red" stroke="black" stroke-width="1" />
 <line x1="349.4" y1="428.873" x2="351.914" y2="414.592" opacity="0.3" stroke="green" stroke-width="2" />
<circle cx="298.605" cy="243.343" r="3.0" fill="red" stroke="black" stroke-width="1" />
 <line x1="298.605" y1="243.343" x2="234.458" y2="206.236" opacity="0.3" stroke="green" stroke-width="2" />
<circle cx="629.53" cy="263.502" r="3.0" fill="red" stroke="black" stroke-width="1" />
 <line x1="629.53" y1="263.502" x2="624.067" y2="229.806" opacity="0.3" stroke="green" stroke-width="2" />
<circle cx="385.634" cy="225.524" r="3.0" fill="red" stroke="black" stroke-width="1" />
 <line x1="385.634" y1="225.524" x2="365.381" y2="232.317" opacity="0.3" stroke="green" stroke-width="2" />
<circle cx="217.815" cy="180.874" r="3.0" fill="red" stroke="black" stroke-width="1" />
 <line x1="217.815" y1="180.874" x2="197.674" y2="196.031" opacity="0.3" stroke="green" stroke-width="2" />
<circle cx="550.443" cy="25.9613" r="3.0" fill="red" stroke="black" stroke-width="1" />
 <line x1="550.443" y1="25.9613" x2="554.888" y2="9.47728" opacity="0.3" stroke="green" stroke-width="2" />
<circle cx="772.658" cy="605.865" r="3.0" fill="red" stroke="black" stroke-width="1" />
 <line x1="772.658" y1="605.865" x2="665.291" y2="557.232" opacity="0.3" stroke="green" stroke-width="2" />
<circle cx="82.9168" cy="54.0975" r="3.0" fill="red" stroke="black" stroke-width="1" />
 <line x1="82.9168" y1="54.0975" x2="24.4557" y2="102.97" opacity="0.3" stroke="green" stroke-width="2" />
<circle cx="163.57" cy="514.786" r="3.0" fill="red" stroke="black" stroke-width="1" />
 <line x1="163.57" y1="514.786" x2="46.2299" y2="569.261" opacity="0.3" stroke="green" stroke-width="2" />
<circle cx="391.299" cy="788.334" r="3.0" fill="red" stroke="black" stroke-width="1" />
 <line x1="391.299" y1="788.334" x2="414.327" y2="711.909" opacity="0.3" stroke="green" stroke-width="2" />
<circle cx="658.881" cy="513.59" r="3.0" fill="red" stroke="black" stroke-width="1" />
 <line x1="658.881" y1="513.59" x2="651.242" y2="522.422" opacity="0.3" stroke="green" stroke-width="2" />
<circle cx="647.042" cy="93.576" r="3.0" fill="red" stroke="black" stroke-width="1" />
 <line x1="647.042" y1="93.576" x2="633.765" y2="145.502" opacity="0.3" stroke="green" stroke-width="2" />
<circle cx="695.73" cy="49.2064" r="3.0" fill="red" stroke="black" stroke-width="1" />
 <line x1="695.73" y1="49.2064" x2="733.23" y2="21.7118" opacity="0.3" stroke="green" stroke-width="2" />
<circle cx="603.013" cy="332.457" r="3.0" fill="red" stroke="black" stroke-width="1" />
 <line x1="603.013" y1="332.457" x2="650.546" y2="352.748" opacity="0.3" stroke="green" stroke-width="2" />
<circle cx="416.174" cy="38.6923" r="3.0" fill="red" stroke="black" stroke-width="1" />
 <line x1="416.174" y1="38.6923" x2="380.655" y2="107.002" opacity="0.3" stroke="green" stroke-width="2" />
<circle cx="572.928" cy="606.038" r="3.0" fill="red" stroke="black" stroke-width="1" />
 <line x1="572.928" y1="606.038" x2="651.242" y2="522.422" opacity="0.3" stroke="green" stroke-width="2" />
<circle cx="459.836" cy="586.274" r="3.0" fill="red" stroke="black" stroke-width="1" />
 <line x1="459.836" y1="586.274" x2="435.209" y2="573.84" opacity="0.3" stroke="green" stroke-width="2" />
<circle cx="158.976" cy="550.677" r="3.0" fill="red" stroke="black" stroke-width="1" />
 <line x1="158.976" y1="550.677" x2="46.2299" y2="569.261" opacity="0.3" stroke="green" stroke-width="2" />
<circle cx="499.818" cy="93.4144" r="3.0" fill="red" stroke="black" stroke-width="1" />
 <line x1="499.818" y1="93.4144" x2="477.531" y2="143.076" opacity="0.3" stroke="green" stroke-width="2" />
<circle cx="122.414" cy="347.87" r="3.0" fill="red" stroke="black" stroke-width="1" />
 <line x1="122.414" y1="347.87" x2="351.914" y2="414.592" opacity="0.3" stroke="green" stroke-width="2" />
<circle cx="427.437" cy="226.905" r="3.0" fill="red" stroke="black" stroke-width="1" />
 <line x1="427.437" y1="226.905" x2="365.381" y2="232.317" opacity="0.3" stroke="green" stroke-width="2" />
<circle cx="415.524" cy="284.879" r="3.0" fill="red" stroke="black" stroke-width="1" />
 <line x1="415.524" y1="284.879" x2="365.381" y2="232.317" opacity="0.3" stroke="green" stroke-width="2" />
<circle cx="379.678" cy="346.58" r="3.0" fill="red" stroke="black" stroke-width="1" />
 <line x1="379.678" y1="346.58" x2="365.381" y2="232.317" opacity="0.3" stroke="green" stroke-width="2" />
<circle cx="662.862" cy="223.426" r="3.0" fill="red" stroke="black" stroke-width="1" />
 <line x1="662.862" y1="223.426" x2="636.451" y2="239.293" opacity="0.3" stroke="green" stroke-width="2" />
<circle cx="224.322" cy="709.123" r="3.0" fill="red" stroke="black" stroke-width="1" />
 <line x1="224.322" y1="709.123" x2="153.076" y2="698.128" opacity="0.3" stroke="green" stroke-width="2" />
<circle cx="588.586" cy="68.2366" r="3.0" fill="red" stroke="black" stroke-width="1" />
 <line x1="588.586" y1="68.2366" x2="554.888" y2="9.47728" opacity="0.3" stroke="green" stroke-width="2" />
<circle cx="675.637" cy="137.354" r="3.0" fill="red" stroke="black" stroke-width="1" />
 <line x1="675.637" y1="137.354" x2="633.765" y2="145.502" opacity="0.3" stroke="green" stroke-width="2" />
<circle cx="673.123" cy="353.074" r="3.0" fill="red" stroke="black" stroke-width="1" />
 <line x1="673.123" y1="353.074" x2="682.947" y2="346.03" opacity="0.3" stroke="green" stroke-width="2" />
<circle cx="712.682" cy="323.862" r="3.0" fill="red" stroke="black" stroke-width="1" />
 <line x1="712.682" y1="323.862" x2="682.947" y2="346.03" opacity="0.3" stroke="green" stroke-width="2" />
<circle cx="98.1248" cy="407.551" r="3.0" fill="red" stroke="black" stroke-width="1" />
 <line x1="98.1248" y1="407.551" x2="153.076" y2="698.128" opacity="0.3" stroke="green" stroke-width="2" />
<circle cx="123.985" cy="469.194" r="3.0" fill="red" stroke="black" stroke-width="1" />
 <line x1="123.985" y1="469.194" x2="46.2299" y2="569.261" opacity="0.3" stroke="green" stroke-width="2" />
<circle cx="119.083" cy="677.218" r="3.0" fill="red" stroke="black" stroke-width="1" />
 <line x1="119.083" y1="677.218" x2="120.142" y2="675.682" opacity="0.3" stroke="green" stroke-width="2" />
<circle cx="689.782" cy="330.538" r="3.0" fill="red" stroke="black" stroke-width="1" />
 <line x1="689.782" y1="330.538" x2="682.947" y2="346.03" opacity="0.3" stroke="green" stroke-width="2" />
<circle cx="575.118" cy="288.422" r="3.0" fill="red" stroke="black" stroke-width="1" />
 <line x1="575.118" y1="288.422" x2="624.067" y2="229.806" opacity="0.3" stroke="green" stroke-width="2" />
<circle cx="582.611" cy="798.374" r="3.0" fill="red" stroke="black" stroke-width="1" />
 <line x1="582.611" y1="798.374" x2="726.106" y2="771.855" opacity="0.3" stroke="green" stroke-width="2" />
<circle cx="538.972" cy="398.769" r="3.0" fill="red" stroke="black" stroke-width="1" />
 <line x1="538.972" y1="398.769" x2="512.116" y2="378.304" opacity="0.3" stroke="green" stroke-width="2" />
<circle cx="736.476" cy="2.87524" r="3.0" fill="red" stroke="black" stroke-width="1" />
 <line x1="736.476" y1="2.87524" x2="733.23" y2="21.7118" opacity="0.3" stroke="green" stroke-width="2" />
<circle cx="197.326" cy="488.557" r="3.0" fill="red" stroke="black" stroke-width="1" />
 <line x1="197.326" y1="488.557" x2="297.379" y2="472.845" opacity="0.3" stroke="green" stroke-width="2" />
<circle cx="300.271" cy="90.2064" r="3.0" fill="red" stroke="black" stroke-width="1" />
 <line x1="300.271" y1="90.2064" x2="184.416" y2="100.317" opacity="0.3" stroke="green" stroke-width="2" />
<circle cx="17.5506" cy="571.292" r="3.0" fill="red" stroke="black" stroke-width="1" />
 <line x1="17.5506" y1="571.292" x2="46.2299" y2="569.261" opacity="0.3" stroke="green" stroke-width="2" />
<circle cx="231.78" cy="120.479" r="3.0" fill="red" stroke="black" stroke-width="1" />
 <line x1="231.78" y1="120.479" x2="184.416" y2="100.317" opacity="0.3" stroke="green" stroke-width="2" />
<circle cx="784.637" cy="319.578" r="3.0" fill="red" stroke="black" stroke-width="1" />
 <line x1="784.637" y1="319.578" x2="787.038" y2="699.249" opacity="0.3" stroke="green" stroke-width="2" />
<circle cx="674.391" cy="383.039" r="3.0" fill="red" stroke="black" stroke-width="1" />
 <line x1="674.391" y1="383.039" x2="703.076" y2="378.734" opacity="0.3" stroke="green" stroke-width="2" />
<circle cx="16.0068" cy="126.597" r="3.0" fill="red" stroke="black" stroke-width="1" />
 <line x1="16.0068" y1="126.597" x2="24.4557" y2="102.97" opacity="0.3" stroke="green" stroke-width="2" />
<circle cx="169.969" cy="766.086" r="3.0" fill="red" stroke="black" stroke-width="1" />
 <line x1="169.969" y1="766.086" x2="153.076" y2="698.128" opacity="0.3" stroke="green" stroke-width="2" />
<circle cx="378.178" cy="795.842" r="3.0" fill="red" stroke="black" stroke-width="1" />
 <line x1="378.178" y1="795.842" x2="414.327" y2="711.909" opacity="0.3" stroke="green" stroke-width="2" />
<circle cx="17.4111" cy="192.688" r="3.0" fill="red" stroke="black" stroke-width="1" />
 <line x1="17.4111" y1="192.688" x2="24.4557" y2="102.97" opacity="0.3" stroke="green" stroke-width="2" />
<circle cx="257.127" cy="332.584" r="3.0" fill="red" stroke="black" stroke-width="1" />
 <line x1="257.127" y1="332.584" x2="234.458" y2="206.236" opacity="0.3" stroke="green" stroke-width="2" />
<circle cx="441.031" cy="702.514" r="3.0" fill="red" stroke="black" stroke-width="1" />
 <line x1="441.031" y1="702.514" x2="413.708" y2="621.924" opacity="0.3" stroke="green" stroke-width="2" />
<circle cx="697.108" cy="205.747" r="3.0" fill="red" stroke="black" stroke-width="1" />
 <line x1="697.108" y1="205.747" x2="636.451" y2="239.293" opacity="0.3" stroke="green" stroke-width="2" />
<circle cx="369.397" cy="77.8383" r="3.0" fill="red" stroke="black" stroke-width="1" />
 <line x1="369.397" y1="77.8383" x2="380.655" y2="107.002" opacity="0.3" stroke="green" stroke-width="2" />
<circle cx="707.036" cy="739.798" r="3.0" fill="red" stroke="black" stroke-width="1" />
 <line x1="707.036" y1="739.798" x2="726.106" y2="771.855" opacity="0.3" stroke="green" stroke-width="2" />
<circle cx="739.253" cy="361.776" r="3.0" fill="red" stroke="black" stroke-width="1" />
 <line x1="739.253" y1="361.776" x2="703.076" y2="378.734" opacity="0.3" stroke="green" stroke-width="2" />
<circle cx="191.956" cy="204.615" r="3.0" fill="red" stroke="black" stroke-width="1" />
 <line x1="191.956" y1="204.615" x2="197.674" y2="196.031" opacity="0.3" stroke="green" stroke-width="2" />
<circle cx="617.675" cy="0.886928" r="3.0" fill="red" stroke="black" stroke-width="1" />
 <line x1="617.675" y1="0.886928" x2="616.254" y2="80.2624" opacity="0.3" stroke="green" stroke-width="2" />
<circle cx="76.0631" cy="1.75825" r="3.0" fill="red" stroke="black" stroke-width="1" />
 <line x1="76.0631" y1="1.75825" x2="24.4557" y2="102.97" opacity="0.3" stroke="green" stroke-width="2" />
<circle cx="604.752" cy="305.391" r="3.0" fill="red" stroke="black" stroke-width="1" />
 <line x1="604.752" y1="305.391" x2="636.451" y2="239.293" opacity="0.3" stroke="green" stroke-width="2" />
<circle cx="683.738" cy="593.593" r="3.0" fill="red" stroke="black" stroke-width="1" />
 <line x1="683.738" y1="593.593" x2="661.024" y2="630.327" opacity="0.3" stroke="green" stroke-width="2" />
<circle cx="31.1178" cy="273.627" r="3.0" fill="red" stroke="black" stroke-width="1" />
 <line x1="31.1178" y1="273.627" x2="125.186" y2="214.255" opacity="0.3" stroke="green" stroke-width="2" />
<circle cx="161.298" cy="302.701" r="3.0" fill="red" stroke="black" stroke-width="1" />
 <line x1="161.298" y1="302.701" x2="185.598" y2="319.966" opacity="0.3" stroke="green" stroke-width="2" />
<circle cx="14.3844" cy="451.45" r="3.0" fill="red" stroke="black" stroke-width="1" />
 <line x1="14.3844" y1="451.45" x2="38.1306" y2="403.559" opacity="0.3" stroke="green" stroke-width="2" />
<circle cx="96.1544" cy="266.133" r="3.0" fill="red" stroke="black" stroke-width="1" />
 <line x1="96.1544" y1="266.133" x2="125.186" y2="214.255" opacity="0.3" stroke="green" stroke-width="2" />
<circle cx="757.246" cy="641.395" r="3.0" fill="red" stroke="black" stroke-width="1" />
 <line x1="757.246" y1="641.395" x2="787.038" y2="699.249" opacity="0.3" stroke="green" stroke-width="2" />
<circle cx="779.327" cy="109.082" r="3.0" fill="red" stroke="black" stroke-width="1" />
 <line x1="779.327" y1="109.082" x2="616.254" y2="80.2624" opacity="0.3" stroke="green" stroke-width="2" />
<circle cx="651.176" cy="21.2683" r="3.0" fill="red" stroke="black" stroke-width="1" />
 <line x1="651.176" y1="21.2683" x2="616.254" y2="80.2624" opacity="0.3" stroke="green" stroke-width="2" />
<circle cx="48.3213" cy="42.8275" r="3.0" fill="red" stroke="black" stroke-width="1" />
 <line x1="48.3213" y1="42.8275" x2="24.4557" y2="102.97" opacity="0.3" stroke="green" stroke-width="2" />
<circle cx="201.423" cy="76.5148" r="3.0" fill="red" stroke="black" stroke-width="1" />
 <line x1="201.423" y1="76.5148" x2="197.674" y2="196.031" opacity="0.3" stroke="green" stroke-width="2" />
<circle cx="75.353" cy="435.298" r="3.0" fill="red" stroke="black" stroke-width="1" />
 <line x1="75.353" y1="435.298" x2="38.1306" y2="403.559" opacity="0.3" stroke="green" stroke-width="2" />
<circle cx="704.745" cy="512.1" r="3.0" fill="red" stroke="black" stroke-width="1" />
 <line x1="704.745" y1="512.1" x2="651.242" y2="522.422" opacity="0.3" stroke="green" stroke-width="2" />
<circle cx="775.025" cy="382.89" r="3.0" fill="red" stroke="black" stroke-width="1" />
 <line x1="775.025" y1="382.89" x2="703.076" y2="378.734" opacity="0.3" stroke="green" stroke-width="2" />
<circle cx="323.947" cy="17.8554" r="3.0" fill="red" stroke="black" stroke-width="1" />
 <line x1="323.947" y1="17.8554" x2="184.416" y2="100.317" opacity="0.3" stroke="green" stroke-width="2" />
<circle cx="789.98" cy="649.415" r="3.0" fill="red" stroke="black" stroke-width="1" />
 <line x1="789.98" y1="649.415" x2="726.106" y2="771.855" opacity="0.3" stroke="green" stroke-width="2" />
<circle cx="574.131" cy="99.5792" r="3.0" fill="red" stroke="black" stroke-width="1" />
 <line x1="574.131" y1="99.5792" x2="633.765" y2="145.502" opacity="0.3" stroke="green" stroke-width="2" />
<circle cx="730.474" cy="95.1176" r="3.0" fill="red" stroke="black" stroke-width="1" />
 <line x1="730.474" y1="95.1176" x2="682.947" y2="346.03" opacity="0.3" stroke="green" stroke-width="2" />
<circle cx="100.951" cy="226.91" r="3.0" fill="red" stroke="black" stroke-width="1" />
 <line x1="100.951" y1="226.91" x2="125.186" y2="214.255" opacity="0.3" stroke="green" stroke-width="2" />
<circle cx="315.202" cy="657.355" r="3.0" fill="red" stroke="black" stroke-width="1" />
 <line x1="315.202" y1="657.355" x2="153.076" y2="698.128" opacity="0.3" stroke="green" stroke-width="2" />
<circle cx="419.861" cy="611.002" r="3.0" fill="red" stroke="black" stroke-width="1" />
 <line x1="419.861" y1="611.002" x2="413.708" y2="621.924" opacity="0.3" stroke="green" stroke-width="2" />
<circle cx="270.178" cy="333.654" r="3.0" fill="red" stroke="black" stroke-width="1" />
 <line x1="270.178" y1="333.654" x2="185.598" y2="319.966" opacity="0.3" stroke="green" stroke-width="2" />
<circle cx="69.8874" cy="233.68" r="3.0" fill="red" stroke="black" stroke-width="1" />
 <line x1="69.8874" y1="233.68" x2="125.186" y2="214.255" opacity="0.3" stroke="green" stroke-width="2" />
<circle cx="739.285" cy="366.109" r="3.0" fill="red" stroke="black" stroke-width="1" />
 <line x1="739.285" y1="366.109" x2="703.076" y2="378.734" opacity="0.3" stroke="green" stroke-width="2" />
<circle cx="325.246" cy="505.962" r="3.0" fill="red" stroke="black" stroke-width="1" />
 <line x1="325.246" y1="505.962" x2="297.379" y2="472.845" opacity="0.3" stroke="green" stroke-width="2" />
<circle cx="621.781" cy="676.184" r="3.0" fill="red" stroke="black" stroke-width="1" />
 <line x1="621.781" y1="676.184" x2="661.024" y2="630.327" opacity="0.3" stroke="green" stroke-width="2" />
<circle cx="530.746" cy="382.174" r="3.0" fill="red" stroke="black" stroke-width="1" />
 <line x1="530.746" y1="382.174" x2="512.116" y2="378.304" opacity="0.3" stroke="green" stroke-width="2" />
<circle cx="107.361" cy="778.926" r="3.0" fill="red" stroke="black" stroke-width="1" />
 <line x1="107.361" y1="778.926" x2="120.142" y2="675.682" opacity="0.3" stroke="green" stroke-width="2" />
<circle cx="493.707" cy="336.395" r="3.0" fill="red" stroke="black" stroke-width="1" />
 <line x1="493.707" y1="336.395" x2="512.116" y2="378.304" opacity="0.3" stroke="green" stroke-width="2" />
<circle cx="259.394" cy="530.151" r="3.0" fill="red" stroke="black" stroke-width="1" />
 <line x1="259.394" y1="530.151" x2="238.054" y2="512.769" opacity="0.3" stroke="green" stroke-width="2" />
<circle cx="639.086" cy="285.553" r="3.0" fill="red" stroke="black" stroke-width="1" />
 <line x1="639.086" y1="285.553" x2="636.451" y2="239.293" opacity="0.3" stroke="green" stroke-width="2" />
<circle cx="730.94" cy="336.53" r="3.0" fill="red" stroke="black" stroke-width="1" />
 <line x1="730.94" y1="336.53" x2="703.076" y2="378.734" opacity="0.3" stroke="green" stroke-width="2" />
<circle cx="559.553" cy="23.1903" r="3.0" fill="red" stroke="black" stroke-width="1" />
 <line x1="559.553" y1="23.1903" x2="554.888" y2="9.47728" opacity="0.3" stroke="green" stroke-width="2" />
<circle cx="236.149" cy="632.567" r="3.0" fill="red" stroke="black" stroke-width="1" />
 <line x1="236.149" y1="632.567" x2="261.054" y2="682.582" opacity="0.3" stroke="green" stroke-width="2" />
<circle cx="677.229" cy="793.634" r="3.0" fill="red" stroke="black" stroke-width="1" />
 <line x1="677.229" y1="793.634" x2="726.106" y2="771.855" opacity="0.3" stroke="green" stroke-width="2" />
<circle cx="773.39" cy="3.2187" r="3.0" fill="red" stroke="black" stroke-width="1" />
 <line x1="773.39" y1="3.2187" x2="733.23" y2="21.7118" opacity="0.3" stroke="green" stroke-width="2" />
<circle cx="65.047" cy="426.423" r="3.0" fill="red" stroke="black" stroke-width="1" />
 <line x1="65.047" y1="426.423" x2="38.1306" y2="403.559" opacity="0.3" stroke="green" stroke-width="2" />
<circle cx="793.733" cy="252.528" r="3.0" fill="red" stroke="black" stroke-width="1" />
 <line x1="793.733" y1="252.528" x2="682.947" y2="346.03" opacity="0.3" stroke="green" stroke-width="2" />
<circle cx="593.437" cy="669.13" r="3.0" fill="red" stroke="black" stroke-width="1" />
 <line x1="593.437" y1="669.13" x2="661.024" y2="630.327" opacity="0.3" stroke="green" stroke-width="2" />
<circle cx="595.851" cy="693.276" r="3.0" fill="red" stroke="black" stroke-width="1" />
 <line x1="595.851" y1="693.276" x2="661.024" y2="630.327" opacity="0.3" stroke="green" stroke-width="2" />
<circle cx="567.981" cy="274.275" r="3.0" fill="red" stroke="black" stroke-width="1" />
 <line x1="567.981" y1="274.275" x2="624.067" y2="229.806" opacity="0.3" stroke="green" stroke-width="2" />
<circle cx="521.871" cy="629.982" r="3.0" fill="red" stroke="black" stroke-width="1" />
 <line x1="521.871" y1="629.982" x2="528.172" y2="661.306" opacity="0.3" stroke="green" stroke-width="2" />
<circle cx="792.861" cy="595.953" r="3.0" fill="red" stroke="black" stroke-width="1" />
 <line x1="792.861" y1="595.953" x2="665.291" y2="557.232" opacity="0.3" stroke="green" stroke-width="2" />
<circle cx="398.483" cy="487.263" r="3.0" fill="red" stroke="black" stroke-width="1" />
 <line x1="398.483" y1="487.263" x2="297.379" y2="472.845" opacity="0.3" stroke="green" stroke-width="2" />
<circle cx="592.921" cy="28.237" r="3.0" fill="red" stroke="black" stroke-width="1" />
 <line x1="592.921" y1="28.237" x2="636.451" y2="239.293" opacity="0.3" stroke="green" stroke-width="2" />
<circle cx="794.482" cy="82.696" r="3.0" fill="red" stroke="black" stroke-width="1" />
 <line x1="794.482" y1="82.696" x2="633.765" y2="145.502" opacity="0.3" stroke="green" stroke-width="2" />
<circle cx="350.702" cy="161.051" r="3.0" fill="red" stroke="black" stroke-width="1" />
 <line x1="350.702" y1="161.051" x2="380.655" y2="107.002" opacity="0.3" stroke="green" stroke-width="2" />
<circle cx="84.5248" cy="423.083" r="3.0" fill="red" stroke="black" stroke-width="1" />
 <line x1="84.5248" y1="423.083" x2="38.1306" y2="403.559" opacity="0.3" stroke="green" stroke-width="2" />
<circle cx="135.239" cy="275.806" r="3.0" fill="red" stroke="black" stroke-width="1" />
 <line x1="135.239" y1="275.806" x2="125.186" y2="214.255" opacity="0.3" stroke="green" stroke-width="2" />
<circle cx="425.9" cy="99.7784" r="3.0" fill="red" stroke="black" stroke-width="1" />
 <line x1="425.9" y1="99.7784" x2="477.531" y2="143.076" opacity="0.3" stroke="green" stroke-width="2" />
<circle cx="790.334" cy="707.252" r="3.0" fill="red" stroke="black" stroke-width="1" />
 <line x1="790.334" y1="707.252" x2="787.038" y2="699.249" opacity="0.3" stroke="green" stroke-width="2" />
<circle cx="690.554" cy="230.042" r="3.0" fill="red" stroke="black" stroke-width="1" />
 <line x1="690.554" y1="230.042" x2="636.451" y2="239.293" opacity="0.3" stroke="green" stroke-width="2" />
<circle cx="502.048" cy="671.483" r="3.0" fill="red" stroke="black" stroke-width="1" />
 <line x1="502.048" y1="671.483" x2="528.172" y2="661.306" opacity="0.3" stroke="green" stroke-width="2" />
<circle cx="322.145" cy="441.31" r="3.0" fill="red" stroke="black" stroke-width="1" />
 <line x1="322.145" y1="441.31" x2="351.914" y2="414.592" opacity="0.3" stroke="green" stroke-width="2" />
<circle cx="356.614" cy="757.298" r="3.0" fill="red" stroke="black" stroke-width="1" />
 <line x1="356.614" y1="757.298" x2="261.054" y2="682.582" opacity="0.3" stroke="green" stroke-width="2" />
<circle cx="375.748" cy="512.318" r="3.0" fill="red" stroke="black" stroke-width="1" />
 <line x1="375.748" y1="512.318" x2="435.209" y2="573.84" opacity="0.3" stroke="green" stroke-width="2" />
<circle cx="202.826" cy="540.915" r="3.0" fill="red" stroke="black" stroke-width="1" />
 <line x1="202.826" y1="540.915" x2="238.054" y2="512.769" opacity="0.3" stroke="green" stroke-width="2" />
<circle cx="90.1352" cy="755.488" r="3.0" fill="red" stroke="black" stroke-width="1" />
 <line x1="90.1352" y1="755.488" x2="153.076" y2="698.128" opacity="0.3" stroke="green" stroke-width="2" />
<circle cx="655.722" cy="447.861" r="3.0" fill="red" stroke="black" stroke-width="1" />
 <line x1="655.722" y1="447.861" x2="651.242" y2="522.422" opacity="0.3" stroke="green" stroke-width="2" />
<circle cx="277.199" cy="86.2552" r="3.0" fill="red" stroke="black" stroke-width="1" />
 <line x1="277.199" y1="86.2552" x2="197.674" y2="196.031" opacity="0.3" stroke="green" stroke-width="2" />
<circle cx="680.318" cy="34.7606" r="3.0" fill="red" stroke="black" stroke-width="1" />
 <line x1="680.318" y1="34.7606" x2="616.254" y2="80.2624" opacity="0.3" stroke="green" stroke-width="2" />
<circle cx="444.186" cy="491.397" r="3.0" fill="red" stroke="black" stroke-width="1" />
 <line x1="444.186" y1="491.397" x2="351.914" y2="414.592" opacity="0.3" stroke="green" stroke-width="2" />
<circle cx="696.856" cy="42.0422" r="3.0" fill="red" stroke="black" stroke-width="1" />
 <line x1="696.856" y1="42.0422" x2="633.765" y2="145.502" opacity="0.3" stroke="green" stroke-width="2" />
<circle cx="482.254" cy="680.002" r="3.0" fill="red" stroke="black" stroke-width="1" />
 <line x1="482.254" y1="680.002" x2="528.172" y2="661.306" opacity="0.3" stroke="green" stroke-width="2" />
<circle cx="553.574" cy="624.029" r="3.0" fill="red" stroke="black" stroke-width="1" />
 <line x1="553.574" y1="624.029" x2="528.172" y2="661.306" opacity="0.3" stroke="green" stroke-width="2" />
<circle cx="130.583" cy="727.838" r="3.0" fill="red" stroke="black" stroke-width="1" />
 <line x1="130.583" y1="727.838" x2="120.142" y2="675.682" opacity="0.3" stroke="green" stroke-width="2" />
<circle cx="339.638" cy="459.964" r="3.0" fill="red" stroke="black" stroke-width="1" />
 <line x1="339.638" y1="459.964" x2="297.379" y2="472.845" opacity="0.3" stroke="green" stroke-width="2" />
<circle cx="794.411" cy="503.078" r="3.0" fill="red" stroke="black" stroke-width="1" />
 <line x1="794.411" y1="503.078" x2="665.291" y2="557.232" opacity="0.3" stroke="green" stroke-width="2" />
<circle cx="595.218" cy="273.003" r="3.0" fill="red" stroke="black" stroke-width="1" />
 <line x1="595.218" y1="273.003" x2="624.067" y2="229.806" opacity="0.3" stroke="green" stroke-width="2" />
<circle cx="768.82" cy="42.3312" r="3.0" fill="red" stroke="black" stroke-width="1" />
 <line x1="768.82" y1="42.3312" x2="733.23" y2="21.7118" opacity="0.3" stroke="green" stroke-width="2" />
<circle cx="295.921" cy="471.92" r="3.0" fill="red" stroke="black" stroke-width="1" />
 <line x1="295.921" y1="471.92" x2="297.379" y2="472.845" opacity="0.3" stroke="green" stroke-width="2" />
<circle cx="118.262" cy="56.4679" r="3.0" fill="red" stroke="black" stroke-width="1" />
 <line x1="118.262" y1="56.4679" x2="184.416" y2="100.317" opacity="0.3" stroke="green" stroke-width="2" />
<circle cx="766.695" cy="717.054" r="3.0" fill="red" stroke="black" stroke-width="1" />
 <line x1="766.695" y1="717.054" x2="528.172" y2="661.306" opacity="0.3" stroke="green" stroke-width="2" />
<circle cx="552.974" cy="234.513" r="3.0" fill="red" stroke="black" stroke-width="1" />
 <line x1="552.974" y1="234.513" x2="624.067" y2="229.806" opacity="0.3" stroke="green" stroke-width="2" />
<circle cx="432.573" cy="604.624" r="3.0" fill="red" stroke="black" stroke-width="1" />
 <line x1="432.573" y1="604.624" x2="413.708" y2="621.924" opacity="0.3" stroke="green" stroke-width="2" />
<circle cx="234.901" cy="526.607" r="3.0" fill="red" stroke="black" stroke-width="1" />
 <line x1="234.901" y1="526.607" x2="238.054" y2="512.769" opacity="0.3" stroke="green" stroke-width="2" />
<circle cx="719.809" cy="593.136" r="3.0" fill="red" stroke="black" stroke-width="1" />
 <line x1="719.809" y1="593.136" x2="665.291" y2="557.232" opacity="0.3" stroke="green" stroke-width="2" />
<circle cx="558.206" cy="231.338" r="3.0" fill="red" stroke="black" stroke-width="1" />
 <line x1="558.206" y1="231.338" x2="624.067" y2="229.806" opacity="0.3" stroke="green" stroke-width="2" />
<circle cx="448.692" cy="34.2462" r="3.0" fill="red" stroke="black" stroke-width="1" />
 <line x1="448.692" y1="34.2462" x2="554.888" y2="9.47728" opacity="0.3" stroke="green" stroke-width="2" />
<circle cx="485.07" cy="177.154" r="3.0" fill="red" stroke="black" stroke-width="1" />
 <line x1="485.07" y1="177.154" x2="477.531" y2="143.076" opacity="0.3" stroke="green" stroke-width="2" />
<circle cx="265.004" cy="651.584" r="3.0" fill="red" stroke="black" stroke-width="1" />
 <line x1="265.004" y1="651.584" x2="238.054" y2="512.769" opacity="0.3" stroke="green" stroke-width="2" />
<circle cx="181.496" cy="427.934" r="3.0" fill="red" stroke="black" stroke-width="1" />
 <line x1="181.496" y1="427.934" x2="153.076" y2="698.128" opacity="0.3" stroke="green" stroke-width="2" />
<circle cx="587.518" cy="573.387" r="3.0" fill="red" stroke="black" stroke-width="1" />
 <line x1="587.518" y1="573.387" x2="665.291" y2="557.232" opacity="0.3" stroke="green" stroke-width="2" />
<circle cx="461.819" cy="720.578" r="3.0" fill="red" stroke="black" stroke-width="1" />
 <line x1="461.819" y1="720.578" x2="435.209" y2="573.84" opacity="0.3" stroke="green" stroke-width="2" />
<circle cx="248.364" cy="19.2334" r="3.0" fill="red" stroke="black" stroke-width="1" />
 <line x1="248.364" y1="19.2334" x2="184.416" y2="100.317" opacity="0.3" stroke="green" stroke-width="2" />
<circle cx="368.813" cy="443.008" r="3.0" fill="red" stroke="black" stroke-width="1" />
 <line x1="368.813" y1="443.008" x2="351.914" y2="414.592" opacity="0.3" stroke="green" stroke-width="2" />
<circle cx="435.899" cy="767.809" r="3.0" fill="red" stroke="black" stroke-width="1" />
 <line x1="435.899" y1="767.809" x2="787.038" y2="699.249" opacity="0.3" stroke="green" stroke-width="2" />
<circle cx="257.835" cy="467.259" r="3.0" fill="red" stroke="black" stroke-width="1" />
 <line x1="257.835" y1="467.259" x2="238.054" y2="512.769" opacity="0.3" stroke="green" stroke-width="2" />
<circle cx="778.668" cy="4.45771" r="3.0" fill="red" stroke="black" stroke-width="1" />
 <line x1="778.668" y1="4.45771" x2="733.23" y2="21.7118" opacity="0.3" stroke="green" stroke-width="2" />
<circle cx="147.918" cy="345.942" r="3.0" fill="red" stroke="black" stroke-width="1" />
 <line x1="147.918" y1="345.942" x2="185.598" y2="319.966" opacity="0.3" stroke="green" stroke-width="2" />
<circle cx="387.201" cy="548.251" r="3.0" fill="red" stroke="black" stroke-width="1" />
 <line x1="387.201" y1="548.251" x2="435.209" y2="573.84" opacity="0.3" stroke="green" stroke-width="2" />
<circle cx="680.834" cy="12.9674" r="3.0" fill="red" stroke="black" stroke-width="1" />
 <line x1="680.834" y1="12.9674" x2="554.888" y2="9.47728" opacity="0.3" stroke="green" stroke-width="2" />
<circle cx="241.879" cy="576.61" r="3.0" fill="red" stroke="black" stroke-width="1" />
 <line x1="241.879" y1="576.61" x2="414.327" y2="711.909" opacity="0.3" stroke="green" stroke-width="2" />
<circle cx="709.802" cy="631.157" r="3.0" fill="red" stroke="black" stroke-width="1" />
 <line x1="709.802" y1="631.157" x2="661.024" y2="630.327" opacity="0.3" stroke="green" stroke-width="2" />
<circle cx="272.436" cy="648.682" r="3.0" fill="red" stroke="black" stroke-width="1" />
 <line x1="272.436" y1="648.682" x2="261.054" y2="682.582" opacity="0.3" stroke="green" stroke-width="2" />
<circle cx="474.8" cy="117.93" r="3.0" fill="red" stroke="black" stroke-width="1" />
 <line x1="474.8" y1="117.93" x2="477.531" y2="143.076" opacity="0.3" stroke="green" stroke-width="2" />
<circle cx="551.358" cy="785.487" r="3.0" fill="red" stroke="black" stroke-width="1" />
 <line x1="551.358" y1="785.487" x2="238.054" y2="512.769" opacity="0.3" stroke="green" stroke-width="2" />
<circle cx="594.01" cy="521.907" r="3.0" fill="red" stroke="black" stroke-width="1" />
 <line x1="594.01" y1="521.907" x2="665.291" y2="557.232" opacity="0.3" stroke="green" stroke-width="2" />
<circle cx="722.699" cy="360.227" r="3.0" fill="red" stroke="black" stroke-width="1" />
 <line x1="722.699" y1="360.227" x2="703.076" y2="378.734" opacity="0.3" stroke="green" stroke-width="2" />
<circle cx="180.965" cy="495.633" r="3.0" fill="red" stroke="black" stroke-width="1" />
 <line x1="180.965" y1="495.633" x2="238.054" y2="512.769" opacity="0.3" stroke="green" stroke-width="2" />
<circle cx="57.6082" cy="526.015" r="3.0" fill="red" stroke="black" stroke-width="1" />
 <line x1="57.6082" y1="526.015" x2="46.2299" y2="569.261" opacity="0.3" stroke="green" stroke-width="2" />
<circle cx="407.079" cy="79.7114" r="3.0" fill="red" stroke="black" stroke-width="1" />
 <line x1="407.079" y1="79.7114" x2="554.888" y2="9.47728" opacity="0.3" stroke="green" stroke-width="2" />
<circle cx="606.298" cy="434.654" r="3.0" fill="red" stroke="black" stroke-width="1" />
 <line x1="606.298" y1="434.654" x2="650.546" y2="352.748" opacity="0.3" stroke="green" stroke-width="2" />
<circle cx="797.603" cy="14.8388" r="3.0" fill="red" stroke="black" stroke-width="1" />
 <line x1="797.603" y1="14.8388" x2="733.23" y2="21.7118" opacity="0.3" stroke="green" stroke-width="2" />
<circle cx="624.639" cy="626.598" r="3.0" fill="red" stroke="black" stroke-width="1" />
 <line x1="624.639" y1="626.598" x2="661.024" y2="630.327" opacity="0.3" stroke="green" stroke-width="2" />
<circle cx="425.506" cy="277.641" r="3.0" fill="red" stroke="black" stroke-width="1" />
 <line x1="425.506" y1="277.641" x2="365.381" y2="232.317" opacity="0.3" stroke="green" stroke-width="2" />
<circle cx="20.2388" cy="136.665" r="3.0" fill="red" stroke="black" stroke-width="1" />
 <line x1="20.2388" y1="136.665" x2="24.4557" y2="102.97" opacity="0.3" stroke="green" stroke-width="2" />
<circle cx="339.247" cy="130.262" r="3.0" fill="red" stroke="black" stroke-width="1" />
 <line x1="339.247" y1="130.262" x2="380.655" y2="107.002" opacity="0.3" stroke="green" stroke-width="2" />
<circle cx="438.937" cy="711.449" r="3.0" fill="red" stroke="black" stroke-width="1" />
 <line x1="438.937" y1="711.449" x2="413.708" y2="621.924" opacity="0.3" stroke="green" stroke-width="2" />
<circle cx="645.211" cy="26.2705" r="3.0" fill="red" stroke="black" stroke-width="1" />
 <line x1="645.211" y1="26.2705" x2="616.254" y2="80.2624" opacity="0.3" stroke="green" stroke-width="2" />
<circle cx="733.106" cy="672.774" r="3.0" fill="red" stroke="black" stroke-width="1" />
 <line x1="733.106" y1="672.774" x2="528.172" y2="661.306" opacity="0.3" stroke="green" stroke-width="2" />
<circle cx="468.427" cy="397.856" r="3.0" fill="red" stroke="black" stroke-width="1" />
 <line x1="468.427" y1="397.856" x2="512.116" y2="378.304" opacity="0.3" stroke="green" stroke-width="2" />
<circle cx="483.07" cy="782.175" r="3.0" fill="red" stroke="black" stroke-width="1" />
 <line x1="483.07" y1="782.175" x2="787.038" y2="699.249" opacity="0.3" stroke="green" stroke-width="2" />
<circle cx="105.478" cy="182.804" r="3.0" fill="red" stroke="black" stroke-width="1" />
 <line x1="105.478" y1="182.804" x2="125.186" y2="214.255" opacity="0.3" stroke="green" stroke-width="2" />
<circle cx="2.19764" cy="152.954" r="3.0" fill="red" stroke="black" stroke-width="1" />
 <line x1="2.19764" y1="152.954" x2="24.4557" y2="102.97" opacity="0.3" stroke="green" stroke-width="2" />
<circle cx="114.519" cy="70.1195" r="3.0" fill="red" stroke="black" stroke-width="1" />
 <line x1="114.519" y1="70.1195" x2="24.4557" y2="102.97" opacity="0.3" stroke="green" stroke-width="2" />
<circle cx="24.5866" cy="248.457" r="3.0" fill="red" stroke="black" stroke-width="1" />
 <line x1="24.5866" y1="248.457" x2="125.186" y2="214.255" opacity="0.3" stroke="green" stroke-width="2" />
<circle cx="540.146" cy="213.106" r="3.0" fill="red" stroke="black" stroke-width="1" />
 <line x1="540.146" y1="213.106" x2="636.451" y2="239.293" opacity="0.3" stroke="green" stroke-width="2" />
<circle cx="541.805" cy="140.547" r="3.0" fill="red" stroke="black" stroke-width="1" />
 <line x1="541.805" y1="140.547" x2="624.067" y2="229.806" opacity="0.3" stroke="green" stroke-width="2" />
<circle cx="619.908" cy="313.07" r="3.0" fill="red" stroke="black" stroke-width="1" />
 <line x1="619.908" y1="313.07" x2="650.546" y2="352.748" opacity="0.3" stroke="green" stroke-width="2" />
<circle cx="503.745" cy="191.95" r="3.0" fill="red" stroke="black" stroke-width="1" />
 <line x1="503.745" y1="191.95" x2="477.531" y2="143.076" opacity="0.3" stroke="green" stroke-width="2" />
<circle cx="107.578" cy="370.058" r="3.0" fill="red" stroke="black" stroke-width="1" />
 <line x1="107.578" y1="370.058" x2="185.598" y2="319.966" opacity="0.3" stroke="green" stroke-width="2" />
<circle cx="406.589" cy="388.947" r="3.0" fill="red" stroke="black" stroke-width="1" />
 <line x1="406.589" y1="388.947" x2="351.914" y2="414.592" opacity="0.3" stroke="green" stroke-width="2" />
<circle cx="288.666" cy="698.581" r="3.0" fill="red" stroke="black" stroke-width="1" />
 <line x1="288.666" y1="698.581" x2="261.054" y2="682.582" opacity="0.3" stroke="green" stroke-width="2" />
<circle cx="789.981" cy="320.574" r="3.0" fill="red" stroke="black" stroke-width="1" />
 <line x1="789.981" y1="320.574" x2="682.947" y2="346.03" opacity="0.3" stroke="green" stroke-width="2" />
<circle cx="457.631" cy="475.624" r="3.0" fill="red" stroke="black" stroke-width="1" />
 <line x1="457.631" y1="475.624" x2="435.209" y2="573.84" opacity="0.3" stroke="green" stroke-width="2" />
<circle cx="491.41" cy="334.426" r="3.0" fill="red" stroke="black" stroke-width="1" />
 <line x1="491.41" y1="334.426" x2="365.381" y2="232.317" opacity="0.3" stroke="green" stroke-width="2" />
<circle cx="705.024" cy="602.254" r="3.0" fill="red" stroke="black" stroke-width="1" />
 <line x1="705.024" y1="602.254" x2="661.024" y2="630.327" opacity="0.3" stroke="green" stroke-width="2" />
<circle cx="355.846" cy="763.697" r="3.0" fill="red" stroke="black" stroke-width="1" />
 <line x1="355.846" y1="763.697" x2="261.054" y2="682.582" opacity="0.3" stroke="green" stroke-width="2" />
<circle cx="652.4" cy="720.581" r="3.0" fill="red" stroke="black" stroke-width="1" />
 <line x1="652.4" y1="720.581" x2="726.106" y2="771.855" opacity="0.3" stroke="green" stroke-width="2" />
<circle cx="85.4952" cy="413.717" r="3.0" fill="red" stroke="black" stroke-width="1" />
 <line x1="85.4952" y1="413.717" x2="38.1306" y2="403.559" opacity="0.3" stroke="green" stroke-width="2" />
<circle cx="455.564" cy="24.7082" r="3.0" fill="red" stroke="black" stroke-width="1" />
 <line x1="455.564" y1="24.7082" x2="380.655" y2="107.002" opacity="0.3" stroke="green" stroke-width="2" />
<circle cx="424.602" cy="205.049" r="3.0" fill="red" stroke="black" stroke-width="1" />
 <line x1="424.602" y1="205.049" x2="477.531" y2="143.076" opacity="0.3" stroke="green" stroke-width="2" />
<circle cx="249.25" cy="60.492" r="3.0" fill="red" stroke="black" stroke-width="1" />
 <line x1="249.25" y1="60.492" x2="184.416" y2="100.317" opacity="0.3" stroke="green" stroke-width="2" />
<circle cx="624.932" cy="319.854" r="3.0" fill="red" stroke="black" stroke-width="1" />
 <line x1="624.932" y1="319.854" x2="650.546" y2="352.748" opacity="0.3" stroke="green" stroke-width="2" />
</svg>
