<svg xmlns="http://www.w3.org/2000/svg" version="1.1" width="800" height="800">
"<rect x="0.0" y="0.0" width="800.0" height="800.0" fill ="white" /><circle cx="448.934" cy="356.564" r="6.0" fill ="blue" stroke="black" stroke-width="1" />
<circle cx="47.3443" cy="59.7444" r="6.0" fill ="blue" stroke="black" stroke-width="1" />
<circle cx="736.626" cy="713.29" r="6.0" fill ="blue" stroke="black" stroke-width="1" />
<circle cx="638.164" cy="242.588" r="6.0" fill ="blue" stroke="black" stroke-width="1" />
<circle cx="220.096" cy="385.449" r="6.0" fill ="blue" stroke="black" stroke-width="1" />
<circle cx="432.642" cy="29.9743" r="6.0" fill ="blue" stroke="black" stroke-width="1" />
<circle cx="252.609" cy="624.159" r="6.0" fill ="blue" stroke="black" stroke-width="1" />
<circle cx="505.421" cy="729.094" r="6.0" fill ="blue" stroke="black" stroke-width="1" />
<circle cx="352.53" cy="357.724" r="6.0" fill ="blue" stroke="black" stroke-width="1" />
<circle cx="594.389" cy="427.414" r="6.0" fill ="blue" stroke="black" stroke-width="1" />
<circle cx="794.128" cy="449.39" r="3.0" fill="red" stroke="black" stroke-width="1" />
 <line x1="794.128" y1="449.39" x2="594.389" y2="427.414" opacity="0.3" stroke="green" stroke-width="2" />
<circle cx="389.691" cy="326.093" r="3.0" fill="red" stroke="black" stroke-width="1" />
 <line x1="389.691" y1="326.093" x2="352.53" y2="357.724" opacity="0.3" stroke="green" stroke-width="2" />
<circle cx="299.224" cy="194.246" r="3.0" fill="red" stroke="black" stroke-width="1" />
 <line x1="299.224" y1="194.246" x2="352.53" y2="357.724" opacity="0.3" stroke="green" stroke-width="2" />
<circle cx="313.81" cy="770.611" r="3.0" fill="red" stroke="black" stroke-width="1" />
 <line x1="313.81" y1="770.611" x2="252.609" y2="624.159" opacity="0.3" stroke="green" stroke-width="2" />
<circle cx="741.371" cy="548.406" r="3.0" fill="red" stroke="black" stroke-width="1" />
 <line x1="741.371" y1="548.406" x2="594.389" y2="427.414" opacity="0.3" stroke="green" stroke-width="2" />
<circle cx="620.622" cy="154.838" r="3.0" fill="red" stroke="black" stroke-width="1" />
 <line x1="620.622" y1="154.838" x2="432.642" y2="29.9743" opacity="0.3" stroke="green" stroke-width="2" />
<circle cx="38.5678" cy="255.009" r="3.0" fill="red" stroke="black" stroke-width="1" />
 <line x1="38.5678" y1="255.009" x2="220.096" y2="385.449" opacity="0.3" stroke="green" stroke-width="2" />
<circle cx="398.094" cy="332.859" r="3.0" fill="red" stroke="black" stroke-width="1" />
 <line x1="398.094" y1="332.859" x2="352.53" y2="357.724" opacity="0.3" stroke="green" stroke-width="2" />
<circle cx="506.481" cy="284.69" r="3.0" fill="red" stroke="black" stroke-width="1" />
 <line x1="506.481" y1="284.69" x2="638.164" y2="242.588" opacity="0.3" stroke="green" stroke-width="2" />
<circle cx="572.209" cy="232.229" r="3.0" fill="red" stroke="black" stroke-width="1" />
 <line x1="572.209" y1="232.229" x2="638.164" y2="242.588" opacity="0.3" stroke="green" stroke-width="2" />
<circle cx="287.627" cy="3.48494" r="3.0" fill="red" stroke="black" stroke-width="1" />
 <line x1="287.627" y1="3.48494" x2="432.642" y2="29.9743" opacity="0.3" stroke="green" stroke-width="2" />
<circle cx="642.293" cy="588.843" r="3.0" fill="red" stroke="black" stroke-width="1" />
 <line x1="642.293" y1="588.843" x2="736.626" y2="713.29" opacity="0.3" stroke="green" stroke-width="2" />
<circle cx="518.51" cy="680.278" r="3.0" fill="red" stroke="black" stroke-width="1" />
 <line x1="518.51" y1="680.278" x2="505.421" y2="729.094" opacity="0.3" stroke="green" stroke-width="2" />
<circle cx="443.639" cy="213.979" r="3.0" fill="red" stroke="black" stroke-width="1" />
 <line x1="443.639" y1="213.979" x2="432.642" y2="29.9743" opacity="0.3" stroke="green" stroke-width="2" />
<circle cx="440.72" cy="158.885" r="3.0" fill="red" stroke="black" stroke-width="1" />
 <line x1="440.72" y1="158.885" x2="432.642" y2="29.9743" opacity="0.3" stroke="green" stroke-width="2" />
<circle cx="539.184" cy="782.212" r="3.0" fill="red" stroke="black" stroke-width="1" />
 <line x1="539.184" y1="782.212" x2="505.421" y2="729.094" opacity="0.3" stroke="green" stroke-width="2" />
<circle cx="288.157" cy="693.785" r="3.0" fill="red" stroke="black" stroke-width="1" />
 <line x1="288.157" y1="693.785" x2="252.609" y2="624.159" opacity="0.3" stroke="green" stroke-width="2" />
<circle cx="350.334" cy="688.345" r="3.0" fill="red" stroke="black" stroke-width="1" />
 <line x1="350.334" y1="688.345" x2="252.609" y2="624.159" opacity="0.3" stroke="green" stroke-width="2" />
<circle cx="512.962" cy="692.767" r="3.0" fill="red" stroke="black" stroke-width="1" />
 <line x1="512.962" y1="692.767" x2="505.421" y2="729.094" opacity="0.3" stroke="green" stroke-width="2" />
<circle cx="565.323" cy="527.704" r="3.0" fill="red" stroke="black" stroke-width="1" />
 <line x1="565.323" y1="527.704" x2="220.096" y2="385.449" opacity="0.3" stroke="green" stroke-width="2" />
<circle cx="105.949" cy="786.844" r="3.0" fill="red" stroke="black" stroke-width="1" />
 <line x1="105.949" y1="786.844" x2="252.609" y2="624.159" opacity="0.3" stroke="green" stroke-width="2" />
<circle cx="103.266" cy="125.902" r="3.0" fill="red" stroke="black" stroke-width="1" />
 <line x1="103.266" y1="125.902" x2="47.3443" y2="59.7444" opacity="0.3" stroke="green" stroke-width="2" />
<circle cx="583.774" cy="758.871" r="3.0" fill="red" stroke="black" stroke-width="1" />
 <line x1="583.774" y1="758.871" x2="505.421" y2="729.094" opacity="0.3" stroke="green" stroke-width="2" />
<circle cx="218.67" cy="299.206" r="3.0" fill="red" stroke="black" stroke-width="1" />
 <line x1="218.67" y1="299.206" x2="220.096" y2="385.449" opacity="0.3" stroke="green" stroke-width="2" />
<circle cx="481.83" cy="17.5637" r="3.0" fill="red" stroke="black" stroke-width="1" />
 <line x1="481.83" y1="17.5637" x2="432.642" y2="29.9743" opacity="0.3" stroke="green" stroke-width="2" />
<circle cx="327.078" cy="453.254" r="3.0" fill="red" stroke="black" stroke-width="1" />
 <line x1="327.078" y1="453.254" x2="220.096" y2="385.449" opacity="0.3" stroke="green" stroke-width="2" />
<circle cx="740.194" cy="636.619" r="3.0" fill="red" stroke="black" stroke-width="1" />
 <line x1="740.194" y1="636.619" x2="736.626" y2="713.29" opacity="0.3" stroke="green" stroke-width="2" />
<circle cx="548.746" cy="609.705" r="3.0" fill="red" stroke="black" stroke-width="1" />
 <line x1="548.746" y1="609.705" x2="505.421" y2="729.094" opacity="0.3" stroke="green" stroke-width="2" />
<circle cx="183.552" cy="443.413" r="3.0" fill="red" stroke="black" stroke-width="1" />
 <line x1="183.552" y1="443.413" x2="220.096" y2="385.449" opacity="0.3" stroke="green" stroke-width="2" />
<circle cx="340.635" cy="158.618" r="3.0" fill="red" stroke="black" stroke-width="1" />
 <line x1="340.635" y1="158.618" x2="448.934" y2="356.564" opacity="0.3" stroke="green" stroke-width="2" />
<circle cx="621.941" cy="290.668" r="3.0" fill="red" stroke="black" stroke-width="1" />
 <line x1="621.941" y1="290.668" x2="638.164" y2="242.588" opacity="0.3" stroke="green" stroke-width="2" />
<circle cx="640.467" cy="393.688" r="3.0" fill="red" stroke="black" stroke-width="1" />
 <line x1="640.467" y1="393.688" x2="594.389" y2="427.414" opacity="0.3" stroke="green" stroke-width="2" />
<circle cx="630.66" cy="138.521" r="3.0" fill="red" stroke="black" stroke-width="1" />
 <line x1="630.66" y1="138.521" x2="638.164" y2="242.588" opacity="0.3" stroke="green" stroke-width="2" />
<circle cx="106.418" cy="626.337" r="3.0" fill="red" stroke="black" stroke-width="1" />
 <line x1="106.418" y1="626.337" x2="252.609" y2="624.159" opacity="0.3" stroke="green" stroke-width="2" />
<circle cx="14.6527" cy="43.9407" r="3.0" fill="red" stroke="black" stroke-width="1" />
 <line x1="14.6527" y1="43.9407" x2="47.3443" y2="59.7444" opacity="0.3" stroke="green" stroke-width="2" />
<circle cx="294.188" cy="178.511" r="3.0" fill="red" stroke="black" stroke-width="1" />
 <line x1="294.188" y1="178.511" x2="220.096" y2="385.449" opacity="0.3" stroke="green" stroke-width="2" />
<circle cx="386.037" cy="611.164" r="3.0" fill="red" stroke="black" stroke-width="1" />
 <line x1="386.037" y1="611.164" x2="252.609" y2="624.159" opacity="0.3" stroke="green" stroke-width="2" />
<circle cx="636.788" cy="375.258" r="3.0" fill="red" stroke="black" stroke-width="1" />
 <line x1="636.788" y1="375.258" x2="594.389" y2="427.414" opacity="0.3" stroke="green" stroke-width="2" />
<circle cx="311.554" cy="126.255" r="3.0" fill="red" stroke="black" stroke-width="1" />
 <line x1="311.554" y1="126.255" x2="448.934" y2="356.564" opacity="0.3" stroke="green" stroke-width="2" />
<circle cx="390.876" cy="401.962" r="3.0" fill="red" stroke="black" stroke-width="1" />
 <line x1="390.876" y1="401.962" x2="352.53" y2="357.724" opacity="0.3" stroke="green" stroke-width="2" />
<circle cx="654.834" cy="555.232" r="3.0" fill="red" stroke="black" stroke-width="1" />
 <line x1="654.834" y1="555.232" x2="736.626" y2="713.29" opacity="0.3" stroke="green" stroke-width="2" />
<circle cx="455.365" cy="440.806" r="3.0" fill="red" stroke="black" stroke-width="1" />
 <line x1="455.365" y1="440.806" x2="352.53" y2="357.724" opacity="0.3" stroke="green" stroke-width="2" />
<circle cx="703.445" cy="242.034" r="3.0" fill="red" stroke="black" stroke-width="1" />
 <line x1="703.445" y1="242.034" x2="638.164" y2="242.588" opacity="0.3" stroke="green" stroke-width="2" />
<circle cx="566.083" cy="651.747" r="3.0" fill="red" stroke="black" stroke-width="1" />
 <line x1="566.083" y1="651.747" x2="736.626" y2="713.29" opacity="0.3" stroke="green" stroke-width="2" />
<circle cx="792.999" cy="549.11" r="3.0" fill="red" stroke="black" stroke-width="1" />
 <line x1="792.999" y1="549.11" x2="736.626" y2="713.29" opacity="0.3" stroke="green" stroke-width="2" />
<circle cx="185.617" cy="513.402" r="3.0" fill="red" stroke="black" stroke-width="1" />
 <line x1="185.617" y1="513.402" x2="448.934" y2="356.564" opacity="0.3" stroke="green" stroke-width="2" />
<circle cx="582.47" cy="446.025" r="3.0" fill="red" stroke="black" stroke-width="1" />
 <line x1="582.47" y1="446.025" x2="594.389" y2="427.414" opacity="0.3" stroke="green" stroke-width="2" />
<circle cx="621.854" cy="748.345" r="3.0" fill="red" stroke="black" stroke-width="1" />
 <line x1="621.854" y1="748.345" x2="736.626" y2="713.29" opacity="0.3" stroke="green" stroke-width="2" />
<circle cx="231.214" cy="27.3426" r="3.0" fill="red" stroke="black" stroke-width="1" />
 <line x1="231.214" y1="27.3426" x2="432.642" y2="29.9743" opacity="0.3" stroke="green" stroke-width="2" />
<circle cx="435.402" cy="758.042" r="3.0" fill="red" stroke="black" stroke-width="1" />
 <line x1="435.402" y1="758.042" x2="505.421" y2="729.094" opacity="0.3" stroke="green" stroke-width="2" />
<circle cx="758.518" cy="69.7911" r="3.0" fill="red" stroke="black" stroke-width="1" />
 <line x1="758.518" y1="69.7911" x2="638.164" y2="242.588" opacity="0.3" stroke="green" stroke-width="2" />
<circle cx="615.751" cy="275.38" r="3.0" fill="red" stroke="black" stroke-width="1" />
 <line x1="615.751" y1="275.38" x2="638.164" y2="242.588" opacity="0.3" stroke="green" stroke-width="2" />
<circle cx="190.53" cy="553.516" r="3.0" fill="red" stroke="black" stroke-width="1" />
 <line x1="190.53" y1="553.516" x2="252.609" y2="624.159" opacity="0.3" stroke="green" stroke-width="2" />
<circle cx="32.3134" cy="52.2203" r="3.0" fill="red" stroke="black" stroke-width="1" />
 <line x1="32.3134" y1="52.2203" x2="47.3443" y2="59.7444" opacity="0.3" stroke="green" stroke-width="2" />
<circle cx="729.35" cy="646.354" r="3.0" fill="red" stroke="black" stroke-width="1" />
 <line x1="729.35" y1="646.354" x2="448.934" y2="356.564" opacity="0.3" stroke="green" stroke-width="2" />
<circle cx="348.457" cy="285.718" r="3.0" fill="red" stroke="black" stroke-width="1" />
 <line x1="348.457" y1="285.718" x2="352.53" y2="357.724" opacity="0.3" stroke="green" stroke-width="2" />
<circle cx="323.418" cy="39.0211" r="3.0" fill="red" stroke="black" stroke-width="1" />
 <line x1="323.418" y1="39.0211" x2="432.642" y2="29.9743" opacity="0.3" stroke="green" stroke-width="2" />
<circle cx="140.459" cy="54.1172" r="3.0" fill="red" stroke="black" stroke-width="1" />
 <line x1="140.459" y1="54.1172" x2="47.3443" y2="59.7444" opacity="0.3" stroke="green" stroke-width="2" />
<circle cx="202.835" cy="446.97" r="3.0" fill="red" stroke="black" stroke-width="1" />
 <line x1="202.835" y1="446.97" x2="220.096" y2="385.449" opacity="0.3" stroke="green" stroke-width="2" />
<circle cx="8.70336" cy="330.48" r="3.0" fill="red" stroke="black" stroke-width="1" />
 <line x1="8.70336" y1="330.48" x2="47.3443" y2="59.7444" opacity="0.3" stroke="green" stroke-width="2" />
</svg>
