<svg xmlns="http://www.w3.org/2000/svg" version="1.1" width="800" height="800">
"<rect x="0.0" y="0.0" width="800.0" height="800.0" fill ="white" /><circle cx="742.627" cy="419.383" r="6.0" fill ="blue" stroke="black" stroke-width="1" />
<circle cx="727.107" cy="623.552" r="6.0" fill ="blue" stroke="black" stroke-width="1" />
<circle cx="278.845" cy="300.915" r="6.0" fill ="blue" stroke="black" stroke-width="1" />
<circle cx="24.2386" cy="131.815" r="6.0" fill ="blue" stroke="black" stroke-width="1" />
<circle cx="750.09" cy="8.33344" r="6.0" fill ="blue" stroke="black" stroke-width="1" />
<circle cx="448.485" cy="688.317" r="6.0" fill ="blue" stroke="black" stroke-width="1" />
<circle cx="228.986" cy="472.156" r="6.0" fill ="blue" stroke="black" stroke-width="1" />
<circle cx="248.87" cy="61.9701" r="6.0" fill ="blue" stroke="black" stroke-width="1" />
<circle cx="369.99" cy="156.954" r="6.0" fill ="blue" stroke="black" stroke-width="1" />
<circle cx="650.058" cy="430.45" r="6.0" fill ="blue" stroke="black" stroke-width="1" />
<circle cx="550.333" cy="522.226" r="6.0" fill ="blue" stroke="black" stroke-width="1" />
<circle cx="13.1136" cy="574.14" r="6.0" fill ="blue" stroke="black" stroke-width="1" />
<circle cx="372.125" cy="369.483" r="6.0" fill ="blue" stroke="black" stroke-width="1" />
<circle cx="319.973" cy="526.648" r="6.0" fill ="blue" stroke="black" stroke-width="1" />
<circle cx="567.138" cy="16.6379" r="6.0" fill ="blue" stroke="black" stroke-width="1" />
<circle cx="57.565" cy="269.542" r="6.0" fill ="blue" stroke="black" stroke-width="1" />
<circle cx="610.258" cy="754.883" r="6.0" fill ="blue" stroke="black" stroke-width="1" />
<circle cx="408.863" cy="75.0183" r="6.0" fill ="blue" stroke="black" stroke-width="1" />
<circle cx="712.475" cy="269.634" r="6.0" fill ="blue" stroke="black" stroke-width="1" />
<circle cx="113.233" cy="10.9468" r="6.0" fill ="blue" stroke="black" stroke-width="1" />
<circle cx="38.4695" cy="725.811" r="6.0" fill ="blue" stroke="black" stroke-width="1" />
<circle cx="39.6644" cy="366.708" r="6.0" fill ="blue" stroke="black" stroke-width="1" />
<circle cx="688.26" cy="217.666" r="6.0" fill ="blue" stroke="black" stroke-width="1" />
<circle cx="68.2298" cy="438.792" r="6.0" fill ="blue" stroke="black" stroke-width="1" />
<circle cx="181.519" cy="294.628" r="6.0" fill ="blue" stroke="black" stroke-width="1" />
<circle cx="249.606" cy="613.474" r="6.0" fill ="blue" stroke="black" stroke-width="1" />
<circle cx="538.361" cy="146.534" r="6.0" fill ="blue" stroke="black" stroke-width="1" />
<circle cx="126.634" cy="150.8" r="6.0" fill ="blue" stroke="black" stroke-width="1" />
<circle cx="90.3696" cy="632.448" r="6.0" fill ="blue" stroke="black" stroke-width="1" />
<circle cx="538.114" cy="673.031" r="6.0" fill ="blue" stroke="black" stroke-width="1" />
<circle cx="231.481" cy="768.581" r="6.0" fill ="blue" stroke="black" stroke-width="1" />
<circle cx="508.3" cy="258.287" r="6.0" fill ="blue" stroke="black" stroke-width="1" />
<circle cx="646.693" cy="575.791" r="6.0" fill ="blue" stroke="black" stroke-width="1" />
<circle cx="750.579" cy="724.634" r="6.0" fill ="blue" stroke="black" stroke-width="1" />
<circle cx="405.195" cy="772.265" r="6.0" fill ="blue" stroke="black" stroke-width="1" />
<circle cx="404.532" cy="638.279" r="6.0" fill ="blue" stroke="black" stroke-width="1" />
<circle cx="468.315" cy="394.341" r="6.0" fill ="blue" stroke="black" stroke-width="1" />
<circle cx="598.003" cy="136.318" r="3.0" fill="red" stroke="black" stroke-width="1" />
 <line x1="598.003" y1="136.318" x2="538.361" y2="146.534" opacity="0.3" stroke="green" stroke-width="2" />
<circle cx="155.699" cy="105.922" r="3.0" fill="red" stroke="black" stroke-width="1" />
 <line x1="155.699" y1="105.922" x2="113.233" y2="10.9468" opacity="0.3" stroke="green" stroke-width="2" />
<circle cx="704.878" cy="298.166" r="3.0" fill="red" stroke="black" stroke-width="1" />
 <line x1="704.878" y1="298.166" x2="712.475" y2="269.634" opacity="0.3" stroke="green" stroke-width="2" />
<circle cx="502.814" cy="542.472" r="3.0" fill="red" stroke="black" stroke-width="1" />
 <line x1="502.814" y1="542.472" x2="550.333" y2="522.226" opacity="0.3" stroke="green" stroke-width="2" />
<circle cx="413.879" cy="729.033" r="3.0" fill="red" stroke="black" stroke-width="1" />
 <line x1="413.879" y1="729.033" x2="448.485" y2="688.317" opacity="0.3" stroke="green" stroke-width="2" />
<circle cx="676.597" cy="462.397" r="3.0" fill="red" stroke="black" stroke-width="1" />
 <line x1="676.597" y1="462.397" x2="650.058" y2="430.45" opacity="0.3" stroke="green" stroke-width="2" />
<circle cx="57.6096" cy="626.03" r="3.0" fill="red" stroke="black" stroke-width="1" />
 <line x1="57.6096" y1="626.03" x2="13.1136" y2="574.14" opacity="0.3" stroke="green" stroke-width="2" />
<circle cx="637.172" cy="71.1416" r="3.0" fill="red" stroke="black" stroke-width="1" />
 <line x1="637.172" y1="71.1416" x2="567.138" y2="16.6379" opacity="0.3" stroke="green" stroke-width="2" />
<circle cx="102.984" cy="73.5406" r="3.0" fill="red" stroke="black" stroke-width="1" />
 <line x1="102.984" y1="73.5406" x2="113.233" y2="10.9468" opacity="0.3" stroke="green" stroke-width="2" />
<circle cx="182.397" cy="238.252" r="3.0" fill="red" stroke="black" stroke-width="1" />
 <line x1="182.397" y1="238.252" x2="181.519" y2="294.628" opacity="0.3" stroke="green" stroke-width="2" />
<circle cx="695.273" cy="212.679" r="3.0" fill="red" stroke="black" stroke-width="1" />
 <line x1="695.273" y1="212.679" x2="688.26" y2="217.666" opacity="0.3" stroke="green" stroke-width="2" />
<circle cx="473.875" cy="653.881" r="3.0" fill="red" stroke="black" stroke-width="1" />
 <line x1="473.875" y1="653.881" x2="448.485" y2="688.317" opacity="0.3" stroke="green" stroke-width="2" />
<circle cx="305.811" cy="575.471" r="3.0" fill="red" stroke="black" stroke-width="1" />
 <line x1="305.811" y1="575.471" x2="228.986" y2="472.156" opacity="0.3" stroke="green" stroke-width="2" />
<circle cx="378.71" cy="138.091" r="3.0" fill="red" stroke="black" stroke-width="1" />
 <line x1="378.71" y1="138.091" x2="369.99" y2="156.954" opacity="0.3" stroke="green" stroke-width="2" />
<circle cx="213.977" cy="777.344" r="3.0" fill="red" stroke="black" stroke-width="1" />
 <line x1="213.977" y1="777.344" x2="231.481" y2="768.581" opacity="0.3" stroke="green" stroke-width="2" />
<circle cx="696.093" cy="462.212" r="3.0" fill="red" stroke="black" stroke-width="1" />
 <line x1="696.093" y1="462.212" x2="650.058" y2="430.45" opacity="0.3" stroke="green" stroke-width="2" />
<circle cx="430.049" cy="13.4562" r="3.0" fill="red" stroke="black" stroke-width="1" />
 <line x1="430.049" y1="13.4562" x2="408.863" y2="75.0183" opacity="0.3" stroke="green" stroke-width="2" />
<circle cx="102.208" cy="415.335" r="3.0" fill="red" stroke="black" stroke-width="1" />
 <line x1="102.208" y1="415.335" x2="68.2298" y2="438.792" opacity="0.3" stroke="green" stroke-width="2" />
<circle cx="431.518" cy="318.142" r="3.0" fill="red" stroke="black" stroke-width="1" />
 <line x1="431.518" y1="318.142" x2="372.125" y2="369.483" opacity="0.3" stroke="green" stroke-width="2" />
<circle cx="610.669" cy="168.172" r="3.0" fill="red" stroke="black" stroke-width="1" />
 <line x1="610.669" y1="168.172" x2="688.26" y2="217.666" opacity="0.3" stroke="green" stroke-width="2" />
<circle cx="555.71" cy="96.8816" r="3.0" fill="red" stroke="black" stroke-width="1" />
 <line x1="555.71" y1="96.8816" x2="538.361" y2="146.534" opacity="0.3" stroke="green" stroke-width="2" />
<circle cx="276.938" cy="531.301" r="3.0" fill="red" stroke="black" stroke-width="1" />
 <line x1="276.938" y1="531.301" x2="249.606" y2="613.474" opacity="0.3" stroke="green" stroke-width="2" />
<circle cx="339.603" cy="96.7912" r="3.0" fill="red" stroke="black" stroke-width="1" />
 <line x1="339.603" y1="96.7912" x2="369.99" y2="156.954" opacity="0.3" stroke="green" stroke-width="2" />
<circle cx="133.042" cy="117.714" r="3.0" fill="red" stroke="black" stroke-width="1" />
 <line x1="133.042" y1="117.714" x2="126.634" y2="150.8" opacity="0.3" stroke="green" stroke-width="2" />
<circle cx="92.672" cy="656.592" r="3.0" fill="red" stroke="black" stroke-width="1" />
 <line x1="92.672" y1="656.592" x2="90.3696" y2="632.448" opacity="0.3" stroke="green" stroke-width="2" />
<circle cx="101.246" cy="124.887" r="3.0" fill="red" stroke="black" stroke-width="1" />
 <line x1="101.246" y1="124.887" x2="24.2386" y2="131.815" opacity="0.3" stroke="green" stroke-width="2" />
<circle cx="424.714" cy="172.734" r="3.0" fill="red" stroke="black" stroke-width="1" />
 <line x1="424.714" y1="172.734" x2="369.99" y2="156.954" opacity="0.3" stroke="green" stroke-width="2" />
<circle cx="784.943" cy="31.833" r="3.0" fill="red" stroke="black" stroke-width="1" />
 <line x1="784.943" y1="31.833" x2="750.09" y2="8.33344" opacity="0.3" stroke="green" stroke-width="2" />
<circle cx="724.01" cy="207.339" r="3.0" fill="red" stroke="black" stroke-width="1" />
 <line x1="724.01" y1="207.339" x2="688.26" y2="217.666" opacity="0.3" stroke="green" stroke-width="2" />
<circle cx="152.01" cy="575.856" r="3.0" fill="red" stroke="black" stroke-width="1" />
 <line x1="152.01" y1="575.856" x2="90.3696" y2="632.448" opacity="0.3" stroke="green" stroke-width="2" />
<circle cx="618.128" cy="241.226" r="3.0" fill="red" stroke="black" stroke-width="1" />
 <line x1="618.128" y1="241.226" x2="688.26" y2="217.666" opacity="0.3" stroke="green" stroke-width="2" />
<circle cx="54.2621" cy="432.802" r="3.0" fill="red" stroke="black" stroke-width="1" />
 <line x1="54.2621" y1="432.802" x2="68.2298" y2="438.792" opacity="0.3" stroke="green" stroke-width="2" />
<circle cx="580.182" cy="676.338" r="3.0" fill="red" stroke="black" stroke-width="1" />
 <line x1="580.182" y1="676.338" x2="538.114" y2="673.031" opacity="0.3" stroke="green" stroke-width="2" />
<circle cx="26.8335" cy="51.621" r="3.0" fill="red" stroke="black" stroke-width="1" />
 <line x1="26.8335" y1="51.621" x2="24.2386" y2="131.815" opacity="0.3" stroke="green" stroke-width="2" />
<circle cx="204.283" cy="457.282" r="3.0" fill="red" stroke="black" stroke-width="1" />
 <line x1="204.283" y1="457.282" x2="228.986" y2="472.156" opacity="0.3" stroke="green" stroke-width="2" />
<circle cx="268.404" cy="657.87" r="3.0" fill="red" stroke="black" stroke-width="1" />
 <line x1="268.404" y1="657.87" x2="249.606" y2="613.474" opacity="0.3" stroke="green" stroke-width="2" />
<circle cx="384.482" cy="229.578" r="3.0" fill="red" stroke="black" stroke-width="1" />
 <line x1="384.482" y1="229.578" x2="369.99" y2="156.954" opacity="0.3" stroke="green" stroke-width="2" />
<circle cx="481.636" cy="654.2" r="3.0" fill="red" stroke="black" stroke-width="1" />
 <line x1="481.636" y1="654.2" x2="448.485" y2="688.317" opacity="0.3" stroke="green" stroke-width="2" />
<circle cx="496.014" cy="248.071" r="3.0" fill="red" stroke="black" stroke-width="1" />
 <line x1="496.014" y1="248.071" x2="508.3" y2="258.287" opacity="0.3" stroke="green" stroke-width="2" />
<circle cx="715.296" cy="530.742" r="3.0" fill="red" stroke="black" stroke-width="1" />
 <line x1="715.296" y1="530.742" x2="646.693" y2="575.791" opacity="0.3" stroke="green" stroke-width="2" />
<circle cx="762.236" cy="720.415" r="3.0" fill="red" stroke="black" stroke-width="1" />
 <line x1="762.236" y1="720.415" x2="750.579" y2="724.634" opacity="0.3" stroke="green" stroke-width="2" />
<circle cx="17.6636" cy="95.1336" r="3.0" fill="red" stroke="black" stroke-width="1" />
 <line x1="17.6636" y1="95.1336" x2="24.2386" y2="131.815" opacity="0.3" stroke="green" stroke-width="2" />
<circle cx="510.76" cy="621.098" r="3.0" fill="red" stroke="black" stroke-width="1" />
 <line x1="510.76" y1="621.098" x2="550.333" y2="522.226" opacity="0.3" stroke="green" stroke-width="2" />
<circle cx="86.0824" cy="564.064" r="3.0" fill="red" stroke="black" stroke-width="1" />
 <line x1="86.0824" y1="564.064" x2="90.3696" y2="632.448" opacity="0.3" stroke="green" stroke-width="2" />
<circle cx="252.945" cy="799.968" r="3.0" fill="red" stroke="black" stroke-width="1" />
 <line x1="252.945" y1="799.968" x2="231.481" y2="768.581" opacity="0.3" stroke="green" stroke-width="2" />
<circle cx="455.013" cy="14.9251" r="3.0" fill="red" stroke="black" stroke-width="1" />
 <line x1="455.013" y1="14.9251" x2="408.863" y2="75.0183" opacity="0.3" stroke="green" stroke-width="2" />
<circle cx="452.681" cy="38.3509" r="3.0" fill="red" stroke="black" stroke-width="1" />
 <line x1="452.681" y1="38.3509" x2="408.863" y2="75.0183" opacity="0.3" stroke="green" stroke-width="2" />
<circle cx="644.098" cy="547.107" r="3.0" fill="red" stroke="black" stroke-width="1" />
 <line x1="644.098" y1="547.107" x2="646.693" y2="575.791" opacity="0.3" stroke="green" stroke-width="2" />
<circle cx="213.281" cy="47.2341" r="3.0" fill="red" stroke="black" stroke-width="1" />
 <line x1="213.281" y1="47.2341" x2="248.87" y2="61.9701" opacity="0.3" stroke="green" stroke-width="2" />
<circle cx="359.772" cy="320.699" r="3.0" fill="red" stroke="black" stroke-width="1" />
 <line x1="359.772" y1="320.699" x2="372.125" y2="369.483" opacity="0.3" stroke="green" stroke-width="2" />
<circle cx="363.667" cy="604.037" r="3.0" fill="red" stroke="black" stroke-width="1" />
 <line x1="363.667" y1="604.037" x2="404.532" y2="638.279" opacity="0.3" stroke="green" stroke-width="2" />
<circle cx="199.424" cy="308.995" r="3.0" fill="red" stroke="black" stroke-width="1" />
 <line x1="199.424" y1="308.995" x2="181.519" y2="294.628" opacity="0.3" stroke="green" stroke-width="2" />
<circle cx="549.01" cy="362.119" r="3.0" fill="red" stroke="black" stroke-width="1" />
 <line x1="549.01" y1="362.119" x2="468.315" y2="394.341" opacity="0.3" stroke="green" stroke-width="2" />
<circle cx="189.795" cy="332.798" r="3.0" fill="red" stroke="black" stroke-width="1" />
 <line x1="189.795" y1="332.798" x2="181.519" y2="294.628" opacity="0.3" stroke="green" stroke-width="2" />
<circle cx="773.39" cy="263.45" r="3.0" fill="red" stroke="black" stroke-width="1" />
 <line x1="773.39" y1="263.45" x2="712.475" y2="269.634" opacity="0.3" stroke="green" stroke-width="2" />
<circle cx="149.946" cy="797.866" r="3.0" fill="red" stroke="black" stroke-width="1" />
 <line x1="149.946" y1="797.866" x2="231.481" y2="768.581" opacity="0.3" stroke="green" stroke-width="2" />
<circle cx="512.767" cy="206.179" r="3.0" fill="red" stroke="black" stroke-width="1" />
 <line x1="512.767" y1="206.179" x2="538.361" y2="146.534" opacity="0.3" stroke="green" stroke-width="2" />
<circle cx="528.75" cy="540.34" r="3.0" fill="red" stroke="black" stroke-width="1" />
 <line x1="528.75" y1="540.34" x2="550.333" y2="522.226" opacity="0.3" stroke="green" stroke-width="2" />
<circle cx="60.6324" cy="305.581" r="3.0" fill="red" stroke="black" stroke-width="1" />
 <line x1="60.6324" y1="305.581" x2="39.6644" y2="366.708" opacity="0.3" stroke="green" stroke-width="2" />
<circle cx="289.495" cy="73.0269" r="3.0" fill="red" stroke="black" stroke-width="1" />
 <line x1="289.495" y1="73.0269" x2="248.87" y2="61.9701" opacity="0.3" stroke="green" stroke-width="2" />
<circle cx="319.557" cy="327.678" r="3.0" fill="red" stroke="black" stroke-width="1" />
 <line x1="319.557" y1="327.678" x2="278.845" y2="300.915" opacity="0.3" stroke="green" stroke-width="2" />
<circle cx="113.287" cy="446.801" r="3.0" fill="red" stroke="black" stroke-width="1" />
 <line x1="113.287" y1="446.801" x2="68.2298" y2="438.792" opacity="0.3" stroke="green" stroke-width="2" />
<circle cx="81.812" cy="175.34" r="3.0" fill="red" stroke="black" stroke-width="1" />
 <line x1="81.812" y1="175.34" x2="126.634" y2="150.8" opacity="0.3" stroke="green" stroke-width="2" />
<circle cx="186.834" cy="279.582" r="3.0" fill="red" stroke="black" stroke-width="1" />
 <line x1="186.834" y1="279.582" x2="181.519" y2="294.628" opacity="0.3" stroke="green" stroke-width="2" />
<circle cx="728.925" cy="275.106" r="3.0" fill="red" stroke="black" stroke-width="1" />
 <line x1="728.925" y1="275.106" x2="712.475" y2="269.634" opacity="0.3" stroke="green" stroke-width="2" />
<circle cx="92.6456" cy="429.178" r="3.0" fill="red" stroke="black" stroke-width="1" />
 <line x1="92.6456" y1="429.178" x2="68.2298" y2="438.792" opacity="0.3" stroke="green" stroke-width="2" />
<circle cx="312.881" cy="759.463" r="3.0" fill="red" stroke="black" stroke-width="1" />
 <line x1="312.881" y1="759.463" x2="405.195" y2="772.265" opacity="0.3" stroke="green" stroke-width="2" />
<circle cx="424.765" cy="421.634" r="3.0" fill="red" stroke="black" stroke-width="1" />
 <line x1="424.765" y1="421.634" x2="468.315" y2="394.341" opacity="0.3" stroke="green" stroke-width="2" />
<circle cx="709.907" cy="225.169" r="3.0" fill="red" stroke="black" stroke-width="1" />
 <line x1="709.907" y1="225.169" x2="688.26" y2="217.666" opacity="0.3" stroke="green" stroke-width="2" />
<circle cx="685.025" cy="575.602" r="3.0" fill="red" stroke="black" stroke-width="1" />
 <line x1="685.025" y1="575.602" x2="646.693" y2="575.791" opacity="0.3" stroke="green" stroke-width="2" />
<circle cx="356.445" cy="499.245" r="3.0" fill="red" stroke="black" stroke-width="1" />
 <line x1="356.445" y1="499.245" x2="319.973" y2="526.648" opacity="0.3" stroke="green" stroke-width="2" />
<circle cx="546.098" cy="555.638" r="3.0" fill="red" stroke="black" stroke-width="1" />
 <line x1="546.098" y1="555.638" x2="550.333" y2="522.226" opacity="0.3" stroke="green" stroke-width="2" />
<circle cx="402.912" cy="358.291" r="3.0" fill="red" stroke="black" stroke-width="1" />
 <line x1="402.912" y1="358.291" x2="405.195" y2="772.265" opacity="0.3" stroke="green" stroke-width="2" />
<circle cx="785.25" cy="748.909" r="3.0" fill="red" stroke="black" stroke-width="1" />
 <line x1="785.25" y1="748.909" x2="750.579" y2="724.634" opacity="0.3" stroke="green" stroke-width="2" />
<circle cx="465.294" cy="735.338" r="3.0" fill="red" stroke="black" stroke-width="1" />
 <line x1="465.294" y1="735.338" x2="448.485" y2="688.317" opacity="0.3" stroke="green" stroke-width="2" />
<circle cx="676.679" cy="522.686" r="3.0" fill="red" stroke="black" stroke-width="1" />
 <line x1="676.679" y1="522.686" x2="646.693" y2="575.791" opacity="0.3" stroke="green" stroke-width="2" />
<circle cx="571.644" cy="447.537" r="3.0" fill="red" stroke="black" stroke-width="1" />
 <line x1="571.644" y1="447.537" x2="646.693" y2="575.791" opacity="0.3" stroke="green" stroke-width="2" />
<circle cx="120.103" cy="694.834" r="3.0" fill="red" stroke="black" stroke-width="1" />
 <line x1="120.103" y1="694.834" x2="231.481" y2="768.581" opacity="0.3" stroke="green" stroke-width="2" />
<circle cx="85.0072" cy="750.086" r="3.0" fill="red" stroke="black" stroke-width="1" />
 <line x1="85.0072" y1="750.086" x2="38.4695" y2="725.811" opacity="0.3" stroke="green" stroke-width="2" />
<circle cx="464.37" cy="594.59" r="3.0" fill="red" stroke="black" stroke-width="1" />
 <line x1="464.37" y1="594.59" x2="448.485" y2="688.317" opacity="0.3" stroke="green" stroke-width="2" />
<circle cx="379.553" cy="65.0498" r="3.0" fill="red" stroke="black" stroke-width="1" />
 <line x1="379.553" y1="65.0498" x2="408.863" y2="75.0183" opacity="0.3" stroke="green" stroke-width="2" />
<circle cx="477.628" cy="222.177" r="3.0" fill="red" stroke="black" stroke-width="1" />
 <line x1="477.628" y1="222.177" x2="508.3" y2="258.287" opacity="0.3" stroke="green" stroke-width="2" />
<circle cx="272.283" cy="315.327" r="3.0" fill="red" stroke="black" stroke-width="1" />
 <line x1="272.283" y1="315.327" x2="278.845" y2="300.915" opacity="0.3" stroke="green" stroke-width="2" />
<circle cx="734.984" cy="10.7818" r="3.0" fill="red" stroke="black" stroke-width="1" />
 <line x1="734.984" y1="10.7818" x2="750.09" y2="8.33344" opacity="0.3" stroke="green" stroke-width="2" />
<circle cx="724.146" cy="730.812" r="3.0" fill="red" stroke="black" stroke-width="1" />
 <line x1="724.146" y1="730.812" x2="750.579" y2="724.634" opacity="0.3" stroke="green" stroke-width="2" />
<circle cx="291.42" cy="315.887" r="3.0" fill="red" stroke="black" stroke-width="1" />
 <line x1="291.42" y1="315.887" x2="278.845" y2="300.915" opacity="0.3" stroke="green" stroke-width="2" />
<circle cx="281.695" cy="765.148" r="3.0" fill="red" stroke="black" stroke-width="1" />
 <line x1="281.695" y1="765.148" x2="405.195" y2="772.265" opacity="0.3" stroke="green" stroke-width="2" />
<circle cx="238.858" cy="634.552" r="3.0" fill="red" stroke="black" stroke-width="1" />
 <line x1="238.858" y1="634.552" x2="249.606" y2="613.474" opacity="0.3" stroke="green" stroke-width="2" />
<circle cx="154.126" cy="645.511" r="3.0" fill="red" stroke="black" stroke-width="1" />
 <line x1="154.126" y1="645.511" x2="90.3696" y2="632.448" opacity="0.3" stroke="green" stroke-width="2" />
<circle cx="362.202" cy="657.002" r="3.0" fill="red" stroke="black" stroke-width="1" />
 <line x1="362.202" y1="657.002" x2="404.532" y2="638.279" opacity="0.3" stroke="green" stroke-width="2" />
<circle cx="15.4431" cy="319.709" r="3.0" fill="red" stroke="black" stroke-width="1" />
 <line x1="15.4431" y1="319.709" x2="39.6644" y2="366.708" opacity="0.3" stroke="green" stroke-width="2" />
<circle cx="734.154" cy="666.965" r="3.0" fill="red" stroke="black" stroke-width="1" />
 <line x1="734.154" y1="666.965" x2="750.579" y2="724.634" opacity="0.3" stroke="green" stroke-width="2" />
<circle cx="526.118" cy="96.8576" r="3.0" fill="red" stroke="black" stroke-width="1" />
 <line x1="526.118" y1="96.8576" x2="538.361" y2="146.534" opacity="0.3" stroke="green" stroke-width="2" />
<circle cx="674.653" cy="318.106" r="3.0" fill="red" stroke="black" stroke-width="1" />
 <line x1="674.653" y1="318.106" x2="712.475" y2="269.634" opacity="0.3" stroke="green" stroke-width="2" />
<circle cx="581.812" cy="396.338" r="3.0" fill="red" stroke="black" stroke-width="1" />
 <line x1="581.812" y1="396.338" x2="650.058" y2="430.45" opacity="0.3" stroke="green" stroke-width="2" />
<circle cx="579.718" cy="706.396" r="3.0" fill="red" stroke="black" stroke-width="1" />
 <line x1="579.718" y1="706.396" x2="538.114" y2="673.031" opacity="0.3" stroke="green" stroke-width="2" />
<circle cx="389.153" cy="530.487" r="3.0" fill="red" stroke="black" stroke-width="1" />
 <line x1="389.153" y1="530.487" x2="319.973" y2="526.648" opacity="0.3" stroke="green" stroke-width="2" />
<circle cx="124.664" cy="509.096" r="3.0" fill="red" stroke="black" stroke-width="1" />
 <line x1="124.664" y1="509.096" x2="68.2298" y2="438.792" opacity="0.3" stroke="green" stroke-width="2" />
<circle cx="762.125" cy="247.886" r="3.0" fill="red" stroke="black" stroke-width="1" />
 <line x1="762.125" y1="247.886" x2="712.475" y2="269.634" opacity="0.3" stroke="green" stroke-width="2" />
<circle cx="11.8985" cy="278.822" r="3.0" fill="red" stroke="black" stroke-width="1" />
 <line x1="11.8985" y1="278.822" x2="39.6644" y2="366.708" opacity="0.3" stroke="green" stroke-width="2" />
<circle cx="438.457" cy="273.455" r="3.0" fill="red" stroke="black" stroke-width="1" />
 <line x1="438.457" y1="273.455" x2="508.3" y2="258.287" opacity="0.3" stroke="green" stroke-width="2" />
<circle cx="62.5771" cy="635.848" r="3.0" fill="red" stroke="black" stroke-width="1" />
 <line x1="62.5771" y1="635.848" x2="90.3696" y2="632.448" opacity="0.3" stroke="green" stroke-width="2" />
<circle cx="209.653" cy="426.74" r="3.0" fill="red" stroke="black" stroke-width="1" />
 <line x1="209.653" y1="426.74" x2="228.986" y2="472.156" opacity="0.3" stroke="green" stroke-width="2" />
<circle cx="241.41" cy="664.33" r="3.0" fill="red" stroke="black" stroke-width="1" />
 <line x1="241.41" y1="664.33" x2="249.606" y2="613.474" opacity="0.3" stroke="green" stroke-width="2" />
<circle cx="77.4044" cy="121.526" r="3.0" fill="red" stroke="black" stroke-width="1" />
 <line x1="77.4044" y1="121.526" x2="24.2386" y2="131.815" opacity="0.3" stroke="green" stroke-width="2" />
<circle cx="486.858" cy="228.402" r="3.0" fill="red" stroke="black" stroke-width="1" />
 <line x1="486.858" y1="228.402" x2="508.3" y2="258.287" opacity="0.3" stroke="green" stroke-width="2" />
<circle cx="546.748" cy="209.989" r="3.0" fill="red" stroke="black" stroke-width="1" />
 <line x1="546.748" y1="209.989" x2="508.3" y2="258.287" opacity="0.3" stroke="green" stroke-width="2" />
<circle cx="151.776" cy="93.3368" r="3.0" fill="red" stroke="black" stroke-width="1" />
 <line x1="151.776" y1="93.3368" x2="248.87" y2="61.9701" opacity="0.3" stroke="green" stroke-width="2" />
<circle cx="277.398" cy="604.877" r="3.0" fill="red" stroke="black" stroke-width="1" />
 <line x1="277.398" y1="604.877" x2="249.606" y2="613.474" opacity="0.3" stroke="green" stroke-width="2" />
<circle cx="171.238" cy="507.286" r="3.0" fill="red" stroke="black" stroke-width="1" />
 <line x1="171.238" y1="507.286" x2="228.986" y2="472.156" opacity="0.3" stroke="green" stroke-width="2" />
<circle cx="268.274" cy="610.167" r="3.0" fill="red" stroke="black" stroke-width="1" />
 <line x1="268.274" y1="610.167" x2="249.606" y2="613.474" opacity="0.3" stroke="green" stroke-width="2" />
<circle cx="650.202" cy="515.763" r="3.0" fill="red" stroke="black" stroke-width="1" />
 <line x1="650.202" y1="515.763" x2="650.058" y2="430.45" opacity="0.3" stroke="green" stroke-width="2" />
<circle cx="783.791" cy="220.863" r="3.0" fill="red" stroke="black" stroke-width="1" />
 <line x1="783.791" y1="220.863" x2="688.26" y2="217.666" opacity="0.3" stroke="green" stroke-width="2" />
<circle cx="543.607" cy="759.698" r="3.0" fill="red" stroke="black" stroke-width="1" />
 <line x1="543.607" y1="759.698" x2="448.485" y2="688.317" opacity="0.3" stroke="green" stroke-width="2" />
<circle cx="81.168" cy="449.819" r="3.0" fill="red" stroke="black" stroke-width="1" />
 <line x1="81.168" y1="449.819" x2="68.2298" y2="438.792" opacity="0.3" stroke="green" stroke-width="2" />
<circle cx="622.13" cy="420.326" r="3.0" fill="red" stroke="black" stroke-width="1" />
 <line x1="622.13" y1="420.326" x2="650.058" y2="430.45" opacity="0.3" stroke="green" stroke-width="2" />
<circle cx="480.102" cy="61.2504" r="3.0" fill="red" stroke="black" stroke-width="1" />
 <line x1="480.102" y1="61.2504" x2="567.138" y2="16.6379" opacity="0.3" stroke="green" stroke-width="2" />
<circle cx="338.827" cy="169.385" r="3.0" fill="red" stroke="black" stroke-width="1" />
 <line x1="338.827" y1="169.385" x2="369.99" y2="156.954" opacity="0.3" stroke="green" stroke-width="2" />
<circle cx="335.668" cy="279.402" r="3.0" fill="red" stroke="black" stroke-width="1" />
 <line x1="335.668" y1="279.402" x2="126.634" y2="150.8" opacity="0.3" stroke="green" stroke-width="2" />
<circle cx="228.175" cy="119.702" r="3.0" fill="red" stroke="black" stroke-width="1" />
 <line x1="228.175" y1="119.702" x2="248.87" y2="61.9701" opacity="0.3" stroke="green" stroke-width="2" />
<circle cx="469.679" cy="371.254" r="3.0" fill="red" stroke="black" stroke-width="1" />
 <line x1="469.679" y1="371.254" x2="468.315" y2="394.341" opacity="0.3" stroke="green" stroke-width="2" />
<circle cx="671.013" cy="641.702" r="3.0" fill="red" stroke="black" stroke-width="1" />
 <line x1="671.013" y1="641.702" x2="646.693" y2="575.791" opacity="0.3" stroke="green" stroke-width="2" />
<circle cx="580.976" cy="336.818" r="3.0" fill="red" stroke="black" stroke-width="1" />
 <line x1="580.976" y1="336.818" x2="712.475" y2="269.634" opacity="0.3" stroke="green" stroke-width="2" />
<circle cx="611.542" cy="336.028" r="3.0" fill="red" stroke="black" stroke-width="1" />
 <line x1="611.542" y1="336.028" x2="712.475" y2="269.634" opacity="0.3" stroke="green" stroke-width="2" />
<circle cx="721.526" cy="628.462" r="3.0" fill="red" stroke="black" stroke-width="1" />
 <line x1="721.526" y1="628.462" x2="727.107" y2="623.552" opacity="0.3" stroke="green" stroke-width="2" />
<circle cx="628.463" cy="85.5344" r="3.0" fill="red" stroke="black" stroke-width="1" />
 <line x1="628.463" y1="85.5344" x2="567.138" y2="16.6379" opacity="0.3" stroke="green" stroke-width="2" />
<circle cx="750.156" cy="403.586" r="3.0" fill="red" stroke="black" stroke-width="1" />
 <line x1="750.156" y1="403.586" x2="742.627" y2="419.383" opacity="0.3" stroke="green" stroke-width="2" />
<circle cx="221.538" cy="77.7962" r="3.0" fill="red" stroke="black" stroke-width="1" />
 <line x1="221.538" y1="77.7962" x2="248.87" y2="61.9701" opacity="0.3" stroke="green" stroke-width="2" />
<circle cx="640.326" cy="604.978" r="3.0" fill="red" stroke="black" stroke-width="1" />
 <line x1="640.326" y1="604.978" x2="646.693" y2="575.791" opacity="0.3" stroke="green" stroke-width="2" />
<circle cx="350.534" cy="44.3076" r="3.0" fill="red" stroke="black" stroke-width="1" />
 <line x1="350.534" y1="44.3076" x2="408.863" y2="75.0183" opacity="0.3" stroke="green" stroke-width="2" />
<circle cx="457.455" cy="195.285" r="3.0" fill="red" stroke="black" stroke-width="1" />
 <line x1="457.455" y1="195.285" x2="508.3" y2="258.287" opacity="0.3" stroke="green" stroke-width="2" />
<circle cx="399.046" cy="794.953" r="3.0" fill="red" stroke="black" stroke-width="1" />
 <line x1="399.046" y1="794.953" x2="405.195" y2="772.265" opacity="0.3" stroke="green" stroke-width="2" />
<circle cx="1.51401" cy="518.078" r="3.0" fill="red" stroke="black" stroke-width="1" />
 <line x1="1.51401" y1="518.078" x2="13.1136" y2="574.14" opacity="0.3" stroke="green" stroke-width="2" />
<circle cx="164.967" cy="443.114" r="3.0" fill="red" stroke="black" stroke-width="1" />
 <line x1="164.967" y1="443.114" x2="228.986" y2="472.156" opacity="0.3" stroke="green" stroke-width="2" />
<circle cx="75.9" cy="537.582" r="3.0" fill="red" stroke="black" stroke-width="1" />
 <line x1="75.9" y1="537.582" x2="68.2298" y2="438.792" opacity="0.3" stroke="green" stroke-width="2" />
<circle cx="598.663" cy="95.2128" r="3.0" fill="red" stroke="black" stroke-width="1" />
 <line x1="598.663" y1="95.2128" x2="538.361" y2="146.534" opacity="0.3" stroke="green" stroke-width="2" />
<circle cx="531.29" cy="331.583" r="3.0" fill="red" stroke="black" stroke-width="1" />
 <line x1="531.29" y1="331.583" x2="508.3" y2="258.287" opacity="0.3" stroke="green" stroke-width="2" />
<circle cx="533.854" cy="99.1712" r="3.0" fill="red" stroke="black" stroke-width="1" />
 <line x1="533.854" y1="99.1712" x2="538.361" y2="146.534" opacity="0.3" stroke="green" stroke-width="2" />
<circle cx="472.654" cy="378.951" r="3.0" fill="red" stroke="black" stroke-width="1" />
 <line x1="472.654" y1="378.951" x2="468.315" y2="394.341" opacity="0.3" stroke="green" stroke-width="2" />
<circle cx="14.4784" cy="743.331" r="3.0" fill="red" stroke="black" stroke-width="1" />
 <line x1="14.4784" y1="743.331" x2="38.4695" y2="725.811" opacity="0.3" stroke="green" stroke-width="2" />
<circle cx="671.878" cy="550.477" r="3.0" fill="red" stroke="black" stroke-width="1" />
 <line x1="671.878" y1="550.477" x2="646.693" y2="575.791" opacity="0.3" stroke="green" stroke-width="2" />
<circle cx="731.154" cy="697.97" r="3.0" fill="red" stroke="black" stroke-width="1" />
 <line x1="731.154" y1="697.97" x2="750.579" y2="724.634" opacity="0.3" stroke="green" stroke-width="2" />
<circle cx="12.735" cy="604.106" r="3.0" fill="red" stroke="black" stroke-width="1" />
 <line x1="12.735" y1="604.106" x2="13.1136" y2="574.14" opacity="0.3" stroke="green" stroke-width="2" />
<circle cx="451.447" cy="681.735" r="3.0" fill="red" stroke="black" stroke-width="1" />
 <line x1="451.447" y1="681.735" x2="448.485" y2="688.317" opacity="0.3" stroke="green" stroke-width="2" />
<circle cx="370.068" cy="436.709" r="3.0" fill="red" stroke="black" stroke-width="1" />
 <line x1="370.068" y1="436.709" x2="372.125" y2="369.483" opacity="0.3" stroke="green" stroke-width="2" />
<circle cx="768.79" cy="157.994" r="3.0" fill="red" stroke="black" stroke-width="1" />
 <line x1="768.79" y1="157.994" x2="688.26" y2="217.666" opacity="0.3" stroke="green" stroke-width="2" />
<circle cx="205.103" cy="202.199" r="3.0" fill="red" stroke="black" stroke-width="1" />
 <line x1="205.103" y1="202.199" x2="181.519" y2="294.628" opacity="0.3" stroke="green" stroke-width="2" />
<circle cx="362.873" cy="597.795" r="3.0" fill="red" stroke="black" stroke-width="1" />
 <line x1="362.873" y1="597.795" x2="404.532" y2="638.279" opacity="0.3" stroke="green" stroke-width="2" />
<circle cx="104.978" cy="71.1815" r="3.0" fill="red" stroke="black" stroke-width="1" />
 <line x1="104.978" y1="71.1815" x2="113.233" y2="10.9468" opacity="0.3" stroke="green" stroke-width="2" />
<circle cx="585.24" cy="446.518" r="3.0" fill="red" stroke="black" stroke-width="1" />
 <line x1="585.24" y1="446.518" x2="550.333" y2="522.226" opacity="0.3" stroke="green" stroke-width="2" />
<circle cx="585.996" cy="29.7947" r="3.0" fill="red" stroke="black" stroke-width="1" />
 <line x1="585.996" y1="29.7947" x2="567.138" y2="16.6379" opacity="0.3" stroke="green" stroke-width="2" />
<circle cx="332.913" cy="416.594" r="3.0" fill="red" stroke="black" stroke-width="1" />
 <line x1="332.913" y1="416.594" x2="372.125" y2="369.483" opacity="0.3" stroke="green" stroke-width="2" />
<circle cx="358.684" cy="786.475" r="3.0" fill="red" stroke="black" stroke-width="1" />
 <line x1="358.684" y1="786.475" x2="405.195" y2="772.265" opacity="0.3" stroke="green" stroke-width="2" />
<circle cx="306.182" cy="550.443" r="3.0" fill="red" stroke="black" stroke-width="1" />
 <line x1="306.182" y1="550.443" x2="319.973" y2="526.648" opacity="0.3" stroke="green" stroke-width="2" />
<circle cx="643.67" cy="705.335" r="3.0" fill="red" stroke="black" stroke-width="1" />
 <line x1="643.67" y1="705.335" x2="610.258" y2="754.883" opacity="0.3" stroke="green" stroke-width="2" />
<circle cx="686.643" cy="381.886" r="3.0" fill="red" stroke="black" stroke-width="1" />
 <line x1="686.643" y1="381.886" x2="650.058" y2="430.45" opacity="0.3" stroke="green" stroke-width="2" />
<circle cx="337.222" cy="315.598" r="3.0" fill="red" stroke="black" stroke-width="1" />
 <line x1="337.222" y1="315.598" x2="372.125" y2="369.483" opacity="0.3" stroke="green" stroke-width="2" />
<circle cx="191.902" cy="165.358" r="3.0" fill="red" stroke="black" stroke-width="1" />
 <line x1="191.902" y1="165.358" x2="57.565" y2="269.542" opacity="0.3" stroke="green" stroke-width="2" />
<circle cx="754.544" cy="580.01" r="3.0" fill="red" stroke="black" stroke-width="1" />
 <line x1="754.544" y1="580.01" x2="727.107" y2="623.552" opacity="0.3" stroke="green" stroke-width="2" />
<circle cx="33.7966" cy="178.642" r="3.0" fill="red" stroke="black" stroke-width="1" />
 <line x1="33.7966" y1="178.642" x2="57.565" y2="269.542" opacity="0.3" stroke="green" stroke-width="2" />
<circle cx="199.789" cy="134.785" r="3.0" fill="red" stroke="black" stroke-width="1" />
 <line x1="199.789" y1="134.785" x2="126.634" y2="150.8" opacity="0.3" stroke="green" stroke-width="2" />
<circle cx="8.32984" cy="681.094" r="3.0" fill="red" stroke="black" stroke-width="1" />
 <line x1="8.32984" y1="681.094" x2="38.4695" y2="725.811" opacity="0.3" stroke="green" stroke-width="2" />
<circle cx="213.476" cy="788.141" r="3.0" fill="red" stroke="black" stroke-width="1" />
 <line x1="213.476" y1="788.141" x2="231.481" y2="768.581" opacity="0.3" stroke="green" stroke-width="2" />
<circle cx="368.376" cy="630.009" r="3.0" fill="red" stroke="black" stroke-width="1" />
 <line x1="368.376" y1="630.009" x2="404.532" y2="638.279" opacity="0.3" stroke="green" stroke-width="2" />
<circle cx="156.641" cy="43.41" r="3.0" fill="red" stroke="black" stroke-width="1" />
 <line x1="156.641" y1="43.41" x2="113.233" y2="10.9468" opacity="0.3" stroke="green" stroke-width="2" />
<circle cx="94.0848" cy="264.141" r="3.0" fill="red" stroke="black" stroke-width="1" />
 <line x1="94.0848" y1="264.141" x2="57.565" y2="269.542" opacity="0.3" stroke="green" stroke-width="2" />
<circle cx="409.233" cy="559.035" r="3.0" fill="red" stroke="black" stroke-width="1" />
 <line x1="409.233" y1="559.035" x2="404.532" y2="638.279" opacity="0.3" stroke="green" stroke-width="2" />
<circle cx="486.506" cy="494.566" r="3.0" fill="red" stroke="black" stroke-width="1" />
 <line x1="486.506" y1="494.566" x2="468.315" y2="394.341" opacity="0.3" stroke="green" stroke-width="2" />
<circle cx="725.226" cy="494.18" r="3.0" fill="red" stroke="black" stroke-width="1" />
 <line x1="725.226" y1="494.18" x2="742.627" y2="419.383" opacity="0.3" stroke="green" stroke-width="2" />
<circle cx="51.3433" cy="300.3" r="3.0" fill="red" stroke="black" stroke-width="1" />
 <line x1="51.3433" y1="300.3" x2="57.565" y2="269.542" opacity="0.3" stroke="green" stroke-width="2" />
<circle cx="796.581" cy="590.55" r="3.0" fill="red" stroke="black" stroke-width="1" />
 <line x1="796.581" y1="590.55" x2="750.579" y2="724.634" opacity="0.3" stroke="green" stroke-width="2" />
<circle cx="138.2" cy="113.636" r="3.0" fill="red" stroke="black" stroke-width="1" />
 <line x1="138.2" y1="113.636" x2="126.634" y2="150.8" opacity="0.3" stroke="green" stroke-width="2" />
<circle cx="569.949" cy="724.265" r="3.0" fill="red" stroke="black" stroke-width="1" />
 <line x1="569.949" y1="724.265" x2="610.258" y2="754.883" opacity="0.3" stroke="green" stroke-width="2" />
<circle cx="612.565" cy="369.312" r="3.0" fill="red" stroke="black" stroke-width="1" />
 <line x1="612.565" y1="369.312" x2="650.058" y2="430.45" opacity="0.3" stroke="green" stroke-width="2" />
<circle cx="245.916" cy="163.464" r="3.0" fill="red" stroke="black" stroke-width="1" />
 <line x1="245.916" y1="163.464" x2="369.99" y2="156.954" opacity="0.3" stroke="green" stroke-width="2" />
<circle cx="239.194" cy="587.759" r="3.0" fill="red" stroke="black" stroke-width="1" />
 <line x1="239.194" y1="587.759" x2="249.606" y2="613.474" opacity="0.3" stroke="green" stroke-width="2" />
<circle cx="319.689" cy="559.908" r="3.0" fill="red" stroke="black" stroke-width="1" />
 <line x1="319.689" y1="559.908" x2="319.973" y2="526.648" opacity="0.3" stroke="green" stroke-width="2" />
<circle cx="555.612" cy="792.17" r="3.0" fill="red" stroke="black" stroke-width="1" />
 <line x1="555.612" y1="792.17" x2="610.258" y2="754.883" opacity="0.3" stroke="green" stroke-width="2" />
<circle cx="735.074" cy="65.8066" r="3.0" fill="red" stroke="black" stroke-width="1" />
 <line x1="735.074" y1="65.8066" x2="750.09" y2="8.33344" opacity="0.3" stroke="green" stroke-width="2" />
<circle cx="556.526" cy="515.794" r="3.0" fill="red" stroke="black" stroke-width="1" />
 <line x1="556.526" y1="515.794" x2="550.333" y2="522.226" opacity="0.3" stroke="green" stroke-width="2" />
<circle cx="137.242" cy="81.4768" r="3.0" fill="red" stroke="black" stroke-width="1" />
 <line x1="137.242" y1="81.4768" x2="126.634" y2="150.8" opacity="0.3" stroke="green" stroke-width="2" />
<circle cx="533.782" cy="663.412" r="3.0" fill="red" stroke="black" stroke-width="1" />
 <line x1="533.782" y1="663.412" x2="538.114" y2="673.031" opacity="0.3" stroke="green" stroke-width="2" />
<circle cx="166.234" cy="228.068" r="3.0" fill="red" stroke="black" stroke-width="1" />
 <line x1="166.234" y1="228.068" x2="181.519" y2="294.628" opacity="0.3" stroke="green" stroke-width="2" />
<circle cx="76.3822" cy="331.926" r="3.0" fill="red" stroke="black" stroke-width="1" />
 <line x1="76.3822" y1="331.926" x2="39.6644" y2="366.708" opacity="0.3" stroke="green" stroke-width="2" />
<circle cx="317.654" cy="701.642" r="3.0" fill="red" stroke="black" stroke-width="1" />
 <line x1="317.654" y1="701.642" x2="405.195" y2="772.265" opacity="0.3" stroke="green" stroke-width="2" />
<circle cx="98.8584" cy="307.776" r="3.0" fill="red" stroke="black" stroke-width="1" />
 <line x1="98.8584" y1="307.776" x2="57.565" y2="269.542" opacity="0.3" stroke="green" stroke-width="2" />
<circle cx="62.6608" cy="562.561" r="3.0" fill="red" stroke="black" stroke-width="1" />
 <line x1="62.6608" y1="562.561" x2="13.1136" y2="574.14" opacity="0.3" stroke="green" stroke-width="2" />
<circle cx="124.617" cy="700.986" r="3.0" fill="red" stroke="black" stroke-width="1" />
 <line x1="124.617" y1="700.986" x2="90.3696" y2="632.448" opacity="0.3" stroke="green" stroke-width="2" />
<circle cx="746.53" cy="48.255" r="3.0" fill="red" stroke="black" stroke-width="1" />
 <line x1="746.53" y1="48.255" x2="750.09" y2="8.33344" opacity="0.3" stroke="green" stroke-width="2" />
<circle cx="795.576" cy="531.279" r="3.0" fill="red" stroke="black" stroke-width="1" />
 <line x1="795.576" y1="531.279" x2="727.107" y2="623.552" opacity="0.3" stroke="green" stroke-width="2" />
<circle cx="70.1796" cy="753.441" r="3.0" fill="red" stroke="black" stroke-width="1" />
 <line x1="70.1796" y1="753.441" x2="38.4695" y2="725.811" opacity="0.3" stroke="green" stroke-width="2" />
<circle cx="532.411" cy="27.9974" r="3.0" fill="red" stroke="black" stroke-width="1" />
 <line x1="532.411" y1="27.9974" x2="567.138" y2="16.6379" opacity="0.3" stroke="green" stroke-width="2" />
<circle cx="41.5746" cy="352.934" r="3.0" fill="red" stroke="black" stroke-width="1" />
 <line x1="41.5746" y1="352.934" x2="39.6644" y2="366.708" opacity="0.3" stroke="green" stroke-width="2" />
<circle cx="566.109" cy="557.669" r="3.0" fill="red" stroke="black" stroke-width="1" />
 <line x1="566.109" y1="557.669" x2="550.333" y2="522.226" opacity="0.3" stroke="green" stroke-width="2" />
<circle cx="758.53" cy="387.747" r="3.0" fill="red" stroke="black" stroke-width="1" />
 <line x1="758.53" y1="387.747" x2="742.627" y2="419.383" opacity="0.3" stroke="green" stroke-width="2" />
<circle cx="121.11" cy="699.571" r="3.0" fill="red" stroke="black" stroke-width="1" />
 <line x1="121.11" y1="699.571" x2="231.481" y2="768.581" opacity="0.3" stroke="green" stroke-width="2" />
<circle cx="38.1774" cy="694.491" r="3.0" fill="red" stroke="black" stroke-width="1" />
 <line x1="38.1774" y1="694.491" x2="38.4695" y2="725.811" opacity="0.3" stroke="green" stroke-width="2" />
<circle cx="595.45" cy="684.058" r="3.0" fill="red" stroke="black" stroke-width="1" />
 <line x1="595.45" y1="684.058" x2="610.258" y2="754.883" opacity="0.3" stroke="green" stroke-width="2" />
<circle cx="501.854" cy="119.61" r="3.0" fill="red" stroke="black" stroke-width="1" />
 <line x1="501.854" y1="119.61" x2="538.361" y2="146.534" opacity="0.3" stroke="green" stroke-width="2" />
<circle cx="711.758" cy="640.574" r="3.0" fill="red" stroke="black" stroke-width="1" />
 <line x1="711.758" y1="640.574" x2="727.107" y2="623.552" opacity="0.3" stroke="green" stroke-width="2" />
<circle cx="184.126" cy="785.662" r="3.0" fill="red" stroke="black" stroke-width="1" />
 <line x1="184.126" y1="785.662" x2="231.481" y2="768.581" opacity="0.3" stroke="green" stroke-width="2" />
<circle cx="387.678" cy="332.829" r="3.0" fill="red" stroke="black" stroke-width="1" />
 <line x1="387.678" y1="332.829" x2="372.125" y2="369.483" opacity="0.3" stroke="green" stroke-width="2" />
<circle cx="223.665" cy="29.9473" r="3.0" fill="red" stroke="black" stroke-width="1" />
 <line x1="223.665" y1="29.9473" x2="248.87" y2="61.9701" opacity="0.3" stroke="green" stroke-width="2" />
<circle cx="382.234" cy="25.3395" r="3.0" fill="red" stroke="black" stroke-width="1" />
 <line x1="382.234" y1="25.3395" x2="408.863" y2="75.0183" opacity="0.3" stroke="green" stroke-width="2" />
<circle cx="54.5899" cy="346.767" r="3.0" fill="red" stroke="black" stroke-width="1" />
 <line x1="54.5899" y1="346.767" x2="39.6644" y2="366.708" opacity="0.3" stroke="green" stroke-width="2" />
<circle cx="568.777" cy="780.551" r="3.0" fill="red" stroke="black" stroke-width="1" />
 <line x1="568.777" y1="780.551" x2="610.258" y2="754.883" opacity="0.3" stroke="green" stroke-width="2" />
<circle cx="757.209" cy="409.52" r="3.0" fill="red" stroke="black" stroke-width="1" />
 <line x1="757.209" y1="409.52" x2="742.627" y2="419.383" opacity="0.3" stroke="green" stroke-width="2" />
<circle cx="557.404" cy="645.497" r="3.0" fill="red" stroke="black" stroke-width="1" />
 <line x1="557.404" y1="645.497" x2="538.114" y2="673.031" opacity="0.3" stroke="green" stroke-width="2" />
<circle cx="466.87" cy="387.46" r="3.0" fill="red" stroke="black" stroke-width="1" />
 <line x1="466.87" y1="387.46" x2="468.315" y2="394.341" opacity="0.3" stroke="green" stroke-width="2" />
<circle cx="263.258" cy="235.994" r="3.0" fill="red" stroke="black" stroke-width="1" />
 <line x1="263.258" y1="235.994" x2="278.845" y2="300.915" opacity="0.3" stroke="green" stroke-width="2" />
<circle cx="99.348" cy="145.798" r="3.0" fill="red" stroke="black" stroke-width="1" />
 <line x1="99.348" y1="145.798" x2="24.2386" y2="131.815" opacity="0.3" stroke="green" stroke-width="2" />
<circle cx="561.365" cy="48.5555" r="3.0" fill="red" stroke="black" stroke-width="1" />
 <line x1="561.365" y1="48.5555" x2="567.138" y2="16.6379" opacity="0.3" stroke="green" stroke-width="2" />
<circle cx="292.747" cy="430.071" r="3.0" fill="red" stroke="black" stroke-width="1" />
 <line x1="292.747" y1="430.071" x2="228.986" y2="472.156" opacity="0.3" stroke="green" stroke-width="2" />
<circle cx="769.329" cy="605.935" r="3.0" fill="red" stroke="black" stroke-width="1" />
 <line x1="769.329" y1="605.935" x2="727.107" y2="623.552" opacity="0.3" stroke="green" stroke-width="2" />
<circle cx="755.757" cy="596.843" r="3.0" fill="red" stroke="black" stroke-width="1" />
 <line x1="755.757" y1="596.843" x2="727.107" y2="623.552" opacity="0.3" stroke="green" stroke-width="2" />
<circle cx="411.587" cy="322.446" r="3.0" fill="red" stroke="black" stroke-width="1" />
 <line x1="411.587" y1="322.446" x2="372.125" y2="369.483" opacity="0.3" stroke="green" stroke-width="2" />
<circle cx="679.561" cy="646.482" r="3.0" fill="red" stroke="black" stroke-width="1" />
 <line x1="679.561" y1="646.482" x2="750.579" y2="724.634" opacity="0.3" stroke="green" stroke-width="2" />
<circle cx="700.927" cy="452.241" r="3.0" fill="red" stroke="black" stroke-width="1" />
 <line x1="700.927" y1="452.241" x2="742.627" y2="419.383" opacity="0.3" stroke="green" stroke-width="2" />
<circle cx="86.9344" cy="746.929" r="3.0" fill="red" stroke="black" stroke-width="1" />
 <line x1="86.9344" y1="746.929" x2="90.3696" y2="632.448" opacity="0.3" stroke="green" stroke-width="2" />
<circle cx="708.873" cy="464.659" r="3.0" fill="red" stroke="black" stroke-width="1" />
 <line x1="708.873" y1="464.659" x2="742.627" y2="419.383" opacity="0.3" stroke="green" stroke-width="2" />
<circle cx="722.967" cy="303.44" r="3.0" fill="red" stroke="black" stroke-width="1" />
 <line x1="722.967" y1="303.44" x2="712.475" y2="269.634" opacity="0.3" stroke="green" stroke-width="2" />
<circle cx="394.919" cy="90.5824" r="3.0" fill="red" stroke="black" stroke-width="1" />
 <line x1="394.919" y1="90.5824" x2="408.863" y2="75.0183" opacity="0.3" stroke="green" stroke-width="2" />
</svg>
