<svg xmlns="http://www.w3.org/2000/svg" version="1.1" width="800" height="800">
"<rect x="0.0" y="0.0" width="800.0" height="800.0" fill ="white" /><circle cx="630.76" cy="257.514" r="6.0" fill ="blue" stroke="black" stroke-width="1" />
<circle cx="63.3415" cy="49.631" r="6.0" fill ="blue" stroke="black" stroke-width="1" />
<circle cx="191.79" cy="459.514" r="6.0" fill ="blue" stroke="black" stroke-width="1" />
<circle cx="88.9904" cy="722.387" r="6.0" fill ="blue" stroke="black" stroke-width="1" />
<circle cx="271.202" cy="710.698" r="6.0" fill ="blue" stroke="black" stroke-width="1" />
<circle cx="147.106" cy="316.523" r="6.0" fill ="blue" stroke="black" stroke-width="1" />
<circle cx="266.154" cy="158.408" r="6.0" fill ="blue" stroke="black" stroke-width="1" />
<circle cx="553.243" cy="655.377" r="6.0" fill ="blue" stroke="black" stroke-width="1" />
<circle cx="501.833" cy="775.322" r="6.0" fill ="blue" stroke="black" stroke-width="1" />
<circle cx="388.594" cy="114.299" r="6.0" fill ="blue" stroke="black" stroke-width="1" />
<circle cx="430.016" cy="336.868" r="6.0" fill ="blue" stroke="black" stroke-width="1" />
<circle cx="164.91" cy="590.462" r="6.0" fill ="blue" stroke="black" stroke-width="1" />
<circle cx="730.731" cy="227.492" r="6.0" fill ="blue" stroke="black" stroke-width="1" />
<circle cx="429.717" cy="587.538" r="6.0" fill ="blue" stroke="black" stroke-width="1" />
<circle cx="619.618" cy="70.5989" r="6.0" fill ="blue" stroke="black" stroke-width="1" />
<circle cx="684.87" cy="418.731" r="6.0" fill ="blue" stroke="black" stroke-width="1" />
<circle cx="529.918" cy="428.328" r="6.0" fill ="blue" stroke="black" stroke-width="1" />
<circle cx="734.774" cy="605.489" r="6.0" fill ="blue" stroke="black" stroke-width="1" />
<circle cx="37.4918" cy="710.731" r="3.0" fill="red" stroke="black" stroke-width="1" />
 <line x1="37.4918" y1="710.731" x2="88.9904" y2="722.387" opacity="0.3" stroke="green" stroke-width="2" />
<circle cx="111.572" cy="345.547" r="3.0" fill="red" stroke="black" stroke-width="1" />
 <line x1="111.572" y1="345.547" x2="147.106" y2="316.523" opacity="0.3" stroke="green" stroke-width="2" />
<circle cx="508.066" cy="795.73" r="3.0" fill="red" stroke="black" stroke-width="1" />
 <line x1="508.066" y1="795.73" x2="501.833" y2="775.322" opacity="0.3" stroke="green" stroke-width="2" />
<circle cx="498.814" cy="186.676" r="3.0" fill="red" stroke="black" stroke-width="1" />
 <line x1="498.814" y1="186.676" x2="388.594" y2="114.299" opacity="0.3" stroke="green" stroke-width="2" />
<circle cx="440.856" cy="257.094" r="3.0" fill="red" stroke="black" stroke-width="1" />
 <line x1="440.856" y1="257.094" x2="430.016" y2="336.868" opacity="0.3" stroke="green" stroke-width="2" />
<circle cx="413.99" cy="527.274" r="3.0" fill="red" stroke="black" stroke-width="1" />
 <line x1="413.99" y1="527.274" x2="429.717" y2="587.538" opacity="0.3" stroke="green" stroke-width="2" />
<circle cx="520.082" cy="785.954" r="3.0" fill="red" stroke="black" stroke-width="1" />
 <line x1="520.082" y1="785.954" x2="501.833" y2="775.322" opacity="0.3" stroke="green" stroke-width="2" />
<circle cx="626.609" cy="142.873" r="3.0" fill="red" stroke="black" stroke-width="1" />
 <line x1="626.609" y1="142.873" x2="619.618" y2="70.5989" opacity="0.3" stroke="green" stroke-width="2" />
<circle cx="769.014" cy="434.787" r="3.0" fill="red" stroke="black" stroke-width="1" />
 <line x1="769.014" y1="434.787" x2="684.87" y2="418.731" opacity="0.3" stroke="green" stroke-width="2" />
<circle cx="614.665" cy="26.9201" r="3.0" fill="red" stroke="black" stroke-width="1" />
 <line x1="614.665" y1="26.9201" x2="619.618" y2="70.5989" opacity="0.3" stroke="green" stroke-width="2" />
<circle cx="529.776" cy="319.339" r="3.0" fill="red" stroke="black" stroke-width="1" />
 <line x1="529.776" y1="319.339" x2="529.918" y2="428.328" opacity="0.3" stroke="green" stroke-width="2" />
<circle cx="110.563" cy="222.114" r="3.0" fill="red" stroke="black" stroke-width="1" />
 <line x1="110.563" y1="222.114" x2="147.106" y2="316.523" opacity="0.3" stroke="green" stroke-width="2" />
<circle cx="107.385" cy="659.27" r="3.0" fill="red" stroke="black" stroke-width="1" />
 <line x1="107.385" y1="659.27" x2="88.9904" y2="722.387" opacity="0.3" stroke="green" stroke-width="2" />
<circle cx="691.28" cy="574.985" r="3.0" fill="red" stroke="black" stroke-width="1" />
 <line x1="691.28" y1="574.985" x2="734.774" y2="605.489" opacity="0.3" stroke="green" stroke-width="2" />
<circle cx="755.53" cy="250.832" r="3.0" fill="red" stroke="black" stroke-width="1" />
 <line x1="755.53" y1="250.832" x2="730.731" y2="227.492" opacity="0.3" stroke="green" stroke-width="2" />
<circle cx="278.281" cy="689.998" r="3.0" fill="red" stroke="black" stroke-width="1" />
 <line x1="278.281" y1="689.998" x2="271.202" y2="710.698" opacity="0.3" stroke="green" stroke-width="2" />
<circle cx="372.714" cy="736.448" r="3.0" fill="red" stroke="black" stroke-width="1" />
 <line x1="372.714" y1="736.448" x2="271.202" y2="710.698" opacity="0.3" stroke="green" stroke-width="2" />
<circle cx="708.399" cy="673.884" r="3.0" fill="red" stroke="black" stroke-width="1" />
 <line x1="708.399" y1="673.884" x2="734.774" y2="605.489" opacity="0.3" stroke="green" stroke-width="2" />
<circle cx="758.219" cy="371.574" r="3.0" fill="red" stroke="black" stroke-width="1" />
 <line x1="758.219" y1="371.574" x2="684.87" y2="418.731" opacity="0.3" stroke="green" stroke-width="2" />
<circle cx="181.903" cy="123.377" r="3.0" fill="red" stroke="black" stroke-width="1" />
 <line x1="181.903" y1="123.377" x2="266.154" y2="158.408" opacity="0.3" stroke="green" stroke-width="2" />
<circle cx="396.994" cy="259.77" r="3.0" fill="red" stroke="black" stroke-width="1" />
 <line x1="396.994" y1="259.77" x2="430.016" y2="336.868" opacity="0.3" stroke="green" stroke-width="2" />
<circle cx="276.997" cy="794.252" r="3.0" fill="red" stroke="black" stroke-width="1" />
 <line x1="276.997" y1="794.252" x2="271.202" y2="710.698" opacity="0.3" stroke="green" stroke-width="2" />
<circle cx="155.847" cy="625.449" r="3.0" fill="red" stroke="black" stroke-width="1" />
 <line x1="155.847" y1="625.449" x2="164.91" y2="590.462" opacity="0.3" stroke="green" stroke-width="2" />
<circle cx="711.702" cy="150.863" r="3.0" fill="red" stroke="black" stroke-width="1" />
 <line x1="711.702" y1="150.863" x2="730.731" y2="227.492" opacity="0.3" stroke="green" stroke-width="2" />
<circle cx="658.347" cy="79.9316" r="3.0" fill="red" stroke="black" stroke-width="1" />
 <line x1="658.347" y1="79.9316" x2="619.618" y2="70.5989" opacity="0.3" stroke="green" stroke-width="2" />
<circle cx="704.668" cy="676.242" r="3.0" fill="red" stroke="black" stroke-width="1" />
 <line x1="704.668" y1="676.242" x2="734.774" y2="605.489" opacity="0.3" stroke="green" stroke-width="2" />
<circle cx="618.33" cy="470.849" r="3.0" fill="red" stroke="black" stroke-width="1" />
 <line x1="618.33" y1="470.849" x2="684.87" y2="418.731" opacity="0.3" stroke="green" stroke-width="2" />
<circle cx="348.691" cy="29.0568" r="3.0" fill="red" stroke="black" stroke-width="1" />
 <line x1="348.691" y1="29.0568" x2="388.594" y2="114.299" opacity="0.3" stroke="green" stroke-width="2" />
<circle cx="243.033" cy="15.2561" r="3.0" fill="red" stroke="black" stroke-width="1" />
 <line x1="243.033" y1="15.2561" x2="266.154" y2="158.408" opacity="0.3" stroke="green" stroke-width="2" />
<circle cx="659.65" cy="718.9" r="3.0" fill="red" stroke="black" stroke-width="1" />
 <line x1="659.65" y1="718.9" x2="553.243" y2="655.377" opacity="0.3" stroke="green" stroke-width="2" />
<circle cx="218.402" cy="574.342" r="3.0" fill="red" stroke="black" stroke-width="1" />
 <line x1="218.402" y1="574.342" x2="164.91" y2="590.462" opacity="0.3" stroke="green" stroke-width="2" />
<circle cx="564.941" cy="633.501" r="3.0" fill="red" stroke="black" stroke-width="1" />
 <line x1="564.941" y1="633.501" x2="553.243" y2="655.377" opacity="0.3" stroke="green" stroke-width="2" />
<circle cx="127.712" cy="233.552" r="3.0" fill="red" stroke="black" stroke-width="1" />
 <line x1="127.712" y1="233.552" x2="147.106" y2="316.523" opacity="0.3" stroke="green" stroke-width="2" />
<circle cx="305.003" cy="505.818" r="3.0" fill="red" stroke="black" stroke-width="1" />
 <line x1="305.003" y1="505.818" x2="164.91" y2="590.462" opacity="0.3" stroke="green" stroke-width="2" />
<circle cx="276.366" cy="796.65" r="3.0" fill="red" stroke="black" stroke-width="1" />
 <line x1="276.366" y1="796.65" x2="271.202" y2="710.698" opacity="0.3" stroke="green" stroke-width="2" />
<circle cx="217.073" cy="427.853" r="3.0" fill="red" stroke="black" stroke-width="1" />
 <line x1="217.073" y1="427.853" x2="191.79" y2="459.514" opacity="0.3" stroke="green" stroke-width="2" />
<circle cx="543.738" cy="791.236" r="3.0" fill="red" stroke="black" stroke-width="1" />
 <line x1="543.738" y1="791.236" x2="501.833" y2="775.322" opacity="0.3" stroke="green" stroke-width="2" />
<circle cx="487.696" cy="717.088" r="3.0" fill="red" stroke="black" stroke-width="1" />
 <line x1="487.696" y1="717.088" x2="429.717" y2="587.538" opacity="0.3" stroke="green" stroke-width="2" />
<circle cx="558.582" cy="419.838" r="3.0" fill="red" stroke="black" stroke-width="1" />
 <line x1="558.582" y1="419.838" x2="529.918" y2="428.328" opacity="0.3" stroke="green" stroke-width="2" />
<circle cx="64.6708" cy="152.056" r="3.0" fill="red" stroke="black" stroke-width="1" />
 <line x1="64.6708" y1="152.056" x2="63.3415" y2="49.631" opacity="0.3" stroke="green" stroke-width="2" />
<circle cx="547.547" cy="572.579" r="3.0" fill="red" stroke="black" stroke-width="1" />
 <line x1="547.547" y1="572.579" x2="429.717" y2="587.538" opacity="0.3" stroke="green" stroke-width="2" />
<circle cx="674.931" cy="9.56248" r="3.0" fill="red" stroke="black" stroke-width="1" />
 <line x1="674.931" y1="9.56248" x2="619.618" y2="70.5989" opacity="0.3" stroke="green" stroke-width="2" />
<circle cx="606.913" cy="528.698" r="3.0" fill="red" stroke="black" stroke-width="1" />
 <line x1="606.913" y1="528.698" x2="684.87" y2="418.731" opacity="0.3" stroke="green" stroke-width="2" />
<circle cx="436.875" cy="304.953" r="3.0" fill="red" stroke="black" stroke-width="1" />
 <line x1="436.875" y1="304.953" x2="430.016" y2="336.868" opacity="0.3" stroke="green" stroke-width="2" />
<circle cx="36.7226" cy="44.3673" r="3.0" fill="red" stroke="black" stroke-width="1" />
 <line x1="36.7226" y1="44.3673" x2="63.3415" y2="49.631" opacity="0.3" stroke="green" stroke-width="2" />
<circle cx="539.822" cy="602.746" r="3.0" fill="red" stroke="black" stroke-width="1" />
 <line x1="539.822" y1="602.746" x2="553.243" y2="655.377" opacity="0.3" stroke="green" stroke-width="2" />
<circle cx="601.248" cy="294.038" r="3.0" fill="red" stroke="black" stroke-width="1" />
 <line x1="601.248" y1="294.038" x2="630.76" y2="257.514" opacity="0.3" stroke="green" stroke-width="2" />
<circle cx="297.406" cy="690.059" r="3.0" fill="red" stroke="black" stroke-width="1" />
 <line x1="297.406" y1="690.059" x2="271.202" y2="710.698" opacity="0.3" stroke="green" stroke-width="2" />
<circle cx="569.189" cy="96.6984" r="3.0" fill="red" stroke="black" stroke-width="1" />
 <line x1="569.189" y1="96.6984" x2="619.618" y2="70.5989" opacity="0.3" stroke="green" stroke-width="2" />
<circle cx="514.825" cy="731.591" r="3.0" fill="red" stroke="black" stroke-width="1" />
 <line x1="514.825" y1="731.591" x2="529.918" y2="428.328" opacity="0.3" stroke="green" stroke-width="2" />
<circle cx="672.194" cy="264.13" r="3.0" fill="red" stroke="black" stroke-width="1" />
 <line x1="672.194" y1="264.13" x2="630.76" y2="257.514" opacity="0.3" stroke="green" stroke-width="2" />
<circle cx="184.709" cy="490.085" r="3.0" fill="red" stroke="black" stroke-width="1" />
 <line x1="184.709" y1="490.085" x2="191.79" y2="459.514" opacity="0.3" stroke="green" stroke-width="2" />
<circle cx="213.48" cy="169.074" r="3.0" fill="red" stroke="black" stroke-width="1" />
 <line x1="213.48" y1="169.074" x2="63.3415" y2="49.631" opacity="0.3" stroke="green" stroke-width="2" />
<circle cx="337.699" cy="611.706" r="3.0" fill="red" stroke="black" stroke-width="1" />
 <line x1="337.699" y1="611.706" x2="429.717" y2="587.538" opacity="0.3" stroke="green" stroke-width="2" />
<circle cx="268.576" cy="683.031" r="3.0" fill="red" stroke="black" stroke-width="1" />
 <line x1="268.576" y1="683.031" x2="271.202" y2="710.698" opacity="0.3" stroke="green" stroke-width="2" />
<circle cx="638.923" cy="258.037" r="3.0" fill="red" stroke="black" stroke-width="1" />
 <line x1="638.923" y1="258.037" x2="630.76" y2="257.514" opacity="0.3" stroke="green" stroke-width="2" />
<circle cx="55.4801" cy="582.479" r="3.0" fill="red" stroke="black" stroke-width="1" />
 <line x1="55.4801" y1="582.479" x2="164.91" y2="590.462" opacity="0.3" stroke="green" stroke-width="2" />
<circle cx="542.669" cy="16.9496" r="3.0" fill="red" stroke="black" stroke-width="1" />
 <line x1="542.669" y1="16.9496" x2="388.594" y2="114.299" opacity="0.3" stroke="green" stroke-width="2" />
<circle cx="218.639" cy="537.313" r="3.0" fill="red" stroke="black" stroke-width="1" />
 <line x1="218.639" y1="537.313" x2="164.91" y2="590.462" opacity="0.3" stroke="green" stroke-width="2" />
<circle cx="767.855" cy="292.91" r="3.0" fill="red" stroke="black" stroke-width="1" />
 <line x1="767.855" y1="292.91" x2="730.731" y2="227.492" opacity="0.3" stroke="green" stroke-width="2" />
<circle cx="535.141" cy="617.612" r="3.0" fill="red" stroke="black" stroke-width="1" />
 <line x1="535.141" y1="617.612" x2="553.243" y2="655.377" opacity="0.3" stroke="green" stroke-width="2" />
<circle cx="546.766" cy="222.503" r="3.0" fill="red" stroke="black" stroke-width="1" />
 <line x1="546.766" y1="222.503" x2="630.76" y2="257.514" opacity="0.3" stroke="green" stroke-width="2" />
<circle cx="623.646" cy="209.713" r="3.0" fill="red" stroke="black" stroke-width="1" />
 <line x1="623.646" y1="209.713" x2="630.76" y2="257.514" opacity="0.3" stroke="green" stroke-width="2" />
<circle cx="192.901" cy="181.25" r="3.0" fill="red" stroke="black" stroke-width="1" />
 <line x1="192.901" y1="181.25" x2="266.154" y2="158.408" opacity="0.3" stroke="green" stroke-width="2" />
<circle cx="589.467" cy="387.436" r="3.0" fill="red" stroke="black" stroke-width="1" />
 <line x1="589.467" y1="387.436" x2="684.87" y2="418.731" opacity="0.3" stroke="green" stroke-width="2" />
<circle cx="228.548" cy="655.416" r="3.0" fill="red" stroke="black" stroke-width="1" />
 <line x1="228.548" y1="655.416" x2="164.91" y2="590.462" opacity="0.3" stroke="green" stroke-width="2" />
<circle cx="332.637" cy="401.15" r="3.0" fill="red" stroke="black" stroke-width="1" />
 <line x1="332.637" y1="401.15" x2="430.016" y2="336.868" opacity="0.3" stroke="green" stroke-width="2" />
<circle cx="581.016" cy="401.8" r="3.0" fill="red" stroke="black" stroke-width="1" />
 <line x1="581.016" y1="401.8" x2="529.918" y2="428.328" opacity="0.3" stroke="green" stroke-width="2" />
<circle cx="357.988" cy="365.797" r="3.0" fill="red" stroke="black" stroke-width="1" />
 <line x1="357.988" y1="365.797" x2="430.016" y2="336.868" opacity="0.3" stroke="green" stroke-width="2" />
<circle cx="463.106" cy="496.713" r="3.0" fill="red" stroke="black" stroke-width="1" />
 <line x1="463.106" y1="496.713" x2="429.717" y2="587.538" opacity="0.3" stroke="green" stroke-width="2" />
<circle cx="626.773" cy="374.468" r="3.0" fill="red" stroke="black" stroke-width="1" />
 <line x1="626.773" y1="374.468" x2="684.87" y2="418.731" opacity="0.3" stroke="green" stroke-width="2" />
<circle cx="25.295" cy="514.643" r="3.0" fill="red" stroke="black" stroke-width="1" />
 <line x1="25.295" y1="514.643" x2="164.91" y2="590.462" opacity="0.3" stroke="green" stroke-width="2" />
<circle cx="263.407" cy="177.802" r="3.0" fill="red" stroke="black" stroke-width="1" />
 <line x1="263.407" y1="177.802" x2="266.154" y2="158.408" opacity="0.3" stroke="green" stroke-width="2" />
<circle cx="44.8206" cy="226.129" r="3.0" fill="red" stroke="black" stroke-width="1" />
 <line x1="44.8206" y1="226.129" x2="88.9904" y2="722.387" opacity="0.3" stroke="green" stroke-width="2" />
<circle cx="773.654" cy="221.053" r="3.0" fill="red" stroke="black" stroke-width="1" />
 <line x1="773.654" y1="221.053" x2="730.731" y2="227.492" opacity="0.3" stroke="green" stroke-width="2" />
<circle cx="161.988" cy="713.572" r="3.0" fill="red" stroke="black" stroke-width="1" />
 <line x1="161.988" y1="713.572" x2="88.9904" y2="722.387" opacity="0.3" stroke="green" stroke-width="2" />
<circle cx="701.397" cy="719.965" r="3.0" fill="red" stroke="black" stroke-width="1" />
 <line x1="701.397" y1="719.965" x2="734.774" y2="605.489" opacity="0.3" stroke="green" stroke-width="2" />
<circle cx="616.106" cy="616.054" r="3.0" fill="red" stroke="black" stroke-width="1" />
 <line x1="616.106" y1="616.054" x2="553.243" y2="655.377" opacity="0.3" stroke="green" stroke-width="2" />
<circle cx="137.701" cy="4.23606" r="3.0" fill="red" stroke="black" stroke-width="1" />
 <line x1="137.701" y1="4.23606" x2="63.3415" y2="49.631" opacity="0.3" stroke="green" stroke-width="2" />
<circle cx="96.6392" cy="796.357" r="3.0" fill="red" stroke="black" stroke-width="1" />
 <line x1="96.6392" y1="796.357" x2="88.9904" y2="722.387" opacity="0.3" stroke="green" stroke-width="2" />
<circle cx="780.389" cy="411.723" r="3.0" fill="red" stroke="black" stroke-width="1" />
 <line x1="780.389" y1="411.723" x2="684.87" y2="418.731" opacity="0.3" stroke="green" stroke-width="2" />
<circle cx="386.259" cy="120.654" r="3.0" fill="red" stroke="black" stroke-width="1" />
 <line x1="386.259" y1="120.654" x2="388.594" y2="114.299" opacity="0.3" stroke="green" stroke-width="2" />
<circle cx="533.794" cy="754.822" r="3.0" fill="red" stroke="black" stroke-width="1" />
 <line x1="533.794" y1="754.822" x2="553.243" y2="655.377" opacity="0.3" stroke="green" stroke-width="2" />
<circle cx="384.427" cy="791.274" r="3.0" fill="red" stroke="black" stroke-width="1" />
 <line x1="384.427" y1="791.274" x2="271.202" y2="710.698" opacity="0.3" stroke="green" stroke-width="2" />
<circle cx="755.582" cy="96.804" r="3.0" fill="red" stroke="black" stroke-width="1" />
 <line x1="755.582" y1="96.804" x2="619.618" y2="70.5989" opacity="0.3" stroke="green" stroke-width="2" />
<circle cx="417.114" cy="312.48" r="3.0" fill="red" stroke="black" stroke-width="1" />
 <line x1="417.114" y1="312.48" x2="430.016" y2="336.868" opacity="0.3" stroke="green" stroke-width="2" />
<circle cx="41.8482" cy="80.5224" r="3.0" fill="red" stroke="black" stroke-width="1" />
 <line x1="41.8482" y1="80.5224" x2="63.3415" y2="49.631" opacity="0.3" stroke="green" stroke-width="2" />
<circle cx="735.668" cy="627.781" r="3.0" fill="red" stroke="black" stroke-width="1" />
 <line x1="735.668" y1="627.781" x2="734.774" y2="605.489" opacity="0.3" stroke="green" stroke-width="2" />
<circle cx="380.23" cy="634.137" r="3.0" fill="red" stroke="black" stroke-width="1" />
 <line x1="380.23" y1="634.137" x2="429.717" y2="587.538" opacity="0.3" stroke="green" stroke-width="2" />
<circle cx="739.838" cy="161.914" r="3.0" fill="red" stroke="black" stroke-width="1" />
 <line x1="739.838" y1="161.914" x2="730.731" y2="227.492" opacity="0.3" stroke="green" stroke-width="2" />
<circle cx="549.723" cy="625.766" r="3.0" fill="red" stroke="black" stroke-width="1" />
 <line x1="549.723" y1="625.766" x2="553.243" y2="655.377" opacity="0.3" stroke="green" stroke-width="2" />
<circle cx="58.0158" cy="147.951" r="3.0" fill="red" stroke="black" stroke-width="1" />
 <line x1="58.0158" y1="147.951" x2="63.3415" y2="49.631" opacity="0.3" stroke="green" stroke-width="2" />
<circle cx="642.326" cy="528.632" r="3.0" fill="red" stroke="black" stroke-width="1" />
 <line x1="642.326" y1="528.632" x2="684.87" y2="418.731" opacity="0.3" stroke="green" stroke-width="2" />
<circle cx="50.1794" cy="372.208" r="3.0" fill="red" stroke="black" stroke-width="1" />
 <line x1="50.1794" y1="372.208" x2="191.79" y2="459.514" opacity="0.3" stroke="green" stroke-width="2" />
<circle cx="378.679" cy="194.77" r="3.0" fill="red" stroke="black" stroke-width="1" />
 <line x1="378.679" y1="194.77" x2="388.594" y2="114.299" opacity="0.3" stroke="green" stroke-width="2" />
<circle cx="468.392" cy="0.74472" r="3.0" fill="red" stroke="black" stroke-width="1" />
 <line x1="468.392" y1="0.74472" x2="388.594" y2="114.299" opacity="0.3" stroke="green" stroke-width="2" />
<circle cx="82.5096" cy="330.239" r="3.0" fill="red" stroke="black" stroke-width="1" />
 <line x1="82.5096" y1="330.239" x2="147.106" y2="316.523" opacity="0.3" stroke="green" stroke-width="2" />
<circle cx="245.57" cy="590.842" r="3.0" fill="red" stroke="black" stroke-width="1" />
 <line x1="245.57" y1="590.842" x2="164.91" y2="590.462" opacity="0.3" stroke="green" stroke-width="2" />
<circle cx="97.968" cy="267.846" r="3.0" fill="red" stroke="black" stroke-width="1" />
 <line x1="97.968" y1="267.846" x2="147.106" y2="316.523" opacity="0.3" stroke="green" stroke-width="2" />
<circle cx="145.123" cy="425.438" r="3.0" fill="red" stroke="black" stroke-width="1" />
 <line x1="145.123" y1="425.438" x2="191.79" y2="459.514" opacity="0.3" stroke="green" stroke-width="2" />
<circle cx="177.426" cy="492.314" r="3.0" fill="red" stroke="black" stroke-width="1" />
 <line x1="177.426" y1="492.314" x2="191.79" y2="459.514" opacity="0.3" stroke="green" stroke-width="2" />
<circle cx="164.31" cy="674.145" r="3.0" fill="red" stroke="black" stroke-width="1" />
 <line x1="164.31" y1="674.145" x2="88.9904" y2="722.387" opacity="0.3" stroke="green" stroke-width="2" />
<circle cx="238.059" cy="176.437" r="3.0" fill="red" stroke="black" stroke-width="1" />
 <line x1="238.059" y1="176.437" x2="266.154" y2="158.408" opacity="0.3" stroke="green" stroke-width="2" />
<circle cx="670.372" cy="741.446" r="3.0" fill="red" stroke="black" stroke-width="1" />
 <line x1="670.372" y1="741.446" x2="734.774" y2="605.489" opacity="0.3" stroke="green" stroke-width="2" />
<circle cx="243.693" cy="67.2207" r="3.0" fill="red" stroke="black" stroke-width="1" />
 <line x1="243.693" y1="67.2207" x2="388.594" y2="114.299" opacity="0.3" stroke="green" stroke-width="2" />
<circle cx="663.714" cy="391.128" r="3.0" fill="red" stroke="black" stroke-width="1" />
 <line x1="663.714" y1="391.128" x2="684.87" y2="418.731" opacity="0.3" stroke="green" stroke-width="2" />
<circle cx="552.555" cy="660.338" r="3.0" fill="red" stroke="black" stroke-width="1" />
 <line x1="552.555" y1="660.338" x2="553.243" y2="655.377" opacity="0.3" stroke="green" stroke-width="2" />
<circle cx="104.493" cy="54.7069" r="3.0" fill="red" stroke="black" stroke-width="1" />
 <line x1="104.493" y1="54.7069" x2="63.3415" y2="49.631" opacity="0.3" stroke="green" stroke-width="2" />
</svg>
