<svg xmlns="http://www.w3.org/2000/svg" version="1.1" width="800" height="800">
"<rect x="0.0" y="0.0" width="800.0" height="800.0" fill ="white" /><circle cx="520.642" cy="209.298" r="6.0" fill ="blue" stroke="black" stroke-width="1" />
<circle cx="160.642" cy="705.674" r="6.0" fill ="blue" stroke="black" stroke-width="1" />
<circle cx="341.365" cy="14.0187" r="6.0" fill ="blue" stroke="black" stroke-width="1" />
<circle cx="656.925" cy="183.62" r="6.0" fill ="blue" stroke="black" stroke-width="1" />
<circle cx="419.89" cy="356.298" r="6.0" fill ="blue" stroke="black" stroke-width="1" />
<circle cx="465.81" cy="577.857" r="6.0" fill ="blue" stroke="black" stroke-width="1" />
<circle cx="117.057" cy="212.147" r="6.0" fill ="blue" stroke="black" stroke-width="1" />
<circle cx="556.492" cy="794.77" r="6.0" fill ="blue" stroke="black" stroke-width="1" />
<circle cx="231.566" cy="339.299" r="6.0" fill ="blue" stroke="black" stroke-width="1" />
<circle cx="620.729" cy="434.237" r="6.0" fill ="blue" stroke="black" stroke-width="1" />
<circle cx="790.932" cy="566.681" r="6.0" fill ="blue" stroke="black" stroke-width="1" />
<circle cx="431.417" cy="176.634" r="6.0" fill ="blue" stroke="black" stroke-width="1" />
<circle cx="214.906" cy="535.598" r="6.0" fill ="blue" stroke="black" stroke-width="1" />
<circle cx="226.432" cy="639.025" r="3.0" fill="red" stroke="black" stroke-width="1" />
 <line x1="226.432" y1="639.025" x2="214.906" y2="535.598" opacity="0.3" stroke="green" stroke-width="2" />
<circle cx="607.435" cy="574.184" r="3.0" fill="red" stroke="black" stroke-width="1" />
 <line x1="607.435" y1="574.184" x2="790.932" y2="566.681" opacity="0.3" stroke="green" stroke-width="2" />
<circle cx="194.274" cy="368.366" r="3.0" fill="red" stroke="black" stroke-width="1" />
 <line x1="194.274" y1="368.366" x2="231.566" y2="339.299" opacity="0.3" stroke="green" stroke-width="2" />
<circle cx="64.3189" cy="542.49" r="3.0" fill="red" stroke="black" stroke-width="1" />
 <line x1="64.3189" y1="542.49" x2="214.906" y2="535.598" opacity="0.3" stroke="green" stroke-width="2" />
<circle cx="566.836" cy="750.442" r="3.0" fill="red" stroke="black" stroke-width="1" />
 <line x1="566.836" y1="750.442" x2="556.492" y2="794.77" opacity="0.3" stroke="green" stroke-width="2" />
<circle cx="715.636" cy="633.966" r="3.0" fill="red" stroke="black" stroke-width="1" />
 <line x1="715.636" y1="633.966" x2="620.729" y2="434.237" opacity="0.3" stroke="green" stroke-width="2" />
<circle cx="639.032" cy="33.0762" r="3.0" fill="red" stroke="black" stroke-width="1" />
 <line x1="639.032" y1="33.0762" x2="431.417" y2="176.634" opacity="0.3" stroke="green" stroke-width="2" />
<circle cx="618.1" cy="438.797" r="3.0" fill="red" stroke="black" stroke-width="1" />
 <line x1="618.1" y1="438.797" x2="620.729" y2="434.237" opacity="0.3" stroke="green" stroke-width="2" />
<circle cx="547.398" cy="550.315" r="3.0" fill="red" stroke="black" stroke-width="1" />
 <line x1="547.398" y1="550.315" x2="465.81" y2="577.857" opacity="0.3" stroke="green" stroke-width="2" />
<circle cx="597.394" cy="495.219" r="3.0" fill="red" stroke="black" stroke-width="1" />
 <line x1="597.394" y1="495.219" x2="620.729" y2="434.237" opacity="0.3" stroke="green" stroke-width="2" />
<circle cx="401.821" cy="261.906" r="3.0" fill="red" stroke="black" stroke-width="1" />
 <line x1="401.821" y1="261.906" x2="419.89" y2="356.298" opacity="0.3" stroke="green" stroke-width="2" />
<circle cx="585.992" cy="317.731" r="3.0" fill="red" stroke="black" stroke-width="1" />
 <line x1="585.992" y1="317.731" x2="656.925" y2="183.62" opacity="0.3" stroke="green" stroke-width="2" />
<circle cx="597.785" cy="46.703" r="3.0" fill="red" stroke="black" stroke-width="1" />
 <line x1="597.785" y1="46.703" x2="656.925" y2="183.62" opacity="0.3" stroke="green" stroke-width="2" />
<circle cx="10.6872" cy="147.962" r="3.0" fill="red" stroke="black" stroke-width="1" />
 <line x1="10.6872" y1="147.962" x2="341.365" y2="14.0187" opacity="0.3" stroke="green" stroke-width="2" />
<circle cx="93.4168" cy="215.597" r="3.0" fill="red" stroke="black" stroke-width="1" />
 <line x1="93.4168" y1="215.597" x2="117.057" y2="212.147" opacity="0.3" stroke="green" stroke-width="2" />
<circle cx="335.982" cy="575.07" r="3.0" fill="red" stroke="black" stroke-width="1" />
 <line x1="335.982" y1="575.07" x2="214.906" y2="535.598" opacity="0.3" stroke="green" stroke-width="2" />
<circle cx="566.574" cy="220.883" r="3.0" fill="red" stroke="black" stroke-width="1" />
 <line x1="566.574" y1="220.883" x2="520.642" y2="209.298" opacity="0.3" stroke="green" stroke-width="2" />
<circle cx="476.72" cy="497.866" r="3.0" fill="red" stroke="black" stroke-width="1" />
 <line x1="476.72" y1="497.866" x2="465.81" y2="577.857" opacity="0.3" stroke="green" stroke-width="2" />
<circle cx="590.082" cy="442.941" r="3.0" fill="red" stroke="black" stroke-width="1" />
 <line x1="590.082" y1="442.941" x2="620.729" y2="434.237" opacity="0.3" stroke="green" stroke-width="2" />
<circle cx="536.755" cy="40.3511" r="3.0" fill="red" stroke="black" stroke-width="1" />
 <line x1="536.755" y1="40.3511" x2="656.925" y2="183.62" opacity="0.3" stroke="green" stroke-width="2" />
<circle cx="88.2224" cy="678.232" r="3.0" fill="red" stroke="black" stroke-width="1" />
 <line x1="88.2224" y1="678.232" x2="160.642" y2="705.674" opacity="0.3" stroke="green" stroke-width="2" />
<circle cx="4.60689" cy="474.886" r="3.0" fill="red" stroke="black" stroke-width="1" />
 <line x1="4.60689" y1="474.886" x2="160.642" y2="705.674" opacity="0.3" stroke="green" stroke-width="2" />
<circle cx="512.42" cy="349.106" r="3.0" fill="red" stroke="black" stroke-width="1" />
 <line x1="512.42" y1="349.106" x2="620.729" y2="434.237" opacity="0.3" stroke="green" stroke-width="2" />
<circle cx="47.9564" cy="182.981" r="3.0" fill="red" stroke="black" stroke-width="1" />
 <line x1="47.9564" y1="182.981" x2="117.057" y2="212.147" opacity="0.3" stroke="green" stroke-width="2" />
<circle cx="344.068" cy="605.734" r="3.0" fill="red" stroke="black" stroke-width="1" />
 <line x1="344.068" y1="605.734" x2="465.81" y2="577.857" opacity="0.3" stroke="green" stroke-width="2" />
<circle cx="694.338" cy="341.18" r="3.0" fill="red" stroke="black" stroke-width="1" />
 <line x1="694.338" y1="341.18" x2="656.925" y2="183.62" opacity="0.3" stroke="green" stroke-width="2" />
<circle cx="205.567" cy="204.689" r="3.0" fill="red" stroke="black" stroke-width="1" />
 <line x1="205.567" y1="204.689" x2="117.057" y2="212.147" opacity="0.3" stroke="green" stroke-width="2" />
<circle cx="418.123" cy="292.785" r="3.0" fill="red" stroke="black" stroke-width="1" />
 <line x1="418.123" y1="292.785" x2="419.89" y2="356.298" opacity="0.3" stroke="green" stroke-width="2" />
<circle cx="702.294" cy="113.882" r="3.0" fill="red" stroke="black" stroke-width="1" />
 <line x1="702.294" y1="113.882" x2="656.925" y2="183.62" opacity="0.3" stroke="green" stroke-width="2" />
<circle cx="413.24" cy="379.354" r="3.0" fill="red" stroke="black" stroke-width="1" />
 <line x1="413.24" y1="379.354" x2="419.89" y2="356.298" opacity="0.3" stroke="green" stroke-width="2" />
<circle cx="577.993" cy="199.481" r="3.0" fill="red" stroke="black" stroke-width="1" />
 <line x1="577.993" y1="199.481" x2="341.365" y2="14.0187" opacity="0.3" stroke="green" stroke-width="2" />
<circle cx="494.562" cy="117.706" r="3.0" fill="red" stroke="black" stroke-width="1" />
 <line x1="494.562" y1="117.706" x2="520.642" y2="209.298" opacity="0.3" stroke="green" stroke-width="2" />
<circle cx="187.082" cy="44.3765" r="3.0" fill="red" stroke="black" stroke-width="1" />
 <line x1="187.082" y1="44.3765" x2="117.057" y2="212.147" opacity="0.3" stroke="green" stroke-width="2" />
<circle cx="571.712" cy="304.011" r="3.0" fill="red" stroke="black" stroke-width="1" />
 <line x1="571.712" y1="304.011" x2="520.642" y2="209.298" opacity="0.3" stroke="green" stroke-width="2" />
<circle cx="751.883" cy="673.71" r="3.0" fill="red" stroke="black" stroke-width="1" />
 <line x1="751.883" y1="673.71" x2="790.932" y2="566.681" opacity="0.3" stroke="green" stroke-width="2" />
<circle cx="585.24" cy="31.8287" r="3.0" fill="red" stroke="black" stroke-width="1" />
 <line x1="585.24" y1="31.8287" x2="431.417" y2="176.634" opacity="0.3" stroke="green" stroke-width="2" />
<circle cx="194.83" cy="41.3854" r="3.0" fill="red" stroke="black" stroke-width="1" />
 <line x1="194.83" y1="41.3854" x2="341.365" y2="14.0187" opacity="0.3" stroke="green" stroke-width="2" />
<circle cx="272.056" cy="319.212" r="3.0" fill="red" stroke="black" stroke-width="1" />
 <line x1="272.056" y1="319.212" x2="231.566" y2="339.299" opacity="0.3" stroke="green" stroke-width="2" />
<circle cx="781.367" cy="736.045" r="3.0" fill="red" stroke="black" stroke-width="1" />
 <line x1="781.367" y1="736.045" x2="790.932" y2="566.681" opacity="0.3" stroke="green" stroke-width="2" />
<circle cx="181.155" cy="316.255" r="3.0" fill="red" stroke="black" stroke-width="1" />
 <line x1="181.155" y1="316.255" x2="231.566" y2="339.299" opacity="0.3" stroke="green" stroke-width="2" />
<circle cx="195.442" cy="795.742" r="3.0" fill="red" stroke="black" stroke-width="1" />
 <line x1="195.442" y1="795.742" x2="160.642" y2="705.674" opacity="0.3" stroke="green" stroke-width="2" />
<circle cx="53.5194" cy="238.186" r="3.0" fill="red" stroke="black" stroke-width="1" />
 <line x1="53.5194" y1="238.186" x2="117.057" y2="212.147" opacity="0.3" stroke="green" stroke-width="2" />
<circle cx="684.771" cy="189.517" r="3.0" fill="red" stroke="black" stroke-width="1" />
 <line x1="684.771" y1="189.517" x2="656.925" y2="183.62" opacity="0.3" stroke="green" stroke-width="2" />
<circle cx="317.874" cy="388.094" r="3.0" fill="red" stroke="black" stroke-width="1" />
 <line x1="317.874" y1="388.094" x2="419.89" y2="356.298" opacity="0.3" stroke="green" stroke-width="2" />
<circle cx="549.543" cy="355.371" r="3.0" fill="red" stroke="black" stroke-width="1" />
 <line x1="549.543" y1="355.371" x2="419.89" y2="356.298" opacity="0.3" stroke="green" stroke-width="2" />
<circle cx="235.527" cy="41.786" r="3.0" fill="red" stroke="black" stroke-width="1" />
 <line x1="235.527" y1="41.786" x2="341.365" y2="14.0187" opacity="0.3" stroke="green" stroke-width="2" />
<circle cx="411.57" cy="421.884" r="3.0" fill="red" stroke="black" stroke-width="1" />
 <line x1="411.57" y1="421.884" x2="419.89" y2="356.298" opacity="0.3" stroke="green" stroke-width="2" />
<circle cx="475.009" cy="381.186" r="3.0" fill="red" stroke="black" stroke-width="1" />
 <line x1="475.009" y1="381.186" x2="214.906" y2="535.598" opacity="0.3" stroke="green" stroke-width="2" />
<circle cx="18.9938" cy="706.529" r="3.0" fill="red" stroke="black" stroke-width="1" />
 <line x1="18.9938" y1="706.529" x2="160.642" y2="705.674" opacity="0.3" stroke="green" stroke-width="2" />
<circle cx="185.126" cy="242.329" r="3.0" fill="red" stroke="black" stroke-width="1" />
 <line x1="185.126" y1="242.329" x2="231.566" y2="339.299" opacity="0.3" stroke="green" stroke-width="2" />
<circle cx="44.2217" cy="445.394" r="3.0" fill="red" stroke="black" stroke-width="1" />
 <line x1="44.2217" y1="445.394" x2="431.417" y2="176.634" opacity="0.3" stroke="green" stroke-width="2" />
<circle cx="341.038" cy="301.638" r="3.0" fill="red" stroke="black" stroke-width="1" />
 <line x1="341.038" y1="301.638" x2="231.566" y2="339.299" opacity="0.3" stroke="green" stroke-width="2" />
<circle cx="188.419" cy="499.575" r="3.0" fill="red" stroke="black" stroke-width="1" />
 <line x1="188.419" y1="499.575" x2="214.906" y2="535.598" opacity="0.3" stroke="green" stroke-width="2" />
<circle cx="579.581" cy="263.575" r="3.0" fill="red" stroke="black" stroke-width="1" />
 <line x1="579.581" y1="263.575" x2="520.642" y2="209.298" opacity="0.3" stroke="green" stroke-width="2" />
<circle cx="603.644" cy="723.883" r="3.0" fill="red" stroke="black" stroke-width="1" />
 <line x1="603.644" y1="723.883" x2="556.492" y2="794.77" opacity="0.3" stroke="green" stroke-width="2" />
<circle cx="799.637" cy="434.123" r="3.0" fill="red" stroke="black" stroke-width="1" />
 <line x1="799.637" y1="434.123" x2="656.925" y2="183.62" opacity="0.3" stroke="green" stroke-width="2" />
<circle cx="225.86" cy="318.128" r="3.0" fill="red" stroke="black" stroke-width="1" />
 <line x1="225.86" y1="318.128" x2="231.566" y2="339.299" opacity="0.3" stroke="green" stroke-width="2" />
<circle cx="260.701" cy="594.609" r="3.0" fill="red" stroke="black" stroke-width="1" />
 <line x1="260.701" y1="594.609" x2="431.417" y2="176.634" opacity="0.3" stroke="green" stroke-width="2" />
<circle cx="105.751" cy="654.61" r="3.0" fill="red" stroke="black" stroke-width="1" />
 <line x1="105.751" y1="654.61" x2="160.642" y2="705.674" opacity="0.3" stroke="green" stroke-width="2" />
<circle cx="337.971" cy="541.964" r="3.0" fill="red" stroke="black" stroke-width="1" />
 <line x1="337.971" y1="541.964" x2="214.906" y2="535.598" opacity="0.3" stroke="green" stroke-width="2" />
<circle cx="642.901" cy="716.753" r="3.0" fill="red" stroke="black" stroke-width="1" />
 <line x1="642.901" y1="716.753" x2="556.492" y2="794.77" opacity="0.3" stroke="green" stroke-width="2" />
<circle cx="438.33" cy="670.713" r="3.0" fill="red" stroke="black" stroke-width="1" />
 <line x1="438.33" y1="670.713" x2="465.81" y2="577.857" opacity="0.3" stroke="green" stroke-width="2" />
<circle cx="331.351" cy="435.579" r="3.0" fill="red" stroke="black" stroke-width="1" />
 <line x1="331.351" y1="435.579" x2="231.566" y2="339.299" opacity="0.3" stroke="green" stroke-width="2" />
<circle cx="523.282" cy="702.632" r="3.0" fill="red" stroke="black" stroke-width="1" />
 <line x1="523.282" y1="702.632" x2="465.81" y2="577.857" opacity="0.3" stroke="green" stroke-width="2" />
<circle cx="196.027" cy="531.29" r="3.0" fill="red" stroke="black" stroke-width="1" />
 <line x1="196.027" y1="531.29" x2="214.906" y2="535.598" opacity="0.3" stroke="green" stroke-width="2" />
<circle cx="63.2923" cy="725.128" r="3.0" fill="red" stroke="black" stroke-width="1" />
 <line x1="63.2923" y1="725.128" x2="160.642" y2="705.674" opacity="0.3" stroke="green" stroke-width="2" />
<circle cx="8.47392" cy="20.3339" r="3.0" fill="red" stroke="black" stroke-width="1" />
 <line x1="8.47392" y1="20.3339" x2="341.365" y2="14.0187" opacity="0.3" stroke="green" stroke-width="2" />
<circle cx="243.726" cy="409.094" r="3.0" fill="red" stroke="black" stroke-width="1" />
 <line x1="243.726" y1="409.094" x2="231.566" y2="339.299" opacity="0.3" stroke="green" stroke-width="2" />
<circle cx="611.961" cy="702.366" r="3.0" fill="red" stroke="black" stroke-width="1" />
 <line x1="611.961" y1="702.366" x2="556.492" y2="794.77" opacity="0.3" stroke="green" stroke-width="2" />
<circle cx="525.547" cy="167.686" r="3.0" fill="red" stroke="black" stroke-width="1" />
 <line x1="525.547" y1="167.686" x2="520.642" y2="209.298" opacity="0.3" stroke="green" stroke-width="2" />
<circle cx="258.786" cy="121.941" r="3.0" fill="red" stroke="black" stroke-width="1" />
 <line x1="258.786" y1="121.941" x2="341.365" y2="14.0187" opacity="0.3" stroke="green" stroke-width="2" />
<circle cx="456.566" cy="234.354" r="3.0" fill="red" stroke="black" stroke-width="1" />
 <line x1="456.566" y1="234.354" x2="520.642" y2="209.298" opacity="0.3" stroke="green" stroke-width="2" />
<circle cx="562.368" cy="621.072" r="3.0" fill="red" stroke="black" stroke-width="1" />
 <line x1="562.368" y1="621.072" x2="556.492" y2="794.77" opacity="0.3" stroke="green" stroke-width="2" />
<circle cx="150.596" cy="163.213" r="3.0" fill="red" stroke="black" stroke-width="1" />
 <line x1="150.596" y1="163.213" x2="117.057" y2="212.147" opacity="0.3" stroke="green" stroke-width="2" />
<circle cx="101.754" cy="568.592" r="3.0" fill="red" stroke="black" stroke-width="1" />
 <line x1="101.754" y1="568.592" x2="431.417" y2="176.634" opacity="0.3" stroke="green" stroke-width="2" />
<circle cx="127.897" cy="203.411" r="3.0" fill="red" stroke="black" stroke-width="1" />
 <line x1="127.897" y1="203.411" x2="117.057" y2="212.147" opacity="0.3" stroke="green" stroke-width="2" />
<circle cx="776.101" cy="446.274" r="3.0" fill="red" stroke="black" stroke-width="1" />
 <line x1="776.101" y1="446.274" x2="790.932" y2="566.681" opacity="0.3" stroke="green" stroke-width="2" />
<circle cx="388.595" cy="74.3946" r="3.0" fill="red" stroke="black" stroke-width="1" />
 <line x1="388.595" y1="74.3946" x2="341.365" y2="14.0187" opacity="0.3" stroke="green" stroke-width="2" />
</svg>
