<svg xmlns="http://www.w3.org/2000/svg" version="1.1" width="800" height="800">
"<rect x="0.0" y="0.0" width="800.0" height="800.0" fill ="white" /><circle cx="71.7382" cy="183.36" r="6.0" fill ="blue" stroke="black" stroke-width="1" />
<circle cx="284.507" cy="654.043" r="6.0" fill ="blue" stroke="black" stroke-width="1" />
<circle cx="637.881" cy="328.46" r="6.0" fill ="blue" stroke="black" stroke-width="1" />
<circle cx="665.142" cy="674.526" r="6.0" fill ="blue" stroke="black" stroke-width="1" />
<circle cx="231.072" cy="356.687" r="6.0" fill ="blue" stroke="black" stroke-width="1" />
<circle cx="329.299" cy="452.985" r="3.0" fill="red" stroke="black" stroke-width="1" />
 <line x1="329.299" y1="452.985" x2="231.072" y2="356.687" opacity="0.3" stroke="green" stroke-width="2" />
<circle cx="539.232" cy="110.766" r="3.0" fill="red" stroke="black" stroke-width="1" />
 <line x1="539.232" y1="110.766" x2="637.881" y2="328.46" opacity="0.3" stroke="green" stroke-width="2" />
<circle cx="252.29" cy="687.409" r="3.0" fill="red" stroke="black" stroke-width="1" />
 <line x1="252.29" y1="687.409" x2="284.507" y2="654.043" opacity="0.3" stroke="green" stroke-width="2" />
<circle cx="258.79" cy="512.333" r="3.0" fill="red" stroke="black" stroke-width="1" />
 <line x1="258.79" y1="512.333" x2="231.072" y2="356.687" opacity="0.3" stroke="green" stroke-width="2" />
<circle cx="265.611" cy="138.576" r="3.0" fill="red" stroke="black" stroke-width="1" />
 <line x1="265.611" y1="138.576" x2="71.7382" y2="183.36" opacity="0.3" stroke="green" stroke-width="2" />
<circle cx="120.822" cy="627.646" r="3.0" fill="red" stroke="black" stroke-width="1" />
 <line x1="120.822" y1="627.646" x2="284.507" y2="654.043" opacity="0.3" stroke="green" stroke-width="2" />
<circle cx="675.79" cy="320.654" r="3.0" fill="red" stroke="black" stroke-width="1" />
 <line x1="675.79" y1="320.654" x2="665.142" y2="674.526" opacity="0.3" stroke="green" stroke-width="2" />
<circle cx="328.774" cy="643.317" r="3.0" fill="red" stroke="black" stroke-width="1" />
 <line x1="328.774" y1="643.317" x2="665.142" y2="674.526" opacity="0.3" stroke="green" stroke-width="2" />
<circle cx="71.2104" cy="335.554" r="3.0" fill="red" stroke="black" stroke-width="1" />
 <line x1="71.2104" y1="335.554" x2="231.072" y2="356.687" opacity="0.3" stroke="green" stroke-width="2" />
<circle cx="182.79" cy="407.379" r="3.0" fill="red" stroke="black" stroke-width="1" />
 <line x1="182.79" y1="407.379" x2="71.7382" y2="183.36" opacity="0.3" stroke="green" stroke-width="2" />
<circle cx="683.975" cy="131.902" r="3.0" fill="red" stroke="black" stroke-width="1" />
 <line x1="683.975" y1="131.902" x2="637.881" y2="328.46" opacity="0.3" stroke="green" stroke-width="2" />
<circle cx="141.03" cy="212.915" r="3.0" fill="red" stroke="black" stroke-width="1" />
 <line x1="141.03" y1="212.915" x2="71.7382" y2="183.36" opacity="0.3" stroke="green" stroke-width="2" />
<circle cx="227.849" cy="668.868" r="3.0" fill="red" stroke="black" stroke-width="1" />
 <line x1="227.849" y1="668.868" x2="284.507" y2="654.043" opacity="0.3" stroke="green" stroke-width="2" />
<circle cx="33.7358" cy="211.766" r="3.0" fill="red" stroke="black" stroke-width="1" />
 <line x1="33.7358" y1="211.766" x2="71.7382" y2="183.36" opacity="0.3" stroke="green" stroke-width="2" />
<circle cx="125.76" cy="590.85" r="3.0" fill="red" stroke="black" stroke-width="1" />
 <line x1="125.76" y1="590.85" x2="284.507" y2="654.043" opacity="0.3" stroke="green" stroke-width="2" />
<circle cx="87.34" cy="94.0016" r="3.0" fill="red" stroke="black" stroke-width="1" />
 <line x1="87.34" y1="94.0016" x2="71.7382" y2="183.36" opacity="0.3" stroke="green" stroke-width="2" />
<circle cx="331.68" cy="656.9" r="3.0" fill="red" stroke="black" stroke-width="1" />
 <line x1="331.68" y1="656.9" x2="284.507" y2="654.043" opacity="0.3" stroke="green" stroke-width="2" />
<circle cx="790.962" cy="250.895" r="3.0" fill="red" stroke="black" stroke-width="1" />
 <line x1="790.962" y1="250.895" x2="637.881" y2="328.46" opacity="0.3" stroke="green" stroke-width="2" />
<circle cx="740.438" cy="235.537" r="3.0" fill="red" stroke="black" stroke-width="1" />
 <line x1="740.438" y1="235.537" x2="665.142" y2="674.526" opacity="0.3" stroke="green" stroke-width="2" />
<circle cx="705.122" cy="461" r="3.0" fill="red" stroke="black" stroke-width="1" />
 <line x1="705.122" y1="461" x2="637.881" y2="328.46" opacity="0.3" stroke="green" stroke-width="2" />
<circle cx="444.644" cy="558.29" r="3.0" fill="red" stroke="black" stroke-width="1" />
 <line x1="444.644" y1="558.29" x2="284.507" y2="654.043" opacity="0.3" stroke="green" stroke-width="2" />
<circle cx="163.728" cy="735.835" r="3.0" fill="red" stroke="black" stroke-width="1" />
 <line x1="163.728" y1="735.835" x2="665.142" y2="674.526" opacity="0.3" stroke="green" stroke-width="2" />
<circle cx="607.084" cy="741.249" r="3.0" fill="red" stroke="black" stroke-width="1" />
 <line x1="607.084" y1="741.249" x2="665.142" y2="674.526" opacity="0.3" stroke="green" stroke-width="2" />
<circle cx="288.986" cy="686.238" r="3.0" fill="red" stroke="black" stroke-width="1" />
 <line x1="288.986" y1="686.238" x2="231.072" y2="356.687" opacity="0.3" stroke="green" stroke-width="2" />
<circle cx="575.634" cy="277.561" r="3.0" fill="red" stroke="black" stroke-width="1" />
 <line x1="575.634" y1="277.561" x2="637.881" y2="328.46" opacity="0.3" stroke="green" stroke-width="2" />
<circle cx="352.904" cy="275.749" r="3.0" fill="red" stroke="black" stroke-width="1" />
 <line x1="352.904" y1="275.749" x2="231.072" y2="356.687" opacity="0.3" stroke="green" stroke-width="2" />
<circle cx="344.427" cy="70.4312" r="3.0" fill="red" stroke="black" stroke-width="1" />
 <line x1="344.427" y1="70.4312" x2="71.7382" y2="183.36" opacity="0.3" stroke="green" stroke-width="2" />
<circle cx="411.06" cy="755.84" r="3.0" fill="red" stroke="black" stroke-width="1" />
 <line x1="411.06" y1="755.84" x2="665.142" y2="674.526" opacity="0.3" stroke="green" stroke-width="2" />
<circle cx="246.305" cy="588.163" r="3.0" fill="red" stroke="black" stroke-width="1" />
 <line x1="246.305" y1="588.163" x2="231.072" y2="356.687" opacity="0.3" stroke="green" stroke-width="2" />
<circle cx="245.049" cy="663.28" r="3.0" fill="red" stroke="black" stroke-width="1" />
 <line x1="245.049" y1="663.28" x2="284.507" y2="654.043" opacity="0.3" stroke="green" stroke-width="2" />
</svg>
