<svg xmlns="http://www.w3.org/2000/svg" version="1.1" width="800" height="800">
"<rect x="0.0" y="0.0" width="800.0" height="800.0" fill ="white" /><circle cx="642.021" cy="684.835" r="6.0" fill ="blue" stroke="black" stroke-width="1" />
<circle cx="614.574" cy="390.08" r="6.0" fill ="blue" stroke="black" stroke-width="1" />
<circle cx="529.984" cy="584.359" r="6.0" fill ="blue" stroke="black" stroke-width="1" />
<circle cx="216.732" cy="473.621" r="6.0" fill ="blue" stroke="black" stroke-width="1" />
<circle cx="374.308" cy="29.7369" r="6.0" fill ="blue" stroke="black" stroke-width="1" />
<circle cx="333.474" cy="328.025" r="6.0" fill ="blue" stroke="black" stroke-width="1" />
<circle cx="782.014" cy="793.826" r="6.0" fill ="blue" stroke="black" stroke-width="1" />
<circle cx="688.615" cy="427.63" r="6.0" fill ="blue" stroke="black" stroke-width="1" />
<circle cx="389.576" cy="400.524" r="6.0" fill ="blue" stroke="black" stroke-width="1" />
<circle cx="198.818" cy="222.48" r="6.0" fill ="blue" stroke="black" stroke-width="1" />
<circle cx="17.7574" cy="711.785" r="6.0" fill ="blue" stroke="black" stroke-width="1" />
<circle cx="135.918" cy="89.224" r="6.0" fill ="blue" stroke="black" stroke-width="1" />
<circle cx="515.739" cy="76.6152" r="6.0" fill ="blue" stroke="black" stroke-width="1" />
<circle cx="195.303" cy="425.084" r="6.0" fill ="blue" stroke="black" stroke-width="1" />
<circle cx="432.749" cy="511.095" r="6.0" fill ="blue" stroke="black" stroke-width="1" />
<circle cx="109.606" cy="91.2808" r="6.0" fill ="blue" stroke="black" stroke-width="1" />
<circle cx="449.561" cy="123.984" r="6.0" fill ="blue" stroke="black" stroke-width="1" />
<circle cx="65.2505" cy="227.81" r="6.0" fill ="blue" stroke="black" stroke-width="1" />
<circle cx="91.0712" cy="108.054" r="6.0" fill ="blue" stroke="black" stroke-width="1" />
<circle cx="319.473" cy="655.952" r="6.0" fill ="blue" stroke="black" stroke-width="1" />
<circle cx="759.933" cy="61.1722" r="6.0" fill ="blue" stroke="black" stroke-width="1" />
<circle cx="139.957" cy="494.626" r="6.0" fill ="blue" stroke="black" stroke-width="1" />
<circle cx="312.372" cy="609.926" r="6.0" fill ="blue" stroke="black" stroke-width="1" />
<circle cx="548.989" cy="705.4" r="6.0" fill ="blue" stroke="black" stroke-width="1" />
<circle cx="217.456" cy="306.685" r="3.0" fill="red" stroke="black" stroke-width="1" />
 <line x1="217.456" y1="306.685" x2="198.818" y2="222.48" opacity="0.3" stroke="green" stroke-width="2" />
<circle cx="107.714" cy="683.147" r="3.0" fill="red" stroke="black" stroke-width="1" />
 <line x1="107.714" y1="683.147" x2="17.7574" y2="711.785" opacity="0.3" stroke="green" stroke-width="2" />
<circle cx="65.3317" cy="265.31" r="3.0" fill="red" stroke="black" stroke-width="1" />
 <line x1="65.3317" y1="265.31" x2="65.2505" y2="227.81" opacity="0.3" stroke="green" stroke-width="2" />
<circle cx="631.046" cy="133.647" r="3.0" fill="red" stroke="black" stroke-width="1" />
 <line x1="631.046" y1="133.647" x2="515.739" y2="76.6152" opacity="0.3" stroke="green" stroke-width="2" />
<circle cx="479.874" cy="94.68" r="3.0" fill="red" stroke="black" stroke-width="1" />
 <line x1="479.874" y1="94.68" x2="515.739" y2="76.6152" opacity="0.3" stroke="green" stroke-width="2" />
<circle cx="185.328" cy="402.63" r="3.0" fill="red" stroke="black" stroke-width="1" />
 <line x1="185.328" y1="402.63" x2="195.303" y2="425.084" opacity="0.3" stroke="green" stroke-width="2" />
<circle cx="275.451" cy="256.124" r="3.0" fill="red" stroke="black" stroke-width="1" />
 <line x1="275.451" y1="256.124" x2="198.818" y2="222.48" opacity="0.3" stroke="green" stroke-width="2" />
<circle cx="65.7407" cy="95.5368" r="3.0" fill="red" stroke="black" stroke-width="1" />
 <line x1="65.7407" y1="95.5368" x2="91.0712" y2="108.054" opacity="0.3" stroke="green" stroke-width="2" />
<circle cx="403.582" cy="698.404" r="3.0" fill="red" stroke="black" stroke-width="1" />
 <line x1="403.582" y1="698.404" x2="319.473" y2="655.952" opacity="0.3" stroke="green" stroke-width="2" />
<circle cx="18.858" cy="127.306" r="3.0" fill="red" stroke="black" stroke-width="1" />
 <line x1="18.858" y1="127.306" x2="91.0712" y2="108.054" opacity="0.3" stroke="green" stroke-width="2" />
<circle cx="541.194" cy="185.341" r="3.0" fill="red" stroke="black" stroke-width="1" />
 <line x1="541.194" y1="185.341" x2="515.739" y2="76.6152" opacity="0.3" stroke="green" stroke-width="2" />
<circle cx="17.1777" cy="413.241" r="3.0" fill="red" stroke="black" stroke-width="1" />
 <line x1="17.1777" y1="413.241" x2="139.957" y2="494.626" opacity="0.3" stroke="green" stroke-width="2" />
<circle cx="665.745" cy="299.039" r="3.0" fill="red" stroke="black" stroke-width="1" />
 <line x1="665.745" y1="299.039" x2="759.933" y2="61.1722" opacity="0.3" stroke="green" stroke-width="2" />
<circle cx="98.492" cy="305.034" r="3.0" fill="red" stroke="black" stroke-width="1" />
 <line x1="98.492" y1="305.034" x2="65.2505" y2="227.81" opacity="0.3" stroke="green" stroke-width="2" />
<circle cx="175.729" cy="451.732" r="3.0" fill="red" stroke="black" stroke-width="1" />
 <line x1="175.729" y1="451.732" x2="139.957" y2="494.626" opacity="0.3" stroke="green" stroke-width="2" />
<circle cx="390.037" cy="622.957" r="3.0" fill="red" stroke="black" stroke-width="1" />
 <line x1="390.037" y1="622.957" x2="312.372" y2="609.926" opacity="0.3" stroke="green" stroke-width="2" />
<circle cx="215.349" cy="585.365" r="3.0" fill="red" stroke="black" stroke-width="1" />
 <line x1="215.349" y1="585.365" x2="312.372" y2="609.926" opacity="0.3" stroke="green" stroke-width="2" />
<circle cx="463.47" cy="549.312" r="3.0" fill="red" stroke="black" stroke-width="1" />
 <line x1="463.47" y1="549.312" x2="432.749" y2="511.095" opacity="0.3" stroke="green" stroke-width="2" />
<circle cx="710.616" cy="105.262" r="3.0" fill="red" stroke="black" stroke-width="1" />
 <line x1="710.616" y1="105.262" x2="759.933" y2="61.1722" opacity="0.3" stroke="green" stroke-width="2" />
<circle cx="51.0542" cy="255.082" r="3.0" fill="red" stroke="black" stroke-width="1" />
 <line x1="51.0542" y1="255.082" x2="65.2505" y2="227.81" opacity="0.3" stroke="green" stroke-width="2" />
<circle cx="525.893" cy="704.128" r="3.0" fill="red" stroke="black" stroke-width="1" />
 <line x1="525.893" y1="704.128" x2="548.989" y2="705.4" opacity="0.3" stroke="green" stroke-width="2" />
<circle cx="106.054" cy="606.781" r="3.0" fill="red" stroke="black" stroke-width="1" />
 <line x1="106.054" y1="606.781" x2="139.957" y2="494.626" opacity="0.3" stroke="green" stroke-width="2" />
<circle cx="534.938" cy="267.171" r="3.0" fill="red" stroke="black" stroke-width="1" />
 <line x1="534.938" y1="267.171" x2="515.739" y2="76.6152" opacity="0.3" stroke="green" stroke-width="2" />
<circle cx="258.784" cy="164.946" r="3.0" fill="red" stroke="black" stroke-width="1" />
 <line x1="258.784" y1="164.946" x2="198.818" y2="222.48" opacity="0.3" stroke="green" stroke-width="2" />
<circle cx="112.646" cy="104.967" r="3.0" fill="red" stroke="black" stroke-width="1" />
 <line x1="112.646" y1="104.967" x2="109.606" y2="91.2808" opacity="0.3" stroke="green" stroke-width="2" />
<circle cx="65.8573" cy="170.834" r="3.0" fill="red" stroke="black" stroke-width="1" />
 <line x1="65.8573" y1="170.834" x2="65.2505" y2="227.81" opacity="0.3" stroke="green" stroke-width="2" />
<circle cx="154.709" cy="784.63" r="3.0" fill="red" stroke="black" stroke-width="1" />
 <line x1="154.709" y1="784.63" x2="17.7574" y2="711.785" opacity="0.3" stroke="green" stroke-width="2" />
<circle cx="333.392" cy="472.348" r="3.0" fill="red" stroke="black" stroke-width="1" />
 <line x1="333.392" y1="472.348" x2="195.303" y2="425.084" opacity="0.3" stroke="green" stroke-width="2" />
<circle cx="177.782" cy="47.7119" r="3.0" fill="red" stroke="black" stroke-width="1" />
 <line x1="177.782" y1="47.7119" x2="135.918" y2="89.224" opacity="0.3" stroke="green" stroke-width="2" />
<circle cx="733.901" cy="322.458" r="3.0" fill="red" stroke="black" stroke-width="1" />
 <line x1="733.901" y1="322.458" x2="688.615" y2="427.63" opacity="0.3" stroke="green" stroke-width="2" />
<circle cx="753.888" cy="306.739" r="3.0" fill="red" stroke="black" stroke-width="1" />
 <line x1="753.888" y1="306.739" x2="759.933" y2="61.1722" opacity="0.3" stroke="green" stroke-width="2" />
<circle cx="784.386" cy="793.74" r="3.0" fill="red" stroke="black" stroke-width="1" />
 <line x1="784.386" y1="793.74" x2="782.014" y2="793.826" opacity="0.3" stroke="green" stroke-width="2" />
<circle cx="362.389" cy="404.77" r="3.0" fill="red" stroke="black" stroke-width="1" />
 <line x1="362.389" y1="404.77" x2="389.576" y2="400.524" opacity="0.3" stroke="green" stroke-width="2" />
<circle cx="247.123" cy="567.642" r="3.0" fill="red" stroke="black" stroke-width="1" />
 <line x1="247.123" y1="567.642" x2="312.372" y2="609.926" opacity="0.3" stroke="green" stroke-width="2" />
<circle cx="70.3518" cy="302.51" r="3.0" fill="red" stroke="black" stroke-width="1" />
 <line x1="70.3518" y1="302.51" x2="65.2505" y2="227.81" opacity="0.3" stroke="green" stroke-width="2" />
<circle cx="724.994" cy="292.265" r="3.0" fill="red" stroke="black" stroke-width="1" />
 <line x1="724.994" y1="292.265" x2="333.474" y2="328.025" opacity="0.3" stroke="green" stroke-width="2" />
<circle cx="420.995" cy="580.875" r="3.0" fill="red" stroke="black" stroke-width="1" />
 <line x1="420.995" y1="580.875" x2="333.474" y2="328.025" opacity="0.3" stroke="green" stroke-width="2" />
<circle cx="791.046" cy="453.164" r="3.0" fill="red" stroke="black" stroke-width="1" />
 <line x1="791.046" y1="453.164" x2="688.615" y2="427.63" opacity="0.3" stroke="green" stroke-width="2" />
<circle cx="28.4458" cy="232.211" r="3.0" fill="red" stroke="black" stroke-width="1" />
 <line x1="28.4458" y1="232.211" x2="65.2505" y2="227.81" opacity="0.3" stroke="green" stroke-width="2" />
<circle cx="64.1108" cy="625.038" r="3.0" fill="red" stroke="black" stroke-width="1" />
 <line x1="64.1108" y1="625.038" x2="17.7574" y2="711.785" opacity="0.3" stroke="green" stroke-width="2" />
<circle cx="508.662" cy="708.071" r="3.0" fill="red" stroke="black" stroke-width="1" />
 <line x1="508.662" y1="708.071" x2="548.989" y2="705.4" opacity="0.3" stroke="green" stroke-width="2" />
<circle cx="412.651" cy="589.913" r="3.0" fill="red" stroke="black" stroke-width="1" />
 <line x1="412.651" y1="589.913" x2="432.749" y2="511.095" opacity="0.3" stroke="green" stroke-width="2" />
<circle cx="230.718" cy="178.45" r="3.0" fill="red" stroke="black" stroke-width="1" />
 <line x1="230.718" y1="178.45" x2="198.818" y2="222.48" opacity="0.3" stroke="green" stroke-width="2" />
<circle cx="365.946" cy="151.097" r="3.0" fill="red" stroke="black" stroke-width="1" />
 <line x1="365.946" y1="151.097" x2="374.308" y2="29.7369" opacity="0.3" stroke="green" stroke-width="2" />
<circle cx="95.6176" cy="158.975" r="3.0" fill="red" stroke="black" stroke-width="1" />
 <line x1="95.6176" y1="158.975" x2="91.0712" y2="108.054" opacity="0.3" stroke="green" stroke-width="2" />
<circle cx="475.21" cy="571.624" r="3.0" fill="red" stroke="black" stroke-width="1" />
 <line x1="475.21" y1="571.624" x2="432.749" y2="511.095" opacity="0.3" stroke="green" stroke-width="2" />
<circle cx="141.446" cy="534.285" r="3.0" fill="red" stroke="black" stroke-width="1" />
 <line x1="141.446" y1="534.285" x2="139.957" y2="494.626" opacity="0.3" stroke="green" stroke-width="2" />
<circle cx="707.277" cy="725.898" r="3.0" fill="red" stroke="black" stroke-width="1" />
 <line x1="707.277" y1="725.898" x2="782.014" y2="793.826" opacity="0.3" stroke="green" stroke-width="2" />
<circle cx="569.701" cy="696.13" r="3.0" fill="red" stroke="black" stroke-width="1" />
 <line x1="569.701" y1="696.13" x2="548.989" y2="705.4" opacity="0.3" stroke="green" stroke-width="2" />
<circle cx="179.87" cy="112.56" r="3.0" fill="red" stroke="black" stroke-width="1" />
 <line x1="179.87" y1="112.56" x2="135.918" y2="89.224" opacity="0.3" stroke="green" stroke-width="2" />
<circle cx="142.662" cy="253.934" r="3.0" fill="red" stroke="black" stroke-width="1" />
 <line x1="142.662" y1="253.934" x2="198.818" y2="222.48" opacity="0.3" stroke="green" stroke-width="2" />
<circle cx="370.818" cy="561.278" r="3.0" fill="red" stroke="black" stroke-width="1" />
 <line x1="370.818" y1="561.278" x2="432.749" y2="511.095" opacity="0.3" stroke="green" stroke-width="2" />
<circle cx="484.089" cy="569.741" r="3.0" fill="red" stroke="black" stroke-width="1" />
 <line x1="484.089" y1="569.741" x2="529.984" y2="584.359" opacity="0.3" stroke="green" stroke-width="2" />
<circle cx="155.635" cy="255.486" r="3.0" fill="red" stroke="black" stroke-width="1" />
 <line x1="155.635" y1="255.486" x2="198.818" y2="222.48" opacity="0.3" stroke="green" stroke-width="2" />
<circle cx="397.246" cy="36.8256" r="3.0" fill="red" stroke="black" stroke-width="1" />
 <line x1="397.246" y1="36.8256" x2="374.308" y2="29.7369" opacity="0.3" stroke="green" stroke-width="2" />
<circle cx="77.9074" cy="354.576" r="3.0" fill="red" stroke="black" stroke-width="1" />
 <line x1="77.9074" y1="354.576" x2="195.303" y2="425.084" opacity="0.3" stroke="green" stroke-width="2" />
<circle cx="304.378" cy="430.355" r="3.0" fill="red" stroke="black" stroke-width="1" />
 <line x1="304.378" y1="430.355" x2="389.576" y2="400.524" opacity="0.3" stroke="green" stroke-width="2" />
<circle cx="12.9016" cy="294.018" r="3.0" fill="red" stroke="black" stroke-width="1" />
 <line x1="12.9016" y1="294.018" x2="65.2505" y2="227.81" opacity="0.3" stroke="green" stroke-width="2" />
<circle cx="666.288" cy="403.027" r="3.0" fill="red" stroke="black" stroke-width="1" />
 <line x1="666.288" y1="403.027" x2="688.615" y2="427.63" opacity="0.3" stroke="green" stroke-width="2" />
<circle cx="669.846" cy="489.747" r="3.0" fill="red" stroke="black" stroke-width="1" />
 <line x1="669.846" y1="489.747" x2="614.574" y2="390.08" opacity="0.3" stroke="green" stroke-width="2" />
<circle cx="216.653" cy="130.258" r="3.0" fill="red" stroke="black" stroke-width="1" />
 <line x1="216.653" y1="130.258" x2="91.0712" y2="108.054" opacity="0.3" stroke="green" stroke-width="2" />
<circle cx="391.838" cy="696.432" r="3.0" fill="red" stroke="black" stroke-width="1" />
 <line x1="391.838" y1="696.432" x2="319.473" y2="655.952" opacity="0.3" stroke="green" stroke-width="2" />
<circle cx="92.8904" cy="177.806" r="3.0" fill="red" stroke="black" stroke-width="1" />
 <line x1="92.8904" y1="177.806" x2="65.2505" y2="227.81" opacity="0.3" stroke="green" stroke-width="2" />
<circle cx="200.078" cy="31.4712" r="3.0" fill="red" stroke="black" stroke-width="1" />
 <line x1="200.078" y1="31.4712" x2="135.918" y2="89.224" opacity="0.3" stroke="green" stroke-width="2" />
<circle cx="643.102" cy="377.889" r="3.0" fill="red" stroke="black" stroke-width="1" />
 <line x1="643.102" y1="377.889" x2="614.574" y2="390.08" opacity="0.3" stroke="green" stroke-width="2" />
<circle cx="5.21729" cy="477.886" r="3.0" fill="red" stroke="black" stroke-width="1" />
 <line x1="5.21729" y1="477.886" x2="139.957" y2="494.626" opacity="0.3" stroke="green" stroke-width="2" />
<circle cx="434.462" cy="308.225" r="3.0" fill="red" stroke="black" stroke-width="1" />
 <line x1="434.462" y1="308.225" x2="389.576" y2="400.524" opacity="0.3" stroke="green" stroke-width="2" />
<circle cx="146.695" cy="53.1796" r="3.0" fill="red" stroke="black" stroke-width="1" />
 <line x1="146.695" y1="53.1796" x2="109.606" y2="91.2808" opacity="0.3" stroke="green" stroke-width="2" />
<circle cx="666.179" cy="658.73" r="3.0" fill="red" stroke="black" stroke-width="1" />
 <line x1="666.179" y1="658.73" x2="642.021" y2="684.835" opacity="0.3" stroke="green" stroke-width="2" />
<circle cx="252.14" cy="633.903" r="3.0" fill="red" stroke="black" stroke-width="1" />
 <line x1="252.14" y1="633.903" x2="319.473" y2="655.952" opacity="0.3" stroke="green" stroke-width="2" />
<circle cx="210.332" cy="441.95" r="3.0" fill="red" stroke="black" stroke-width="1" />
 <line x1="210.332" y1="441.95" x2="216.732" y2="473.621" opacity="0.3" stroke="green" stroke-width="2" />
<circle cx="753.524" cy="88.3728" r="3.0" fill="red" stroke="black" stroke-width="1" />
 <line x1="753.524" y1="88.3728" x2="759.933" y2="61.1722" opacity="0.3" stroke="green" stroke-width="2" />
<circle cx="551.213" cy="746.265" r="3.0" fill="red" stroke="black" stroke-width="1" />
 <line x1="551.213" y1="746.265" x2="642.021" y2="684.835" opacity="0.3" stroke="green" stroke-width="2" />
<circle cx="249.706" cy="159.958" r="3.0" fill="red" stroke="black" stroke-width="1" />
 <line x1="249.706" y1="159.958" x2="198.818" y2="222.48" opacity="0.3" stroke="green" stroke-width="2" />
<circle cx="434.818" cy="775.558" r="3.0" fill="red" stroke="black" stroke-width="1" />
 <line x1="434.818" y1="775.558" x2="548.989" y2="705.4" opacity="0.3" stroke="green" stroke-width="2" />
<circle cx="288.864" cy="397.898" r="3.0" fill="red" stroke="black" stroke-width="1" />
 <line x1="288.864" y1="397.898" x2="389.576" y2="400.524" opacity="0.3" stroke="green" stroke-width="2" />
<circle cx="485.314" cy="361.462" r="3.0" fill="red" stroke="black" stroke-width="1" />
 <line x1="485.314" y1="361.462" x2="389.576" y2="400.524" opacity="0.3" stroke="green" stroke-width="2" />
<circle cx="655.024" cy="461.03" r="3.0" fill="red" stroke="black" stroke-width="1" />
 <line x1="655.024" y1="461.03" x2="688.615" y2="427.63" opacity="0.3" stroke="green" stroke-width="2" />
<circle cx="156.645" cy="63.8096" r="3.0" fill="red" stroke="black" stroke-width="1" />
 <line x1="156.645" y1="63.8096" x2="135.918" y2="89.224" opacity="0.3" stroke="green" stroke-width="2" />
<circle cx="660.663" cy="310.589" r="3.0" fill="red" stroke="black" stroke-width="1" />
 <line x1="660.663" y1="310.589" x2="614.574" y2="390.08" opacity="0.3" stroke="green" stroke-width="2" />
<circle cx="483.094" cy="173.058" r="3.0" fill="red" stroke="black" stroke-width="1" />
 <line x1="483.094" y1="173.058" x2="333.474" y2="328.025" opacity="0.3" stroke="green" stroke-width="2" />
<circle cx="342.443" cy="793.745" r="3.0" fill="red" stroke="black" stroke-width="1" />
 <line x1="342.443" y1="793.745" x2="319.473" y2="655.952" opacity="0.3" stroke="green" stroke-width="2" />
<circle cx="195.029" cy="252.362" r="3.0" fill="red" stroke="black" stroke-width="1" />
 <line x1="195.029" y1="252.362" x2="198.818" y2="222.48" opacity="0.3" stroke="green" stroke-width="2" />
<circle cx="142.605" cy="797.962" r="3.0" fill="red" stroke="black" stroke-width="1" />
 <line x1="142.605" y1="797.962" x2="17.7574" y2="711.785" opacity="0.3" stroke="green" stroke-width="2" />
<circle cx="602.892" cy="723.56" r="3.0" fill="red" stroke="black" stroke-width="1" />
 <line x1="602.892" y1="723.56" x2="642.021" y2="684.835" opacity="0.3" stroke="green" stroke-width="2" />
<circle cx="385.305" cy="610.066" r="3.0" fill="red" stroke="black" stroke-width="1" />
 <line x1="385.305" y1="610.066" x2="319.473" y2="655.952" opacity="0.3" stroke="green" stroke-width="2" />
<circle cx="724.838" cy="412.866" r="3.0" fill="red" stroke="black" stroke-width="1" />
 <line x1="724.838" y1="412.866" x2="688.615" y2="427.63" opacity="0.3" stroke="green" stroke-width="2" />
<circle cx="519.268" cy="560.121" r="3.0" fill="red" stroke="black" stroke-width="1" />
 <line x1="519.268" y1="560.121" x2="529.984" y2="584.359" opacity="0.3" stroke="green" stroke-width="2" />
<circle cx="755.911" cy="88.1808" r="3.0" fill="red" stroke="black" stroke-width="1" />
 <line x1="755.911" y1="88.1808" x2="759.933" y2="61.1722" opacity="0.3" stroke="green" stroke-width="2" />
<circle cx="459.183" cy="132.494" r="3.0" fill="red" stroke="black" stroke-width="1" />
 <line x1="459.183" y1="132.494" x2="449.561" y2="123.984" opacity="0.3" stroke="green" stroke-width="2" />
<circle cx="339.163" cy="601.674" r="3.0" fill="red" stroke="black" stroke-width="1" />
 <line x1="339.163" y1="601.674" x2="312.372" y2="609.926" opacity="0.3" stroke="green" stroke-width="2" />
<circle cx="170.838" cy="141.089" r="3.0" fill="red" stroke="black" stroke-width="1" />
 <line x1="170.838" y1="141.089" x2="91.0712" y2="108.054" opacity="0.3" stroke="green" stroke-width="2" />
<circle cx="519.787" cy="117.159" r="3.0" fill="red" stroke="black" stroke-width="1" />
 <line x1="519.787" y1="117.159" x2="759.933" y2="61.1722" opacity="0.3" stroke="green" stroke-width="2" />
<circle cx="450.259" cy="631.149" r="3.0" fill="red" stroke="black" stroke-width="1" />
 <line x1="450.259" y1="631.149" x2="529.984" y2="584.359" opacity="0.3" stroke="green" stroke-width="2" />
<circle cx="636.952" cy="74.5513" r="3.0" fill="red" stroke="black" stroke-width="1" />
 <line x1="636.952" y1="74.5513" x2="759.933" y2="61.1722" opacity="0.3" stroke="green" stroke-width="2" />
<circle cx="534.93" cy="554.874" r="3.0" fill="red" stroke="black" stroke-width="1" />
 <line x1="534.93" y1="554.874" x2="529.984" y2="584.359" opacity="0.3" stroke="green" stroke-width="2" />
<circle cx="617.582" cy="703.335" r="3.0" fill="red" stroke="black" stroke-width="1" />
 <line x1="617.582" y1="703.335" x2="642.021" y2="684.835" opacity="0.3" stroke="green" stroke-width="2" />
<circle cx="374.51" cy="169.534" r="3.0" fill="red" stroke="black" stroke-width="1" />
 <line x1="374.51" y1="169.534" x2="449.561" y2="123.984" opacity="0.3" stroke="green" stroke-width="2" />
<circle cx="82.092" cy="217.057" r="3.0" fill="red" stroke="black" stroke-width="1" />
 <line x1="82.092" y1="217.057" x2="65.2505" y2="227.81" opacity="0.3" stroke="green" stroke-width="2" />
<circle cx="47.1218" cy="487.882" r="3.0" fill="red" stroke="black" stroke-width="1" />
 <line x1="47.1218" y1="487.882" x2="216.732" y2="473.621" opacity="0.3" stroke="green" stroke-width="2" />
<circle cx="16.0498" cy="730.059" r="3.0" fill="red" stroke="black" stroke-width="1" />
 <line x1="16.0498" y1="730.059" x2="17.7574" y2="711.785" opacity="0.3" stroke="green" stroke-width="2" />
<circle cx="458.605" cy="196.585" r="3.0" fill="red" stroke="black" stroke-width="1" />
 <line x1="458.605" y1="196.585" x2="449.561" y2="123.984" opacity="0.3" stroke="green" stroke-width="2" />
<circle cx="64.3728" cy="176.256" r="3.0" fill="red" stroke="black" stroke-width="1" />
 <line x1="64.3728" y1="176.256" x2="333.474" y2="328.025" opacity="0.3" stroke="green" stroke-width="2" />
<circle cx="86.6024" cy="189.689" r="3.0" fill="red" stroke="black" stroke-width="1" />
 <line x1="86.6024" y1="189.689" x2="374.308" y2="29.7369" opacity="0.3" stroke="green" stroke-width="2" />
<circle cx="765.097" cy="637.692" r="3.0" fill="red" stroke="black" stroke-width="1" />
 <line x1="765.097" y1="637.692" x2="642.021" y2="684.835" opacity="0.3" stroke="green" stroke-width="2" />
<circle cx="567.153" cy="386.299" r="3.0" fill="red" stroke="black" stroke-width="1" />
 <line x1="567.153" y1="386.299" x2="614.574" y2="390.08" opacity="0.3" stroke="green" stroke-width="2" />
<circle cx="794.817" cy="618.69" r="3.0" fill="red" stroke="black" stroke-width="1" />
 <line x1="794.817" y1="618.69" x2="782.014" y2="793.826" opacity="0.3" stroke="green" stroke-width="2" />
<circle cx="607.465" cy="636.845" r="3.0" fill="red" stroke="black" stroke-width="1" />
 <line x1="607.465" y1="636.845" x2="548.989" y2="705.4" opacity="0.3" stroke="green" stroke-width="2" />
<circle cx="229.834" cy="498.642" r="3.0" fill="red" stroke="black" stroke-width="1" />
 <line x1="229.834" y1="498.642" x2="216.732" y2="473.621" opacity="0.3" stroke="green" stroke-width="2" />
<circle cx="563.373" cy="424.434" r="3.0" fill="red" stroke="black" stroke-width="1" />
 <line x1="563.373" y1="424.434" x2="614.574" y2="390.08" opacity="0.3" stroke="green" stroke-width="2" />
<circle cx="35.3764" cy="446.958" r="3.0" fill="red" stroke="black" stroke-width="1" />
 <line x1="35.3764" y1="446.958" x2="216.732" y2="473.621" opacity="0.3" stroke="green" stroke-width="2" />
<circle cx="398.88" cy="346.478" r="3.0" fill="red" stroke="black" stroke-width="1" />
 <line x1="398.88" y1="346.478" x2="389.576" y2="400.524" opacity="0.3" stroke="green" stroke-width="2" />
<circle cx="4.62466" cy="101.966" r="3.0" fill="red" stroke="black" stroke-width="1" />
 <line x1="4.62466" y1="101.966" x2="109.606" y2="91.2808" opacity="0.3" stroke="green" stroke-width="2" />
<circle cx="254.758" cy="610.798" r="3.0" fill="red" stroke="black" stroke-width="1" />
 <line x1="254.758" y1="610.798" x2="312.372" y2="609.926" opacity="0.3" stroke="green" stroke-width="2" />
<circle cx="482.871" cy="444.102" r="3.0" fill="red" stroke="black" stroke-width="1" />
 <line x1="482.871" y1="444.102" x2="432.749" y2="511.095" opacity="0.3" stroke="green" stroke-width="2" />
<circle cx="536.911" cy="201.479" r="3.0" fill="red" stroke="black" stroke-width="1" />
 <line x1="536.911" y1="201.479" x2="449.561" y2="123.984" opacity="0.3" stroke="green" stroke-width="2" />
<circle cx="344.532" cy="674.866" r="3.0" fill="red" stroke="black" stroke-width="1" />
 <line x1="344.532" y1="674.866" x2="319.473" y2="655.952" opacity="0.3" stroke="green" stroke-width="2" />
<circle cx="486.956" cy="511.082" r="3.0" fill="red" stroke="black" stroke-width="1" />
 <line x1="486.956" y1="511.082" x2="432.749" y2="511.095" opacity="0.3" stroke="green" stroke-width="2" />
<circle cx="559.415" cy="274.56" r="3.0" fill="red" stroke="black" stroke-width="1" />
 <line x1="559.415" y1="274.56" x2="614.574" y2="390.08" opacity="0.3" stroke="green" stroke-width="2" />
<circle cx="398.024" cy="138.302" r="3.0" fill="red" stroke="black" stroke-width="1" />
 <line x1="398.024" y1="138.302" x2="449.561" y2="123.984" opacity="0.3" stroke="green" stroke-width="2" />
<circle cx="313.516" cy="33.4422" r="3.0" fill="red" stroke="black" stroke-width="1" />
 <line x1="313.516" y1="33.4422" x2="374.308" y2="29.7369" opacity="0.3" stroke="green" stroke-width="2" />
<circle cx="451.298" cy="162.97" r="3.0" fill="red" stroke="black" stroke-width="1" />
 <line x1="451.298" y1="162.97" x2="449.561" y2="123.984" opacity="0.3" stroke="green" stroke-width="2" />
<circle cx="711.317" cy="513.804" r="3.0" fill="red" stroke="black" stroke-width="1" />
 <line x1="711.317" y1="513.804" x2="688.615" y2="427.63" opacity="0.3" stroke="green" stroke-width="2" />
<circle cx="173.578" cy="504.191" r="3.0" fill="red" stroke="black" stroke-width="1" />
 <line x1="173.578" y1="504.191" x2="216.732" y2="473.621" opacity="0.3" stroke="green" stroke-width="2" />
<circle cx="172.071" cy="413.285" r="3.0" fill="red" stroke="black" stroke-width="1" />
 <line x1="172.071" y1="413.285" x2="195.303" y2="425.084" opacity="0.3" stroke="green" stroke-width="2" />
<circle cx="581.032" cy="299.002" r="3.0" fill="red" stroke="black" stroke-width="1" />
 <line x1="581.032" y1="299.002" x2="614.574" y2="390.08" opacity="0.3" stroke="green" stroke-width="2" />
<circle cx="400.506" cy="8.63384" r="3.0" fill="red" stroke="black" stroke-width="1" />
 <line x1="400.506" y1="8.63384" x2="374.308" y2="29.7369" opacity="0.3" stroke="green" stroke-width="2" />
<circle cx="192.33" cy="41.6545" r="3.0" fill="red" stroke="black" stroke-width="1" />
 <line x1="192.33" y1="41.6545" x2="135.918" y2="89.224" opacity="0.3" stroke="green" stroke-width="2" />
<circle cx="271.106" cy="490.917" r="3.0" fill="red" stroke="black" stroke-width="1" />
 <line x1="271.106" y1="490.917" x2="195.303" y2="425.084" opacity="0.3" stroke="green" stroke-width="2" />
<circle cx="362.32" cy="662.638" r="3.0" fill="red" stroke="black" stroke-width="1" />
 <line x1="362.32" y1="662.638" x2="319.473" y2="655.952" opacity="0.3" stroke="green" stroke-width="2" />
<circle cx="146.633" cy="315.789" r="3.0" fill="red" stroke="black" stroke-width="1" />
 <line x1="146.633" y1="315.789" x2="198.818" y2="222.48" opacity="0.3" stroke="green" stroke-width="2" />
<circle cx="206.952" cy="283.629" r="3.0" fill="red" stroke="black" stroke-width="1" />
 <line x1="206.952" y1="283.629" x2="333.474" y2="328.025" opacity="0.3" stroke="green" stroke-width="2" />
<circle cx="671.367" cy="200.357" r="3.0" fill="red" stroke="black" stroke-width="1" />
 <line x1="671.367" y1="200.357" x2="759.933" y2="61.1722" opacity="0.3" stroke="green" stroke-width="2" />
<circle cx="108.036" cy="27.0229" r="3.0" fill="red" stroke="black" stroke-width="1" />
 <line x1="108.036" y1="27.0229" x2="109.606" y2="91.2808" opacity="0.3" stroke="green" stroke-width="2" />
<circle cx="175.233" cy="561.823" r="3.0" fill="red" stroke="black" stroke-width="1" />
 <line x1="175.233" y1="561.823" x2="139.957" y2="494.626" opacity="0.3" stroke="green" stroke-width="2" />
<circle cx="584.281" cy="222.626" r="3.0" fill="red" stroke="black" stroke-width="1" />
 <line x1="584.281" y1="222.626" x2="614.574" y2="390.08" opacity="0.3" stroke="green" stroke-width="2" />
<circle cx="8.17792" cy="454.768" r="3.0" fill="red" stroke="black" stroke-width="1" />
 <line x1="8.17792" y1="454.768" x2="139.957" y2="494.626" opacity="0.3" stroke="green" stroke-width="2" />
<circle cx="793.62" cy="573.581" r="3.0" fill="red" stroke="black" stroke-width="1" />
 <line x1="793.62" y1="573.581" x2="782.014" y2="793.826" opacity="0.3" stroke="green" stroke-width="2" />
<circle cx="224.036" cy="426.403" r="3.0" fill="red" stroke="black" stroke-width="1" />
 <line x1="224.036" y1="426.403" x2="195.303" y2="425.084" opacity="0.3" stroke="green" stroke-width="2" />
<circle cx="272.668" cy="787.047" r="3.0" fill="red" stroke="black" stroke-width="1" />
 <line x1="272.668" y1="787.047" x2="319.473" y2="655.952" opacity="0.3" stroke="green" stroke-width="2" />
<circle cx="505.465" cy="571.906" r="3.0" fill="red" stroke="black" stroke-width="1" />
 <line x1="505.465" y1="571.906" x2="529.984" y2="584.359" opacity="0.3" stroke="green" stroke-width="2" />
<circle cx="16.705" cy="504.174" r="3.0" fill="red" stroke="black" stroke-width="1" />
 <line x1="16.705" y1="504.174" x2="139.957" y2="494.626" opacity="0.3" stroke="green" stroke-width="2" />
<circle cx="352.073" cy="621.882" r="3.0" fill="red" stroke="black" stroke-width="1" />
 <line x1="352.073" y1="621.882" x2="319.473" y2="655.952" opacity="0.3" stroke="green" stroke-width="2" />
<circle cx="581.089" cy="3.8589" r="3.0" fill="red" stroke="black" stroke-width="1" />
 <line x1="581.089" y1="3.8589" x2="515.739" y2="76.6152" opacity="0.3" stroke="green" stroke-width="2" />
</svg>
