<svg xmlns="http://www.w3.org/2000/svg" version="1.1" width="800" height="800">
"<rect x="0.0" y="0.0" width="800.0" height="800.0" fill ="white" /><circle cx="388.414" cy="565.478" r="6.0" fill ="blue" stroke="black" stroke-width="1" />
<circle cx="312.832" cy="665.602" r="6.0" fill ="blue" stroke="black" stroke-width="1" />
<circle cx="443.166" cy="322.505" r="6.0" fill ="blue" stroke="black" stroke-width="1" />
<circle cx="746.386" cy="597.413" r="6.0" fill ="blue" stroke="black" stroke-width="1" />
<circle cx="658.742" cy="510.089" r="6.0" fill ="blue" stroke="black" stroke-width="1" />
<circle cx="284.362" cy="272.831" r="6.0" fill ="blue" stroke="black" stroke-width="1" />
<circle cx="141.13" cy="540.789" r="6.0" fill ="blue" stroke="black" stroke-width="1" />
<circle cx="17.293" cy="468.942" r="6.0" fill ="blue" stroke="black" stroke-width="1" />
<circle cx="660.594" cy="287.569" r="6.0" fill ="blue" stroke="black" stroke-width="1" />
<circle cx="312.536" cy="456.912" r="6.0" fill ="blue" stroke="black" stroke-width="1" />
<circle cx="587.906" cy="56.7744" r="6.0" fill ="blue" stroke="black" stroke-width="1" />
<circle cx="624.303" cy="706.923" r="6.0" fill ="blue" stroke="black" stroke-width="1" />
<circle cx="555.955" cy="655.536" r="6.0" fill ="blue" stroke="black" stroke-width="1" />
<circle cx="83.3472" cy="775.527" r="6.0" fill ="blue" stroke="black" stroke-width="1" />
<circle cx="532.559" cy="196.634" r="6.0" fill ="blue" stroke="black" stroke-width="1" />
<circle cx="304.264" cy="4.61202" r="6.0" fill ="blue" stroke="black" stroke-width="1" />
<circle cx="66.995" cy="646.982" r="6.0" fill ="blue" stroke="black" stroke-width="1" />
<circle cx="218.033" cy="105.237" r="6.0" fill ="blue" stroke="black" stroke-width="1" />
<circle cx="581.526" cy="458.774" r="6.0" fill ="blue" stroke="black" stroke-width="1" />
<circle cx="63.295" cy="306.68" r="6.0" fill ="blue" stroke="black" stroke-width="1" />
<circle cx="439.354" cy="711.957" r="6.0" fill ="blue" stroke="black" stroke-width="1" />
<circle cx="633.695" cy="469.321" r="3.0" fill="red" stroke="black" stroke-width="1" />
 <line x1="633.695" y1="469.321" x2="658.742" y2="510.089" opacity="0.3" stroke="green" stroke-width="2" />
<circle cx="110.274" cy="560.786" r="3.0" fill="red" stroke="black" stroke-width="1" />
 <line x1="110.274" y1="560.786" x2="141.13" y2="540.789" opacity="0.3" stroke="green" stroke-width="2" />
<circle cx="106.02" cy="12.235" r="3.0" fill="red" stroke="black" stroke-width="1" />
 <line x1="106.02" y1="12.235" x2="218.033" y2="105.237" opacity="0.3" stroke="green" stroke-width="2" />
<circle cx="195.701" cy="791.355" r="3.0" fill="red" stroke="black" stroke-width="1" />
 <line x1="195.701" y1="791.355" x2="83.3472" y2="775.527" opacity="0.3" stroke="green" stroke-width="2" />
<circle cx="694.456" cy="37.5126" r="3.0" fill="red" stroke="black" stroke-width="1" />
 <line x1="694.456" y1="37.5126" x2="587.906" y2="56.7744" opacity="0.3" stroke="green" stroke-width="2" />
<circle cx="474.642" cy="126.215" r="3.0" fill="red" stroke="black" stroke-width="1" />
 <line x1="474.642" y1="126.215" x2="532.559" y2="196.634" opacity="0.3" stroke="green" stroke-width="2" />
<circle cx="62.3112" cy="625.72" r="3.0" fill="red" stroke="black" stroke-width="1" />
 <line x1="62.3112" y1="625.72" x2="66.995" y2="646.982" opacity="0.3" stroke="green" stroke-width="2" />
<circle cx="617.314" cy="469.544" r="3.0" fill="red" stroke="black" stroke-width="1" />
 <line x1="617.314" y1="469.544" x2="581.526" y2="458.774" opacity="0.3" stroke="green" stroke-width="2" />
<circle cx="48.1523" cy="485.289" r="3.0" fill="red" stroke="black" stroke-width="1" />
 <line x1="48.1523" y1="485.289" x2="17.293" y2="468.942" opacity="0.3" stroke="green" stroke-width="2" />
<circle cx="148.479" cy="272.565" r="3.0" fill="red" stroke="black" stroke-width="1" />
 <line x1="148.479" y1="272.565" x2="63.295" y2="306.68" opacity="0.3" stroke="green" stroke-width="2" />
<circle cx="168.372" cy="572.059" r="3.0" fill="red" stroke="black" stroke-width="1" />
 <line x1="168.372" y1="572.059" x2="141.13" y2="540.789" opacity="0.3" stroke="green" stroke-width="2" />
<circle cx="73.8013" cy="796.548" r="3.0" fill="red" stroke="black" stroke-width="1" />
 <line x1="73.8013" y1="796.548" x2="83.3472" y2="775.527" opacity="0.3" stroke="green" stroke-width="2" />
<circle cx="109.438" cy="480.734" r="3.0" fill="red" stroke="black" stroke-width="1" />
 <line x1="109.438" y1="480.734" x2="141.13" y2="540.789" opacity="0.3" stroke="green" stroke-width="2" />
<circle cx="318.75" cy="757.41" r="3.0" fill="red" stroke="black" stroke-width="1" />
 <line x1="318.75" y1="757.41" x2="439.354" y2="711.957" opacity="0.3" stroke="green" stroke-width="2" />
<circle cx="144.773" cy="310.533" r="3.0" fill="red" stroke="black" stroke-width="1" />
 <line x1="144.773" y1="310.533" x2="63.295" y2="306.68" opacity="0.3" stroke="green" stroke-width="2" />
<circle cx="770.021" cy="319.678" r="3.0" fill="red" stroke="black" stroke-width="1" />
 <line x1="770.021" y1="319.678" x2="660.594" y2="287.569" opacity="0.3" stroke="green" stroke-width="2" />
<circle cx="287.902" cy="170.021" r="3.0" fill="red" stroke="black" stroke-width="1" />
 <line x1="287.902" y1="170.021" x2="218.033" y2="105.237" opacity="0.3" stroke="green" stroke-width="2" />
<circle cx="249.356" cy="43.6476" r="3.0" fill="red" stroke="black" stroke-width="1" />
 <line x1="249.356" y1="43.6476" x2="218.033" y2="105.237" opacity="0.3" stroke="green" stroke-width="2" />
<circle cx="125.536" cy="164.096" r="3.0" fill="red" stroke="black" stroke-width="1" />
 <line x1="125.536" y1="164.096" x2="304.264" y2="4.61202" opacity="0.3" stroke="green" stroke-width="2" />
<circle cx="134.885" cy="425.286" r="3.0" fill="red" stroke="black" stroke-width="1" />
 <line x1="134.885" y1="425.286" x2="17.293" y2="468.942" opacity="0.3" stroke="green" stroke-width="2" />
<circle cx="580.787" cy="55.3058" r="3.0" fill="red" stroke="black" stroke-width="1" />
 <line x1="580.787" y1="55.3058" x2="587.906" y2="56.7744" opacity="0.3" stroke="green" stroke-width="2" />
<circle cx="167.519" cy="323.793" r="3.0" fill="red" stroke="black" stroke-width="1" />
 <line x1="167.519" y1="323.793" x2="141.13" y2="540.789" opacity="0.3" stroke="green" stroke-width="2" />
<circle cx="602.721" cy="556.974" r="3.0" fill="red" stroke="black" stroke-width="1" />
 <line x1="602.721" y1="556.974" x2="555.955" y2="655.536" opacity="0.3" stroke="green" stroke-width="2" />
<circle cx="471.687" cy="661.512" r="3.0" fill="red" stroke="black" stroke-width="1" />
 <line x1="471.687" y1="661.512" x2="555.955" y2="655.536" opacity="0.3" stroke="green" stroke-width="2" />
<circle cx="454.431" cy="2.41032" r="3.0" fill="red" stroke="black" stroke-width="1" />
 <line x1="454.431" y1="2.41032" x2="304.264" y2="4.61202" opacity="0.3" stroke="green" stroke-width="2" />
<circle cx="688.498" cy="187.51" r="3.0" fill="red" stroke="black" stroke-width="1" />
 <line x1="688.498" y1="187.51" x2="660.594" y2="287.569" opacity="0.3" stroke="green" stroke-width="2" />
<circle cx="418.77" cy="776.871" r="3.0" fill="red" stroke="black" stroke-width="1" />
 <line x1="418.77" y1="776.871" x2="439.354" y2="711.957" opacity="0.3" stroke="green" stroke-width="2" />
<circle cx="681.879" cy="761.039" r="3.0" fill="red" stroke="black" stroke-width="1" />
 <line x1="681.879" y1="761.039" x2="624.303" y2="706.923" opacity="0.3" stroke="green" stroke-width="2" />
<circle cx="184.171" cy="268.453" r="3.0" fill="red" stroke="black" stroke-width="1" />
 <line x1="184.171" y1="268.453" x2="284.362" y2="272.831" opacity="0.3" stroke="green" stroke-width="2" />
<circle cx="518.388" cy="90.8512" r="3.0" fill="red" stroke="black" stroke-width="1" />
 <line x1="518.388" y1="90.8512" x2="587.906" y2="56.7744" opacity="0.3" stroke="green" stroke-width="2" />
<circle cx="531.699" cy="663.258" r="3.0" fill="red" stroke="black" stroke-width="1" />
 <line x1="531.699" y1="663.258" x2="555.955" y2="655.536" opacity="0.3" stroke="green" stroke-width="2" />
<circle cx="258.358" cy="77.7248" r="3.0" fill="red" stroke="black" stroke-width="1" />
 <line x1="258.358" y1="77.7248" x2="218.033" y2="105.237" opacity="0.3" stroke="green" stroke-width="2" />
<circle cx="756.98" cy="503.977" r="3.0" fill="red" stroke="black" stroke-width="1" />
 <line x1="756.98" y1="503.977" x2="746.386" y2="597.413" opacity="0.3" stroke="green" stroke-width="2" />
<circle cx="484.858" cy="91.7184" r="3.0" fill="red" stroke="black" stroke-width="1" />
 <line x1="484.858" y1="91.7184" x2="304.264" y2="4.61202" opacity="0.3" stroke="green" stroke-width="2" />
<circle cx="718.807" cy="55.5826" r="3.0" fill="red" stroke="black" stroke-width="1" />
 <line x1="718.807" y1="55.5826" x2="587.906" y2="56.7744" opacity="0.3" stroke="green" stroke-width="2" />
<circle cx="171.752" cy="753.289" r="3.0" fill="red" stroke="black" stroke-width="1" />
 <line x1="171.752" y1="753.289" x2="83.3472" y2="775.527" opacity="0.3" stroke="green" stroke-width="2" />
<circle cx="88.1976" cy="362.77" r="3.0" fill="red" stroke="black" stroke-width="1" />
 <line x1="88.1976" y1="362.77" x2="17.293" y2="468.942" opacity="0.3" stroke="green" stroke-width="2" />
<circle cx="633.612" cy="532.677" r="3.0" fill="red" stroke="black" stroke-width="1" />
 <line x1="633.612" y1="532.677" x2="581.526" y2="458.774" opacity="0.3" stroke="green" stroke-width="2" />
<circle cx="396.562" cy="285.334" r="3.0" fill="red" stroke="black" stroke-width="1" />
 <line x1="396.562" y1="285.334" x2="443.166" y2="322.505" opacity="0.3" stroke="green" stroke-width="2" />
<circle cx="777.746" cy="143.721" r="3.0" fill="red" stroke="black" stroke-width="1" />
 <line x1="777.746" y1="143.721" x2="660.594" y2="287.569" opacity="0.3" stroke="green" stroke-width="2" />
<circle cx="700.309" cy="93.488" r="3.0" fill="red" stroke="black" stroke-width="1" />
 <line x1="700.309" y1="93.488" x2="587.906" y2="56.7744" opacity="0.3" stroke="green" stroke-width="2" />
<circle cx="625.117" cy="520.648" r="3.0" fill="red" stroke="black" stroke-width="1" />
 <line x1="625.117" y1="520.648" x2="746.386" y2="597.413" opacity="0.3" stroke="green" stroke-width="2" />
<circle cx="314.588" cy="751.11" r="3.0" fill="red" stroke="black" stroke-width="1" />
 <line x1="314.588" y1="751.11" x2="312.832" y2="665.602" opacity="0.3" stroke="green" stroke-width="2" />
<circle cx="389.11" cy="790.402" r="3.0" fill="red" stroke="black" stroke-width="1" />
 <line x1="389.11" y1="790.402" x2="439.354" y2="711.957" opacity="0.3" stroke="green" stroke-width="2" />
<circle cx="537.402" cy="509.519" r="3.0" fill="red" stroke="black" stroke-width="1" />
 <line x1="537.402" y1="509.519" x2="581.526" y2="458.774" opacity="0.3" stroke="green" stroke-width="2" />
<circle cx="593.493" cy="206.493" r="3.0" fill="red" stroke="black" stroke-width="1" />
 <line x1="593.493" y1="206.493" x2="660.594" y2="287.569" opacity="0.3" stroke="green" stroke-width="2" />
<circle cx="319.58" cy="685.396" r="3.0" fill="red" stroke="black" stroke-width="1" />
 <line x1="319.58" y1="685.396" x2="312.832" y2="665.602" opacity="0.3" stroke="green" stroke-width="2" />
<circle cx="631.914" cy="778.506" r="3.0" fill="red" stroke="black" stroke-width="1" />
 <line x1="631.914" y1="778.506" x2="624.303" y2="706.923" opacity="0.3" stroke="green" stroke-width="2" />
<circle cx="453.163" cy="650.74" r="3.0" fill="red" stroke="black" stroke-width="1" />
 <line x1="453.163" y1="650.74" x2="439.354" y2="711.957" opacity="0.3" stroke="green" stroke-width="2" />
<circle cx="209.294" cy="722.994" r="3.0" fill="red" stroke="black" stroke-width="1" />
 <line x1="209.294" y1="722.994" x2="83.3472" y2="775.527" opacity="0.3" stroke="green" stroke-width="2" />
<circle cx="289.898" cy="662.41" r="3.0" fill="red" stroke="black" stroke-width="1" />
 <line x1="289.898" y1="662.41" x2="312.832" y2="665.602" opacity="0.3" stroke="green" stroke-width="2" />
<circle cx="310.405" cy="475.462" r="3.0" fill="red" stroke="black" stroke-width="1" />
 <line x1="310.405" y1="475.462" x2="312.536" y2="456.912" opacity="0.3" stroke="green" stroke-width="2" />
<circle cx="195.271" cy="264.661" r="3.0" fill="red" stroke="black" stroke-width="1" />
 <line x1="195.271" y1="264.661" x2="284.362" y2="272.831" opacity="0.3" stroke="green" stroke-width="2" />
<circle cx="79.1857" cy="353.249" r="3.0" fill="red" stroke="black" stroke-width="1" />
 <line x1="79.1857" y1="353.249" x2="63.295" y2="306.68" opacity="0.3" stroke="green" stroke-width="2" />
<circle cx="767.996" cy="788.552" r="3.0" fill="red" stroke="black" stroke-width="1" />
 <line x1="767.996" y1="788.552" x2="746.386" y2="597.413" opacity="0.3" stroke="green" stroke-width="2" />
<circle cx="634.318" cy="431.915" r="3.0" fill="red" stroke="black" stroke-width="1" />
 <line x1="634.318" y1="431.915" x2="581.526" y2="458.774" opacity="0.3" stroke="green" stroke-width="2" />
<circle cx="460.083" cy="629.889" r="3.0" fill="red" stroke="black" stroke-width="1" />
 <line x1="460.083" y1="629.889" x2="555.955" y2="655.536" opacity="0.3" stroke="green" stroke-width="2" />
<circle cx="262.67" cy="577.123" r="3.0" fill="red" stroke="black" stroke-width="1" />
 <line x1="262.67" y1="577.123" x2="388.414" y2="565.478" opacity="0.3" stroke="green" stroke-width="2" />
<circle cx="716.934" cy="482.726" r="3.0" fill="red" stroke="black" stroke-width="1" />
 <line x1="716.934" y1="482.726" x2="658.742" y2="510.089" opacity="0.3" stroke="green" stroke-width="2" />
<circle cx="674.358" cy="44.061" r="3.0" fill="red" stroke="black" stroke-width="1" />
 <line x1="674.358" y1="44.061" x2="532.559" y2="196.634" opacity="0.3" stroke="green" stroke-width="2" />
<circle cx="337.23" cy="570.136" r="3.0" fill="red" stroke="black" stroke-width="1" />
 <line x1="337.23" y1="570.136" x2="388.414" y2="565.478" opacity="0.3" stroke="green" stroke-width="2" />
<circle cx="196.972" cy="440.741" r="3.0" fill="red" stroke="black" stroke-width="1" />
 <line x1="196.972" y1="440.741" x2="141.13" y2="540.789" opacity="0.3" stroke="green" stroke-width="2" />
<circle cx="697.321" cy="695.087" r="3.0" fill="red" stroke="black" stroke-width="1" />
 <line x1="697.321" y1="695.087" x2="624.303" y2="706.923" opacity="0.3" stroke="green" stroke-width="2" />
<circle cx="268.558" cy="648.954" r="3.0" fill="red" stroke="black" stroke-width="1" />
 <line x1="268.558" y1="648.954" x2="312.832" y2="665.602" opacity="0.3" stroke="green" stroke-width="2" />
<circle cx="40.5584" cy="404.895" r="3.0" fill="red" stroke="black" stroke-width="1" />
 <line x1="40.5584" y1="404.895" x2="17.293" y2="468.942" opacity="0.3" stroke="green" stroke-width="2" />
<circle cx="33.9907" cy="92.096" r="3.0" fill="red" stroke="black" stroke-width="1" />
 <line x1="33.9907" y1="92.096" x2="218.033" y2="105.237" opacity="0.3" stroke="green" stroke-width="2" />
<circle cx="748.625" cy="596.832" r="3.0" fill="red" stroke="black" stroke-width="1" />
 <line x1="748.625" y1="596.832" x2="746.386" y2="597.413" opacity="0.3" stroke="green" stroke-width="2" />
<circle cx="736.274" cy="474.027" r="3.0" fill="red" stroke="black" stroke-width="1" />
 <line x1="736.274" y1="474.027" x2="658.742" y2="510.089" opacity="0.3" stroke="green" stroke-width="2" />
<circle cx="765.124" cy="706.108" r="3.0" fill="red" stroke="black" stroke-width="1" />
 <line x1="765.124" y1="706.108" x2="746.386" y2="597.413" opacity="0.3" stroke="green" stroke-width="2" />
<circle cx="510.254" cy="126.43" r="3.0" fill="red" stroke="black" stroke-width="1" />
 <line x1="510.254" y1="126.43" x2="532.559" y2="196.634" opacity="0.3" stroke="green" stroke-width="2" />
<circle cx="41.5746" cy="762.932" r="3.0" fill="red" stroke="black" stroke-width="1" />
 <line x1="41.5746" y1="762.932" x2="83.3472" y2="775.527" opacity="0.3" stroke="green" stroke-width="2" />
<circle cx="643.891" cy="744.131" r="3.0" fill="red" stroke="black" stroke-width="1" />
 <line x1="643.891" y1="744.131" x2="624.303" y2="706.923" opacity="0.3" stroke="green" stroke-width="2" />
<circle cx="404.524" cy="475.322" r="3.0" fill="red" stroke="black" stroke-width="1" />
 <line x1="404.524" y1="475.322" x2="312.536" y2="456.912" opacity="0.3" stroke="green" stroke-width="2" />
<circle cx="420.617" cy="403.938" r="3.0" fill="red" stroke="black" stroke-width="1" />
 <line x1="420.617" y1="403.938" x2="312.536" y2="456.912" opacity="0.3" stroke="green" stroke-width="2" />
<circle cx="317.386" cy="439.544" r="3.0" fill="red" stroke="black" stroke-width="1" />
 <line x1="317.386" y1="439.544" x2="312.536" y2="456.912" opacity="0.3" stroke="green" stroke-width="2" />
<circle cx="408.301" cy="540.506" r="3.0" fill="red" stroke="black" stroke-width="1" />
 <line x1="408.301" y1="540.506" x2="388.414" y2="565.478" opacity="0.3" stroke="green" stroke-width="2" />
<circle cx="150.851" cy="483.539" r="3.0" fill="red" stroke="black" stroke-width="1" />
 <line x1="150.851" y1="483.539" x2="141.13" y2="540.789" opacity="0.3" stroke="green" stroke-width="2" />
<circle cx="413.385" cy="646.777" r="3.0" fill="red" stroke="black" stroke-width="1" />
 <line x1="413.385" y1="646.777" x2="388.414" y2="565.478" opacity="0.3" stroke="green" stroke-width="2" />
<circle cx="235.738" cy="308.085" r="3.0" fill="red" stroke="black" stroke-width="1" />
 <line x1="235.738" y1="308.085" x2="284.362" y2="272.831" opacity="0.3" stroke="green" stroke-width="2" />
<circle cx="9.79528" cy="618.002" r="3.0" fill="red" stroke="black" stroke-width="1" />
 <line x1="9.79528" y1="618.002" x2="66.995" y2="646.982" opacity="0.3" stroke="green" stroke-width="2" />
<circle cx="397.57" cy="438.413" r="3.0" fill="red" stroke="black" stroke-width="1" />
 <line x1="397.57" y1="438.413" x2="312.536" y2="456.912" opacity="0.3" stroke="green" stroke-width="2" />
<circle cx="5.31454" cy="457.007" r="3.0" fill="red" stroke="black" stroke-width="1" />
 <line x1="5.31454" y1="457.007" x2="17.293" y2="468.942" opacity="0.3" stroke="green" stroke-width="2" />
<circle cx="670.914" cy="700.774" r="3.0" fill="red" stroke="black" stroke-width="1" />
 <line x1="670.914" y1="700.774" x2="624.303" y2="706.923" opacity="0.3" stroke="green" stroke-width="2" />
<circle cx="513.419" cy="779.738" r="3.0" fill="red" stroke="black" stroke-width="1" />
 <line x1="513.419" y1="779.738" x2="555.955" y2="655.536" opacity="0.3" stroke="green" stroke-width="2" />
<circle cx="251.435" cy="779.877" r="3.0" fill="red" stroke="black" stroke-width="1" />
 <line x1="251.435" y1="779.877" x2="312.832" y2="665.602" opacity="0.3" stroke="green" stroke-width="2" />
<circle cx="242.833" cy="462.625" r="3.0" fill="red" stroke="black" stroke-width="1" />
 <line x1="242.833" y1="462.625" x2="141.13" y2="540.789" opacity="0.3" stroke="green" stroke-width="2" />
<circle cx="3.52388" cy="713.843" r="3.0" fill="red" stroke="black" stroke-width="1" />
 <line x1="3.52388" y1="713.843" x2="66.995" y2="646.982" opacity="0.3" stroke="green" stroke-width="2" />
<circle cx="182.976" cy="208.576" r="3.0" fill="red" stroke="black" stroke-width="1" />
 <line x1="182.976" y1="208.576" x2="218.033" y2="105.237" opacity="0.3" stroke="green" stroke-width="2" />
<circle cx="201.219" cy="562.468" r="3.0" fill="red" stroke="black" stroke-width="1" />
 <line x1="201.219" y1="562.468" x2="312.832" y2="665.602" opacity="0.3" stroke="green" stroke-width="2" />
<circle cx="118.997" cy="339.446" r="3.0" fill="red" stroke="black" stroke-width="1" />
 <line x1="118.997" y1="339.446" x2="63.295" y2="306.68" opacity="0.3" stroke="green" stroke-width="2" />
<circle cx="496.338" cy="82.7576" r="3.0" fill="red" stroke="black" stroke-width="1" />
 <line x1="496.338" y1="82.7576" x2="532.559" y2="196.634" opacity="0.3" stroke="green" stroke-width="2" />
<circle cx="60.6645" cy="607.847" r="3.0" fill="red" stroke="black" stroke-width="1" />
 <line x1="60.6645" y1="607.847" x2="66.995" y2="646.982" opacity="0.3" stroke="green" stroke-width="2" />
<circle cx="527.345" cy="676.682" r="3.0" fill="red" stroke="black" stroke-width="1" />
 <line x1="527.345" y1="676.682" x2="624.303" y2="706.923" opacity="0.3" stroke="green" stroke-width="2" />
<circle cx="86.0968" cy="525.598" r="3.0" fill="red" stroke="black" stroke-width="1" />
 <line x1="86.0968" y1="525.598" x2="141.13" y2="540.789" opacity="0.3" stroke="green" stroke-width="2" />
<circle cx="400.929" cy="682.668" r="3.0" fill="red" stroke="black" stroke-width="1" />
 <line x1="400.929" y1="682.668" x2="439.354" y2="711.957" opacity="0.3" stroke="green" stroke-width="2" />
<circle cx="28.1392" cy="452.772" r="3.0" fill="red" stroke="black" stroke-width="1" />
 <line x1="28.1392" y1="452.772" x2="17.293" y2="468.942" opacity="0.3" stroke="green" stroke-width="2" />
<circle cx="711.178" cy="320.689" r="3.0" fill="red" stroke="black" stroke-width="1" />
 <line x1="711.178" y1="320.689" x2="581.526" y2="458.774" opacity="0.3" stroke="green" stroke-width="2" />
<circle cx="619.158" cy="310.728" r="3.0" fill="red" stroke="black" stroke-width="1" />
 <line x1="619.158" y1="310.728" x2="660.594" y2="287.569" opacity="0.3" stroke="green" stroke-width="2" />
<circle cx="663.095" cy="583.644" r="3.0" fill="red" stroke="black" stroke-width="1" />
 <line x1="663.095" y1="583.644" x2="658.742" y2="510.089" opacity="0.3" stroke="green" stroke-width="2" />
<circle cx="10.8245" cy="316.676" r="3.0" fill="red" stroke="black" stroke-width="1" />
 <line x1="10.8245" y1="316.676" x2="63.295" y2="306.68" opacity="0.3" stroke="green" stroke-width="2" />
<circle cx="606.276" cy="275.546" r="3.0" fill="red" stroke="black" stroke-width="1" />
 <line x1="606.276" y1="275.546" x2="660.594" y2="287.569" opacity="0.3" stroke="green" stroke-width="2" />
<circle cx="449.342" cy="608.22" r="3.0" fill="red" stroke="black" stroke-width="1" />
 <line x1="449.342" y1="608.22" x2="388.414" y2="565.478" opacity="0.3" stroke="green" stroke-width="2" />
<circle cx="421.572" cy="691.415" r="3.0" fill="red" stroke="black" stroke-width="1" />
 <line x1="421.572" y1="691.415" x2="439.354" y2="711.957" opacity="0.3" stroke="green" stroke-width="2" />
<circle cx="394.043" cy="528.292" r="3.0" fill="red" stroke="black" stroke-width="1" />
 <line x1="394.043" y1="528.292" x2="388.414" y2="565.478" opacity="0.3" stroke="green" stroke-width="2" />
<circle cx="587.758" cy="355.661" r="3.0" fill="red" stroke="black" stroke-width="1" />
 <line x1="587.758" y1="355.661" x2="581.526" y2="458.774" opacity="0.3" stroke="green" stroke-width="2" />
<circle cx="354.307" cy="272.494" r="3.0" fill="red" stroke="black" stroke-width="1" />
 <line x1="354.307" y1="272.494" x2="284.362" y2="272.831" opacity="0.3" stroke="green" stroke-width="2" />
<circle cx="426.559" cy="283.801" r="3.0" fill="red" stroke="black" stroke-width="1" />
 <line x1="426.559" y1="283.801" x2="443.166" y2="322.505" opacity="0.3" stroke="green" stroke-width="2" />
<circle cx="53.1161" cy="620.923" r="3.0" fill="red" stroke="black" stroke-width="1" />
 <line x1="53.1161" y1="620.923" x2="66.995" y2="646.982" opacity="0.3" stroke="green" stroke-width="2" />
<circle cx="563.799" cy="5.18902" r="3.0" fill="red" stroke="black" stroke-width="1" />
 <line x1="563.799" y1="5.18902" x2="587.906" y2="56.7744" opacity="0.3" stroke="green" stroke-width="2" />
<circle cx="8.83952" cy="709.626" r="3.0" fill="red" stroke="black" stroke-width="1" />
 <line x1="8.83952" y1="709.626" x2="66.995" y2="646.982" opacity="0.3" stroke="green" stroke-width="2" />
<circle cx="303.725" cy="663.157" r="3.0" fill="red" stroke="black" stroke-width="1" />
 <line x1="303.725" y1="663.157" x2="312.832" y2="665.602" opacity="0.3" stroke="green" stroke-width="2" />
<circle cx="710.555" cy="691.32" r="3.0" fill="red" stroke="black" stroke-width="1" />
 <line x1="710.555" y1="691.32" x2="746.386" y2="597.413" opacity="0.3" stroke="green" stroke-width="2" />
<circle cx="558.093" cy="219.715" r="3.0" fill="red" stroke="black" stroke-width="1" />
 <line x1="558.093" y1="219.715" x2="532.559" y2="196.634" opacity="0.3" stroke="green" stroke-width="2" />
<circle cx="478.449" cy="434.223" r="3.0" fill="red" stroke="black" stroke-width="1" />
 <line x1="478.449" y1="434.223" x2="443.166" y2="322.505" opacity="0.3" stroke="green" stroke-width="2" />
<circle cx="493.221" cy="234.805" r="3.0" fill="red" stroke="black" stroke-width="1" />
 <line x1="493.221" y1="234.805" x2="443.166" y2="322.505" opacity="0.3" stroke="green" stroke-width="2" />
<circle cx="547.085" cy="558.498" r="3.0" fill="red" stroke="black" stroke-width="1" />
 <line x1="547.085" y1="558.498" x2="658.742" y2="510.089" opacity="0.3" stroke="green" stroke-width="2" />
<circle cx="352.082" cy="201.556" r="3.0" fill="red" stroke="black" stroke-width="1" />
 <line x1="352.082" y1="201.556" x2="284.362" y2="272.831" opacity="0.3" stroke="green" stroke-width="2" />
<circle cx="608.51" cy="252.54" r="3.0" fill="red" stroke="black" stroke-width="1" />
 <line x1="608.51" y1="252.54" x2="532.559" y2="196.634" opacity="0.3" stroke="green" stroke-width="2" />
<circle cx="324.346" cy="372.917" r="3.0" fill="red" stroke="black" stroke-width="1" />
 <line x1="324.346" y1="372.917" x2="284.362" y2="272.831" opacity="0.3" stroke="green" stroke-width="2" />
<circle cx="451.217" cy="259.668" r="3.0" fill="red" stroke="black" stroke-width="1" />
 <line x1="451.217" y1="259.668" x2="443.166" y2="322.505" opacity="0.3" stroke="green" stroke-width="2" />
<circle cx="647.93" cy="477.718" r="3.0" fill="red" stroke="black" stroke-width="1" />
 <line x1="647.93" y1="477.718" x2="658.742" y2="510.089" opacity="0.3" stroke="green" stroke-width="2" />
<circle cx="417.638" cy="82.1504" r="3.0" fill="red" stroke="black" stroke-width="1" />
 <line x1="417.638" y1="82.1504" x2="304.264" y2="4.61202" opacity="0.3" stroke="green" stroke-width="2" />
<circle cx="505.134" cy="640.768" r="3.0" fill="red" stroke="black" stroke-width="1" />
 <line x1="505.134" y1="640.768" x2="624.303" y2="706.923" opacity="0.3" stroke="green" stroke-width="2" />
<circle cx="333.591" cy="6.23842" r="3.0" fill="red" stroke="black" stroke-width="1" />
 <line x1="333.591" y1="6.23842" x2="304.264" y2="4.61202" opacity="0.3" stroke="green" stroke-width="2" />
<circle cx="129.326" cy="517.757" r="3.0" fill="red" stroke="black" stroke-width="1" />
 <line x1="129.326" y1="517.757" x2="83.3472" y2="775.527" opacity="0.3" stroke="green" stroke-width="2" />
<circle cx="536.917" cy="473.523" r="3.0" fill="red" stroke="black" stroke-width="1" />
 <line x1="536.917" y1="473.523" x2="581.526" y2="458.774" opacity="0.3" stroke="green" stroke-width="2" />
</svg>
