<svg xmlns="http://www.w3.org/2000/svg" version="1.1" width="800" height="800">
"<rect x="0.0" y="0.0" width="800.0" height="800.0" fill ="white" /><circle cx="747.238" cy="268.876" r="6.0" fill ="blue" stroke="black" stroke-width="1" />
<circle cx="598.865" cy="659.598" r="6.0" fill ="blue" stroke="black" stroke-width="1" />
<circle cx="237.066" cy="528.994" r="6.0" fill ="blue" stroke="black" stroke-width="1" />
<circle cx="387.75" cy="652.028" r="6.0" fill ="blue" stroke="black" stroke-width="1" />
<circle cx="498.438" cy="178.188" r="6.0" fill ="blue" stroke="black" stroke-width="1" />
<circle cx="424.172" cy="251.712" r="6.0" fill ="blue" stroke="black" stroke-width="1" />
<circle cx="137.7" cy="17.8419" r="6.0" fill ="blue" stroke="black" stroke-width="1" />
<circle cx="105.803" cy="109.502" r="6.0" fill ="blue" stroke="black" stroke-width="1" />
<circle cx="699.036" cy="134.779" r="6.0" fill ="blue" stroke="black" stroke-width="1" />
<circle cx="446.762" cy="676.798" r="6.0" fill ="blue" stroke="black" stroke-width="1" />
<circle cx="741.742" cy="98.2464" r="6.0" fill ="blue" stroke="black" stroke-width="1" />
<circle cx="553.313" cy="58.1469" r="6.0" fill ="blue" stroke="black" stroke-width="1" />
<circle cx="603.314" cy="310.463" r="6.0" fill ="blue" stroke="black" stroke-width="1" />
<circle cx="42.7684" cy="562.362" r="6.0" fill ="blue" stroke="black" stroke-width="1" />
<circle cx="343.203" cy="147.731" r="6.0" fill ="blue" stroke="black" stroke-width="1" />
<circle cx="755.958" cy="299.059" r="6.0" fill ="blue" stroke="black" stroke-width="1" />
<circle cx="725.814" cy="598.842" r="6.0" fill ="blue" stroke="black" stroke-width="1" />
<circle cx="239.103" cy="299.765" r="6.0" fill ="blue" stroke="black" stroke-width="1" />
<circle cx="692.882" cy="539.423" r="6.0" fill ="blue" stroke="black" stroke-width="1" />
<circle cx="72.8093" cy="413.93" r="6.0" fill ="blue" stroke="black" stroke-width="1" />
<circle cx="635.236" cy="173.33" r="6.0" fill ="blue" stroke="black" stroke-width="1" />
<circle cx="128.121" cy="698.709" r="6.0" fill ="blue" stroke="black" stroke-width="1" />
<circle cx="681.814" cy="712.448" r="6.0" fill ="blue" stroke="black" stroke-width="1" />
<circle cx="418.126" cy="391.263" r="6.0" fill ="blue" stroke="black" stroke-width="1" />
<circle cx="354.524" cy="353.87" r="6.0" fill ="blue" stroke="black" stroke-width="1" />
<circle cx="235.83" cy="143.494" r="6.0" fill ="blue" stroke="black" stroke-width="1" />
<circle cx="375.869" cy="367.565" r="6.0" fill ="blue" stroke="black" stroke-width="1" />
<circle cx="494.627" cy="647.72" r="6.0" fill ="blue" stroke="black" stroke-width="1" />
<circle cx="366.072" cy="573.989" r="6.0" fill ="blue" stroke="black" stroke-width="1" />
<circle cx="134.148" cy="577.874" r="6.0" fill ="blue" stroke="black" stroke-width="1" />
<circle cx="181.429" cy="31.4033" r="3.0" fill="red" stroke="black" stroke-width="1" />
 <line x1="181.429" y1="31.4033" x2="137.7" y2="17.8419" opacity="0.3" stroke="green" stroke-width="2" />
<circle cx="386.931" cy="141.102" r="3.0" fill="red" stroke="black" stroke-width="1" />
 <line x1="386.931" y1="141.102" x2="343.203" y2="147.731" opacity="0.3" stroke="green" stroke-width="2" />
<circle cx="425.186" cy="84.0744" r="3.0" fill="red" stroke="black" stroke-width="1" />
 <line x1="425.186" y1="84.0744" x2="343.203" y2="147.731" opacity="0.3" stroke="green" stroke-width="2" />
<circle cx="799.173" cy="94.2" r="3.0" fill="red" stroke="black" stroke-width="1" />
 <line x1="799.173" y1="94.2" x2="741.742" y2="98.2464" opacity="0.3" stroke="green" stroke-width="2" />
<circle cx="776.42" cy="16.6313" r="3.0" fill="red" stroke="black" stroke-width="1" />
 <line x1="776.42" y1="16.6313" x2="741.742" y2="98.2464" opacity="0.3" stroke="green" stroke-width="2" />
<circle cx="625.406" cy="358.772" r="3.0" fill="red" stroke="black" stroke-width="1" />
 <line x1="625.406" y1="358.772" x2="603.314" y2="310.463" opacity="0.3" stroke="green" stroke-width="2" />
<circle cx="650.066" cy="81.3536" r="3.0" fill="red" stroke="black" stroke-width="1" />
 <line x1="650.066" y1="81.3536" x2="699.036" y2="134.779" opacity="0.3" stroke="green" stroke-width="2" />
<circle cx="136.679" cy="137.621" r="3.0" fill="red" stroke="black" stroke-width="1" />
 <line x1="136.679" y1="137.621" x2="105.803" y2="109.502" opacity="0.3" stroke="green" stroke-width="2" />
<circle cx="326.79" cy="80.864" r="3.0" fill="red" stroke="black" stroke-width="1" />
 <line x1="326.79" y1="80.864" x2="343.203" y2="147.731" opacity="0.3" stroke="green" stroke-width="2" />
<circle cx="200.82" cy="727.203" r="3.0" fill="red" stroke="black" stroke-width="1" />
 <line x1="200.82" y1="727.203" x2="128.121" y2="698.709" opacity="0.3" stroke="green" stroke-width="2" />
<circle cx="220.175" cy="442.588" r="3.0" fill="red" stroke="black" stroke-width="1" />
 <line x1="220.175" y1="442.588" x2="237.066" y2="528.994" opacity="0.3" stroke="green" stroke-width="2" />
<circle cx="275.203" cy="280.122" r="3.0" fill="red" stroke="black" stroke-width="1" />
 <line x1="275.203" y1="280.122" x2="239.103" y2="299.765" opacity="0.3" stroke="green" stroke-width="2" />
<circle cx="526.524" cy="203.923" r="3.0" fill="red" stroke="black" stroke-width="1" />
 <line x1="526.524" y1="203.923" x2="498.438" y2="178.188" opacity="0.3" stroke="green" stroke-width="2" />
<circle cx="0.134683" cy="753.877" r="3.0" fill="red" stroke="black" stroke-width="1" />
 <line x1="0.134683" y1="753.877" x2="128.121" y2="698.709" opacity="0.3" stroke="green" stroke-width="2" />
<circle cx="387.926" cy="774.518" r="3.0" fill="red" stroke="black" stroke-width="1" />
 <line x1="387.926" y1="774.518" x2="387.75" y2="652.028" opacity="0.3" stroke="green" stroke-width="2" />
<circle cx="186.5" cy="513.704" r="3.0" fill="red" stroke="black" stroke-width="1" />
 <line x1="186.5" y1="513.704" x2="237.066" y2="528.994" opacity="0.3" stroke="green" stroke-width="2" />
<circle cx="588.229" cy="116.775" r="3.0" fill="red" stroke="black" stroke-width="1" />
 <line x1="588.229" y1="116.775" x2="553.313" y2="58.1469" opacity="0.3" stroke="green" stroke-width="2" />
<circle cx="647.849" cy="387.076" r="3.0" fill="red" stroke="black" stroke-width="1" />
 <line x1="647.849" y1="387.076" x2="603.314" y2="310.463" opacity="0.3" stroke="green" stroke-width="2" />
<circle cx="579.59" cy="706.332" r="3.0" fill="red" stroke="black" stroke-width="1" />
 <line x1="579.59" y1="706.332" x2="598.865" y2="659.598" opacity="0.3" stroke="green" stroke-width="2" />
<circle cx="651.278" cy="144.438" r="3.0" fill="red" stroke="black" stroke-width="1" />
 <line x1="651.278" y1="144.438" x2="699.036" y2="134.779" opacity="0.3" stroke="green" stroke-width="2" />
<circle cx="498.831" cy="23.9305" r="3.0" fill="red" stroke="black" stroke-width="1" />
 <line x1="498.831" y1="23.9305" x2="553.313" y2="58.1469" opacity="0.3" stroke="green" stroke-width="2" />
<circle cx="798.192" cy="306.356" r="3.0" fill="red" stroke="black" stroke-width="1" />
 <line x1="798.192" y1="306.356" x2="755.958" y2="299.059" opacity="0.3" stroke="green" stroke-width="2" />
<circle cx="337.441" cy="294.488" r="3.0" fill="red" stroke="black" stroke-width="1" />
 <line x1="337.441" y1="294.488" x2="354.524" y2="353.87" opacity="0.3" stroke="green" stroke-width="2" />
<circle cx="144.723" cy="199.325" r="3.0" fill="red" stroke="black" stroke-width="1" />
 <line x1="144.723" y1="199.325" x2="105.803" y2="109.502" opacity="0.3" stroke="green" stroke-width="2" />
<circle cx="279.058" cy="518.758" r="3.0" fill="red" stroke="black" stroke-width="1" />
 <line x1="279.058" y1="518.758" x2="237.066" y2="528.994" opacity="0.3" stroke="green" stroke-width="2" />
<circle cx="352.343" cy="492.998" r="3.0" fill="red" stroke="black" stroke-width="1" />
 <line x1="352.343" y1="492.998" x2="366.072" y2="573.989" opacity="0.3" stroke="green" stroke-width="2" />
<circle cx="618.625" cy="625.736" r="3.0" fill="red" stroke="black" stroke-width="1" />
 <line x1="618.625" y1="625.736" x2="725.814" y2="598.842" opacity="0.3" stroke="green" stroke-width="2" />
<circle cx="229.314" cy="306.725" r="3.0" fill="red" stroke="black" stroke-width="1" />
 <line x1="229.314" y1="306.725" x2="239.103" y2="299.765" opacity="0.3" stroke="green" stroke-width="2" />
<circle cx="139.413" cy="94.9512" r="3.0" fill="red" stroke="black" stroke-width="1" />
 <line x1="139.413" y1="94.9512" x2="105.803" y2="109.502" opacity="0.3" stroke="green" stroke-width="2" />
<circle cx="777.242" cy="352.209" r="3.0" fill="red" stroke="black" stroke-width="1" />
 <line x1="777.242" y1="352.209" x2="692.882" y2="539.423" opacity="0.3" stroke="green" stroke-width="2" />
<circle cx="39.3274" cy="310.285" r="3.0" fill="red" stroke="black" stroke-width="1" />
 <line x1="39.3274" y1="310.285" x2="72.8093" y2="413.93" opacity="0.3" stroke="green" stroke-width="2" />
<circle cx="673.257" cy="174.821" r="3.0" fill="red" stroke="black" stroke-width="1" />
 <line x1="673.257" y1="174.821" x2="635.236" y2="173.33" opacity="0.3" stroke="green" stroke-width="2" />
<circle cx="601.592" cy="700.898" r="3.0" fill="red" stroke="black" stroke-width="1" />
 <line x1="601.592" y1="700.898" x2="598.865" y2="659.598" opacity="0.3" stroke="green" stroke-width="2" />
<circle cx="454.216" cy="649.746" r="3.0" fill="red" stroke="black" stroke-width="1" />
 <line x1="454.216" y1="649.746" x2="446.762" y2="676.798" opacity="0.3" stroke="green" stroke-width="2" />
<circle cx="1.65024" cy="682.235" r="3.0" fill="red" stroke="black" stroke-width="1" />
 <line x1="1.65024" y1="682.235" x2="446.762" y2="676.798" opacity="0.3" stroke="green" stroke-width="2" />
<circle cx="706.802" cy="713.878" r="3.0" fill="red" stroke="black" stroke-width="1" />
 <line x1="706.802" y1="713.878" x2="681.814" y2="712.448" opacity="0.3" stroke="green" stroke-width="2" />
<circle cx="733.72" cy="38.8434" r="3.0" fill="red" stroke="black" stroke-width="1" />
 <line x1="733.72" y1="38.8434" x2="741.742" y2="98.2464" opacity="0.3" stroke="green" stroke-width="2" />
<circle cx="610.048" cy="654.742" r="3.0" fill="red" stroke="black" stroke-width="1" />
 <line x1="610.048" y1="654.742" x2="598.865" y2="659.598" opacity="0.3" stroke="green" stroke-width="2" />
<circle cx="505.777" cy="317.312" r="3.0" fill="red" stroke="black" stroke-width="1" />
 <line x1="505.777" y1="317.312" x2="603.314" y2="310.463" opacity="0.3" stroke="green" stroke-width="2" />
<circle cx="156.294" cy="261.603" r="3.0" fill="red" stroke="black" stroke-width="1" />
 <line x1="156.294" y1="261.603" x2="239.103" y2="299.765" opacity="0.3" stroke="green" stroke-width="2" />
<circle cx="498.984" cy="259.274" r="3.0" fill="red" stroke="black" stroke-width="1" />
 <line x1="498.984" y1="259.274" x2="692.882" y2="539.423" opacity="0.3" stroke="green" stroke-width="2" />
<circle cx="93.3976" cy="344.923" r="3.0" fill="red" stroke="black" stroke-width="1" />
 <line x1="93.3976" y1="344.923" x2="72.8093" y2="413.93" opacity="0.3" stroke="green" stroke-width="2" />
<circle cx="492.595" cy="555.731" r="3.0" fill="red" stroke="black" stroke-width="1" />
 <line x1="492.595" y1="555.731" x2="387.75" y2="652.028" opacity="0.3" stroke="green" stroke-width="2" />
<circle cx="382.908" cy="592.446" r="3.0" fill="red" stroke="black" stroke-width="1" />
 <line x1="382.908" y1="592.446" x2="366.072" y2="573.989" opacity="0.3" stroke="green" stroke-width="2" />
<circle cx="354.884" cy="319.915" r="3.0" fill="red" stroke="black" stroke-width="1" />
 <line x1="354.884" y1="319.915" x2="354.524" y2="353.87" opacity="0.3" stroke="green" stroke-width="2" />
<circle cx="453.992" cy="390.293" r="3.0" fill="red" stroke="black" stroke-width="1" />
 <line x1="453.992" y1="390.293" x2="418.126" y2="391.263" opacity="0.3" stroke="green" stroke-width="2" />
<circle cx="326.534" cy="71.3792" r="3.0" fill="red" stroke="black" stroke-width="1" />
 <line x1="326.534" y1="71.3792" x2="343.203" y2="147.731" opacity="0.3" stroke="green" stroke-width="2" />
<circle cx="662.201" cy="147.361" r="3.0" fill="red" stroke="black" stroke-width="1" />
 <line x1="662.201" y1="147.361" x2="635.236" y2="173.33" opacity="0.3" stroke="green" stroke-width="2" />
<circle cx="130.769" cy="415.314" r="3.0" fill="red" stroke="black" stroke-width="1" />
 <line x1="130.769" y1="415.314" x2="72.8093" y2="413.93" opacity="0.3" stroke="green" stroke-width="2" />
<circle cx="409.886" cy="104.33" r="3.0" fill="red" stroke="black" stroke-width="1" />
 <line x1="409.886" y1="104.33" x2="498.438" y2="178.188" opacity="0.3" stroke="green" stroke-width="2" />
<circle cx="351.914" cy="17.7561" r="3.0" fill="red" stroke="black" stroke-width="1" />
 <line x1="351.914" y1="17.7561" x2="137.7" y2="17.8419" opacity="0.3" stroke="green" stroke-width="2" />
<circle cx="224.086" cy="258.708" r="3.0" fill="red" stroke="black" stroke-width="1" />
 <line x1="224.086" y1="258.708" x2="235.83" y2="143.494" opacity="0.3" stroke="green" stroke-width="2" />
<circle cx="700.778" cy="711.135" r="3.0" fill="red" stroke="black" stroke-width="1" />
 <line x1="700.778" y1="711.135" x2="681.814" y2="712.448" opacity="0.3" stroke="green" stroke-width="2" />
<circle cx="773.759" cy="745.843" r="3.0" fill="red" stroke="black" stroke-width="1" />
 <line x1="773.759" y1="745.843" x2="681.814" y2="712.448" opacity="0.3" stroke="green" stroke-width="2" />
<circle cx="500.474" cy="193.055" r="3.0" fill="red" stroke="black" stroke-width="1" />
 <line x1="500.474" y1="193.055" x2="498.438" y2="178.188" opacity="0.3" stroke="green" stroke-width="2" />
<circle cx="18.2441" cy="490.637" r="3.0" fill="red" stroke="black" stroke-width="1" />
 <line x1="18.2441" y1="490.637" x2="42.7684" y2="562.362" opacity="0.3" stroke="green" stroke-width="2" />
<circle cx="358.677" cy="211.378" r="3.0" fill="red" stroke="black" stroke-width="1" />
 <line x1="358.677" y1="211.378" x2="424.172" y2="251.712" opacity="0.3" stroke="green" stroke-width="2" />
<circle cx="162.54" cy="356.524" r="3.0" fill="red" stroke="black" stroke-width="1" />
 <line x1="162.54" y1="356.524" x2="239.103" y2="299.765" opacity="0.3" stroke="green" stroke-width="2" />
<circle cx="168.777" cy="153.371" r="3.0" fill="red" stroke="black" stroke-width="1" />
 <line x1="168.777" y1="153.371" x2="235.83" y2="143.494" opacity="0.3" stroke="green" stroke-width="2" />
<circle cx="478.638" cy="606.036" r="3.0" fill="red" stroke="black" stroke-width="1" />
 <line x1="478.638" y1="606.036" x2="366.072" y2="573.989" opacity="0.3" stroke="green" stroke-width="2" />
<circle cx="391.012" cy="396.463" r="3.0" fill="red" stroke="black" stroke-width="1" />
 <line x1="391.012" y1="396.463" x2="375.869" y2="367.565" opacity="0.3" stroke="green" stroke-width="2" />
<circle cx="608.81" cy="539.142" r="3.0" fill="red" stroke="black" stroke-width="1" />
 <line x1="608.81" y1="539.142" x2="692.882" y2="539.423" opacity="0.3" stroke="green" stroke-width="2" />
<circle cx="489.478" cy="787.312" r="3.0" fill="red" stroke="black" stroke-width="1" />
 <line x1="489.478" y1="787.312" x2="494.627" y2="647.72" opacity="0.3" stroke="green" stroke-width="2" />
<circle cx="786.686" cy="281.868" r="3.0" fill="red" stroke="black" stroke-width="1" />
 <line x1="786.686" y1="281.868" x2="134.148" y2="577.874" opacity="0.3" stroke="green" stroke-width="2" />
<circle cx="293.119" cy="45.8434" r="3.0" fill="red" stroke="black" stroke-width="1" />
 <line x1="293.119" y1="45.8434" x2="235.83" y2="143.494" opacity="0.3" stroke="green" stroke-width="2" />
<circle cx="488.071" cy="22.0634" r="3.0" fill="red" stroke="black" stroke-width="1" />
 <line x1="488.071" y1="22.0634" x2="553.313" y2="58.1469" opacity="0.3" stroke="green" stroke-width="2" />
<circle cx="717.882" cy="629.202" r="3.0" fill="red" stroke="black" stroke-width="1" />
 <line x1="717.882" y1="629.202" x2="725.814" y2="598.842" opacity="0.3" stroke="green" stroke-width="2" />
<circle cx="770.802" cy="237.096" r="3.0" fill="red" stroke="black" stroke-width="1" />
 <line x1="770.802" y1="237.096" x2="747.238" y2="268.876" opacity="0.3" stroke="green" stroke-width="2" />
<circle cx="131.483" cy="691.759" r="3.0" fill="red" stroke="black" stroke-width="1" />
 <line x1="131.483" y1="691.759" x2="128.121" y2="698.709" opacity="0.3" stroke="green" stroke-width="2" />
<circle cx="585.994" cy="299.372" r="3.0" fill="red" stroke="black" stroke-width="1" />
 <line x1="585.994" y1="299.372" x2="603.314" y2="310.463" opacity="0.3" stroke="green" stroke-width="2" />
<circle cx="722.207" cy="204.526" r="3.0" fill="red" stroke="black" stroke-width="1" />
 <line x1="722.207" y1="204.526" x2="747.238" y2="268.876" opacity="0.3" stroke="green" stroke-width="2" />
<circle cx="786.528" cy="584.055" r="3.0" fill="red" stroke="black" stroke-width="1" />
 <line x1="786.528" y1="584.055" x2="725.814" y2="598.842" opacity="0.3" stroke="green" stroke-width="2" />
<circle cx="533.219" cy="625.945" r="3.0" fill="red" stroke="black" stroke-width="1" />
 <line x1="533.219" y1="625.945" x2="494.627" y2="647.72" opacity="0.3" stroke="green" stroke-width="2" />
<circle cx="658.539" cy="631.714" r="3.0" fill="red" stroke="black" stroke-width="1" />
 <line x1="658.539" y1="631.714" x2="681.814" y2="712.448" opacity="0.3" stroke="green" stroke-width="2" />
<circle cx="441.881" cy="315.746" r="3.0" fill="red" stroke="black" stroke-width="1" />
 <line x1="441.881" y1="315.746" x2="424.172" y2="251.712" opacity="0.3" stroke="green" stroke-width="2" />
<circle cx="22.7478" cy="511.448" r="3.0" fill="red" stroke="black" stroke-width="1" />
 <line x1="22.7478" y1="511.448" x2="134.148" y2="577.874" opacity="0.3" stroke="green" stroke-width="2" />
<circle cx="797.366" cy="18.1832" r="3.0" fill="red" stroke="black" stroke-width="1" />
 <line x1="797.366" y1="18.1832" x2="741.742" y2="98.2464" opacity="0.3" stroke="green" stroke-width="2" />
<circle cx="638.327" cy="162.557" r="3.0" fill="red" stroke="black" stroke-width="1" />
 <line x1="638.327" y1="162.557" x2="635.236" y2="173.33" opacity="0.3" stroke="green" stroke-width="2" />
<circle cx="499.542" cy="647.268" r="3.0" fill="red" stroke="black" stroke-width="1" />
 <line x1="499.542" y1="647.268" x2="494.627" y2="647.72" opacity="0.3" stroke="green" stroke-width="2" />
<circle cx="555.67" cy="387.087" r="3.0" fill="red" stroke="black" stroke-width="1" />
 <line x1="555.67" y1="387.087" x2="603.314" y2="310.463" opacity="0.3" stroke="green" stroke-width="2" />
<circle cx="550.273" cy="10.5307" r="3.0" fill="red" stroke="black" stroke-width="1" />
 <line x1="550.273" y1="10.5307" x2="553.313" y2="58.1469" opacity="0.3" stroke="green" stroke-width="2" />
<circle cx="321.684" cy="31.5951" r="3.0" fill="red" stroke="black" stroke-width="1" />
 <line x1="321.684" y1="31.5951" x2="343.203" y2="147.731" opacity="0.3" stroke="green" stroke-width="2" />
<circle cx="261.99" cy="133.216" r="3.0" fill="red" stroke="black" stroke-width="1" />
 <line x1="261.99" y1="133.216" x2="235.83" y2="143.494" opacity="0.3" stroke="green" stroke-width="2" />
<circle cx="421.134" cy="294.415" r="3.0" fill="red" stroke="black" stroke-width="1" />
 <line x1="421.134" y1="294.415" x2="424.172" y2="251.712" opacity="0.3" stroke="green" stroke-width="2" />
<circle cx="347.836" cy="362.88" r="3.0" fill="red" stroke="black" stroke-width="1" />
 <line x1="347.836" y1="362.88" x2="354.524" y2="353.87" opacity="0.3" stroke="green" stroke-width="2" />
<circle cx="211.898" cy="38.5619" r="3.0" fill="red" stroke="black" stroke-width="1" />
 <line x1="211.898" y1="38.5619" x2="137.7" y2="17.8419" opacity="0.3" stroke="green" stroke-width="2" />
<circle cx="443.173" cy="631.923" r="3.0" fill="red" stroke="black" stroke-width="1" />
 <line x1="443.173" y1="631.923" x2="387.75" y2="652.028" opacity="0.3" stroke="green" stroke-width="2" />
<circle cx="325.743" cy="361.264" r="3.0" fill="red" stroke="black" stroke-width="1" />
 <line x1="325.743" y1="361.264" x2="354.524" y2="353.87" opacity="0.3" stroke="green" stroke-width="2" />
<circle cx="97.0744" cy="17.6995" r="3.0" fill="red" stroke="black" stroke-width="1" />
 <line x1="97.0744" y1="17.6995" x2="137.7" y2="17.8419" opacity="0.3" stroke="green" stroke-width="2" />
<circle cx="498.292" cy="482.838" r="3.0" fill="red" stroke="black" stroke-width="1" />
 <line x1="498.292" y1="482.838" x2="418.126" y2="391.263" opacity="0.3" stroke="green" stroke-width="2" />
<circle cx="610.297" cy="652.199" r="3.0" fill="red" stroke="black" stroke-width="1" />
 <line x1="610.297" y1="652.199" x2="598.865" y2="659.598" opacity="0.3" stroke="green" stroke-width="2" />
<circle cx="725.023" cy="325.231" r="3.0" fill="red" stroke="black" stroke-width="1" />
 <line x1="725.023" y1="325.231" x2="755.958" y2="299.059" opacity="0.3" stroke="green" stroke-width="2" />
<circle cx="37.176" cy="522.033" r="3.0" fill="red" stroke="black" stroke-width="1" />
 <line x1="37.176" y1="522.033" x2="42.7684" y2="562.362" opacity="0.3" stroke="green" stroke-width="2" />
<circle cx="623.517" cy="734.404" r="3.0" fill="red" stroke="black" stroke-width="1" />
 <line x1="623.517" y1="734.404" x2="598.865" y2="659.598" opacity="0.3" stroke="green" stroke-width="2" />
<circle cx="738.359" cy="702.972" r="3.0" fill="red" stroke="black" stroke-width="1" />
 <line x1="738.359" y1="702.972" x2="681.814" y2="712.448" opacity="0.3" stroke="green" stroke-width="2" />
<circle cx="505.407" cy="678.493" r="3.0" fill="red" stroke="black" stroke-width="1" />
 <line x1="505.407" y1="678.493" x2="446.762" y2="676.798" opacity="0.3" stroke="green" stroke-width="2" />
<circle cx="347.294" cy="44.8614" r="3.0" fill="red" stroke="black" stroke-width="1" />
 <line x1="347.294" y1="44.8614" x2="235.83" y2="143.494" opacity="0.3" stroke="green" stroke-width="2" />
<circle cx="764.672" cy="157.18" r="3.0" fill="red" stroke="black" stroke-width="1" />
 <line x1="764.672" y1="157.18" x2="699.036" y2="134.779" opacity="0.3" stroke="green" stroke-width="2" />
<circle cx="132.028" cy="703.131" r="3.0" fill="red" stroke="black" stroke-width="1" />
 <line x1="132.028" y1="703.131" x2="128.121" y2="698.709" opacity="0.3" stroke="green" stroke-width="2" />
<circle cx="335.358" cy="336.252" r="3.0" fill="red" stroke="black" stroke-width="1" />
 <line x1="335.358" y1="336.252" x2="354.524" y2="353.87" opacity="0.3" stroke="green" stroke-width="2" />
<circle cx="59.9951" cy="450.466" r="3.0" fill="red" stroke="black" stroke-width="1" />
 <line x1="59.9951" y1="450.466" x2="42.7684" y2="562.362" opacity="0.3" stroke="green" stroke-width="2" />
<circle cx="566.718" cy="639.834" r="3.0" fill="red" stroke="black" stroke-width="1" />
 <line x1="566.718" y1="639.834" x2="598.865" y2="659.598" opacity="0.3" stroke="green" stroke-width="2" />
<circle cx="460.474" cy="66.7958" r="3.0" fill="red" stroke="black" stroke-width="1" />
 <line x1="460.474" y1="66.7958" x2="699.036" y2="134.779" opacity="0.3" stroke="green" stroke-width="2" />
<circle cx="729.766" cy="87.1472" r="3.0" fill="red" stroke="black" stroke-width="1" />
 <line x1="729.766" y1="87.1472" x2="741.742" y2="98.2464" opacity="0.3" stroke="green" stroke-width="2" />
<circle cx="337.13" cy="253.795" r="3.0" fill="red" stroke="black" stroke-width="1" />
 <line x1="337.13" y1="253.795" x2="375.869" y2="367.565" opacity="0.3" stroke="green" stroke-width="2" />
<circle cx="156.426" cy="358.793" r="3.0" fill="red" stroke="black" stroke-width="1" />
 <line x1="156.426" y1="358.793" x2="239.103" y2="299.765" opacity="0.3" stroke="green" stroke-width="2" />
<circle cx="125.146" cy="501.059" r="3.0" fill="red" stroke="black" stroke-width="1" />
 <line x1="125.146" y1="501.059" x2="134.148" y2="577.874" opacity="0.3" stroke="green" stroke-width="2" />
<circle cx="505.353" cy="684.734" r="3.0" fill="red" stroke="black" stroke-width="1" />
 <line x1="505.353" y1="684.734" x2="494.627" y2="647.72" opacity="0.3" stroke="green" stroke-width="2" />
<circle cx="211.006" cy="302.638" r="3.0" fill="red" stroke="black" stroke-width="1" />
 <line x1="211.006" y1="302.638" x2="239.103" y2="299.765" opacity="0.3" stroke="green" stroke-width="2" />
<circle cx="222.288" cy="541.702" r="3.0" fill="red" stroke="black" stroke-width="1" />
 <line x1="222.288" y1="541.702" x2="237.066" y2="528.994" opacity="0.3" stroke="green" stroke-width="2" />
<circle cx="571.424" cy="407.439" r="3.0" fill="red" stroke="black" stroke-width="1" />
 <line x1="571.424" y1="407.439" x2="603.314" y2="310.463" opacity="0.3" stroke="green" stroke-width="2" />
<circle cx="666.691" cy="503.462" r="3.0" fill="red" stroke="black" stroke-width="1" />
 <line x1="666.691" y1="503.462" x2="692.882" y2="539.423" opacity="0.3" stroke="green" stroke-width="2" />
<circle cx="63.6342" cy="82.0768" r="3.0" fill="red" stroke="black" stroke-width="1" />
 <line x1="63.6342" y1="82.0768" x2="105.803" y2="109.502" opacity="0.3" stroke="green" stroke-width="2" />
<circle cx="770.316" cy="581.782" r="3.0" fill="red" stroke="black" stroke-width="1" />
 <line x1="770.316" y1="581.782" x2="725.814" y2="598.842" opacity="0.3" stroke="green" stroke-width="2" />
<circle cx="717.477" cy="372.711" r="3.0" fill="red" stroke="black" stroke-width="1" />
 <line x1="717.477" y1="372.711" x2="747.238" y2="268.876" opacity="0.3" stroke="green" stroke-width="2" />
<circle cx="603.941" cy="559.441" r="3.0" fill="red" stroke="black" stroke-width="1" />
 <line x1="603.941" y1="559.441" x2="692.882" y2="539.423" opacity="0.3" stroke="green" stroke-width="2" />
<circle cx="482.455" cy="714.554" r="3.0" fill="red" stroke="black" stroke-width="1" />
 <line x1="482.455" y1="714.554" x2="494.627" y2="647.72" opacity="0.3" stroke="green" stroke-width="2" />
<circle cx="611.19" cy="706.271" r="3.0" fill="red" stroke="black" stroke-width="1" />
 <line x1="611.19" y1="706.271" x2="598.865" y2="659.598" opacity="0.3" stroke="green" stroke-width="2" />
<circle cx="665.026" cy="526.866" r="3.0" fill="red" stroke="black" stroke-width="1" />
 <line x1="665.026" y1="526.866" x2="692.882" y2="539.423" opacity="0.3" stroke="green" stroke-width="2" />
<circle cx="28.6878" cy="415.37" r="3.0" fill="red" stroke="black" stroke-width="1" />
 <line x1="28.6878" y1="415.37" x2="72.8093" y2="413.93" opacity="0.3" stroke="green" stroke-width="2" />
<circle cx="457.225" cy="700.212" r="3.0" fill="red" stroke="black" stroke-width="1" />
 <line x1="457.225" y1="700.212" x2="446.762" y2="676.798" opacity="0.3" stroke="green" stroke-width="2" />
<circle cx="107.472" cy="361.181" r="3.0" fill="red" stroke="black" stroke-width="1" />
 <line x1="107.472" y1="361.181" x2="72.8093" y2="413.93" opacity="0.3" stroke="green" stroke-width="2" />
<circle cx="724.226" cy="702.137" r="3.0" fill="red" stroke="black" stroke-width="1" />
 <line x1="724.226" y1="702.137" x2="681.814" y2="712.448" opacity="0.3" stroke="green" stroke-width="2" />
<circle cx="788.214" cy="268.005" r="3.0" fill="red" stroke="black" stroke-width="1" />
 <line x1="788.214" y1="268.005" x2="755.958" y2="299.059" opacity="0.3" stroke="green" stroke-width="2" />
<circle cx="486.674" cy="405.282" r="3.0" fill="red" stroke="black" stroke-width="1" />
 <line x1="486.674" y1="405.282" x2="424.172" y2="251.712" opacity="0.3" stroke="green" stroke-width="2" />
<circle cx="116.116" cy="524.603" r="3.0" fill="red" stroke="black" stroke-width="1" />
 <line x1="116.116" y1="524.603" x2="134.148" y2="577.874" opacity="0.3" stroke="green" stroke-width="2" />
<circle cx="492.842" cy="429.131" r="3.0" fill="red" stroke="black" stroke-width="1" />
 <line x1="492.842" y1="429.131" x2="418.126" y2="391.263" opacity="0.3" stroke="green" stroke-width="2" />
<circle cx="151.43" cy="115.922" r="3.0" fill="red" stroke="black" stroke-width="1" />
 <line x1="151.43" y1="115.922" x2="105.803" y2="109.502" opacity="0.3" stroke="green" stroke-width="2" />
<circle cx="196.672" cy="103.463" r="3.0" fill="red" stroke="black" stroke-width="1" />
 <line x1="196.672" y1="103.463" x2="235.83" y2="143.494" opacity="0.3" stroke="green" stroke-width="2" />
<circle cx="273.983" cy="470.887" r="3.0" fill="red" stroke="black" stroke-width="1" />
 <line x1="273.983" y1="470.887" x2="237.066" y2="528.994" opacity="0.3" stroke="green" stroke-width="2" />
<circle cx="230.808" cy="554.81" r="3.0" fill="red" stroke="black" stroke-width="1" />
 <line x1="230.808" y1="554.81" x2="237.066" y2="528.994" opacity="0.3" stroke="green" stroke-width="2" />
<circle cx="668.694" cy="73.1232" r="3.0" fill="red" stroke="black" stroke-width="1" />
 <line x1="668.694" y1="73.1232" x2="553.313" y2="58.1469" opacity="0.3" stroke="green" stroke-width="2" />
<circle cx="583.847" cy="734.758" r="3.0" fill="red" stroke="black" stroke-width="1" />
 <line x1="583.847" y1="734.758" x2="598.865" y2="659.598" opacity="0.3" stroke="green" stroke-width="2" />
<circle cx="213.41" cy="475.55" r="3.0" fill="red" stroke="black" stroke-width="1" />
 <line x1="213.41" y1="475.55" x2="237.066" y2="528.994" opacity="0.3" stroke="green" stroke-width="2" />
<circle cx="143.371" cy="504.833" r="3.0" fill="red" stroke="black" stroke-width="1" />
 <line x1="143.371" y1="504.833" x2="237.066" y2="528.994" opacity="0.3" stroke="green" stroke-width="2" />
<circle cx="86.5032" cy="92.196" r="3.0" fill="red" stroke="black" stroke-width="1" />
 <line x1="86.5032" y1="92.196" x2="343.203" y2="147.731" opacity="0.3" stroke="green" stroke-width="2" />
<circle cx="92.432" cy="636.95" r="3.0" fill="red" stroke="black" stroke-width="1" />
 <line x1="92.432" y1="636.95" x2="128.121" y2="698.709" opacity="0.3" stroke="green" stroke-width="2" />
<circle cx="390.09" cy="144.307" r="3.0" fill="red" stroke="black" stroke-width="1" />
 <line x1="390.09" y1="144.307" x2="343.203" y2="147.731" opacity="0.3" stroke="green" stroke-width="2" />
<circle cx="720.1" cy="123.726" r="3.0" fill="red" stroke="black" stroke-width="1" />
 <line x1="720.1" y1="123.726" x2="699.036" y2="134.779" opacity="0.3" stroke="green" stroke-width="2" />
<circle cx="86.7816" cy="762.449" r="3.0" fill="red" stroke="black" stroke-width="1" />
 <line x1="86.7816" y1="762.449" x2="128.121" y2="698.709" opacity="0.3" stroke="green" stroke-width="2" />
<circle cx="690.674" cy="727.774" r="3.0" fill="red" stroke="black" stroke-width="1" />
 <line x1="690.674" y1="727.774" x2="681.814" y2="712.448" opacity="0.3" stroke="green" stroke-width="2" />
<circle cx="402.079" cy="514.318" r="3.0" fill="red" stroke="black" stroke-width="1" />
 <line x1="402.079" y1="514.318" x2="366.072" y2="573.989" opacity="0.3" stroke="green" stroke-width="2" />
<circle cx="689.469" cy="49.2222" r="3.0" fill="red" stroke="black" stroke-width="1" />
 <line x1="689.469" y1="49.2222" x2="741.742" y2="98.2464" opacity="0.3" stroke="green" stroke-width="2" />
<circle cx="52.7233" cy="600.801" r="3.0" fill="red" stroke="black" stroke-width="1" />
 <line x1="52.7233" y1="600.801" x2="42.7684" y2="562.362" opacity="0.3" stroke="green" stroke-width="2" />
<circle cx="393.43" cy="516.855" r="3.0" fill="red" stroke="black" stroke-width="1" />
 <line x1="393.43" y1="516.855" x2="366.072" y2="573.989" opacity="0.3" stroke="green" stroke-width="2" />
<circle cx="740.747" cy="368.066" r="3.0" fill="red" stroke="black" stroke-width="1" />
 <line x1="740.747" y1="368.066" x2="747.238" y2="268.876" opacity="0.3" stroke="green" stroke-width="2" />
<circle cx="617.524" cy="786.359" r="3.0" fill="red" stroke="black" stroke-width="1" />
 <line x1="617.524" y1="786.359" x2="494.627" y2="647.72" opacity="0.3" stroke="green" stroke-width="2" />
<circle cx="717.877" cy="272.452" r="3.0" fill="red" stroke="black" stroke-width="1" />
 <line x1="717.877" y1="272.452" x2="747.238" y2="268.876" opacity="0.3" stroke="green" stroke-width="2" />
<circle cx="420.073" cy="388.716" r="3.0" fill="red" stroke="black" stroke-width="1" />
 <line x1="420.073" y1="388.716" x2="418.126" y2="391.263" opacity="0.3" stroke="green" stroke-width="2" />
<circle cx="370.727" cy="352.455" r="3.0" fill="red" stroke="black" stroke-width="1" />
 <line x1="370.727" y1="352.455" x2="375.869" y2="367.565" opacity="0.3" stroke="green" stroke-width="2" />
<circle cx="74.2985" cy="740.486" r="3.0" fill="red" stroke="black" stroke-width="1" />
 <line x1="74.2985" y1="740.486" x2="128.121" y2="698.709" opacity="0.3" stroke="green" stroke-width="2" />
<circle cx="315.236" cy="633.725" r="3.0" fill="red" stroke="black" stroke-width="1" />
 <line x1="315.236" y1="633.725" x2="387.75" y2="652.028" opacity="0.3" stroke="green" stroke-width="2" />
<circle cx="379.772" cy="226.586" r="3.0" fill="red" stroke="black" stroke-width="1" />
 <line x1="379.772" y1="226.586" x2="424.172" y2="251.712" opacity="0.3" stroke="green" stroke-width="2" />
<circle cx="530.599" cy="145.407" r="3.0" fill="red" stroke="black" stroke-width="1" />
 <line x1="530.599" y1="145.407" x2="498.438" y2="178.188" opacity="0.3" stroke="green" stroke-width="2" />
<circle cx="275.969" cy="760.886" r="3.0" fill="red" stroke="black" stroke-width="1" />
 <line x1="275.969" y1="760.886" x2="128.121" y2="698.709" opacity="0.3" stroke="green" stroke-width="2" />
<circle cx="160.046" cy="43.1933" r="3.0" fill="red" stroke="black" stroke-width="1" />
 <line x1="160.046" y1="43.1933" x2="137.7" y2="17.8419" opacity="0.3" stroke="green" stroke-width="2" />
<circle cx="176.839" cy="501.146" r="3.0" fill="red" stroke="black" stroke-width="1" />
 <line x1="176.839" y1="501.146" x2="72.8093" y2="413.93" opacity="0.3" stroke="green" stroke-width="2" />
<circle cx="386.624" cy="626.147" r="3.0" fill="red" stroke="black" stroke-width="1" />
 <line x1="386.624" y1="626.147" x2="387.75" y2="652.028" opacity="0.3" stroke="green" stroke-width="2" />
<circle cx="770.512" cy="590.631" r="3.0" fill="red" stroke="black" stroke-width="1" />
 <line x1="770.512" y1="590.631" x2="725.814" y2="598.842" opacity="0.3" stroke="green" stroke-width="2" />
<circle cx="77.9519" cy="714.354" r="3.0" fill="red" stroke="black" stroke-width="1" />
 <line x1="77.9519" y1="714.354" x2="755.958" y2="299.059" opacity="0.3" stroke="green" stroke-width="2" />
<circle cx="286.475" cy="739.161" r="3.0" fill="red" stroke="black" stroke-width="1" />
 <line x1="286.475" y1="739.161" x2="387.75" y2="652.028" opacity="0.3" stroke="green" stroke-width="2" />
<circle cx="591.381" cy="194.924" r="3.0" fill="red" stroke="black" stroke-width="1" />
 <line x1="591.381" y1="194.924" x2="603.314" y2="310.463" opacity="0.3" stroke="green" stroke-width="2" />
<circle cx="687.291" cy="319.275" r="3.0" fill="red" stroke="black" stroke-width="1" />
 <line x1="687.291" y1="319.275" x2="747.238" y2="268.876" opacity="0.3" stroke="green" stroke-width="2" />
<circle cx="531.786" cy="746.89" r="3.0" fill="red" stroke="black" stroke-width="1" />
 <line x1="531.786" y1="746.89" x2="494.627" y2="647.72" opacity="0.3" stroke="green" stroke-width="2" />
<circle cx="795.127" cy="112.962" r="3.0" fill="red" stroke="black" stroke-width="1" />
 <line x1="795.127" y1="112.962" x2="699.036" y2="134.779" opacity="0.3" stroke="green" stroke-width="2" />
<circle cx="326.076" cy="500.639" r="3.0" fill="red" stroke="black" stroke-width="1" />
 <line x1="326.076" y1="500.639" x2="237.066" y2="528.994" opacity="0.3" stroke="green" stroke-width="2" />
<circle cx="452.965" cy="348.49" r="3.0" fill="red" stroke="black" stroke-width="1" />
 <line x1="452.965" y1="348.49" x2="418.126" y2="391.263" opacity="0.3" stroke="green" stroke-width="2" />
<circle cx="633.353" cy="143.913" r="3.0" fill="red" stroke="black" stroke-width="1" />
 <line x1="633.353" y1="143.913" x2="635.236" y2="173.33" opacity="0.3" stroke="green" stroke-width="2" />
<circle cx="362.733" cy="337.503" r="3.0" fill="red" stroke="black" stroke-width="1" />
 <line x1="362.733" y1="337.503" x2="375.869" y2="367.565" opacity="0.3" stroke="green" stroke-width="2" />
<circle cx="417.192" cy="591.391" r="3.0" fill="red" stroke="black" stroke-width="1" />
 <line x1="417.192" y1="591.391" x2="494.627" y2="647.72" opacity="0.3" stroke="green" stroke-width="2" />
<circle cx="226.467" cy="232.71" r="3.0" fill="red" stroke="black" stroke-width="1" />
 <line x1="226.467" y1="232.71" x2="235.83" y2="143.494" opacity="0.3" stroke="green" stroke-width="2" />
<circle cx="438.438" cy="66.0366" r="3.0" fill="red" stroke="black" stroke-width="1" />
 <line x1="438.438" y1="66.0366" x2="755.958" y2="299.059" opacity="0.3" stroke="green" stroke-width="2" />
<circle cx="156.846" cy="78.3707" r="3.0" fill="red" stroke="black" stroke-width="1" />
 <line x1="156.846" y1="78.3707" x2="498.438" y2="178.188" opacity="0.3" stroke="green" stroke-width="2" />
<circle cx="53.6512" cy="3.82989" r="3.0" fill="red" stroke="black" stroke-width="1" />
 <line x1="53.6512" y1="3.82989" x2="137.7" y2="17.8419" opacity="0.3" stroke="green" stroke-width="2" />
<circle cx="217.47" cy="110.346" r="3.0" fill="red" stroke="black" stroke-width="1" />
 <line x1="217.47" y1="110.346" x2="235.83" y2="143.494" opacity="0.3" stroke="green" stroke-width="2" />
<circle cx="762.716" cy="540.661" r="3.0" fill="red" stroke="black" stroke-width="1" />
 <line x1="762.716" y1="540.661" x2="725.814" y2="598.842" opacity="0.3" stroke="green" stroke-width="2" />
<circle cx="483.939" cy="165.202" r="3.0" fill="red" stroke="black" stroke-width="1" />
 <line x1="483.939" y1="165.202" x2="498.438" y2="178.188" opacity="0.3" stroke="green" stroke-width="2" />
<circle cx="5.39621" cy="43.7956" r="3.0" fill="red" stroke="black" stroke-width="1" />
 <line x1="5.39621" y1="43.7956" x2="105.803" y2="109.502" opacity="0.3" stroke="green" stroke-width="2" />
<circle cx="7.89312" cy="510.007" r="3.0" fill="red" stroke="black" stroke-width="1" />
 <line x1="7.89312" y1="510.007" x2="42.7684" y2="562.362" opacity="0.3" stroke="green" stroke-width="2" />
<circle cx="592.274" cy="475.478" r="3.0" fill="red" stroke="black" stroke-width="1" />
 <line x1="592.274" y1="475.478" x2="725.814" y2="598.842" opacity="0.3" stroke="green" stroke-width="2" />
</svg>
