<svg xmlns="http://www.w3.org/2000/svg" version="1.1" width="800" height="800">
"<rect x="0.0" y="0.0" width="800.0" height="800.0" fill ="white" /><circle cx="528.711" cy="565.633" r="6.0" fill ="blue" stroke="black" stroke-width="1" />
<circle cx="315.281" cy="657.19" r="6.0" fill ="blue" stroke="black" stroke-width="1" />
<circle cx="374.722" cy="154.858" r="6.0" fill ="blue" stroke="black" stroke-width="1" />
<circle cx="740.751" cy="733.874" r="6.0" fill ="blue" stroke="black" stroke-width="1" />
<circle cx="202.921" cy="605.126" r="6.0" fill ="blue" stroke="black" stroke-width="1" />
<circle cx="386.947" cy="43.7461" r="6.0" fill ="blue" stroke="black" stroke-width="1" />
<circle cx="604.609" cy="519.652" r="6.0" fill ="blue" stroke="black" stroke-width="1" />
<circle cx="522.831" cy="378.269" r="6.0" fill ="blue" stroke="black" stroke-width="1" />
<circle cx="186.833" cy="302.392" r="6.0" fill ="blue" stroke="black" stroke-width="1" />
<circle cx="688.874" cy="150.612" r="6.0" fill ="blue" stroke="black" stroke-width="1" />
<circle cx="87.2344" cy="38.4353" r="6.0" fill ="blue" stroke="black" stroke-width="1" />
<circle cx="677.403" cy="255.92" r="6.0" fill ="blue" stroke="black" stroke-width="1" />
<circle cx="85.3504" cy="381.68" r="6.0" fill ="blue" stroke="black" stroke-width="1" />
<circle cx="790.273" cy="641.194" r="6.0" fill ="blue" stroke="black" stroke-width="1" />
<circle cx="636.763" cy="703.11" r="6.0" fill ="blue" stroke="black" stroke-width="1" />
<circle cx="60.7328" cy="453.512" r="6.0" fill ="blue" stroke="black" stroke-width="1" />
<circle cx="392.267" cy="722.898" r="6.0" fill ="blue" stroke="black" stroke-width="1" />
<circle cx="572.246" cy="360.856" r="6.0" fill ="blue" stroke="black" stroke-width="1" />
<circle cx="259.03" cy="450.004" r="6.0" fill ="blue" stroke="black" stroke-width="1" />
<circle cx="420.751" cy="248.894" r="6.0" fill ="blue" stroke="black" stroke-width="1" />
<circle cx="630.782" cy="490.974" r="6.0" fill ="blue" stroke="black" stroke-width="1" />
<circle cx="244.517" cy="91.1608" r="6.0" fill ="blue" stroke="black" stroke-width="1" />
<circle cx="141.816" cy="678.07" r="6.0" fill ="blue" stroke="black" stroke-width="1" />
<circle cx="505.334" cy="668.05" r="6.0" fill ="blue" stroke="black" stroke-width="1" />
<circle cx="434.82" cy="417.788" r="6.0" fill ="blue" stroke="black" stroke-width="1" />
<circle cx="416.087" cy="648.401" r="6.0" fill ="blue" stroke="black" stroke-width="1" />
<circle cx="27.2387" cy="726.424" r="6.0" fill ="blue" stroke="black" stroke-width="1" />
<circle cx="297.471" cy="124.016" r="6.0" fill ="blue" stroke="black" stroke-width="1" />
<circle cx="61.2546" cy="593.523" r="6.0" fill ="blue" stroke="black" stroke-width="1" />
<circle cx="109.037" cy="255.363" r="6.0" fill ="blue" stroke="black" stroke-width="1" />
<circle cx="288.448" cy="324.502" r="6.0" fill ="blue" stroke="black" stroke-width="1" />
<circle cx="307.215" cy="766.59" r="6.0" fill ="blue" stroke="black" stroke-width="1" />
<circle cx="764.577" cy="369.434" r="6.0" fill ="blue" stroke="black" stroke-width="1" />
<circle cx="646.03" cy="46.6939" r="6.0" fill ="blue" stroke="black" stroke-width="1" />
<circle cx="381.222" cy="479.079" r="6.0" fill ="blue" stroke="black" stroke-width="1" />
<circle cx="9.15464" cy="19.2906" r="3.0" fill="red" stroke="black" stroke-width="1" />
 <line x1="9.15464" y1="19.2906" x2="87.2344" y2="38.4353" opacity="0.3" stroke="green" stroke-width="2" />
<circle cx="33.1238" cy="377.864" r="3.0" fill="red" stroke="black" stroke-width="1" />
 <line x1="33.1238" y1="377.864" x2="60.7328" y2="453.512" opacity="0.3" stroke="green" stroke-width="2" />
<circle cx="426.694" cy="392.457" r="3.0" fill="red" stroke="black" stroke-width="1" />
 <line x1="426.694" y1="392.457" x2="434.82" y2="417.788" opacity="0.3" stroke="green" stroke-width="2" />
<circle cx="181.55" cy="451.908" r="3.0" fill="red" stroke="black" stroke-width="1" />
 <line x1="181.55" y1="451.908" x2="259.03" y2="450.004" opacity="0.3" stroke="green" stroke-width="2" />
<circle cx="325.332" cy="423.408" r="3.0" fill="red" stroke="black" stroke-width="1" />
 <line x1="325.332" y1="423.408" x2="434.82" y2="417.788" opacity="0.3" stroke="green" stroke-width="2" />
<circle cx="50.1924" cy="324.964" r="3.0" fill="red" stroke="black" stroke-width="1" />
 <line x1="50.1924" y1="324.964" x2="85.3504" y2="381.68" opacity="0.3" stroke="green" stroke-width="2" />
<circle cx="31.7602" cy="715.41" r="3.0" fill="red" stroke="black" stroke-width="1" />
 <line x1="31.7602" y1="715.41" x2="27.2387" y2="726.424" opacity="0.3" stroke="green" stroke-width="2" />
<circle cx="537.174" cy="443.676" r="3.0" fill="red" stroke="black" stroke-width="1" />
 <line x1="537.174" y1="443.676" x2="522.831" y2="378.269" opacity="0.3" stroke="green" stroke-width="2" />
<circle cx="508.914" cy="43.6186" r="3.0" fill="red" stroke="black" stroke-width="1" />
 <line x1="508.914" y1="43.6186" x2="386.947" y2="43.7461" opacity="0.3" stroke="green" stroke-width="2" />
<circle cx="439.738" cy="431.049" r="3.0" fill="red" stroke="black" stroke-width="1" />
 <line x1="439.738" y1="431.049" x2="434.82" y2="417.788" opacity="0.3" stroke="green" stroke-width="2" />
<circle cx="642.124" cy="191.764" r="3.0" fill="red" stroke="black" stroke-width="1" />
 <line x1="642.124" y1="191.764" x2="688.874" y2="150.612" opacity="0.3" stroke="green" stroke-width="2" />
<circle cx="235.69" cy="590.353" r="3.0" fill="red" stroke="black" stroke-width="1" />
 <line x1="235.69" y1="590.353" x2="202.921" y2="605.126" opacity="0.3" stroke="green" stroke-width="2" />
<circle cx="42.8378" cy="16.3626" r="3.0" fill="red" stroke="black" stroke-width="1" />
 <line x1="42.8378" y1="16.3626" x2="87.2344" y2="38.4353" opacity="0.3" stroke="green" stroke-width="2" />
<circle cx="792.299" cy="665.93" r="3.0" fill="red" stroke="black" stroke-width="1" />
 <line x1="792.299" y1="665.93" x2="790.273" y2="641.194" opacity="0.3" stroke="green" stroke-width="2" />
<circle cx="563.706" cy="319.081" r="3.0" fill="red" stroke="black" stroke-width="1" />
 <line x1="563.706" y1="319.081" x2="572.246" y2="360.856" opacity="0.3" stroke="green" stroke-width="2" />
<circle cx="210.521" cy="381.452" r="3.0" fill="red" stroke="black" stroke-width="1" />
 <line x1="210.521" y1="381.452" x2="186.833" y2="302.392" opacity="0.3" stroke="green" stroke-width="2" />
<circle cx="503.706" cy="422.67" r="3.0" fill="red" stroke="black" stroke-width="1" />
 <line x1="503.706" y1="422.67" x2="522.831" y2="378.269" opacity="0.3" stroke="green" stroke-width="2" />
<circle cx="256.215" cy="288.585" r="3.0" fill="red" stroke="black" stroke-width="1" />
 <line x1="256.215" y1="288.585" x2="186.833" y2="302.392" opacity="0.3" stroke="green" stroke-width="2" />
<circle cx="646.414" cy="677.302" r="3.0" fill="red" stroke="black" stroke-width="1" />
 <line x1="646.414" y1="677.302" x2="636.763" y2="703.11" opacity="0.3" stroke="green" stroke-width="2" />
<circle cx="341.26" cy="725.21" r="3.0" fill="red" stroke="black" stroke-width="1" />
 <line x1="341.26" y1="725.21" x2="392.267" y2="722.898" opacity="0.3" stroke="green" stroke-width="2" />
<circle cx="46.3198" cy="31.2476" r="3.0" fill="red" stroke="black" stroke-width="1" />
 <line x1="46.3198" y1="31.2476" x2="87.2344" y2="38.4353" opacity="0.3" stroke="green" stroke-width="2" />
<circle cx="445.163" cy="81.6432" r="3.0" fill="red" stroke="black" stroke-width="1" />
 <line x1="445.163" y1="81.6432" x2="386.947" y2="43.7461" opacity="0.3" stroke="green" stroke-width="2" />
<circle cx="646.664" cy="434.889" r="3.0" fill="red" stroke="black" stroke-width="1" />
 <line x1="646.664" y1="434.889" x2="630.782" y2="490.974" opacity="0.3" stroke="green" stroke-width="2" />
<circle cx="239.108" cy="113.546" r="3.0" fill="red" stroke="black" stroke-width="1" />
 <line x1="239.108" y1="113.546" x2="244.517" y2="91.1608" opacity="0.3" stroke="green" stroke-width="2" />
<circle cx="762.183" cy="665.148" r="3.0" fill="red" stroke="black" stroke-width="1" />
 <line x1="762.183" y1="665.148" x2="790.273" y2="641.194" opacity="0.3" stroke="green" stroke-width="2" />
<circle cx="160.743" cy="709.525" r="3.0" fill="red" stroke="black" stroke-width="1" />
 <line x1="160.743" y1="709.525" x2="141.816" y2="678.07" opacity="0.3" stroke="green" stroke-width="2" />
<circle cx="459.4" cy="471.741" r="3.0" fill="red" stroke="black" stroke-width="1" />
 <line x1="459.4" y1="471.741" x2="630.782" y2="490.974" opacity="0.3" stroke="green" stroke-width="2" />
<circle cx="525.78" cy="460.912" r="3.0" fill="red" stroke="black" stroke-width="1" />
 <line x1="525.78" y1="460.912" x2="522.831" y2="378.269" opacity="0.3" stroke="green" stroke-width="2" />
<circle cx="148.254" cy="575.277" r="3.0" fill="red" stroke="black" stroke-width="1" />
 <line x1="148.254" y1="575.277" x2="202.921" y2="605.126" opacity="0.3" stroke="green" stroke-width="2" />
<circle cx="141.194" cy="615.59" r="3.0" fill="red" stroke="black" stroke-width="1" />
 <line x1="141.194" y1="615.59" x2="141.816" y2="678.07" opacity="0.3" stroke="green" stroke-width="2" />
<circle cx="496.028" cy="671.559" r="3.0" fill="red" stroke="black" stroke-width="1" />
 <line x1="496.028" y1="671.559" x2="505.334" y2="668.05" opacity="0.3" stroke="green" stroke-width="2" />
<circle cx="446.206" cy="669.222" r="3.0" fill="red" stroke="black" stroke-width="1" />
 <line x1="446.206" y1="669.222" x2="416.087" y2="648.401" opacity="0.3" stroke="green" stroke-width="2" />
<circle cx="413.27" cy="233.228" r="3.0" fill="red" stroke="black" stroke-width="1" />
 <line x1="413.27" y1="233.228" x2="420.751" y2="248.894" opacity="0.3" stroke="green" stroke-width="2" />
<circle cx="44.1697" cy="329.399" r="3.0" fill="red" stroke="black" stroke-width="1" />
 <line x1="44.1697" y1="329.399" x2="259.03" y2="450.004" opacity="0.3" stroke="green" stroke-width="2" />
<circle cx="220.818" cy="80.3" r="3.0" fill="red" stroke="black" stroke-width="1" />
 <line x1="220.818" y1="80.3" x2="244.517" y2="91.1608" opacity="0.3" stroke="green" stroke-width="2" />
<circle cx="751.394" cy="701.669" r="3.0" fill="red" stroke="black" stroke-width="1" />
 <line x1="751.394" y1="701.669" x2="740.751" y2="733.874" opacity="0.3" stroke="green" stroke-width="2" />
<circle cx="28.6092" cy="61.8949" r="3.0" fill="red" stroke="black" stroke-width="1" />
 <line x1="28.6092" y1="61.8949" x2="87.2344" y2="38.4353" opacity="0.3" stroke="green" stroke-width="2" />
<circle cx="686.1" cy="297.819" r="3.0" fill="red" stroke="black" stroke-width="1" />
 <line x1="686.1" y1="297.819" x2="677.403" y2="255.92" opacity="0.3" stroke="green" stroke-width="2" />
<circle cx="344.769" cy="721.657" r="3.0" fill="red" stroke="black" stroke-width="1" />
 <line x1="344.769" y1="721.657" x2="392.267" y2="722.898" opacity="0.3" stroke="green" stroke-width="2" />
<circle cx="681.524" cy="336.107" r="3.0" fill="red" stroke="black" stroke-width="1" />
 <line x1="681.524" y1="336.107" x2="764.577" y2="369.434" opacity="0.3" stroke="green" stroke-width="2" />
<circle cx="64.0836" cy="644.514" r="3.0" fill="red" stroke="black" stroke-width="1" />
 <line x1="64.0836" y1="644.514" x2="61.2546" y2="593.523" opacity="0.3" stroke="green" stroke-width="2" />
<circle cx="29.1511" cy="735.337" r="3.0" fill="red" stroke="black" stroke-width="1" />
 <line x1="29.1511" y1="735.337" x2="27.2387" y2="726.424" opacity="0.3" stroke="green" stroke-width="2" />
<circle cx="106.259" cy="177.973" r="3.0" fill="red" stroke="black" stroke-width="1" />
 <line x1="106.259" y1="177.973" x2="109.037" y2="255.363" opacity="0.3" stroke="green" stroke-width="2" />
<circle cx="738.22" cy="352.655" r="3.0" fill="red" stroke="black" stroke-width="1" />
 <line x1="738.22" y1="352.655" x2="764.577" y2="369.434" opacity="0.3" stroke="green" stroke-width="2" />
<circle cx="117.942" cy="500.517" r="3.0" fill="red" stroke="black" stroke-width="1" />
 <line x1="117.942" y1="500.517" x2="60.7328" y2="453.512" opacity="0.3" stroke="green" stroke-width="2" />
<circle cx="295.599" cy="131.63" r="3.0" fill="red" stroke="black" stroke-width="1" />
 <line x1="295.599" y1="131.63" x2="297.471" y2="124.016" opacity="0.3" stroke="green" stroke-width="2" />
<circle cx="243.637" cy="22.3198" r="3.0" fill="red" stroke="black" stroke-width="1" />
 <line x1="243.637" y1="22.3198" x2="244.517" y2="91.1608" opacity="0.3" stroke="green" stroke-width="2" />
<circle cx="590.838" cy="667.933" r="3.0" fill="red" stroke="black" stroke-width="1" />
 <line x1="590.838" y1="667.933" x2="636.763" y2="703.11" opacity="0.3" stroke="green" stroke-width="2" />
<circle cx="597.929" cy="339.522" r="3.0" fill="red" stroke="black" stroke-width="1" />
 <line x1="597.929" y1="339.522" x2="572.246" y2="360.856" opacity="0.3" stroke="green" stroke-width="2" />
<circle cx="20.7962" cy="491.786" r="3.0" fill="red" stroke="black" stroke-width="1" />
 <line x1="20.7962" y1="491.786" x2="60.7328" y2="453.512" opacity="0.3" stroke="green" stroke-width="2" />
<circle cx="655.748" cy="14.493" r="3.0" fill="red" stroke="black" stroke-width="1" />
 <line x1="655.748" y1="14.493" x2="646.03" y2="46.6939" opacity="0.3" stroke="green" stroke-width="2" />
<circle cx="382.516" cy="7.86903" r="3.0" fill="red" stroke="black" stroke-width="1" />
 <line x1="382.516" y1="7.86903" x2="386.947" y2="43.7461" opacity="0.3" stroke="green" stroke-width="2" />
<circle cx="708.953" cy="216.753" r="3.0" fill="red" stroke="black" stroke-width="1" />
 <line x1="708.953" y1="216.753" x2="677.403" y2="255.92" opacity="0.3" stroke="green" stroke-width="2" />
<circle cx="69.0491" cy="777.418" r="3.0" fill="red" stroke="black" stroke-width="1" />
 <line x1="69.0491" y1="777.418" x2="27.2387" y2="726.424" opacity="0.3" stroke="green" stroke-width="2" />
<circle cx="127.124" cy="641.452" r="3.0" fill="red" stroke="black" stroke-width="1" />
 <line x1="127.124" y1="641.452" x2="141.816" y2="678.07" opacity="0.3" stroke="green" stroke-width="2" />
<circle cx="482.147" cy="642.542" r="3.0" fill="red" stroke="black" stroke-width="1" />
 <line x1="482.147" y1="642.542" x2="505.334" y2="668.05" opacity="0.3" stroke="green" stroke-width="2" />
<circle cx="49.9433" cy="300.45" r="3.0" fill="red" stroke="black" stroke-width="1" />
 <line x1="49.9433" y1="300.45" x2="109.037" y2="255.363" opacity="0.3" stroke="green" stroke-width="2" />
<circle cx="491.537" cy="675.69" r="3.0" fill="red" stroke="black" stroke-width="1" />
 <line x1="491.537" y1="675.69" x2="505.334" y2="668.05" opacity="0.3" stroke="green" stroke-width="2" />
<circle cx="670.368" cy="660.367" r="3.0" fill="red" stroke="black" stroke-width="1" />
 <line x1="670.368" y1="660.367" x2="636.763" y2="703.11" opacity="0.3" stroke="green" stroke-width="2" />
<circle cx="279.366" cy="22.3123" r="3.0" fill="red" stroke="black" stroke-width="1" />
 <line x1="279.366" y1="22.3123" x2="244.517" y2="91.1608" opacity="0.3" stroke="green" stroke-width="2" />
<circle cx="661.473" cy="549.386" r="3.0" fill="red" stroke="black" stroke-width="1" />
 <line x1="661.473" y1="549.386" x2="790.273" y2="641.194" opacity="0.3" stroke="green" stroke-width="2" />
<circle cx="689.345" cy="790.831" r="3.0" fill="red" stroke="black" stroke-width="1" />
 <line x1="689.345" y1="790.831" x2="740.751" y2="733.874" opacity="0.3" stroke="green" stroke-width="2" />
<circle cx="331.834" cy="493.33" r="3.0" fill="red" stroke="black" stroke-width="1" />
 <line x1="331.834" y1="493.33" x2="381.222" y2="479.079" opacity="0.3" stroke="green" stroke-width="2" />
<circle cx="75.765" cy="174.594" r="3.0" fill="red" stroke="black" stroke-width="1" />
 <line x1="75.765" y1="174.594" x2="109.037" y2="255.363" opacity="0.3" stroke="green" stroke-width="2" />
<circle cx="747.082" cy="348.718" r="3.0" fill="red" stroke="black" stroke-width="1" />
 <line x1="747.082" y1="348.718" x2="764.577" y2="369.434" opacity="0.3" stroke="green" stroke-width="2" />
<circle cx="416.815" cy="129.611" r="3.0" fill="red" stroke="black" stroke-width="1" />
 <line x1="416.815" y1="129.611" x2="374.722" y2="154.858" opacity="0.3" stroke="green" stroke-width="2" />
<circle cx="390.05" cy="438.994" r="3.0" fill="red" stroke="black" stroke-width="1" />
 <line x1="390.05" y1="438.994" x2="381.222" y2="479.079" opacity="0.3" stroke="green" stroke-width="2" />
<circle cx="264.33" cy="767.208" r="3.0" fill="red" stroke="black" stroke-width="1" />
 <line x1="264.33" y1="767.208" x2="307.215" y2="766.59" opacity="0.3" stroke="green" stroke-width="2" />
<circle cx="766.294" cy="733.038" r="3.0" fill="red" stroke="black" stroke-width="1" />
 <line x1="766.294" y1="733.038" x2="740.751" y2="733.874" opacity="0.3" stroke="green" stroke-width="2" />
<circle cx="272.376" cy="282.294" r="3.0" fill="red" stroke="black" stroke-width="1" />
 <line x1="272.376" y1="282.294" x2="288.448" y2="324.502" opacity="0.3" stroke="green" stroke-width="2" />
<circle cx="249.714" cy="119.15" r="3.0" fill="red" stroke="black" stroke-width="1" />
 <line x1="249.714" y1="119.15" x2="297.471" y2="124.016" opacity="0.3" stroke="green" stroke-width="2" />
<circle cx="550.398" cy="371.801" r="3.0" fill="red" stroke="black" stroke-width="1" />
 <line x1="550.398" y1="371.801" x2="522.831" y2="378.269" opacity="0.3" stroke="green" stroke-width="2" />
<circle cx="400.111" cy="158.317" r="3.0" fill="red" stroke="black" stroke-width="1" />
 <line x1="400.111" y1="158.317" x2="374.722" y2="154.858" opacity="0.3" stroke="green" stroke-width="2" />
<circle cx="143.75" cy="369.402" r="3.0" fill="red" stroke="black" stroke-width="1" />
 <line x1="143.75" y1="369.402" x2="85.3504" y2="381.68" opacity="0.3" stroke="green" stroke-width="2" />
<circle cx="269.577" cy="675.366" r="3.0" fill="red" stroke="black" stroke-width="1" />
 <line x1="269.577" y1="675.366" x2="315.281" y2="657.19" opacity="0.3" stroke="green" stroke-width="2" />
<circle cx="9.25248" cy="584.646" r="3.0" fill="red" stroke="black" stroke-width="1" />
 <line x1="9.25248" y1="584.646" x2="61.2546" y2="593.523" opacity="0.3" stroke="green" stroke-width="2" />
<circle cx="187.559" cy="270.422" r="3.0" fill="red" stroke="black" stroke-width="1" />
 <line x1="187.559" y1="270.422" x2="186.833" y2="302.392" opacity="0.3" stroke="green" stroke-width="2" />
<circle cx="513.068" cy="449.756" r="3.0" fill="red" stroke="black" stroke-width="1" />
 <line x1="513.068" y1="449.756" x2="522.831" y2="378.269" opacity="0.3" stroke="green" stroke-width="2" />
<circle cx="708.894" cy="229.792" r="3.0" fill="red" stroke="black" stroke-width="1" />
 <line x1="708.894" y1="229.792" x2="677.403" y2="255.92" opacity="0.3" stroke="green" stroke-width="2" />
<circle cx="20.9851" cy="609.49" r="3.0" fill="red" stroke="black" stroke-width="1" />
 <line x1="20.9851" y1="609.49" x2="27.2387" y2="726.424" opacity="0.3" stroke="green" stroke-width="2" />
<circle cx="364.641" cy="778.67" r="3.0" fill="red" stroke="black" stroke-width="1" />
 <line x1="364.641" y1="778.67" x2="307.215" y2="766.59" opacity="0.3" stroke="green" stroke-width="2" />
<circle cx="393.51" cy="537.362" r="3.0" fill="red" stroke="black" stroke-width="1" />
 <line x1="393.51" y1="537.362" x2="416.087" y2="648.401" opacity="0.3" stroke="green" stroke-width="2" />
<circle cx="176.174" cy="358.05" r="3.0" fill="red" stroke="black" stroke-width="1" />
 <line x1="176.174" y1="358.05" x2="186.833" y2="302.392" opacity="0.3" stroke="green" stroke-width="2" />
<circle cx="500.759" cy="548.706" r="3.0" fill="red" stroke="black" stroke-width="1" />
 <line x1="500.759" y1="548.706" x2="528.711" y2="565.633" opacity="0.3" stroke="green" stroke-width="2" />
<circle cx="266.66" cy="659.675" r="3.0" fill="red" stroke="black" stroke-width="1" />
 <line x1="266.66" y1="659.675" x2="315.281" y2="657.19" opacity="0.3" stroke="green" stroke-width="2" />
<circle cx="676.206" cy="242.492" r="3.0" fill="red" stroke="black" stroke-width="1" />
 <line x1="676.206" y1="242.492" x2="677.403" y2="255.92" opacity="0.3" stroke="green" stroke-width="2" />
<circle cx="38.7266" cy="616.193" r="3.0" fill="red" stroke="black" stroke-width="1" />
 <line x1="38.7266" y1="616.193" x2="61.2546" y2="593.523" opacity="0.3" stroke="green" stroke-width="2" />
<circle cx="781.523" cy="295.546" r="3.0" fill="red" stroke="black" stroke-width="1" />
 <line x1="781.523" y1="295.546" x2="764.577" y2="369.434" opacity="0.3" stroke="green" stroke-width="2" />
<circle cx="749.26" cy="167.839" r="3.0" fill="red" stroke="black" stroke-width="1" />
 <line x1="749.26" y1="167.839" x2="688.874" y2="150.612" opacity="0.3" stroke="green" stroke-width="2" />
<circle cx="59.3991" cy="585.351" r="3.0" fill="red" stroke="black" stroke-width="1" />
 <line x1="59.3991" y1="585.351" x2="61.2546" y2="593.523" opacity="0.3" stroke="green" stroke-width="2" />
<circle cx="769.618" cy="718.754" r="3.0" fill="red" stroke="black" stroke-width="1" />
 <line x1="769.618" y1="718.754" x2="790.273" y2="641.194" opacity="0.3" stroke="green" stroke-width="2" />
<circle cx="287.762" cy="99.4144" r="3.0" fill="red" stroke="black" stroke-width="1" />
 <line x1="287.762" y1="99.4144" x2="297.471" y2="124.016" opacity="0.3" stroke="green" stroke-width="2" />
<circle cx="404.28" cy="706.186" r="3.0" fill="red" stroke="black" stroke-width="1" />
 <line x1="404.28" y1="706.186" x2="416.087" y2="648.401" opacity="0.3" stroke="green" stroke-width="2" />
<circle cx="506.734" cy="363.781" r="3.0" fill="red" stroke="black" stroke-width="1" />
 <line x1="506.734" y1="363.781" x2="522.831" y2="378.269" opacity="0.3" stroke="green" stroke-width="2" />
<circle cx="352.856" cy="749.181" r="3.0" fill="red" stroke="black" stroke-width="1" />
 <line x1="352.856" y1="749.181" x2="307.215" y2="766.59" opacity="0.3" stroke="green" stroke-width="2" />
<circle cx="635.636" cy="210.068" r="3.0" fill="red" stroke="black" stroke-width="1" />
 <line x1="635.636" y1="210.068" x2="677.403" y2="255.92" opacity="0.3" stroke="green" stroke-width="2" />
<circle cx="126.586" cy="631.988" r="3.0" fill="red" stroke="black" stroke-width="1" />
 <line x1="126.586" y1="631.988" x2="141.816" y2="678.07" opacity="0.3" stroke="green" stroke-width="2" />
<circle cx="703.113" cy="464.259" r="3.0" fill="red" stroke="black" stroke-width="1" />
 <line x1="703.113" y1="464.259" x2="630.782" y2="490.974" opacity="0.3" stroke="green" stroke-width="2" />
<circle cx="481.363" cy="601.934" r="3.0" fill="red" stroke="black" stroke-width="1" />
 <line x1="481.363" y1="601.934" x2="416.087" y2="648.401" opacity="0.3" stroke="green" stroke-width="2" />
<circle cx="220.259" cy="534.956" r="3.0" fill="red" stroke="black" stroke-width="1" />
 <line x1="220.259" y1="534.956" x2="202.921" y2="605.126" opacity="0.3" stroke="green" stroke-width="2" />
<circle cx="338.422" cy="437.735" r="3.0" fill="red" stroke="black" stroke-width="1" />
 <line x1="338.422" y1="437.735" x2="381.222" y2="479.079" opacity="0.3" stroke="green" stroke-width="2" />
<circle cx="716.954" cy="373.592" r="3.0" fill="red" stroke="black" stroke-width="1" />
 <line x1="716.954" y1="373.592" x2="764.577" y2="369.434" opacity="0.3" stroke="green" stroke-width="2" />
<circle cx="572.165" cy="412.016" r="3.0" fill="red" stroke="black" stroke-width="1" />
 <line x1="572.165" y1="412.016" x2="572.246" y2="360.856" opacity="0.3" stroke="green" stroke-width="2" />
<circle cx="380.806" cy="487.069" r="3.0" fill="red" stroke="black" stroke-width="1" />
 <line x1="380.806" y1="487.069" x2="381.222" y2="479.079" opacity="0.3" stroke="green" stroke-width="2" />
<circle cx="686.87" cy="264.679" r="3.0" fill="red" stroke="black" stroke-width="1" />
 <line x1="686.87" y1="264.679" x2="677.403" y2="255.92" opacity="0.3" stroke="green" stroke-width="2" />
<circle cx="380.051" cy="742.786" r="3.0" fill="red" stroke="black" stroke-width="1" />
 <line x1="380.051" y1="742.786" x2="392.267" y2="722.898" opacity="0.3" stroke="green" stroke-width="2" />
<circle cx="99.324" cy="422.019" r="3.0" fill="red" stroke="black" stroke-width="1" />
 <line x1="99.324" y1="422.019" x2="85.3504" y2="381.68" opacity="0.3" stroke="green" stroke-width="2" />
<circle cx="788.961" cy="667.675" r="3.0" fill="red" stroke="black" stroke-width="1" />
 <line x1="788.961" y1="667.675" x2="790.273" y2="641.194" opacity="0.3" stroke="green" stroke-width="2" />
<circle cx="468.178" cy="523.694" r="3.0" fill="red" stroke="black" stroke-width="1" />
 <line x1="468.178" y1="523.694" x2="528.711" y2="565.633" opacity="0.3" stroke="green" stroke-width="2" />
<circle cx="342.813" cy="321.19" r="3.0" fill="red" stroke="black" stroke-width="1" />
 <line x1="342.813" y1="321.19" x2="288.448" y2="324.502" opacity="0.3" stroke="green" stroke-width="2" />
<circle cx="784.751" cy="27.6185" r="3.0" fill="red" stroke="black" stroke-width="1" />
 <line x1="784.751" y1="27.6185" x2="646.03" y2="46.6939" opacity="0.3" stroke="green" stroke-width="2" />
<circle cx="79.9074" cy="442.032" r="3.0" fill="red" stroke="black" stroke-width="1" />
 <line x1="79.9074" y1="442.032" x2="60.7328" y2="453.512" opacity="0.3" stroke="green" stroke-width="2" />
<circle cx="719.213" cy="735.385" r="3.0" fill="red" stroke="black" stroke-width="1" />
 <line x1="719.213" y1="735.385" x2="740.751" y2="733.874" opacity="0.3" stroke="green" stroke-width="2" />
<circle cx="375.118" cy="144.818" r="3.0" fill="red" stroke="black" stroke-width="1" />
 <line x1="375.118" y1="144.818" x2="374.722" y2="154.858" opacity="0.3" stroke="green" stroke-width="2" />
<circle cx="503.655" cy="399.393" r="3.0" fill="red" stroke="black" stroke-width="1" />
 <line x1="503.655" y1="399.393" x2="522.831" y2="378.269" opacity="0.3" stroke="green" stroke-width="2" />
<circle cx="789.574" cy="447.95" r="3.0" fill="red" stroke="black" stroke-width="1" />
 <line x1="789.574" y1="447.95" x2="764.577" y2="369.434" opacity="0.3" stroke="green" stroke-width="2" />
<circle cx="83.7296" cy="307.112" r="3.0" fill="red" stroke="black" stroke-width="1" />
 <line x1="83.7296" y1="307.112" x2="109.037" y2="255.363" opacity="0.3" stroke="green" stroke-width="2" />
<circle cx="155.116" cy="648.382" r="3.0" fill="red" stroke="black" stroke-width="1" />
 <line x1="155.116" y1="648.382" x2="141.816" y2="678.07" opacity="0.3" stroke="green" stroke-width="2" />
<circle cx="726.952" cy="155.276" r="3.0" fill="red" stroke="black" stroke-width="1" />
 <line x1="726.952" y1="155.276" x2="688.874" y2="150.612" opacity="0.3" stroke="green" stroke-width="2" />
<circle cx="190.326" cy="586.629" r="3.0" fill="red" stroke="black" stroke-width="1" />
 <line x1="190.326" y1="586.629" x2="202.921" y2="605.126" opacity="0.3" stroke="green" stroke-width="2" />
<circle cx="203.484" cy="126.041" r="3.0" fill="red" stroke="black" stroke-width="1" />
 <line x1="203.484" y1="126.041" x2="244.517" y2="91.1608" opacity="0.3" stroke="green" stroke-width="2" />
<circle cx="45.5821" cy="241.654" r="3.0" fill="red" stroke="black" stroke-width="1" />
 <line x1="45.5821" y1="241.654" x2="109.037" y2="255.363" opacity="0.3" stroke="green" stroke-width="2" />
<circle cx="676.405" cy="516.43" r="3.0" fill="red" stroke="black" stroke-width="1" />
 <line x1="676.405" y1="516.43" x2="630.782" y2="490.974" opacity="0.3" stroke="green" stroke-width="2" />
<circle cx="293.57" cy="139.455" r="3.0" fill="red" stroke="black" stroke-width="1" />
 <line x1="293.57" y1="139.455" x2="297.471" y2="124.016" opacity="0.3" stroke="green" stroke-width="2" />
<circle cx="302.51" cy="787.558" r="3.0" fill="red" stroke="black" stroke-width="1" />
 <line x1="302.51" y1="787.558" x2="307.215" y2="766.59" opacity="0.3" stroke="green" stroke-width="2" />
<circle cx="8.5388" cy="571.659" r="3.0" fill="red" stroke="black" stroke-width="1" />
 <line x1="8.5388" y1="571.659" x2="60.7328" y2="453.512" opacity="0.3" stroke="green" stroke-width="2" />
<circle cx="581.214" cy="36.7883" r="3.0" fill="red" stroke="black" stroke-width="1" />
 <line x1="581.214" y1="36.7883" x2="646.03" y2="46.6939" opacity="0.3" stroke="green" stroke-width="2" />
<circle cx="336.847" cy="38.6466" r="3.0" fill="red" stroke="black" stroke-width="1" />
 <line x1="336.847" y1="38.6466" x2="386.947" y2="43.7461" opacity="0.3" stroke="green" stroke-width="2" />
<circle cx="29.2567" cy="577.672" r="3.0" fill="red" stroke="black" stroke-width="1" />
 <line x1="29.2567" y1="577.672" x2="61.2546" y2="593.523" opacity="0.3" stroke="green" stroke-width="2" />
<circle cx="391.478" cy="631.691" r="3.0" fill="red" stroke="black" stroke-width="1" />
 <line x1="391.478" y1="631.691" x2="416.087" y2="648.401" opacity="0.3" stroke="green" stroke-width="2" />
<circle cx="612.525" cy="503.747" r="3.0" fill="red" stroke="black" stroke-width="1" />
 <line x1="612.525" y1="503.747" x2="630.782" y2="490.974" opacity="0.3" stroke="green" stroke-width="2" />
<circle cx="320.005" cy="641.497" r="3.0" fill="red" stroke="black" stroke-width="1" />
 <line x1="320.005" y1="641.497" x2="315.281" y2="657.19" opacity="0.3" stroke="green" stroke-width="2" />
<circle cx="334.141" cy="86.3608" r="3.0" fill="red" stroke="black" stroke-width="1" />
 <line x1="334.141" y1="86.3608" x2="386.947" y2="43.7461" opacity="0.3" stroke="green" stroke-width="2" />
<circle cx="431.648" cy="196.879" r="3.0" fill="red" stroke="black" stroke-width="1" />
 <line x1="431.648" y1="196.879" x2="420.751" y2="248.894" opacity="0.3" stroke="green" stroke-width="2" />
<circle cx="652.62" cy="733.367" r="3.0" fill="red" stroke="black" stroke-width="1" />
 <line x1="652.62" y1="733.367" x2="636.763" y2="703.11" opacity="0.3" stroke="green" stroke-width="2" />
<circle cx="254.959" cy="467.081" r="3.0" fill="red" stroke="black" stroke-width="1" />
 <line x1="254.959" y1="467.081" x2="259.03" y2="450.004" opacity="0.3" stroke="green" stroke-width="2" />
<circle cx="254.139" cy="524.884" r="3.0" fill="red" stroke="black" stroke-width="1" />
 <line x1="254.139" y1="524.884" x2="202.921" y2="605.126" opacity="0.3" stroke="green" stroke-width="2" />
<circle cx="101.319" cy="646.334" r="3.0" fill="red" stroke="black" stroke-width="1" />
 <line x1="101.319" y1="646.334" x2="141.816" y2="678.07" opacity="0.3" stroke="green" stroke-width="2" />
<circle cx="438.481" cy="689.123" r="3.0" fill="red" stroke="black" stroke-width="1" />
 <line x1="438.481" y1="689.123" x2="416.087" y2="648.401" opacity="0.3" stroke="green" stroke-width="2" />
<circle cx="603.618" cy="546.112" r="3.0" fill="red" stroke="black" stroke-width="1" />
 <line x1="603.618" y1="546.112" x2="604.609" y2="519.652" opacity="0.3" stroke="green" stroke-width="2" />
<circle cx="386.035" cy="131.756" r="3.0" fill="red" stroke="black" stroke-width="1" />
 <line x1="386.035" y1="131.756" x2="297.471" y2="124.016" opacity="0.3" stroke="green" stroke-width="2" />
<circle cx="11.2317" cy="659.888" r="3.0" fill="red" stroke="black" stroke-width="1" />
 <line x1="11.2317" y1="659.888" x2="27.2387" y2="726.424" opacity="0.3" stroke="green" stroke-width="2" />
<circle cx="422.983" cy="751.579" r="3.0" fill="red" stroke="black" stroke-width="1" />
 <line x1="422.983" y1="751.579" x2="392.267" y2="722.898" opacity="0.3" stroke="green" stroke-width="2" />
<circle cx="629.414" cy="532.611" r="3.0" fill="red" stroke="black" stroke-width="1" />
 <line x1="629.414" y1="532.611" x2="604.609" y2="519.652" opacity="0.3" stroke="green" stroke-width="2" />
<circle cx="267.835" cy="1.69091" r="3.0" fill="red" stroke="black" stroke-width="1" />
 <line x1="267.835" y1="1.69091" x2="244.517" y2="91.1608" opacity="0.3" stroke="green" stroke-width="2" />
<circle cx="709.641" cy="253.63" r="3.0" fill="red" stroke="black" stroke-width="1" />
 <line x1="709.641" y1="253.63" x2="677.403" y2="255.92" opacity="0.3" stroke="green" stroke-width="2" />
<circle cx="146.702" cy="792.478" r="3.0" fill="red" stroke="black" stroke-width="1" />
 <line x1="146.702" y1="792.478" x2="141.816" y2="678.07" opacity="0.3" stroke="green" stroke-width="2" />
<circle cx="180.613" cy="610.011" r="3.0" fill="red" stroke="black" stroke-width="1" />
 <line x1="180.613" y1="610.011" x2="202.921" y2="605.126" opacity="0.3" stroke="green" stroke-width="2" />
<circle cx="416.621" cy="452.362" r="3.0" fill="red" stroke="black" stroke-width="1" />
 <line x1="416.621" y1="452.362" x2="434.82" y2="417.788" opacity="0.3" stroke="green" stroke-width="2" />
<circle cx="31.4115" cy="195.665" r="3.0" fill="red" stroke="black" stroke-width="1" />
 <line x1="31.4115" y1="195.665" x2="109.037" y2="255.363" opacity="0.3" stroke="green" stroke-width="2" />
<circle cx="328.507" cy="254.435" r="3.0" fill="red" stroke="black" stroke-width="1" />
 <line x1="328.507" y1="254.435" x2="297.471" y2="124.016" opacity="0.3" stroke="green" stroke-width="2" />
<circle cx="570.627" cy="523.552" r="3.0" fill="red" stroke="black" stroke-width="1" />
 <line x1="570.627" y1="523.552" x2="604.609" y2="519.652" opacity="0.3" stroke="green" stroke-width="2" />
<circle cx="213.745" cy="760.977" r="3.0" fill="red" stroke="black" stroke-width="1" />
 <line x1="213.745" y1="760.977" x2="307.215" y2="766.59" opacity="0.3" stroke="green" stroke-width="2" />
<circle cx="505.985" cy="564.723" r="3.0" fill="red" stroke="black" stroke-width="1" />
 <line x1="505.985" y1="564.723" x2="528.711" y2="565.633" opacity="0.3" stroke="green" stroke-width="2" />
<circle cx="347.599" cy="694.178" r="3.0" fill="red" stroke="black" stroke-width="1" />
 <line x1="347.599" y1="694.178" x2="392.267" y2="722.898" opacity="0.3" stroke="green" stroke-width="2" />
<circle cx="268.36" cy="86.5304" r="3.0" fill="red" stroke="black" stroke-width="1" />
 <line x1="268.36" y1="86.5304" x2="244.517" y2="91.1608" opacity="0.3" stroke="green" stroke-width="2" />
<circle cx="203.614" cy="502.018" r="3.0" fill="red" stroke="black" stroke-width="1" />
 <line x1="203.614" y1="502.018" x2="259.03" y2="450.004" opacity="0.3" stroke="green" stroke-width="2" />
<circle cx="182.067" cy="198.236" r="3.0" fill="red" stroke="black" stroke-width="1" />
 <line x1="182.067" y1="198.236" x2="186.833" y2="302.392" opacity="0.3" stroke="green" stroke-width="2" />
<circle cx="755.015" cy="554.309" r="3.0" fill="red" stroke="black" stroke-width="1" />
 <line x1="755.015" y1="554.309" x2="790.273" y2="641.194" opacity="0.3" stroke="green" stroke-width="2" />
<circle cx="600.24" cy="303.734" r="3.0" fill="red" stroke="black" stroke-width="1" />
 <line x1="600.24" y1="303.734" x2="572.246" y2="360.856" opacity="0.3" stroke="green" stroke-width="2" />
<circle cx="285.046" cy="701.375" r="3.0" fill="red" stroke="black" stroke-width="1" />
 <line x1="285.046" y1="701.375" x2="315.281" y2="657.19" opacity="0.3" stroke="green" stroke-width="2" />
<circle cx="112.006" cy="387.578" r="3.0" fill="red" stroke="black" stroke-width="1" />
 <line x1="112.006" y1="387.578" x2="85.3504" y2="381.68" opacity="0.3" stroke="green" stroke-width="2" />
<circle cx="441.61" cy="232.349" r="3.0" fill="red" stroke="black" stroke-width="1" />
 <line x1="441.61" y1="232.349" x2="420.751" y2="248.894" opacity="0.3" stroke="green" stroke-width="2" />
<circle cx="426.513" cy="411.9" r="3.0" fill="red" stroke="black" stroke-width="1" />
 <line x1="426.513" y1="411.9" x2="434.82" y2="417.788" opacity="0.3" stroke="green" stroke-width="2" />
<circle cx="144.102" cy="328.017" r="3.0" fill="red" stroke="black" stroke-width="1" />
 <line x1="144.102" y1="328.017" x2="186.833" y2="302.392" opacity="0.3" stroke="green" stroke-width="2" />
<circle cx="127.683" cy="69.4543" r="3.0" fill="red" stroke="black" stroke-width="1" />
 <line x1="127.683" y1="69.4543" x2="87.2344" y2="38.4353" opacity="0.3" stroke="green" stroke-width="2" />
<circle cx="121.607" cy="381.255" r="3.0" fill="red" stroke="black" stroke-width="1" />
 <line x1="121.607" y1="381.255" x2="85.3504" y2="381.68" opacity="0.3" stroke="green" stroke-width="2" />
<circle cx="526.805" cy="262.374" r="3.0" fill="red" stroke="black" stroke-width="1" />
 <line x1="526.805" y1="262.374" x2="572.246" y2="360.856" opacity="0.3" stroke="green" stroke-width="2" />
<circle cx="333.424" cy="623.447" r="3.0" fill="red" stroke="black" stroke-width="1" />
 <line x1="333.424" y1="623.447" x2="315.281" y2="657.19" opacity="0.3" stroke="green" stroke-width="2" />
<circle cx="781.924" cy="466.838" r="3.0" fill="red" stroke="black" stroke-width="1" />
 <line x1="781.924" y1="466.838" x2="764.577" y2="369.434" opacity="0.3" stroke="green" stroke-width="2" />
<circle cx="406.733" cy="83.2712" r="3.0" fill="red" stroke="black" stroke-width="1" />
 <line x1="406.733" y1="83.2712" x2="386.947" y2="43.7461" opacity="0.3" stroke="green" stroke-width="2" />
<circle cx="549.178" cy="482.408" r="3.0" fill="red" stroke="black" stroke-width="1" />
 <line x1="549.178" y1="482.408" x2="604.609" y2="519.652" opacity="0.3" stroke="green" stroke-width="2" />
<circle cx="356.834" cy="191.882" r="3.0" fill="red" stroke="black" stroke-width="1" />
 <line x1="356.834" y1="191.882" x2="374.722" y2="154.858" opacity="0.3" stroke="green" stroke-width="2" />
<circle cx="260.085" cy="265.534" r="3.0" fill="red" stroke="black" stroke-width="1" />
 <line x1="260.085" y1="265.534" x2="288.448" y2="324.502" opacity="0.3" stroke="green" stroke-width="2" />
<circle cx="253.426" cy="465.045" r="3.0" fill="red" stroke="black" stroke-width="1" />
 <line x1="253.426" y1="465.045" x2="259.03" y2="450.004" opacity="0.3" stroke="green" stroke-width="2" />
<circle cx="734.403" cy="719.373" r="3.0" fill="red" stroke="black" stroke-width="1" />
 <line x1="734.403" y1="719.373" x2="740.751" y2="733.874" opacity="0.3" stroke="green" stroke-width="2" />
<circle cx="340.713" cy="492.523" r="3.0" fill="red" stroke="black" stroke-width="1" />
 <line x1="340.713" y1="492.523" x2="381.222" y2="479.079" opacity="0.3" stroke="green" stroke-width="2" />
<circle cx="42.2594" cy="689.771" r="3.0" fill="red" stroke="black" stroke-width="1" />
 <line x1="42.2594" y1="689.771" x2="27.2387" y2="726.424" opacity="0.3" stroke="green" stroke-width="2" />
<circle cx="661.53" cy="364.37" r="3.0" fill="red" stroke="black" stroke-width="1" />
 <line x1="661.53" y1="364.37" x2="572.246" y2="360.856" opacity="0.3" stroke="green" stroke-width="2" />
<circle cx="530.42" cy="700.96" r="3.0" fill="red" stroke="black" stroke-width="1" />
 <line x1="530.42" y1="700.96" x2="505.334" y2="668.05" opacity="0.3" stroke="green" stroke-width="2" />
<circle cx="392.54" cy="346.693" r="3.0" fill="red" stroke="black" stroke-width="1" />
 <line x1="392.54" y1="346.693" x2="420.751" y2="248.894" opacity="0.3" stroke="green" stroke-width="2" />
<circle cx="257.236" cy="531.37" r="3.0" fill="red" stroke="black" stroke-width="1" />
 <line x1="257.236" y1="531.37" x2="259.03" y2="450.004" opacity="0.3" stroke="green" stroke-width="2" />
<circle cx="433.786" cy="789.848" r="3.0" fill="red" stroke="black" stroke-width="1" />
 <line x1="433.786" y1="789.848" x2="392.267" y2="722.898" opacity="0.3" stroke="green" stroke-width="2" />
<circle cx="284.949" cy="454.767" r="3.0" fill="red" stroke="black" stroke-width="1" />
 <line x1="284.949" y1="454.767" x2="259.03" y2="450.004" opacity="0.3" stroke="green" stroke-width="2" />
<circle cx="636.118" cy="763.725" r="3.0" fill="red" stroke="black" stroke-width="1" />
 <line x1="636.118" y1="763.725" x2="636.763" y2="703.11" opacity="0.3" stroke="green" stroke-width="2" />
<circle cx="713.27" cy="763.327" r="3.0" fill="red" stroke="black" stroke-width="1" />
 <line x1="713.27" y1="763.327" x2="740.751" y2="733.874" opacity="0.3" stroke="green" stroke-width="2" />
<circle cx="784.962" cy="674.938" r="3.0" fill="red" stroke="black" stroke-width="1" />
 <line x1="784.962" y1="674.938" x2="790.273" y2="641.194" opacity="0.3" stroke="green" stroke-width="2" />
<circle cx="466.388" cy="380.126" r="3.0" fill="red" stroke="black" stroke-width="1" />
 <line x1="466.388" y1="380.126" x2="522.831" y2="378.269" opacity="0.3" stroke="green" stroke-width="2" />
<circle cx="371.537" cy="157.492" r="3.0" fill="red" stroke="black" stroke-width="1" />
 <line x1="371.537" y1="157.492" x2="374.722" y2="154.858" opacity="0.3" stroke="green" stroke-width="2" />
<circle cx="6.27831" cy="347.454" r="3.0" fill="red" stroke="black" stroke-width="1" />
 <line x1="6.27831" y1="347.454" x2="85.3504" y2="381.68" opacity="0.3" stroke="green" stroke-width="2" />
<circle cx="556.786" cy="596.088" r="3.0" fill="red" stroke="black" stroke-width="1" />
 <line x1="556.786" y1="596.088" x2="528.711" y2="565.633" opacity="0.3" stroke="green" stroke-width="2" />
<circle cx="774.068" cy="593.662" r="3.0" fill="red" stroke="black" stroke-width="1" />
 <line x1="774.068" y1="593.662" x2="790.273" y2="641.194" opacity="0.3" stroke="green" stroke-width="2" />
<circle cx="41.985" cy="18.9436" r="3.0" fill="red" stroke="black" stroke-width="1" />
 <line x1="41.985" y1="18.9436" x2="87.2344" y2="38.4353" opacity="0.3" stroke="green" stroke-width="2" />
<circle cx="374.532" cy="474.05" r="3.0" fill="red" stroke="black" stroke-width="1" />
 <line x1="374.532" y1="474.05" x2="381.222" y2="479.079" opacity="0.3" stroke="green" stroke-width="2" />
<circle cx="746.85" cy="761.738" r="3.0" fill="red" stroke="black" stroke-width="1" />
 <line x1="746.85" y1="761.738" x2="636.763" y2="703.11" opacity="0.3" stroke="green" stroke-width="2" />
<circle cx="229.049" cy="703.958" r="3.0" fill="red" stroke="black" stroke-width="1" />
 <line x1="229.049" y1="703.958" x2="315.281" y2="657.19" opacity="0.3" stroke="green" stroke-width="2" />
<circle cx="595.7" cy="62.0901" r="3.0" fill="red" stroke="black" stroke-width="1" />
 <line x1="595.7" y1="62.0901" x2="646.03" y2="46.6939" opacity="0.3" stroke="green" stroke-width="2" />
<circle cx="454.161" cy="279.578" r="3.0" fill="red" stroke="black" stroke-width="1" />
 <line x1="454.161" y1="279.578" x2="420.751" y2="248.894" opacity="0.3" stroke="green" stroke-width="2" />
<circle cx="690.232" cy="186.646" r="3.0" fill="red" stroke="black" stroke-width="1" />
 <line x1="690.232" y1="186.646" x2="688.874" y2="150.612" opacity="0.3" stroke="green" stroke-width="2" />
<circle cx="386.773" cy="212.658" r="3.0" fill="red" stroke="black" stroke-width="1" />
 <line x1="386.773" y1="212.658" x2="420.751" y2="248.894" opacity="0.3" stroke="green" stroke-width="2" />
<circle cx="303.267" cy="389.669" r="3.0" fill="red" stroke="black" stroke-width="1" />
 <line x1="303.267" y1="389.669" x2="288.448" y2="324.502" opacity="0.3" stroke="green" stroke-width="2" />
<circle cx="632.472" cy="781.185" r="3.0" fill="red" stroke="black" stroke-width="1" />
 <line x1="632.472" y1="781.185" x2="636.763" y2="703.11" opacity="0.3" stroke="green" stroke-width="2" />
<circle cx="545.485" cy="609.512" r="3.0" fill="red" stroke="black" stroke-width="1" />
 <line x1="545.485" y1="609.512" x2="528.711" y2="565.633" opacity="0.3" stroke="green" stroke-width="2" />
<circle cx="750.816" cy="481.255" r="3.0" fill="red" stroke="black" stroke-width="1" />
 <line x1="750.816" y1="481.255" x2="630.782" y2="490.974" opacity="0.3" stroke="green" stroke-width="2" />
<circle cx="609.922" cy="493.487" r="3.0" fill="red" stroke="black" stroke-width="1" />
 <line x1="609.922" y1="493.487" x2="604.609" y2="519.652" opacity="0.3" stroke="green" stroke-width="2" />
<circle cx="248.355" cy="382.226" r="3.0" fill="red" stroke="black" stroke-width="1" />
 <line x1="248.355" y1="382.226" x2="288.448" y2="324.502" opacity="0.3" stroke="green" stroke-width="2" />
<circle cx="16.7203" cy="487.364" r="3.0" fill="red" stroke="black" stroke-width="1" />
 <line x1="16.7203" y1="487.364" x2="60.7328" y2="453.512" opacity="0.3" stroke="green" stroke-width="2" />
<circle cx="739.439" cy="112.387" r="3.0" fill="red" stroke="black" stroke-width="1" />
 <line x1="739.439" y1="112.387" x2="688.874" y2="150.612" opacity="0.3" stroke="green" stroke-width="2" />
<circle cx="8.63696" cy="574.448" r="3.0" fill="red" stroke="black" stroke-width="1" />
 <line x1="8.63696" y1="574.448" x2="61.2546" y2="593.523" opacity="0.3" stroke="green" stroke-width="2" />
<circle cx="689.136" cy="77.2634" r="3.0" fill="red" stroke="black" stroke-width="1" />
 <line x1="689.136" y1="77.2634" x2="646.03" y2="46.6939" opacity="0.3" stroke="green" stroke-width="2" />
</svg>
