<svg xmlns="http://www.w3.org/2000/svg" version="1.1" width="800" height="800">
"<rect x="0.0" y="0.0" width="800.0" height="800.0" fill ="white" /><circle cx="367.419" cy="68.1834" r="6.0" fill ="blue" stroke="black" stroke-width="1" />
<circle cx="337.026" cy="749.776" r="6.0" fill ="blue" stroke="black" stroke-width="1" />
<circle cx="753.239" cy="797.49" r="6.0" fill ="blue" stroke="black" stroke-width="1" />
<circle cx="181.956" cy="119.445" r="6.0" fill ="blue" stroke="black" stroke-width="1" />
<circle cx="253.711" cy="320.414" r="6.0" fill ="blue" stroke="black" stroke-width="1" />
<circle cx="284.979" cy="677.782" r="6.0" fill ="blue" stroke="black" stroke-width="1" />
<circle cx="784.805" cy="349.075" r="6.0" fill ="blue" stroke="black" stroke-width="1" />
<circle cx="455.033" cy="83.608" r="6.0" fill ="blue" stroke="black" stroke-width="1" />
<circle cx="665.521" cy="550.136" r="6.0" fill ="blue" stroke="black" stroke-width="1" />
<circle cx="733.866" cy="190.446" r="6.0" fill ="blue" stroke="black" stroke-width="1" />
<circle cx="46.4879" cy="526.874" r="6.0" fill ="blue" stroke="black" stroke-width="1" />
<circle cx="68.6193" cy="721.046" r="6.0" fill ="blue" stroke="black" stroke-width="1" />
<circle cx="663.89" cy="441.902" r="6.0" fill ="blue" stroke="black" stroke-width="1" />
<circle cx="421.734" cy="258.497" r="6.0" fill ="blue" stroke="black" stroke-width="1" />
<circle cx="746.22" cy="151.706" r="6.0" fill ="blue" stroke="black" stroke-width="1" />
<circle cx="763.815" cy="763.536" r="6.0" fill ="blue" stroke="black" stroke-width="1" />
<circle cx="411.305" cy="761.935" r="3.0" fill="red" stroke="black" stroke-width="1" />
 <line x1="411.305" y1="761.935" x2="337.026" y2="749.776" opacity="0.3" stroke="green" stroke-width="2" />
<circle cx="572.774" cy="301.401" r="3.0" fill="red" stroke="black" stroke-width="1" />
 <line x1="572.774" y1="301.401" x2="421.734" y2="258.497" opacity="0.3" stroke="green" stroke-width="2" />
<circle cx="294.34" cy="694.101" r="3.0" fill="red" stroke="black" stroke-width="1" />
 <line x1="294.34" y1="694.101" x2="284.979" y2="677.782" opacity="0.3" stroke="green" stroke-width="2" />
<circle cx="724.556" cy="289.351" r="3.0" fill="red" stroke="black" stroke-width="1" />
 <line x1="724.556" y1="289.351" x2="784.805" y2="349.075" opacity="0.3" stroke="green" stroke-width="2" />
<circle cx="581.568" cy="640.561" r="3.0" fill="red" stroke="black" stroke-width="1" />
 <line x1="581.568" y1="640.561" x2="665.521" y2="550.136" opacity="0.3" stroke="green" stroke-width="2" />
<circle cx="635.221" cy="772.822" r="3.0" fill="red" stroke="black" stroke-width="1" />
 <line x1="635.221" y1="772.822" x2="753.239" y2="797.49" opacity="0.3" stroke="green" stroke-width="2" />
<circle cx="301.346" cy="729.326" r="3.0" fill="red" stroke="black" stroke-width="1" />
 <line x1="301.346" y1="729.326" x2="284.979" y2="677.782" opacity="0.3" stroke="green" stroke-width="2" />
<circle cx="589.323" cy="580.013" r="3.0" fill="red" stroke="black" stroke-width="1" />
 <line x1="589.323" y1="580.013" x2="665.521" y2="550.136" opacity="0.3" stroke="green" stroke-width="2" />
<circle cx="451.714" cy="559.815" r="3.0" fill="red" stroke="black" stroke-width="1" />
 <line x1="451.714" y1="559.815" x2="663.89" y2="441.902" opacity="0.3" stroke="green" stroke-width="2" />
<circle cx="795.006" cy="279.411" r="3.0" fill="red" stroke="black" stroke-width="1" />
 <line x1="795.006" y1="279.411" x2="733.866" y2="190.446" opacity="0.3" stroke="green" stroke-width="2" />
<circle cx="486.94" cy="311.835" r="3.0" fill="red" stroke="black" stroke-width="1" />
 <line x1="486.94" y1="311.835" x2="421.734" y2="258.497" opacity="0.3" stroke="green" stroke-width="2" />
<circle cx="789.976" cy="757.142" r="3.0" fill="red" stroke="black" stroke-width="1" />
 <line x1="789.976" y1="757.142" x2="753.239" y2="797.49" opacity="0.3" stroke="green" stroke-width="2" />
<circle cx="501.214" cy="78.8643" r="3.0" fill="red" stroke="black" stroke-width="1" />
 <line x1="501.214" y1="78.8643" x2="455.033" y2="83.608" opacity="0.3" stroke="green" stroke-width="2" />
<circle cx="261.119" cy="496.998" r="3.0" fill="red" stroke="black" stroke-width="1" />
 <line x1="261.119" y1="496.998" x2="46.4879" y2="526.874" opacity="0.3" stroke="green" stroke-width="2" />
<circle cx="769.916" cy="159.226" r="3.0" fill="red" stroke="black" stroke-width="1" />
 <line x1="769.916" y1="159.226" x2="746.22" y2="151.706" opacity="0.3" stroke="green" stroke-width="2" />
<circle cx="216.802" cy="658.633" r="3.0" fill="red" stroke="black" stroke-width="1" />
 <line x1="216.802" y1="658.633" x2="284.979" y2="677.782" opacity="0.3" stroke="green" stroke-width="2" />
<circle cx="723.825" cy="762.46" r="3.0" fill="red" stroke="black" stroke-width="1" />
 <line x1="723.825" y1="762.46" x2="763.815" y2="763.536" opacity="0.3" stroke="green" stroke-width="2" />
<circle cx="798.861" cy="734.355" r="3.0" fill="red" stroke="black" stroke-width="1" />
 <line x1="798.861" y1="734.355" x2="763.815" y2="763.536" opacity="0.3" stroke="green" stroke-width="2" />
<circle cx="92.8304" cy="62.2951" r="3.0" fill="red" stroke="black" stroke-width="1" />
 <line x1="92.8304" y1="62.2951" x2="181.956" y2="119.445" opacity="0.3" stroke="green" stroke-width="2" />
<circle cx="268.25" cy="785.565" r="3.0" fill="red" stroke="black" stroke-width="1" />
 <line x1="268.25" y1="785.565" x2="337.026" y2="749.776" opacity="0.3" stroke="green" stroke-width="2" />
<circle cx="615.738" cy="347.31" r="3.0" fill="red" stroke="black" stroke-width="1" />
 <line x1="615.738" y1="347.31" x2="367.419" y2="68.1834" opacity="0.3" stroke="green" stroke-width="2" />
<circle cx="740.754" cy="447.558" r="3.0" fill="red" stroke="black" stroke-width="1" />
 <line x1="740.754" y1="447.558" x2="663.89" y2="441.902" opacity="0.3" stroke="green" stroke-width="2" />
<circle cx="694.691" cy="720.509" r="3.0" fill="red" stroke="black" stroke-width="1" />
 <line x1="694.691" y1="720.509" x2="763.815" y2="763.536" opacity="0.3" stroke="green" stroke-width="2" />
<circle cx="721.029" cy="465.722" r="3.0" fill="red" stroke="black" stroke-width="1" />
 <line x1="721.029" y1="465.722" x2="665.521" y2="550.136" opacity="0.3" stroke="green" stroke-width="2" />
<circle cx="728.637" cy="486.402" r="3.0" fill="red" stroke="black" stroke-width="1" />
 <line x1="728.637" y1="486.402" x2="784.805" y2="349.075" opacity="0.3" stroke="green" stroke-width="2" />
<circle cx="790.195" cy="555.623" r="3.0" fill="red" stroke="black" stroke-width="1" />
 <line x1="790.195" y1="555.623" x2="665.521" y2="550.136" opacity="0.3" stroke="green" stroke-width="2" />
<circle cx="260.321" cy="486.606" r="3.0" fill="red" stroke="black" stroke-width="1" />
 <line x1="260.321" y1="486.606" x2="253.711" y2="320.414" opacity="0.3" stroke="green" stroke-width="2" />
<circle cx="106.366" cy="21.4456" r="3.0" fill="red" stroke="black" stroke-width="1" />
 <line x1="106.366" y1="21.4456" x2="181.956" y2="119.445" opacity="0.3" stroke="green" stroke-width="2" />
<circle cx="391.656" cy="533.903" r="3.0" fill="red" stroke="black" stroke-width="1" />
 <line x1="391.656" y1="533.903" x2="284.979" y2="677.782" opacity="0.3" stroke="green" stroke-width="2" />
<circle cx="415.304" cy="553.342" r="3.0" fill="red" stroke="black" stroke-width="1" />
 <line x1="415.304" y1="553.342" x2="665.521" y2="550.136" opacity="0.3" stroke="green" stroke-width="2" />
<circle cx="694.111" cy="126.827" r="3.0" fill="red" stroke="black" stroke-width="1" />
 <line x1="694.111" y1="126.827" x2="733.866" y2="190.446" opacity="0.3" stroke="green" stroke-width="2" />
<circle cx="305.293" cy="176.076" r="3.0" fill="red" stroke="black" stroke-width="1" />
 <line x1="305.293" y1="176.076" x2="367.419" y2="68.1834" opacity="0.3" stroke="green" stroke-width="2" />
<circle cx="524.142" cy="302.683" r="3.0" fill="red" stroke="black" stroke-width="1" />
 <line x1="524.142" y1="302.683" x2="784.805" y2="349.075" opacity="0.3" stroke="green" stroke-width="2" />
<circle cx="715.915" cy="130.523" r="3.0" fill="red" stroke="black" stroke-width="1" />
 <line x1="715.915" y1="130.523" x2="733.866" y2="190.446" opacity="0.3" stroke="green" stroke-width="2" />
<circle cx="103.212" cy="656.664" r="3.0" fill="red" stroke="black" stroke-width="1" />
 <line x1="103.212" y1="656.664" x2="68.6193" y2="721.046" opacity="0.3" stroke="green" stroke-width="2" />
<circle cx="478.747" cy="712.798" r="3.0" fill="red" stroke="black" stroke-width="1" />
 <line x1="478.747" y1="712.798" x2="753.239" y2="797.49" opacity="0.3" stroke="green" stroke-width="2" />
<circle cx="277.362" cy="114.94" r="3.0" fill="red" stroke="black" stroke-width="1" />
 <line x1="277.362" y1="114.94" x2="367.419" y2="68.1834" opacity="0.3" stroke="green" stroke-width="2" />
<circle cx="187.339" cy="428.501" r="3.0" fill="red" stroke="black" stroke-width="1" />
 <line x1="187.339" y1="428.501" x2="253.711" y2="320.414" opacity="0.3" stroke="green" stroke-width="2" />
<circle cx="496.521" cy="700.03" r="3.0" fill="red" stroke="black" stroke-width="1" />
 <line x1="496.521" y1="700.03" x2="665.521" y2="550.136" opacity="0.3" stroke="green" stroke-width="2" />
<circle cx="100.326" cy="713.834" r="3.0" fill="red" stroke="black" stroke-width="1" />
 <line x1="100.326" y1="713.834" x2="68.6193" y2="721.046" opacity="0.3" stroke="green" stroke-width="2" />
<circle cx="198.818" cy="605.142" r="3.0" fill="red" stroke="black" stroke-width="1" />
 <line x1="198.818" y1="605.142" x2="284.979" y2="677.782" opacity="0.3" stroke="green" stroke-width="2" />
<circle cx="603.526" cy="377.873" r="3.0" fill="red" stroke="black" stroke-width="1" />
 <line x1="603.526" y1="377.873" x2="663.89" y2="441.902" opacity="0.3" stroke="green" stroke-width="2" />
<circle cx="41.0822" cy="799.265" r="3.0" fill="red" stroke="black" stroke-width="1" />
 <line x1="41.0822" y1="799.265" x2="68.6193" y2="721.046" opacity="0.3" stroke="green" stroke-width="2" />
<circle cx="574.45" cy="726.633" r="3.0" fill="red" stroke="black" stroke-width="1" />
 <line x1="574.45" y1="726.633" x2="753.239" y2="797.49" opacity="0.3" stroke="green" stroke-width="2" />
<circle cx="105.623" cy="704.809" r="3.0" fill="red" stroke="black" stroke-width="1" />
 <line x1="105.623" y1="704.809" x2="68.6193" y2="721.046" opacity="0.3" stroke="green" stroke-width="2" />
<circle cx="795.833" cy="788.755" r="3.0" fill="red" stroke="black" stroke-width="1" />
 <line x1="795.833" y1="788.755" x2="753.239" y2="797.49" opacity="0.3" stroke="green" stroke-width="2" />
<circle cx="425.73" cy="445.679" r="3.0" fill="red" stroke="black" stroke-width="1" />
 <line x1="425.73" y1="445.679" x2="421.734" y2="258.497" opacity="0.3" stroke="green" stroke-width="2" />
<circle cx="396.747" cy="14.9071" r="3.0" fill="red" stroke="black" stroke-width="1" />
 <line x1="396.747" y1="14.9071" x2="367.419" y2="68.1834" opacity="0.3" stroke="green" stroke-width="2" />
<circle cx="337.914" cy="791.003" r="3.0" fill="red" stroke="black" stroke-width="1" />
 <line x1="337.914" y1="791.003" x2="284.979" y2="677.782" opacity="0.3" stroke="green" stroke-width="2" />
<circle cx="764.855" cy="112.894" r="3.0" fill="red" stroke="black" stroke-width="1" />
 <line x1="764.855" y1="112.894" x2="746.22" y2="151.706" opacity="0.3" stroke="green" stroke-width="2" />
<circle cx="556.482" cy="110.454" r="3.0" fill="red" stroke="black" stroke-width="1" />
 <line x1="556.482" y1="110.454" x2="455.033" y2="83.608" opacity="0.3" stroke="green" stroke-width="2" />
<circle cx="146.797" cy="384.77" r="3.0" fill="red" stroke="black" stroke-width="1" />
 <line x1="146.797" y1="384.77" x2="46.4879" y2="526.874" opacity="0.3" stroke="green" stroke-width="2" />
<circle cx="66.2704" cy="186.096" r="3.0" fill="red" stroke="black" stroke-width="1" />
 <line x1="66.2704" y1="186.096" x2="181.956" y2="119.445" opacity="0.3" stroke="green" stroke-width="2" />
<circle cx="669.311" cy="614.409" r="3.0" fill="red" stroke="black" stroke-width="1" />
 <line x1="669.311" y1="614.409" x2="665.521" y2="550.136" opacity="0.3" stroke="green" stroke-width="2" />
<circle cx="644.984" cy="57.5186" r="3.0" fill="red" stroke="black" stroke-width="1" />
 <line x1="644.984" y1="57.5186" x2="746.22" y2="151.706" opacity="0.3" stroke="green" stroke-width="2" />
<circle cx="609.603" cy="158.77" r="3.0" fill="red" stroke="black" stroke-width="1" />
 <line x1="609.603" y1="158.77" x2="746.22" y2="151.706" opacity="0.3" stroke="green" stroke-width="2" />
<circle cx="425.335" cy="375.737" r="3.0" fill="red" stroke="black" stroke-width="1" />
 <line x1="425.335" y1="375.737" x2="421.734" y2="258.497" opacity="0.3" stroke="green" stroke-width="2" />
<circle cx="177.215" cy="529.943" r="3.0" fill="red" stroke="black" stroke-width="1" />
 <line x1="177.215" y1="529.943" x2="46.4879" y2="526.874" opacity="0.3" stroke="green" stroke-width="2" />
<circle cx="446.658" cy="351.226" r="3.0" fill="red" stroke="black" stroke-width="1" />
 <line x1="446.658" y1="351.226" x2="421.734" y2="258.497" opacity="0.3" stroke="green" stroke-width="2" />
<circle cx="239.542" cy="146.457" r="3.0" fill="red" stroke="black" stroke-width="1" />
 <line x1="239.542" y1="146.457" x2="455.033" y2="83.608" opacity="0.3" stroke="green" stroke-width="2" />
<circle cx="617.727" cy="60.7865" r="3.0" fill="red" stroke="black" stroke-width="1" />
 <line x1="617.727" y1="60.7865" x2="337.026" y2="749.776" opacity="0.3" stroke="green" stroke-width="2" />
<circle cx="112.592" cy="794.029" r="3.0" fill="red" stroke="black" stroke-width="1" />
 <line x1="112.592" y1="794.029" x2="68.6193" y2="721.046" opacity="0.3" stroke="green" stroke-width="2" />
<circle cx="58.698" cy="250.098" r="3.0" fill="red" stroke="black" stroke-width="1" />
 <line x1="58.698" y1="250.098" x2="181.956" y2="119.445" opacity="0.3" stroke="green" stroke-width="2" />
<circle cx="50.4219" cy="53.336" r="3.0" fill="red" stroke="black" stroke-width="1" />
 <line x1="50.4219" y1="53.336" x2="181.956" y2="119.445" opacity="0.3" stroke="green" stroke-width="2" />
<circle cx="680.092" cy="124.595" r="3.0" fill="red" stroke="black" stroke-width="1" />
 <line x1="680.092" y1="124.595" x2="746.22" y2="151.706" opacity="0.3" stroke="green" stroke-width="2" />
<circle cx="402.29" cy="18.3203" r="3.0" fill="red" stroke="black" stroke-width="1" />
 <line x1="402.29" y1="18.3203" x2="367.419" y2="68.1834" opacity="0.3" stroke="green" stroke-width="2" />
<circle cx="740.793" cy="528.734" r="3.0" fill="red" stroke="black" stroke-width="1" />
 <line x1="740.793" y1="528.734" x2="663.89" y2="441.902" opacity="0.3" stroke="green" stroke-width="2" />
<circle cx="10.2444" cy="185.958" r="3.0" fill="red" stroke="black" stroke-width="1" />
 <line x1="10.2444" y1="185.958" x2="181.956" y2="119.445" opacity="0.3" stroke="green" stroke-width="2" />
<circle cx="455.549" cy="665.654" r="3.0" fill="red" stroke="black" stroke-width="1" />
 <line x1="455.549" y1="665.654" x2="337.026" y2="749.776" opacity="0.3" stroke="green" stroke-width="2" />
<circle cx="414.559" cy="344.654" r="3.0" fill="red" stroke="black" stroke-width="1" />
 <line x1="414.559" y1="344.654" x2="253.711" y2="320.414" opacity="0.3" stroke="green" stroke-width="2" />
<circle cx="578.747" cy="87.5712" r="3.0" fill="red" stroke="black" stroke-width="1" />
 <line x1="578.747" y1="87.5712" x2="455.033" y2="83.608" opacity="0.3" stroke="green" stroke-width="2" />
<circle cx="629.649" cy="7.5221" r="3.0" fill="red" stroke="black" stroke-width="1" />
 <line x1="629.649" y1="7.5221" x2="337.026" y2="749.776" opacity="0.3" stroke="green" stroke-width="2" />
<circle cx="442.218" cy="446.32" r="3.0" fill="red" stroke="black" stroke-width="1" />
 <line x1="442.218" y1="446.32" x2="253.711" y2="320.414" opacity="0.3" stroke="green" stroke-width="2" />
<circle cx="595.412" cy="68.5312" r="3.0" fill="red" stroke="black" stroke-width="1" />
 <line x1="595.412" y1="68.5312" x2="455.033" y2="83.608" opacity="0.3" stroke="green" stroke-width="2" />
<circle cx="640.066" cy="743.47" r="3.0" fill="red" stroke="black" stroke-width="1" />
 <line x1="640.066" y1="743.47" x2="753.239" y2="797.49" opacity="0.3" stroke="green" stroke-width="2" />
<circle cx="650.138" cy="43.9007" r="3.0" fill="red" stroke="black" stroke-width="1" />
 <line x1="650.138" y1="43.9007" x2="455.033" y2="83.608" opacity="0.3" stroke="green" stroke-width="2" />
<circle cx="243.864" cy="717.678" r="3.0" fill="red" stroke="black" stroke-width="1" />
 <line x1="243.864" y1="717.678" x2="284.979" y2="677.782" opacity="0.3" stroke="green" stroke-width="2" />
<circle cx="304.825" cy="562.611" r="3.0" fill="red" stroke="black" stroke-width="1" />
 <line x1="304.825" y1="562.611" x2="46.4879" y2="526.874" opacity="0.3" stroke="green" stroke-width="2" />
<circle cx="431.524" cy="363.854" r="3.0" fill="red" stroke="black" stroke-width="1" />
 <line x1="431.524" y1="363.854" x2="421.734" y2="258.497" opacity="0.3" stroke="green" stroke-width="2" />
<circle cx="381.735" cy="334.129" r="3.0" fill="red" stroke="black" stroke-width="1" />
 <line x1="381.735" y1="334.129" x2="421.734" y2="258.497" opacity="0.3" stroke="green" stroke-width="2" />
<circle cx="617.23" cy="713.288" r="3.0" fill="red" stroke="black" stroke-width="1" />
 <line x1="617.23" y1="713.288" x2="763.815" y2="763.536" opacity="0.3" stroke="green" stroke-width="2" />
<circle cx="756.746" cy="210.81" r="3.0" fill="red" stroke="black" stroke-width="1" />
 <line x1="756.746" y1="210.81" x2="733.866" y2="190.446" opacity="0.3" stroke="green" stroke-width="2" />
<circle cx="751.445" cy="472.686" r="3.0" fill="red" stroke="black" stroke-width="1" />
 <line x1="751.445" y1="472.686" x2="784.805" y2="349.075" opacity="0.3" stroke="green" stroke-width="2" />
<circle cx="37.4571" cy="103.242" r="3.0" fill="red" stroke="black" stroke-width="1" />
 <line x1="37.4571" y1="103.242" x2="367.419" y2="68.1834" opacity="0.3" stroke="green" stroke-width="2" />
<circle cx="121.42" cy="413.504" r="3.0" fill="red" stroke="black" stroke-width="1" />
 <line x1="121.42" y1="413.504" x2="46.4879" y2="526.874" opacity="0.3" stroke="green" stroke-width="2" />
<circle cx="426.042" cy="592.726" r="3.0" fill="red" stroke="black" stroke-width="1" />
 <line x1="426.042" y1="592.726" x2="68.6193" y2="721.046" opacity="0.3" stroke="green" stroke-width="2" />
<circle cx="82.7584" cy="43.4738" r="3.0" fill="red" stroke="black" stroke-width="1" />
 <line x1="82.7584" y1="43.4738" x2="181.956" y2="119.445" opacity="0.3" stroke="green" stroke-width="2" />
<circle cx="358.838" cy="665.196" r="3.0" fill="red" stroke="black" stroke-width="1" />
 <line x1="358.838" y1="665.196" x2="284.979" y2="677.782" opacity="0.3" stroke="green" stroke-width="2" />
<circle cx="582.514" cy="320.878" r="3.0" fill="red" stroke="black" stroke-width="1" />
 <line x1="582.514" y1="320.878" x2="663.89" y2="441.902" opacity="0.3" stroke="green" stroke-width="2" />
<circle cx="246.431" cy="750.973" r="3.0" fill="red" stroke="black" stroke-width="1" />
 <line x1="246.431" y1="750.973" x2="337.026" y2="749.776" opacity="0.3" stroke="green" stroke-width="2" />
<circle cx="713.63" cy="599.009" r="3.0" fill="red" stroke="black" stroke-width="1" />
 <line x1="713.63" y1="599.009" x2="753.239" y2="797.49" opacity="0.3" stroke="green" stroke-width="2" />
<circle cx="720.798" cy="137.807" r="3.0" fill="red" stroke="black" stroke-width="1" />
 <line x1="720.798" y1="137.807" x2="746.22" y2="151.706" opacity="0.3" stroke="green" stroke-width="2" />
<circle cx="291.606" cy="492.944" r="3.0" fill="red" stroke="black" stroke-width="1" />
 <line x1="291.606" y1="492.944" x2="253.711" y2="320.414" opacity="0.3" stroke="green" stroke-width="2" />
<circle cx="112.146" cy="344.265" r="3.0" fill="red" stroke="black" stroke-width="1" />
 <line x1="112.146" y1="344.265" x2="46.4879" y2="526.874" opacity="0.3" stroke="green" stroke-width="2" />
<circle cx="650.906" cy="373.784" r="3.0" fill="red" stroke="black" stroke-width="1" />
 <line x1="650.906" y1="373.784" x2="784.805" y2="349.075" opacity="0.3" stroke="green" stroke-width="2" />
<circle cx="651.502" cy="641.771" r="3.0" fill="red" stroke="black" stroke-width="1" />
 <line x1="651.502" y1="641.771" x2="763.815" y2="763.536" opacity="0.3" stroke="green" stroke-width="2" />
</svg>
